<?xml version="1.0" encoding="utf-8"?>
<!-- Generator: Adobe Illustrator 18.1.0, SVG Export Plug-In . SVG Version: 6.00 Build 0)  -->
<!DOCTYPE svg PUBLIC "-//W3C//DTD SVG 1.1//EN" "http://www.w3.org/Graphics/SVG/1.1/DTD/svg11.dtd">
<svg version="1.1" id="Layer_1" xmlns="http://www.w3.org/2000/svg" xmlns:xlink="http://www.w3.org/1999/xlink" x="0px" y="0px"
	 width="1600px" height="2000px" viewBox="780 -980 1600 2000" enable-background="new 780 -980 1600 2000" xml:space="preserve">
<g>
	<g id="pic-bird-1">
		<path fill="#FAFAFA" d="M857.7,175.5c6.3,0.2,12.6-2.6,16.6-7.3c3.8-4.4,7.6-8.7,11.7-12.8c-1.5,0.2-2.8-0.8-4-1.8
			c-10.7-9-18.1-21.9-20.6-35.7c-0.6-3.5-0.3-8.2,3.1-9.3c1.9-0.6,3.9,0.2,5.7,1c2.2,1,4.4,1.9,6.6,2.9c0.3-2.6-0.3-5.2-0.5-7.8
			c-0.2-2.6-0.1-5.4,1.5-7.5c1.6-2.1,4.9-2.9,6.8-1.2c1,0.9,1.4,2.3,1.8,3.7c0.4,1.4,0.9,2.8,2.1,3.5c1.2,0.8,3.1,0.3,3.4-1.1
			c0.4-2.1,0.8-4.2,1.2-6.3c0.4-2,0.8-4.1,2-5.8c1.2-1.6,3.6-2.6,5.4-1.7c1.9,1,2.4,3.5,2.6,5.6c0.9,8.2,1.9,16.3,2.9,24.5
			c0.2,1.3,0.3,2.6,1.1,3.7c0.7,1.1,2.2,1.8,3.3,1.2c3.8-1.9,7.9-3.5,12.2-3.6c5.5-0.2,10.9,1.9,16.2,3.2c5.4,1.3,11.5,1.7,16-1.6
			c1.5-1.1,3.7,0.7,3.6,2.5c-0.1,1.8-1.5,3.3-3.1,4.3c-1.5,1-3.2,1.8-4.4,3.2c-1.5,1.8-1.6,4.3-2,6.6c-0.8,5.2-2.9,10.1-5.9,14.3
			c-1.1,1.5,0.9,3.5,2.6,4.2c7.7,3.5,16.2,5.3,24.7,5.3c2.5,0,5.3-0.1,7.3,1.5c2,1.6,1.9,5.6-0.6,6c-3.8,0.6-7.5,2.1-10.7,4.1
			c2,1.9,5,2.2,7.5,3.5c2.5,1.3,4.3,4.8,2.3,6.7c-0.8,0.8-2.1,0.9-3.2,1.1c-3,0.4-6,0.8-9,1.2c1.1,3.1,5.2,4,7.3,6.6
			c3,3.7,0.5,9.7-3.8,11.9c-4.3,2.2-9.3,1.5-13.9,0.2c-15-3.9-28.7-12.6-38.6-24.4c-2.2-2.6-5-5.7-8.3-4.9
			c-5.9,1.5-12.3,1.4-18.1-0.4c-2.3-0.7-4.6,1.3-6.5,2.8c-6.7,5.6-16.1,7.7-24.5,5.5"/>
		<path fill="none" stroke="#DEDEDE" stroke-width="3" stroke-linecap="round" stroke-linejoin="round" stroke-miterlimit="10" d="
			M857.7,175.5c6.3,0.2,12.6-2.6,16.6-7.3c3.8-4.4,7.6-8.7,11.7-12.8c-1.5,0.2-2.8-0.8-4-1.8c-10.7-9-18.1-21.9-20.6-35.7
			c-0.6-3.5-0.3-8.2,3.1-9.3c1.9-0.6,3.9,0.2,5.7,1c2.2,1,4.4,1.9,6.6,2.9c0.3-2.6-0.3-5.2-0.5-7.8c-0.2-2.6-0.1-5.4,1.5-7.5
			c1.6-2.1,4.9-2.9,6.8-1.2c1,0.9,1.4,2.3,1.8,3.7c0.4,1.4,0.9,2.8,2.1,3.5c1.2,0.8,3.1,0.3,3.4-1.1c0.4-2.1,0.8-4.2,1.2-6.3
			c0.4-2,0.8-4.1,2-5.8c1.2-1.6,3.6-2.6,5.4-1.7c1.9,1,2.4,3.5,2.6,5.6c0.9,8.2,1.9,16.3,2.9,24.5c0.2,1.3,0.3,2.6,1.1,3.7
			c0.7,1.1,2.2,1.8,3.3,1.2c3.8-1.9,7.9-3.5,12.2-3.6c5.5-0.2,10.9,1.9,16.2,3.2c5.4,1.3,11.5,1.7,16-1.6c1.5-1.1,3.7,0.7,3.6,2.5
			c-0.1,1.8-1.5,3.3-3.1,4.3c-1.5,1-3.2,1.8-4.4,3.2c-1.5,1.8-1.6,4.3-2,6.6c-0.8,5.2-2.9,10.1-5.9,14.3c-1.1,1.5,0.9,3.5,2.6,4.2
			c7.7,3.5,16.2,5.3,24.7,5.3c2.5,0,5.3-0.1,7.3,1.5c2,1.6,1.9,5.6-0.6,6c-3.8,0.6-7.5,2.1-10.7,4.1c2,1.9,5,2.2,7.5,3.5
			c2.5,1.3,4.3,4.8,2.3,6.7c-0.8,0.8-2.1,0.9-3.2,1.1c-3,0.4-6,0.8-9,1.2c1.1,3.1,5.2,4,7.3,6.6c3,3.7,0.5,9.7-3.8,11.9
			c-4.3,2.2-9.3,1.5-13.9,0.2c-15-3.9-28.7-12.6-38.6-24.4c-2.2-2.6-5-5.7-8.3-4.9c-5.9,1.5-12.3,1.4-18.1-0.4
			c-2.3-0.7-4.6,1.3-6.5,2.8c-6.7,5.6-16.1,7.7-24.5,5.5"/>
		<circle fill="#DEDEDE" cx="935.1" cy="130.7" r="1.9"/>
		<path fill="none" stroke="#DEDEDE" stroke-width="3" stroke-linecap="round" stroke-linejoin="round" stroke-miterlimit="10" d="
			M914.1,121.9c-20.1,6.9-20.8,29.9-33,38.7"/>
		<path fill="none" stroke="#DEDEDE" stroke-width="3" stroke-linecap="round" stroke-linejoin="round" stroke-miterlimit="10" d="
			M945.8,148.4c-2.8,5.3-25,28-46.3,28"/>
	</g>
</g>
<g>
	<g id="pic-bird-2">
		<path fill="#FAFAFA" d="M877,257.6c-1.8,0.4-3,2.2-3.9,3.8c-2.3,4.1-4.7,8.2-7,12.3c-0.3,0.5-0.5,1-0.5,1.5
			c0.1,0.5,0.5,0.9,0.9,1.3c9,7.6,20.1,12.6,31.8,14.3c2.2,0.3,3.3,3.2,2.3,5.2c-0.9,2-3.2,3.1-5.4,3.2c-2.2,0.1-4.3-0.5-6.5-0.9
			c0.7,2.1,2.8,3.3,4.5,4.8c1.7,1.4,3.1,3.8,2.1,5.8c-0.8,1.5-2.6,2-4.2,2.1c-3,0.1-6-1.1-8.2-3.1c-1.1-1-2.8-2.2-3.7-1.1
			c1.5,2.9,3.2,5.8,5.3,8.3c1.7,2.1-0.1,5.5-2.7,6.3c-2.6,0.8-5.3-0.1-7.8-1.3c-10.3-4.7-19.1-12.6-24.9-22.4
			c-0.7-1.2-1.4-2.3-2.4-3.2c-1.1-0.8-2.6-1.2-3.8-0.5c-9.4,5.6-21.9,4.1-31.1-1.8s-15.6-15.3-19.9-25.4c-1.2-2.8,1-5.7,3-7.9
			c1.1-1.2,3-2.5,4.2-1.4c3,2.8,6,5.6,9.6,7.6c3.6,2,7.8,3.2,11.7,2.5c0.9-0.2,2.1-1.1,1.5-1.8c-10.2-12.4-17.3-27.5-20.3-43.4
			c-0.4-2.1,2.3-3.8,4.4-3.2c2.1,0.6,3.5,2.5,4.6,4.3c1.1,1.8,2.3,3.9,4.2,4.9c0.7-2.3,0-4.8-0.5-7.1s-0.7-5,0.7-7
			c1.4-1.9,5-2.2,5.9,0c1.6,3.9,3.2,7.8,4.7,11.7c0.7-2.5,1.4-4.9,2.2-7.3c0.6-1.9,1.2-4,2.9-5.1c1.6-1.1,4.5-0.4,4.6,1.6
			c0.4,8.5,1.5,17,3.3,25.2c0.2,1.1,0.5,2.3,1.4,3.1c0.8,0.8,2.3,1,3.1,0.1c3.6-4.5,8.9-7.7,14.7-7.9s11.6,2.6,14.4,7.6
			c0.8,1.5,1.4,3.1,2.5,4.2c2.1,2.2,5.4,2.4,8.3,2.9c1.4,0.2,3.1,1.1,2.9,2.5c-0.1,0.9-1,1.4-1.8,1.8C882,256.2,879.5,257,877,257.6
			"/>
		<path fill="none" stroke="#DEDEDE" stroke-width="3" stroke-linecap="round" stroke-linejoin="round" stroke-miterlimit="10" d="
			M877,257.6c-1.8,0.4-3,2.2-3.9,3.8c-2.3,4.1-4.7,8.2-7,12.3c-0.3,0.5-0.5,1-0.5,1.5c0.1,0.5,0.5,0.9,0.9,1.3
			c9,7.6,20.1,12.6,31.8,14.3c2.2,0.3,3.3,3.2,2.3,5.2c-0.9,2-3.2,3.1-5.4,3.2c-2.2,0.1-4.3-0.5-6.5-0.9c0.7,2.1,2.8,3.3,4.5,4.8
			c1.7,1.4,3.1,3.8,2.1,5.8c-0.8,1.5-2.6,2-4.2,2.1c-3,0.1-6-1.1-8.2-3.1c-1.1-1-2.8-2.2-3.7-1.1c1.5,2.9,3.2,5.8,5.3,8.3
			c1.7,2.1-0.1,5.5-2.7,6.3c-2.6,0.8-5.3-0.1-7.8-1.3c-10.3-4.7-19.1-12.6-24.9-22.4c-0.7-1.2-1.4-2.3-2.4-3.2
			c-1.1-0.8-2.6-1.2-3.8-0.5c-9.4,5.6-21.9,4.1-31.1-1.8s-15.6-15.3-19.9-25.4c-1.2-2.8,1-5.7,3-7.9c1.1-1.2,3-2.5,4.2-1.4
			c3,2.8,6,5.6,9.6,7.6c3.6,2,7.8,3.2,11.7,2.5c0.9-0.2,2.1-1.1,1.5-1.8c-10.2-12.4-17.3-27.5-20.3-43.4c-0.4-2.1,2.3-3.8,4.4-3.2
			c2.1,0.6,3.5,2.5,4.6,4.3c1.1,1.8,2.3,3.9,4.2,4.9c0.7-2.3,0-4.8-0.5-7.1s-0.7-5,0.7-7c1.4-1.9,5-2.2,5.9,0
			c1.6,3.9,3.2,7.8,4.7,11.7c0.7-2.5,1.4-4.9,2.2-7.3c0.6-1.9,1.2-4,2.9-5.1c1.6-1.1,4.5-0.4,4.6,1.6c0.4,8.5,1.5,17,3.3,25.2
			c0.2,1.1,0.5,2.3,1.4,3.1c0.8,0.8,2.3,1,3.1,0.1c3.6-4.5,8.9-7.7,14.7-7.9s11.6,2.6,14.4,7.6c0.8,1.5,1.4,3.1,2.5,4.2
			c2.1,2.2,5.4,2.4,8.3,2.9c1.4,0.2,3.1,1.1,2.9,2.5c-0.1,0.9-1,1.4-1.8,1.8C882,256.2,879.5,257,877,257.6"/>
		<circle fill="#DEDEDE" cx="863.9" cy="245.5" r="1.9"/>
		<path fill="none" stroke="#DEDEDE" stroke-width="3" stroke-linecap="round" stroke-linejoin="round" stroke-miterlimit="10" d="
			M845.5,241.1c-5.2,5.1-17.1,30.6-30.5,26.4"/>
		<path fill="none" stroke="#DEDEDE" stroke-width="3" stroke-linecap="round" stroke-linejoin="round" stroke-miterlimit="10" d="
			M868.1,270.2c-3.1,5.1-24.1,26.5-33.3,26.7"/>
	</g>
</g>
<g>
	<g id="pic-bird-3_1_">
		<path fill="#FAFAFA" d="M877.7,14c0.4,1.4-0.8,2.6-1.9,3.5c-3.3,2.5-7,4.2-11,5.2c-1.6,0.4-1.3,2.9,0,3.9c1.3,1,3.1,1.3,4.3,2.3
			c2.2,1.9,1.6,5.6-0.4,7.7c-2,2.1-5,2.8-7.8,3.3c-8.4,1.4-17.6,1.1-24.7-3.6c-0.9-0.6-2.3-1.2-3-0.3c-4.1,6.5-11.9,10.2-19.6,10.4
			c-7.7,0.2-15.3-2.9-21.3-7.7s-10.7-11-14.6-17.7c-1.2-2.1-2.3-4.3-2.3-6.8c0-2.4,1.5-5,3.8-5.5c3.2-0.6,5.7,2.6,7.8,5
			c2.9,3.3,6.6,6,10.7,7.6c1.1,0.4,2.2,0.8,3.2,0.2c1-0.5,1.4-2.2,0.4-2.6c-8.6-4.3-14.5-12.6-19.4-20.8c-0.9-1.6-1.8-3.3-1.8-5.1
			c0-1.8,1.3-3.8,3.1-3.9c1.6-0.1,2.9,1.4,4.2,2.5c1.2,1.1,3.1,2.1,4.5,1.1c-0.4-1.2-1.5-2.1-2.4-3c-3.1-3.3-4.5-8.1-3.6-12.5
			c0.4-2.1,3.6-2.3,5.2-0.9c1.6,1.5,2.1,3.7,3.1,5.6s2.8,3.9,4.9,3.5c-0.8-3.2-1.8-6.5-2.7-9.6c-0.5-1.6-0.9-3.3-0.8-5
			c0.2-1.7,1.2-3.4,2.8-3.9c1.8-0.6,3.8,0.5,4.9,2c1.1,1.5,1.6,3.4,2.2,5.2c1.6,5,4.1,9.7,7.3,13.9c0.6,0.7,1.8,1.4,2.2,0.6
			c3.8-6.8,11.6-12.4,19.1-10.3c3.1,0.8,5.6,2.8,8.3,4.3c2.8,1.5,6.1,2.5,9,1.2c1-0.4,2.1,0.7,2,1.8s-0.8,1.9-1.6,2.7
			c-2,1.9-4.3,3.6-6.8,4.8c-3.3,1.7-3.2,6.4-2.6,10.1c0.2,1.1,0.5,2.3,1.5,2.9c0.5,0.3,1.2,0.2,1.8,0.2c9.5-0.9,18.7-4.6,26.1-10.7
			c1.6-1.4,4.3,0.7,4.2,2.8c-0.1,2.1-1.6,3.9-3.1,5.4c-2.6,2.7-5.2,5.3-7.9,8c3.8-0.7,8.2-1.4,11.4,0.8
			C876.9,12.8,877.5,13.3,877.7,14"/>
	</g>
	<g id="pic-bird-3">
		<circle fill="#DEDEDE" cx="831" cy="-14.1" r="1.9"/>
	</g>
	<g id="pic-bird-3_3_">
		<path fill="none" stroke="#DEDEDE" stroke-width="3" stroke-linecap="round" stroke-linejoin="round" stroke-miterlimit="10" d="
			M877.7,14c0.4,1.4-0.8,2.6-1.9,3.5c-3.3,2.5-7,4.2-11,5.2c-1.6,0.4-1.3,2.9,0,3.9c1.3,1,3.1,1.3,4.3,2.3c2.2,1.9,1.6,5.6-0.4,7.7
			c-2,2.1-5,2.8-7.8,3.3c-8.4,1.4-17.6,1.1-24.7-3.6c-0.9-0.6-2.3-1.2-3-0.3c-4.1,6.5-11.9,10.2-19.6,10.4
			c-7.7,0.2-15.3-2.9-21.3-7.7s-10.7-11-14.6-17.7c-1.2-2.1-2.3-4.3-2.3-6.8c0-2.4,1.5-5,3.8-5.5c3.2-0.6,5.7,2.6,7.8,5
			c2.9,3.3,6.6,6,10.7,7.6c1.1,0.4,2.2,0.8,3.2,0.2c1-0.5,1.4-2.2,0.4-2.6c-8.6-4.3-14.5-12.6-19.4-20.8c-0.9-1.6-1.8-3.3-1.8-5.1
			c0-1.8,1.3-3.8,3.1-3.9c1.6-0.1,2.9,1.4,4.2,2.5c1.2,1.1,3.1,2.1,4.5,1.1c-0.4-1.2-1.5-2.1-2.4-3c-3.1-3.3-4.5-8.1-3.6-12.5
			c0.4-2.1,3.6-2.3,5.2-0.9c1.6,1.5,2.1,3.7,3.1,5.6s2.8,3.9,4.9,3.5c-0.8-3.2-1.8-6.5-2.7-9.6c-0.5-1.6-0.9-3.3-0.8-5
			c0.2-1.7,1.2-3.4,2.8-3.9c1.8-0.6,3.8,0.5,4.9,2c1.1,1.5,1.6,3.4,2.2,5.2c1.6,5,4.1,9.7,7.3,13.9c0.6,0.7,1.8,1.4,2.2,0.6
			c3.8-6.8,11.6-12.4,19.1-10.3c3.1,0.8,5.6,2.8,8.3,4.3c2.8,1.5,6.1,2.5,9,1.2c1-0.4,2.1,0.7,2,1.8s-0.8,1.9-1.6,2.7
			c-2,1.9-4.3,3.6-6.8,4.8c-3.3,1.7-3.2,6.4-2.6,10.1c0.2,1.1,0.5,2.3,1.5,2.9c0.5,0.3,1.2,0.2,1.8,0.2c9.5-0.9,18.7-4.6,26.1-10.7
			c1.6-1.4,4.3,0.7,4.2,2.8c-0.1,2.1-1.6,3.9-3.1,5.4c-2.6,2.7-5.2,5.3-7.9,8c3.8-0.7,8.2-1.4,11.4,0.8
			C876.9,12.8,877.5,13.3,877.7,14"/>
	</g>
	<path fill="none" stroke="#DEDEDE" stroke-width="3" stroke-linecap="round" stroke-linejoin="round" stroke-miterlimit="10" d="
		M842.3,2.7c0.4,5.3,0.8,18.7-9.9,34.2"/>
	<path fill="none" stroke="#DEDEDE" stroke-width="3" stroke-linecap="round" stroke-linejoin="round" stroke-miterlimit="10" d="
		M818.5-16.5c-8.9,6.9-11.4,42-20.2,38.1"/>
</g>
<g>
	<g id="pic-bird-1_4_">
		<path fill="#FAFAFA" d="M2251.6-351c-0.6-2.8,3.1-5.1,5.8-4c2.7,1.1,4,4.2,4.4,7c1-2,1.9-4,2.9-6c1.2-2.5,3.7-5.5,6.1-4.1
			c1.3,0.8,1.7,2.6,1.8,4.2c0.2,3.2-0.1,6.4-0.8,9.5c2.7,0.2,4.4-2.6,6-4.7c1.6-2.2,4.6-4.2,6.7-2.5c0.8,0.7,1.1,1.7,1.3,2.6
			c1.1,4.6,0.6,9.5-0.2,14.2c-3.3,18.5-11.7,36-23.9,50.3c-1.2,1.5,0.3,3.5,1.9,4.7c11,8.2,24.8,12.6,38.6,12.5
			c2.9-0.1,4,4.4,2.2,6.6c-1.9,2.2-5,2.8-7.9,3.1c-11.2,1.1-23.2,0.7-33-5c-1.7-1-3.7-2.1-5.4-1.3c-10.5,4.7-22.5,5.6-33.5,2.5
			c-7,6.9-14.2,13.7-22.6,18.8s-18.3,8.3-28.1,7.3c-1.9-0.2-3.9-0.6-5.3-1.9c-1.4-1.3-1.7-3.9-0.2-5.1c3.3-2.5,6.6-5.1,10-7.6
			c0.8-0.6,1.7-1.3,1.9-2.4c0.2-1-0.8-2.3-1.8-1.9c-2.5,1.1-4.9,2.1-7.6,2.4c-2.6,0.2-5.6-0.5-7.3-2.5c1.1-5.7,11.1-5.4,12.6-11
			c-3-0.6-6-1.2-9.1-1.7c-1.5-0.3-3-0.6-4.2-1.5c-1.2-0.8-2.1-2.5-1.6-3.9c0.3-1,1.2-1.7,2.1-2.2c4-2.1,8.8-0.9,13.2-0.5
			c7.8,0.7,15.9-1.5,22.3-6.1c1.6-1.1,3.2-3,2.3-4.7c-2.4-4.5-3.9-9.4-4.4-14.5c-0.4-3.4-0.5-7.3-2.9-9.7c-1.7-1.7-4.3-2.3-6.1-4
			c-1.7-1.7-1.4-5.6,1-5.6c2.9,0,5.8,0,8.7,0c2.7,0,6.2-0.6,6.8-3.2c1.1-5.5,5.1-10.3,10.3-12.5c5.2-2.2,11.4-1.7,16.2,1.2
			c6.9,4.1,10.1,12.1,13.5,19.3C2251.6-325.3,2254.4-338.7,2251.6-351"/>
		<path fill="none" stroke="#DEDEDE" stroke-width="3" stroke-linecap="round" stroke-linejoin="round" stroke-miterlimit="10" d="
			M2251.6-351c-0.6-2.8,3.1-5.1,5.8-4c2.7,1.1,4,4.2,4.4,7c1-2,1.9-4,2.9-6c1.2-2.5,3.7-5.5,6.1-4.1c1.3,0.8,1.7,2.6,1.8,4.2
			c0.2,3.2-0.1,6.4-0.8,9.5c2.7,0.2,4.4-2.6,6-4.7c1.6-2.2,4.6-4.2,6.7-2.5c0.8,0.7,1.1,1.7,1.3,2.6c1.1,4.6,0.6,9.5-0.2,14.2
			c-3.3,18.5-11.7,36-23.9,50.3c-1.2,1.5,0.3,3.5,1.9,4.7c11,8.2,24.8,12.6,38.6,12.5c2.9-0.1,4,4.4,2.2,6.6c-1.9,2.2-5,2.8-7.9,3.1
			c-11.2,1.1-23.2,0.7-33-5c-1.7-1-3.7-2.1-5.4-1.3c-10.5,4.7-22.5,5.6-33.5,2.5c-7,6.9-14.2,13.7-22.6,18.8s-18.3,8.3-28.1,7.3
			c-1.9-0.2-3.9-0.6-5.3-1.9c-1.4-1.3-1.7-3.9-0.2-5.1c3.3-2.5,6.6-5.1,10-7.6c0.8-0.6,1.7-1.3,1.9-2.4c0.2-1-0.8-2.3-1.8-1.9
			c-2.5,1.1-4.9,2.1-7.6,2.4c-2.6,0.2-5.6-0.5-7.3-2.5c1.1-5.7,11.1-5.4,12.6-11c-3-0.6-6-1.2-9.1-1.7c-1.5-0.3-3-0.6-4.2-1.5
			c-1.2-0.8-2.1-2.5-1.6-3.9c0.3-1,1.2-1.7,2.1-2.2c4-2.1,8.8-0.9,13.2-0.5c7.8,0.7,15.9-1.5,22.3-6.1c1.6-1.1,3.2-3,2.3-4.7
			c-2.4-4.5-3.9-9.4-4.4-14.5c-0.4-3.4-0.5-7.3-2.9-9.7c-1.7-1.7-4.3-2.3-6.1-4c-1.7-1.7-1.4-5.6,1-5.6c2.9,0,5.8,0,8.7,0
			c2.7,0,6.2-0.6,6.8-3.2c1.1-5.5,5.1-10.3,10.3-12.5c5.2-2.2,11.4-1.7,16.2,1.2c6.9,4.1,10.1,12.1,13.5,19.3
			C2251.6-325.3,2254.4-338.7,2251.6-351"/>
		<circle fill="#DEDEDE" cx="2216.5" cy="-321.7" r="1.9"/>
		<path fill="none" stroke="#DEDEDE" stroke-width="3" stroke-linecap="round" stroke-linejoin="round" stroke-miterlimit="10" d="
			M2240.1-323.6c2.5,5,13.5,39.9,25.8,45.5"/>
		<path fill="none" stroke="#DEDEDE" stroke-width="3" stroke-linecap="round" stroke-linejoin="round" stroke-miterlimit="10" d="
			M2199.7-289.2c2.3,4.8,15.4,27.4,28.7,28.7"/>
	</g>
</g>
<g>
	<g>
		<g id="pic-bird-2_2_">
			<path fill="#FAFAFA" d="M2301.4-115c-5.6-3.2-10.3-7.9-13.6-13.4c-1.9-3.1-3.4-6.6-6.4-8.8c-2.6-1.9-6.5-2.8-7.5-6
				c2.2-3.5,9.2-2.6,9.8-6.7c1-6.6,6-12.4,12.4-14.4c6.4-2,13.8-0.1,18.3,4.8c3.5-9.5,1-21-6.4-28.1c-1.7-1.6-3.5-3-4.8-4.9
				c-1.2-2-1.7-4.7-0.2-6.5c1.6-2.1,5-2,7.3-0.6c2.3,1.3,3.8,3.7,5.5,5.7c1.1-3.4,0.8-7.3-0.9-10.5c-1-1.9,1.1-4.4,3.3-4.4
				c2.2,0,4,1.7,5.2,3.5c1.2,1.8,2,3.9,3.5,5.6c3.7-2.5-0.2-9.7,3.4-12.2c1.5-1.1,3.8-0.6,5.2,0.6c1.4,1.2,2.2,3,2.9,4.7
				c4.8,12.4,5.8,26,4.7,39.2c-0.4,5.5-1.5,11.4-5.2,15.5c21.8-0.8,43.1-10.9,57.6-27.2c0.7-0.7,1.4-1.6,2.4-1.8
				c1.7-0.4,3.3,1.3,3.5,3.1s-0.7,3.4-1.5,4.9c-11,21.3-22.9,43.5-42.8,56.8c-7,4.7-14.9,8.1-23.2,10c-2.2,0.5-3.3,3.1-3.9,5.4
				c-3.4,11.1-8.8,21.5-15.8,30.8c-3.1,4.2-7,8.3-12.1,9.3c-3,0.6-6.6-0.3-7.8-3.1c-2-4.4,3.5-9.1,3.1-13.9
				c-2.5,1.7-4.9,3.4-7.4,5.1c-1.8,1.2-3.8,2.5-6,2.1c-2.2-0.3-3.8-3.4-2.1-4.8c2.6-2.2,4.6-5.1,5.8-8.3c-2.3-0.7-4.7,0.2-7.1,0.4
				c-2.4,0.2-5.4-0.8-5.7-3.2c-0.2-2,1.6-3.6,3.3-4.7c8-5.2,17.8-8.3,23.3-16C2303.1-109.4,2304-113.5,2301.4-115"/>
			<path fill="none" stroke="#DEDEDE" stroke-width="3" stroke-linecap="round" stroke-linejoin="round" stroke-miterlimit="10" d="
				M2301.4-115c-5.6-3.2-10.3-7.9-13.6-13.4c-1.9-3.1-3.4-6.6-6.4-8.8c-2.6-1.9-6.5-2.8-7.5-6c2.2-3.5,9.2-2.6,9.8-6.7
				c1-6.6,6-12.4,12.4-14.4c6.4-2,13.8-0.1,18.3,4.8c3.5-9.5,1-21-6.4-28.1c-1.7-1.6-3.5-3-4.8-4.9c-1.2-2-1.7-4.7-0.2-6.5
				c1.6-2.1,5-2,7.3-0.6c2.3,1.3,3.8,3.7,5.5,5.7c1.1-3.4,0.8-7.3-0.9-10.5c-1-1.9,1.1-4.4,3.3-4.4c2.2,0,4,1.7,5.2,3.5
				c1.2,1.8,2,3.9,3.5,5.6c3.7-2.5-0.2-9.7,3.4-12.2c1.5-1.1,3.8-0.6,5.2,0.6c1.4,1.2,2.2,3,2.9,4.7c4.8,12.4,5.8,26,4.7,39.2
				c-0.4,5.5-1.5,11.4-5.2,15.5c21.8-0.8,43.1-10.9,57.6-27.2c0.7-0.7,1.4-1.6,2.4-1.8c1.7-0.4,3.3,1.3,3.5,3.1s-0.7,3.4-1.5,4.9
				c-11,21.3-22.9,43.5-42.8,56.8c-7,4.7-14.9,8.1-23.2,10c-2.2,0.5-3.3,3.1-3.9,5.4c-3.4,11.1-8.8,21.5-15.8,30.8
				c-3.1,4.2-7,8.3-12.1,9.3c-3,0.6-6.6-0.3-7.8-3.1c-2-4.4,3.5-9.1,3.1-13.9c-2.5,1.7-4.9,3.4-7.4,5.1c-1.8,1.2-3.8,2.5-6,2.1
				c-2.2-0.3-3.8-3.4-2.1-4.8c2.6-2.2,4.6-5.1,5.8-8.3c-2.3-0.7-4.7,0.2-7.1,0.4c-2.4,0.2-5.4-0.8-5.7-3.2c-0.2-2,1.6-3.6,3.3-4.7
				c8-5.2,17.8-8.3,23.3-16C2303.1-109.4,2304-113.5,2301.4-115"/>
			<circle fill="#DEDEDE" cx="2294.1" cy="-150.1" r="1.9"/>
		</g>
	</g>
	<path fill="none" stroke="#DEDEDE" stroke-width="3" stroke-linecap="round" stroke-linejoin="round" stroke-miterlimit="10" d="
		M2311.3-162c4.4,3.9,15.1,12,30.9,9.8"/>
	<path fill="none" stroke="#DEDEDE" stroke-width="3" stroke-linecap="round" stroke-linejoin="round" stroke-miterlimit="10" d="
		M2298.5-116.9c7.3,4.8,13.1,15.6,36,10.7"/>
</g>
</svg>
