<?xml version="1.0" encoding="utf-8"?>
<!-- Generator: Adobe Illustrator 18.1.0, SVG Export Plug-In . SVG Version: 6.00 Build 0)  -->
<!DOCTYPE svg PUBLIC "-//W3C//DTD SVG 1.1//EN" "http://www.w3.org/Graphics/SVG/1.1/DTD/svg11.dtd">
<svg version="1.1" id="Layer_1" xmlns="http://www.w3.org/2000/svg" xmlns:xlink="http://www.w3.org/1999/xlink" x="0px" y="0px"
	 width="1600px" height="2250px" viewBox="780 -1105 1600 2250" enable-background="new 780 -1105 1600 2250" xml:space="preserve">
<desc  xmlns:shape="http://adobe.com/products/shape">
	<shape:version>1.1.2</shape:version>
	<shape:captureDetail>0.750000</shape:captureDetail>
	<shape:source>1</shape:source>
</desc>
<path fill="none" stroke="#F2F2F2" stroke-width="4" stroke-linecap="round" stroke-linejoin="round" stroke-miterlimit="10" d="
	M962.2-942.3c11,3.2,19.3,12.1,25.7,21.6c7.9,11.9,13.5,25,16.5,38.9c0.8,3.7,1.7,7.9,4.9,9.8c3,1.8,6.9,0.9,10.3,0.3
	c12.8-2.7,27.2-2.3,37.5,5.8c11.6,9.2,14.3,25.5,15.6,40.3c0.4,6.1-1.2,14.7-7.4,14.6c-105.8-1.6-215.5,10.4-307,63.5
	c-2.9,1.7-5-3.1-4.9-6.5c0.2-6.2,0.3-12.1,0.5-18.2c0.3-10.3,0.7-21.1,4.8-30.5c4.2-9.5,13.2-17.7,23.5-17.6c2.8,0,5.8,0.6,8.5-0.1
	c6-1.7,8.4-8.8,9.9-14.9c4.8-20.8,9.8-42.9,25-58.1c5.4-5.4,12.2-9.7,19.8-10.8c18-2.1,31.8,14.5,44.1,27.8c1.1,1.2,2.8,2.5,4.3,1.7
	c0.7-0.4,1.2-1.3,1.4-2.1c6.4-16.1,11.5-33.2,22-46.8C927.6-937.3,945.6-947.1,962.2-942.3"/>
<path fill="none" stroke="#F2F2F2" stroke-width="4" stroke-linecap="round" stroke-linejoin="round" stroke-miterlimit="10" d="
	M2260,415.1c16.7-4.5,34.4,5.8,44.7,19.9c10.2,14,14.9,31,20.9,47.3c0.2,0.8,0.7,1.7,1.4,2.1c1.4,0.8,3.1-0.5,4.4-1.6
	c12.6-13.1,26.9-29.3,44.8-26.8c7.6,1.1,14.3,5.7,19.5,11.2c14.9,15.4,19.3,37.8,23.6,58.6c1.3,6.2,3.5,13.3,9.5,15.1
	c2.7,0.8,5.7,0.2,8.5,0.3c10.3,0.2,19.1,8.5,23.1,18.1c3.9,9.5,4,20.2,4.1,30.6c0.1,6.1,0,12.2,0.1,18.2c0,3.4-2.2,8.2-5.1,6.4
	c-90.2-55.3-199.6-69.8-305.5-70.7c-6.2-0.1-7.6-8.7-7.1-14.8c1.5-14.8,4.7-31,16.5-39.9c10.4-7.9,24.9-7.9,37.6-4.9
	c3.4,0.7,7.3,1.7,10.3-0.1c3.3-1.8,4.3-6.1,5.2-9.7c3.3-13.8,9.2-26.9,17.4-38.5C2240.4,426.8,2248.9,418.1,2260,415.1"/>
<path fill="none" stroke="#F2F2F2" stroke-width="4" stroke-linecap="round" stroke-linejoin="round" stroke-miterlimit="10" d="
	M717.9,196.3c7.2-9.5,16.2-18.5,27.7-21.9c20.7-6.1,42.6,8.2,53.7,26.6c9.5-15.7,20.8-30.4,33.6-43.6c8.8-9.2,19-18,31.5-20.8
	c19.2-4.3,39.2,7.2,50.4,23.3c11.3,16.1,15.4,36,18.7,55.4c0.9,5.2,4.5,12,9.2,9.7c15-7.1,33.8-1.5,45.7,10.1
	c11.9,11.6,18.1,27.9,21.6,44c1.3,5.9,2.2,12.5-1,17.7c-118.7-7.5-238.8,9.2-351,48.5c-5.9,2.1-12.3,4.2-18.2,2.3
	c1-13.2,2.7-26.6,8.5-38.5c5.9-11.9,16.9-21.9,30.1-23.3c8.6-0.8,11-11.9,11.9-20.4C693,240.7,702.6,216.5,717.9,196.3"/>
<path fill="none" stroke="#F2F2F2" stroke-width="4" stroke-linecap="round" stroke-linejoin="round" stroke-miterlimit="10" d="
	M792-306.1c9.6-16.2,23.5-30.7,41.4-36.5c18-5.7,40.1-0.4,50,15.5c2,3.2,6.6,3.9,10.2,2.8s6.7-3.5,10-5.3c14.4-7.9,34.3-3.5,44,9.7
	c17.2-11.1,38.7-15.2,58.8-11.3c20.1,3.9,38.5,15.9,50.2,32.7c1.7,2.3,3.2,5,3.3,8c0,2.9-2.3,5.9-5.2,5.8
	c-109.4-7.6-223,2-320.8,51.7c-5.2,2.7-10.8,5.5-16.6,4.6c9.9-21.3,22.2-44.8,44.6-51.6c3.8-1.1,7.8-1.7,11.3-3.4
	C782.2-287.7,787-297.5,792-306.1"/>
<path fill="none" stroke="#F2F2F2" stroke-width="4" stroke-linecap="round" stroke-linejoin="round" stroke-miterlimit="10" d="
	M2332.5,868.6c6.5,7.6,13,16.3,22.7,19c3.9,1.1,7.8,0.9,11.7,1.3c23.2,2.6,39.6,23.6,53.1,42.7c-5.6,1.9-11.6,0.2-17.2-1.6
	c-105.1-31.3-218.7-20.3-324.8,6.9c-2.9,0.7-5.7-1.9-6.2-4.8s0.6-5.8,1.8-8.5c8.5-18.6,24.4-33.7,43.4-41.2
	c19.1-7.5,41-7.3,59.9,0.5c7.1-14.7,26-22.6,41.6-17.4c3.6,1.1,7,3,10.8,3.4c3.8,0.4,8.2-1,9.5-4.6c6.9-17.4,27.7-26.7,46.4-24.3
	C2303.9,842.5,2320.2,854.3,2332.5,868.6"/>
<path fill="none" stroke="#F2F2F2" stroke-width="4" stroke-linecap="round" stroke-linejoin="round" stroke-miterlimit="10" d="
	M2214.8-324.8c10.3-15.1,24.6-27.5,41-35.6c10.8-5.3,23.3-9,35-5.7c18.7,5.3,28.5,26.7,29.9,46.1c0.2,3,0.4,6.2,2.1,8.7
	s5.5,3.8,7.8,1.7c9.1-8.5,23.8-10.3,34.7-4.4c10.9,6,17.2,19.3,15,31.6c-0.7,4,2.5,7.9,6.2,9.6c3.7,1.7,8,1.9,12,2.5
	c24.5,4.4,41.3,33.3,33,56.7c-1.6,4.4-5.7,9.2-9.9,7.3c-87.1-41.2-184.2-66.7-279.8-54.9c-3.5,0.4-8,0.6-9.9-2.5
	c-1.5-2.5-0.4-5.7,0.8-8.5c5.6-13.1,11.9-26.4,22.8-35.7c10.9-9.3,27.4-13.2,39.6-5.9c3.7,2.2,8.6,1.1,12-1.5
	C2210.1-317.5,2212.3-321.3,2214.8-324.8"/>
<path fill="none" stroke="#F2F2F2" stroke-width="4" stroke-linecap="round" stroke-linejoin="round" stroke-miterlimit="10" d="
	M816.3,768.2c2.4-18.1,9.4-35.6,20.4-50.3c7.2-9.7,16.8-18.6,28.7-20.9c19.1-3.7,37.4,10.8,47.5,27.5c1.6,2.5,3.1,5.3,5.7,6.8
	c2.6,1.5,6.7,0.9,7.7-2c4.3-11.7,16.6-20,29-19.6c12.5,0.4,24.1,9.4,27.7,21.4c1.1,3.9,5.7,5.9,9.9,5.7c4.1-0.2,8-1.9,11.8-3.1
	c23.8-7.1,51.9,10.9,55.2,35.6c0.6,4.6-1,10.8-5.6,11c-96.3,2.8-194.4,24.1-274.3,77.9c-3,2-6.9,4.1-9.9,2.2c-2.5-1.6-3-4.9-3.1-7.9
	c-0.9-14.2-1.4-29,4.1-42.2c5.5-13.2,18.5-24.2,32.7-23.2c4.3,0.3,8.1-3,10-6.7C815.4,776.8,815.7,772.4,816.3,768.2"/>
<path fill="none" stroke="#F2F2F2" stroke-width="4" stroke-linecap="round" stroke-linejoin="round" stroke-miterlimit="10" d="
	M2295.9,242.2c11.1-12.2,24.1-23,39.5-28.9c15.4-5.9,33.3-6.7,48,0.7c8.1,4,15.1,10.3,20.7,17.5c22.8,28.9,24,68.7,24.1,105.5
	c0,3.9-0.3,8.5-3.6,10.6c-3.1,2-7.1,0.7-10.6-0.7c-72.6-28-150.7-41.5-228.4-39.6c-3.3,0.1-3-5.1-1.3-8
	c10.4-18.9,21.3-38.3,38.4-51.6c17-13.3,42-18.9,60.4-7.6C2287.2,242.7,2292.7,245.7,2295.9,242.2"/>
<g>
	<g>
		<path fill="none" stroke="#F2F2F2" stroke-width="4" stroke-linecap="round" stroke-linejoin="round" stroke-miterlimit="10" d="
			M2238.4-692.7c12.7,6.1,20.9,20.6,19.4,34.7c-0.6,4.8,3.3,9.3,7.7,11.4c4.4,2.1,9.4,2.5,14.2,3.6c25.5,5.8,43.8,33.8,38.7,59.5
			c-1.1,5.8-6.2,12.7-11.5,10.2c-110.7-53.2-238-71.3-359.2-50.9c-3.9,0.7-4.6-5.3-3.5-9c5.9-20.9,14-42.5,30.5-56.7
			c16.4-14.3,43.6-18.3,59.6-3.4c11.7-20.2,24.4-40.7,43.7-53.9c19.2-13.2,46.6-17.2,65.5-3.5c15.2,10.4,19.6,51.9,24.1,55.9
			C2170.6-692.1,2206.8-709.7,2238.4-692.7"/>
	</g>
	
		<line fill="none" stroke="#F2F2F2" stroke-width="4" stroke-linecap="round" stroke-linejoin="round" stroke-miterlimit="10" x1="2158.6" y1="-782.7" x2="2146.5" y2="-810.1"/>
	
		<line fill="none" stroke="#F2F2F2" stroke-width="4" stroke-linecap="round" stroke-linejoin="round" stroke-miterlimit="10" x1="2199.5" y1="-785.5" x2="2205.7" y2="-818.5"/>
	
		<line fill="none" stroke="#F2F2F2" stroke-width="4" stroke-linecap="round" stroke-linejoin="round" stroke-miterlimit="10" x1="2231" y1="-771.2" x2="2260.9" y2="-786.4"/>
	
		<line fill="none" stroke="#F2F2F2" stroke-width="4" stroke-linecap="round" stroke-linejoin="round" stroke-miterlimit="10" x1="2246.8" y1="-722.8" x2="2282.2" y2="-726.5"/>
	<path fill="none" stroke="#F2F2F2" stroke-width="4" stroke-linecap="round" stroke-linejoin="round" stroke-miterlimit="10" d="
		M2147.4-747.1c7.6-10.8,20.3-18,34.6-18c23.3,0,42.3,19,42.3,42.3c0,8.6-2.6,16.8-7.1,23.4"/>
</g>
</svg>
