<?xml version="1.0" encoding="utf-8"?>
<!-- Generator: Adobe Illustrator 18.1.0, SVG Export Plug-In . SVG Version: 6.00 Build 0)  -->
<!DOCTYPE svg PUBLIC "-//W3C//DTD SVG 1.1//EN" "http://www.w3.org/Graphics/SVG/1.1/DTD/svg11.dtd">
<svg version="1.1" id="Layer_1" xmlns="http://www.w3.org/2000/svg" xmlns:xlink="http://www.w3.org/1999/xlink" x="0px" y="0px"
	 width="1200px" height="800px" viewBox="200 -100 1200 800" enable-background="new 200 -100 1200 800" xml:space="preserve">
<g>
	<path fill="#F2F2F2" d="M901.9,478.2c0-7.1,0-14,0-21c-0.8-0.4-1.5-1-2.3-1.1c-6.6-0.7-12.6-3.3-18.5-6.2c-5-2.5-7.8-6.5-8.4-12.2
		c-0.5-5.5,0.5-10.8,2.3-15.9c2.8-8,6.1-15.9,9.5-23.7c3.5-8.1,7.2-16.1,11-24.1c1.7-3.6,3.8-7,5.7-10.5c2.1-4,4.2-8,6.4-12.1
		c-0.6-0.3-1-0.5-1.3-0.7c-1.9-1-2.3-2.4-1-4.1c0.7-0.9,1.4-1.9,2.3-2.7c3.6-2.9,7.3-5.8,12.2-6c6.1-0.3,11.5,1.3,14.8,7
		c1.8,3.1,3.8,6,5.6,9.1c2.1,3.6,2.8,7.7,3.8,11.6c1.5,6,2.5,12.2,2.9,18.4c0.3,4.3,0.8,8.6,1,12.9c0.1,2.8-0.2,5.6-0.3,8.4
		c-0.1,2.3,0,4.5-0.1,6.8c-0.5,9.8-2.2,19.4-5.1,28.8c-1.7,5.6-4.6,10.5-9.7,13.7c-1.8,1.1-3.9,1.6-6,2.1c-1.5,0.4-3.1,0.7-4.7,0.8
		c-4.1,0.3-8.3,0.6-12.7,0.9c-0.4,6.7-0.4,13.2-0.1,19.9c3.9,0.4,7.4,1,10.9,1.2c7,0.4,13.8,1.9,20.7,3.5c8.7,2,17.5,3.8,26.2,5.7
		c6.6,1.4,13.2,3,19.8,4.4c0.7,0.2,1.5,0.2,2.4,0.3c1-3,2-6,3-8.9c0.5-1.6,1.1-3.3,1.7-4.9c0.6-1.5,0.4-2.5-1.1-3.5
		c-3-2.1-5.9-4.3-8.3-7.2c-4.6-5.7-6.1-11.9-5.1-19s3-13.9,5.4-20.6c3.2-9.3,7.7-18,11.6-27c6.1-14,14.8-26.5,22.4-39.7
		c4.4-7.7,9.1-15.1,15.1-21.7c2.1-2.3,4.2-4.7,6.3-6.9c2.1-2.3,3.4-2.5,6.3-1.2c1.2,0.5,2.6,1,3.9,1.1c3,0.2,5.7,1.2,8.1,2.7
		c2.2,1.4,4.2,3.5,4.5,6.4c0.3,2.8,0.2,5.6,0.2,8.3c-0.1,4.6,0.1,9.2-0.3,13.8c-0.5,6-1.5,11.9-2.3,17.9c-0.6,4.3-1.2,8.5-2,12.8
		c-0.9,5.2-2,10.4-3.1,15.5c-2.2,9.9-4.4,19.7-6.8,29.6c-1.4,5.8-3.2,11.4-4.8,17.1c-0.7,2.4-1.3,4.8-1.9,7.2
		c-1.2,5-3.9,9.4-6.7,13.6c-2.4,3.5-6.2,5.5-10.9,5.2c-0.4,0-0.9-0.2-1.3-0.1c-4.3,1-8.3-0.2-12.4-1.3c-3.2-0.9-6.4-1.7-9.7-2.7
		c-0.5,0.9-1,1.6-1.3,2.4c-1.1,3.4-2.2,6.8-3.2,10.2c-0.8,2.6-0.5,2.9,2,3.6c8.6,2.5,17.2,4.9,25.7,7.7c7.5,2.5,14.9,5.7,22.4,8.4
		c8.2,3,16.4,5.9,24.6,8.9c12.1,4.5,24.1,9.2,36.3,13.5c11.6,4.1,23.2,8,34.9,11.5c7.9,2.4,16.1,3.8,24.2,5.8
		c3.2,0.8,6.4,1.8,9.7,2.6c3.8,0.9,7.5,1.7,11.3,2.6c7,1.7,14,3.7,21,5.3c5.9,1.4,11.8,2.5,17.7,3.7c4.1,0.9,8.2,1.7,12.3,2.5
		c7.5,1.5,15,3,22.5,4.6c2.2,0.5,4.3,1.4,5.8,3.3c-0.8,1.5-2.1,1.9-3.5,1.8c-3.7-0.2-7.5-0.2-11.2-0.8c-5.9-1-11.8-2.4-17.7-3.5
		c-6.1-1.2-12.3-2.3-18.4-3.5c-3.9-0.8-7.8-1.8-11.6-2.7c-6.6-1.6-13.2-3.3-19.7-5c-3.1-0.8-6.2-1.8-9.3-2.5
		c-5.6-1.3-11.3-2.5-17-3.8c-3.8-0.9-7.5-1.8-11.3-2.7c-12.8-3.2-25.2-7.5-37.6-11.8c-5.4-1.9-10.6-4.2-15.9-6.2
		c-9.1-3.4-18.2-6.7-27.3-10c-6.3-2.3-12.6-4.4-18.9-6.7c-7-2.6-13.8-5.5-20.9-7.8c-10.5-3.5-21.1-6.7-31.3-10
		c-2,1.3-1.8,2.9-2.1,4.4c-0.9,4.2-1.7,8.4-2.7,12.6c-0.5,2.3-1.4,2.9-3.6,3.1c-2.7,0.2-4-1.3-3.3-4c1.3-5.1,2.5-10.2,3.7-15.4
		c0.1-0.6,0.1-1.2,0.2-2.1c-3.1-0.8-6.1-1.7-9.1-2.4c-8-1.7-16-3.4-24-5.1c-5.3-1.2-10.4-2.6-15.7-3.6c-8.8-1.8-17.6-3.4-26.6-3.1
		c-0.5,0-1,0.2-1.8,0.3c-0.6,3.4,0.4,6.7,0.5,9.9c0,0.7,0.3,1.5,0.3,2.2c0,1.6-1.1,2.8-2.7,3.1c-1.6,0.2-3.2-0.6-3.6-2.1
		c-0.4-1.7-0.6-3.4-0.8-5.1c-0.3-2.2-0.5-4.5-0.6-6.8c-0.1-1.4-0.6-2.3-2.1-2.2c-5.7,0.1-11.5,0.1-17.2,0.4
		c-5.8,0.3-11.6,0.9-17.4,1.6c-6.9,0.7-13.7,1.6-20.5,2.5c-6.5,0.8-13,1.8-19.5,2.7c-2.7,0.4-5.3,0.8-8.1,1.3
		c-0.1,1-0.2,1.9-0.2,2.7c0.2,2.9,0.4,5.8,0.9,8.7c1,6.5,2,13,3.1,19.4c0.2,1.4,0.8,2.7,1.1,4c0.5,2.2,0.1,3.2-1.9,4.3
		c-2.4,1.4-4.6,0.4-5-2.4c-0.4-2.4-0.3-4.9-0.7-7.4c-1.3-9.2-2.6-18.3-3.9-27.9c-0.5-0.1-1.3-0.3-2.1-0.2c-7.3,1.1-14.7,2.3-22,3.4
		c-7,1.1-14.1,2-21.1,3.2c-9.9,1.7-19.7,3.5-29.5,5.5c-10.7,2.1-21.3,4.6-31.9,6.8c-7.2,1.5-14.4,2.8-21.5,4.2
		c-9.3,1.8-18.5,4-27.9,5.5c-9.2,1.4-18.5,2.7-27.9,2.9c-5.2,0.1-10.3,0.4-15.5,0.6c-3.4,0.1-6.9,0.4-10.3,0.4
		c-10.2-0.1-20.4-0.8-30.5-2.9c-6.8-1.4-13.8-2.3-20.6-3.8c-9.4-2.1-18.9-4.4-28.2-7.2s-18.3-6.3-27.4-9.6
		c-12.1-4.5-24.1-9.3-36.3-13.6c-7-2.4-14.3-4-21.5-5.8c-6.4-1.6-12.8-3.1-19.2-4.5c-9.9-2.2-19.8-4.4-29.7-6.2
		c-6.8-1.2-13.7-1.7-20.5-2.3c-6.6-0.5-13.1-0.9-19.7-0.9c-7.4,0-14.8,0.2-22.1,1.7c-3.6,0.7-7.2,1.4-10.7,2.1
		c-3.3,0.6-6.4,1.6-9.3,3.4c-3.1,1.9-7-0.5-6.8-4.1c0-0.6,0.6-1.4,1.2-1.7c1.5-0.8,3.1-1.6,4.7-2c9.5-2.4,19.1-4.5,29-4.9
		c6.8-0.3,13.6-0.7,20.4-0.4c9,0.5,18,1.3,27,2.5c9.5,1.3,18.9,3,28.3,5c11.7,2.4,23.3,5.1,34.9,8.1c7,1.8,13.8,4.1,20.6,6.6
		c12.8,4.6,25.5,9.3,38.2,14.1c8.1,3.1,16.2,6,24.6,8c10.7,2.5,21.4,5.1,32.1,7.4c9.2,1.9,18.4,3.5,27.8,3.9
		c4.7,0.2,9.4,0.2,14.1,0.2c6.9,0,13.8,0.1,20.7-0.3c7.2-0.4,14.4-1.3,21.5-2.2c7.4-1,14.7-2.1,22-3.5c10.3-1.9,20.5-4.2,30.7-6.2
		c12-2.4,24.1-4.8,36.1-7.2c7.7-1.5,15.4-3.2,23.1-4.5c8.5-1.5,17-2.7,25.5-4.1c5.8-0.9,11.7-1.9,17.5-2.8c3.6-0.6,7.2-1.2,10.8-1.7
		c0.3-0.1,0.6-0.2,1-0.4c0-0.7,0.2-1.4,0.1-2.1c-0.8-9-1.6-18-2.5-27c-0.2-1.8-0.5-3.6-0.6-5.4c-0.2-2.4-0.4-2.7-2.7-3.2
		c-4.1-0.9-8.3-1.5-12.2-2.7c-3.2-1-6.5-2.5-9.3-4.4c-3.6-2.4-5.2-6.4-5.7-10.5c-0.9-6.8-1.1-13.7-0.2-20.6
		c1.2-8.4,2.1-16.9,3.3-25.3c1.3-8.6,2.6-17.3,4.2-25.8c1.6-8.8,3.7-17.5,5.5-26.2c1.6-7.5,2.9-15,4.6-22.4
		c1.2-5.4,2.9-10.6,4.3-15.9c0.7-2.5,1.2-5,1.6-7.6c0.3-1.7,0.9-3,2.7-3.6c0.6-0.2,1.1-0.7,1.5-1.2c3.4-4,7.9-3.9,12.5-3.4
		c5.1,0.6,7.7,4.1,9,8.6c2,6.8,3.7,13.7,5.4,20.6c1.3,5.1,2.5,10.3,3.3,15.5c1.2,8.1,2,16.2,3.1,24.3c1.2,9.2,2.4,18.4,3.6,27.5
		c0.2,1.3,0.3,2.6,0.4,3.9c0.4,5,1.1,10.1,1.1,15.1c-0.1,7.6,1.3,15,1.7,22.5c0.4,7.2,1.2,14.4-0.4,21.6c-0.2,1-0.7,2.1-1.4,2.8
		c-3.4,3.4-7.4,5.7-12.4,6.3c-5.2,0.6-10.3,2-15.6,1.9c-1.5,0-1.8,1.1-1.7,2.2c0.2,2.5,0.6,4.9,0.8,7.4c0.5,4.9,0.9,9.9,1.2,14.8
		c0.3,3.2,0.4,6.4,0.7,9.7c0.2,2.2,0.6,2.5,3,2.2c3.4-0.4,6.8-1.1,10.2-1.5c11.7-1.5,23.5-3.3,35.2-4.5c11.6-1.1,23.2-2.2,34.8-1.9
		C900.7,478.4,901.1,478.3,901.9,478.2z M1014.5,419.9c0.3,0.1,0.6,0.2,0.9,0.3c0.5-0.9,1.1-1.7,1.5-2.6c1-2,1.8-4.2,2.8-6.2
		c2.9-5.9,5.9-11.7,8.8-17.6c1.3-2.7,2.8-3.5,5.7-2.9c2,0.4,2.7,1.9,3.2,3.6c-2.5,4.4-5.1,8.7-7.5,13.2c-2.4,4.5-4.6,9.1-6.5,14.4
		c0.9-0.4,1.2-0.5,1.5-0.7c4.5-2.4,8.9-4.8,13.4-7c1.2-0.6,2.8-0.8,4-0.5c2,0.5,2.3,2.4,0.6,3.6c-1.2,0.9-2.6,1.5-3.9,2.2
		c-4.5,2.6-9.1,4.9-13.4,7.8c-4.9,3.4-9.2,7.5-11.3,13.3c-2.7,7.3-5.5,14.5-8.2,21.8c-0.2,0.5-0.5,1-0.4,1.5
		c0.2,2.5-1.1,4.5-1.9,6.7c-0.4,1-0.5,2.2-0.7,3.3c7.1,2.7,13.9,4.2,21.2,3.6c2-0.2,3.6-0.9,4.5-2.6c1.5-2.6,3.3-5.1,4.2-7.9
		c2.2-6.4,4-13,5.8-19.5c1.7-6.4,3.2-13,4.7-19.5c2-8.4,4-16.8,5.8-25.2c1.5-7.1,2.6-14.2,3.9-21.3c0.5-3.1,1.2-6.1,1.4-9.3
		c0.4-4.4,0.2-8.9,0.9-13.2c0.9-5.3-0.3-10.3-1-15.3c-0.5-3.5-2.4-4.5-5.8-3.6c-1.1,0.3-2.3,0.9-3.4,1c-1.6,0-2.6,0.9-3.6,1.9
		c-5.9,5.8-10.5,12.6-14.8,19.6c-4.2,6.9-8.4,13.8-12.5,20.8c-2.7,4.6-5.5,9-7.7,13.8c-4.1,8.7-7.9,17.5-11.6,26.3
		c-3.9,9.1-6.6,18.6-7.9,28.5c-0.9,6.9,1.8,12.2,6.5,16.7c0.6,0.6,1.5,0.9,2.5,1.4c0.4-1.2,0.6-1.9,0.8-2.6c1.3-4,2.6-8,4-11.9
		c1.1-3.2,2.1-6.3,3.3-9.4c1-2.7,2.1-5.4,3.1-8.1c1.1-3,3.1-5.6,2.4-9.4c-1.1-6-1.7-12.1-3.3-18.1c-0.1-0.4-0.4-0.8-0.4-1.2
		c-0.3-2.2,0.9-3.3,3-2.8c3,0.7,4.1,1.9,4.5,5.1C1013.9,414.6,1014.2,417.2,1014.5,419.9z M906.2,418.5c0.4-1.2,0.7-1.9,0.8-2.6
		c1.2-5.8,2.2-11.6,3.4-17.4c1.3-6.2,3-12.4,4.3-18.6c0.3-1.6,1.3-2.2,2.6-2.4c3.7-0.6,5.8,1.7,4.8,5.3c-0.1,0.3-0.1,0.6-0.2,0.9
		c-3,8.6-4.9,17.4-6.5,26.3c-0.3,1.5-0.6,3.1-0.9,4.6c0.2,0.1,0.4,0.3,0.6,0.4c1.4-1,2.7-2,4.1-2.8c1.9-1,3.8-2,5.8-2.8
		c1.3-0.5,2.5,0.1,3.2,1.5c0.6,1.2,0.7,2.2-0.5,3.2c-1.3,1-2.4,2.1-3.6,3.2c-2.7,2.3-5.6,4.4-8.1,7c-2.4,2.5-4.4,5.5-4.8,9.3
		c-0.5,4.9-1,9.8-1.4,14.8c-0.2,2.6,0.3,3.3,2.8,3.1c4.6-0.4,9.2-1,13.7-1.8c2.8-0.5,4.9-2.4,6.3-4.8c1.4-2.6,2.8-5.4,3.5-8.3
		c2.2-8.9,4-17.9,4.1-27.1c0.2-9.3,0.6-18.7-0.7-28c-1-7.7-2.6-15.3-5-22.7c-1.7-5.1-4.4-9.8-9.5-12.5c-1.4-0.7-3-1-4.6-1.2
		c-1.4-0.3-2.1,0.4-2.6,1.8c-0.6,1.8-1.4,3.6-2.3,5.3c-2.6,4.8-5.4,9.6-8,14.4c-3.6,6.9-7.3,13.7-10.5,20.8
		c-4.2,9.3-8.2,18.7-12.1,28.2c-2.2,5.4-4,10.9-4.9,16.7c-1,6.3,1.1,11.5,6,13.7c5,2.2,10.3,3.8,16,4.5c0.2-0.8,0.5-1.5,0.6-2.2
		c0.4-3.9,0.8-7.7,1.1-11.6c0.2-2.7,1.2-5.5-0.4-8.2c-1.6-2.8-3.2-5.6-4.6-8.5c-1.6-3.4-3-6.9-4.2-10.4c-0.7-2,0.2-3.1,2.3-3.2
		c2.7-0.2,4.4,1,5.2,3.8C902.9,413,903.7,415.8,906.2,418.5z M813.7,443c0.6,0.3,0.8,0.5,1,0.5c6,0.3,11.9-0.3,17.6-2
		c3.7-1.1,6.5-3.8,6.6-7.9c0.2-6.3,0-12.7-0.3-19.1c-0.2-5.3-0.9-10.5-1.3-15.8c-0.5-7.1-0.7-14.2-1.5-21.2
		c-1-8.9-2.5-17.7-3.6-26.6c-0.8-6.8-1.4-13.7-2.2-20.6c-0.2-1.8-0.5-3.6-0.9-5.4c-0.8-4.1-1.6-8.2-2.6-12.3
		c-1.6-6.7-3.2-13.4-5.2-20c-0.7-2.3-2.4-4.3-3.8-6.2c-0.5-0.6-1.7-1.1-2.5-1.1c-2.8,0.2-7.1,4.3-7.7,7.1c-2.1,9-4.2,18-6.2,27.1
		c-2.4,10.7-4.6,21.5-6.9,32.2c-0.3,1.5-0.6,3-1.1,5c3.7-1.6,6.5-1.2,8.9,1.4c0.7,0.8,1.5,1.6,2.3,2.3c0.5,0.4,1.1,0.7,2,1.3
		c0.1-1.3,0.3-2.3,0.3-3.2c0.4-5.1,0.8-10.3,1.3-15.5c0.3-3.2,1.9-4,4.8-2.8c1.6,0.6,1.8,1.9,1.7,3.1c-0.3,4.4-0.7,8.8-1,13.2
		c-0.1,2.2,0,4.4,0,7.3c1.9-1.9,3.3-3.5,4.9-4.8c1.8-1.5,3.8-2.8,5.8-4.1c1.2-0.8,2.3-0.3,3.2,0.7c0.8,0.9,0.9,2,0.1,3
		c-0.8,1-1.7,2-2.5,2.9c-2.7,3.1-5.5,6.1-7.9,9.3c-1.3,1.7-1.4,4.2-2.8,5.7c-1.9,2-1.7,4.2-1.8,6.5c-0.1,6.6-0.3,13.2-0.4,19.7
		c0,1.6,0,3.1,0,5.2c1-0.6,1.5-0.8,1.8-1.1c2.4-2.6,4.8-5.3,7.2-7.9c2.1-2.3,4.6-2.5,6.8-0.5c1.4,1.2,1.4,2.6,0,3.8
		c-1,0.9-2,1.6-3,2.5c-4,3.6-7.9,7.3-9.2,12.9c-0.2,0.8-0.7,1.7-1.4,2.1c-1.7,1.2-1.8,2.9-1.8,4.6c0.1,2.6,0.4,5.2,0.6,7.7
		C813.2,435.9,813.5,439.6,813.7,443z M792.8,359.6c-0.3,0.8-0.6,1.5-0.8,2.3c-1,5.4-2.2,10.8-3.1,16.2c-1.1,7-2.1,14-3.1,21.1
		c-1.4,9.5-2,19.1-1.3,28.7c0.3,4.5,1.8,8.5,5.5,11.2c5,3.6,10.9,4.1,17.1,4.4c0-1.1,0.1-2,0-2.8c-0.4-4.9-1.3-9.9-1-14.8
		c0.2-4.8-2.2-8.2-4.6-11.7c-2.6-3.6-6.6-5.4-10.5-7.4c-1.5-0.8-3.2-1.4-3.8-3.2c1.8-3.2,4.7-3.8,7.5-1.9c2.6,1.8,5.2,3.5,7.8,5.2
		c0.7,0.5,1.6,0.6,2.6,1c0.1-0.9,0.2-1.3,0.2-1.8c0.2-8.8,0.4-17.7,0.5-26.5c0-1.2-0.8-2.3-1.3-3.5c-0.6-1.4-1.6-2.8-1.9-4.3
		C801.3,366.4,799.1,361.6,792.8,359.6z"/>
	<path fill="#F2F2F2" d="M754.2,62.8c-1.7,0.8-3,1.5-4.3,2.2c-4.3,2.5-9.1,2.6-13.8,2.4c-3.9-0.1-7.9-1-11.8-0.4
		c-4.2,0.6-8,2.5-11.1,5.5c-2.1,2-3.9,4.3-5.7,6.6c-3.5,4.5-8,5.5-13,2.8c-4.3-2.4-8.2-5.4-11.3-9.1c-3.8-4.5-7.5-3.9-12.4-1.7
		c-0.7,0.3-1.2,1.2-1.7,1.9c-8.1,12.3-16.2,24.7-24.3,37.1c-5.5,8.4-10.9,16.8-16.2,25.3c-7.2,11.5-14.3,23.1-21.4,34.7
		c-4.7,7.6-9.1,15.4-14,22.9c-5.1,8-10.5,15.8-15.9,23.6c-2.5,3.6-5.5,7-8.6,10.1c-4.2,4.2-9,7.8-14.6,9.9c-3.6,1.3-7.4,1-11.1-0.2
		c-5.1-1.8-9.1-5.3-12.7-9.2c-5.7-6.2-10-13.5-15.1-20.2c-6.1-8.2-12.2-16.4-18.4-24.5c-4.9-6.4-9.9-12.8-14.8-19.1
		c-2.2-2.8-4.4-5.4-6.9-8.4c-1.3,1.4-2.3,2.3-3.1,3.4c-3,3.7-6.8,6.3-11.6,7.1c-4.5,0.7-8.6-0.1-11.4-4.1c-1.8-2.6-3.5-5.4-5-8.2
		c-2.7-5.1-6-5.2-11.6-4.3c-3.9,0.6-7.1,2.6-9.6,5.9c-4.3,5.8-9.1,11.3-13.1,17.3c-10.8,16-21.6,32-33,47.6
		c-6.6,8.9-13.2,17.9-19.7,26.8c-5.3,7.3-10.5,14.8-15.8,22.1c-1.6,2.3-3.5,4.3-5.3,6.5c-3.4,4.2-6.7,8.4-10,12.6
		c-2.8,3.4-5.6,6.8-8.4,10.3c-3.6,4.6-7.1,9.2-10.6,13.9c-1.6,2.2-5.1,2.6-7.1,0.8c-1-0.9-1-2.8,0.4-4c7.8-6.9,13.2-15.8,20-23.6
		c5.1-5.8,9.9-11.9,14.6-18.1c4.3-5.7,8.2-11.6,12.4-17.4c8.6-11.9,17.2-23.7,25.7-35.7c7.8-11,15.4-22.1,23-33.2
		c7.2-10.6,14.3-21.3,23-30.8c4.4-4.9,9.1-9.5,14.7-13c5.7-3.5,11.7-5.8,18.5-5.7c2.6,0,4.8,0.9,7.1,1.8c4.5,1.8,8.7,4,12,7.5
		c3.8,4.1,7.4,8.4,10.9,12.7c5.1,6.4,9.8,13.1,15.1,19.4c6.5,7.8,12.8,15.7,18.7,23.9c5.7,7.9,11.3,15.7,17.2,23.5
		c2.1,2.7,4.4,5.4,7,7.6c6.3,5.1,11.2,5.2,17.8,0.4c6.5-4.7,11.5-10.8,15.9-17.3c7.4-11.1,14.7-22.3,21.8-33.7
		c5.8-9.3,11.2-18.9,17-28.2c6.5-10.6,13.2-21,19.9-31.4c7.5-11.7,15.1-23.4,22.7-35c1.6-2.4,3.1-4.9,4.7-7.3
		c1.2-1.8,2.6-3.5,2.4-5.9c0-0.5,0.5-1.3,0.9-1.6c3.6-2.4,5.1-6.3,7.4-9.6c5.2-7.7,10.1-15.6,15.6-23.1c4.1-5.7,8.9-10.8,15.8-13.5
		c5.4-2.1,10.7-2.3,16.1-0.7c9.3,2.7,17.2,7.9,23.9,14.8c4.9,5,8.8,10.8,13,16.5c4.6,6.4,8,13.4,11.7,20.3
		c5.2,9.5,10.3,18.9,15.2,28.5c3.7,7.2,6.9,14.6,10.8,21.7c4.6,8.5,9.6,16.8,14.6,25.1c1.9,3.2,4.8,5.8,8.2,7.1
		c3.4,1.4,7.2,1.2,10.7-0.5c7.3-3.6,13.8-8.4,19.7-14c3.7-3.5,7.2-7.1,11.1-10.4c4.5-3.9,9.9-5.5,15.6-4c3.6,1,7.1,3.1,10,5.8
		c2.9,2.9,5.8,5.8,8.5,8.9c6.4,7.5,11.9,15.6,19.2,22.3c3.3,3,6.7,5.8,11.1,7.1c4.2,1.3,8.4,1.3,12.7,0.2
		c8.5-2.2,15.5-6.9,22.3-12.1c9.5-7.4,18.2-15.6,26.4-24.3c5.9-6.3,11.9-12.5,18-18.7c8.7-8.9,17.5-17.7,26.2-26.6
		c2.4-2.5,4.8-5,7.2-7.5c0.6-0.6,1.2-1.4,1.2-2.1c-0.1-3.3,2.3-4.6,4.6-5.6c2.6-1.2,4.7-2.8,6.8-4.8c9.3-8.9,18.7-17.6,30.3-23.5
		c3.8-1.9,7.7-3.4,11.9-3.8c4.4-0.4,8.6,0.7,12.1,3.5c5.1,4.1,9.3,9,12.5,14.7c4.9,9,9.5,18.1,14.3,27.2c0.3,0.6,0.6,1.1,1,1.7
		c3.2,0.4,6-2.9,9.5-1c-0.4,3.9-4.4,4.2-6.4,6.9c2,3.6,4.1,7.2,6.2,10.8c4.3,7.5,8.7,14.9,13,22.3c2.7,4.6,5.4,9.1,8,13.7
		c2.4,4.1,4.5,8.3,6.9,12.4c3.8,6.5,7.5,13.1,11.4,19.5c3.3,5.5,6.6,10.9,10,16.2c1.2,1.8,2.6,3.5,4.1,5c4,3.8,8.6,5.2,13.9,2.6
		c5.1-2.5,10.2-5.1,15.3-7.6c6-3,11.9-6,17.9-9c5.2-2.6,10.4-5.2,16.1-6.7c8.8-2.3,16.6-0.3,23.3,5.8c5,4.5,9.8,9.2,14.7,13.7
		c1.1,1,2.4,1.8,3.6,2.8c0.7,0.5,1.4,1,2,1.6c1.3,1.5,0.8,3.3-1.2,3.5c-1.4,0.2-3.2,0.1-4.3-0.6c-2.2-1.3-4.2-2.9-6.2-4.6
		c-5.1-4.6-9.9-9.6-15.3-13.9c-3.5-2.7-7.8-3.8-12.5-3c-6.2,1.1-11.6,4-17.1,6.7c-9.1,4.5-18,9.4-27,13.9c-3.2,1.6-6.5,2.8-9.9,3.9
		c-4.9,1.6-9.5,0.9-13.9-1.8c-5.1-3.1-8.8-7.7-11.8-12.7c-5-8.2-9.7-16.6-14.5-24.9c-5.6-9.7-11.2-19.4-16.8-29.1
		c-3.3-5.7-6.5-11.4-9.8-17.1c-4.1-7.1-8.3-14.1-12.6-21.3c-1.2,0.1-2.3,0.3-3.5,0.4c-7.2,0.8-14.2-0.2-20.6-3.7
		c-0.7-0.4-1.3-0.8-1.9-1.3c-3.3-2.7-4.8-2.9-8.4-0.6c-2.1,1.3-3.9,3.1-5.8,4.6c-1.8,1.4-3.5,2.9-5.4,4.1c-2,1.3-4.2,1.3-6.5,0.7
		c-4.6-1.2-8.3-3.7-11.1-7.4c-1.9-2.5-3.5-5.2-5.5-7.6s-4.1-4.7-6.3-6.9c-1.8-1.7-3.3-1.6-5.1,0.3c-6,6.1-11.8,12.3-17.8,18.3
		c-3.2,3.2-6.6,6.2-9.7,9.5c-8,8.2-15.8,16.6-23.8,24.8c-8.4,8.7-16.9,17.2-26.1,25.1c-5.6,4.8-11.4,9.2-17.7,13
		c-5.6,3.3-11.6,5.8-18,6.9c-9,1.6-17.1-0.8-24.2-6.6c-4.1-3.4-7.8-7.1-11.1-11.3c-4.2-5.2-8.4-10.4-12.7-15.5
		c-3.1-3.7-6.7-6.9-10.8-9.6c-3.5-2.3-6.8-1.6-10.1,0c-1.5,0.8-2.9,1.9-4.2,3c-3.5,3.1-6.8,6.4-10.2,9.5
		c-5.9,5.3-12.3,9.9-19.4,13.4c-4.9,2.4-10.4,3.3-15.7,1.5c-4.6-1.5-8.2-4.6-11.2-8.4c-5.3-6.8-9.4-14.2-13.3-21.8
		c-6-11.5-11.6-23.1-17.5-34.6c-3.6-6.9-7.5-13.6-11.2-20.4c-1.8-3.2-3.4-6.5-5.2-9.7C755.3,64.6,754.8,63.9,754.2,62.8z
		 M675.1,63.6c1.5,0.3,2.6,0.7,3.6,0.7c3.1,0.1,5.6,1.2,7.9,3.2c2.8,2.5,5.7,4.9,8.6,7.3c3.5,2.9,4.4,2.9,7.1-0.6
		c3.7-4.9,8.3-8.5,13.8-10.8c4.9-2.1,10.1-3,15.5-1.8c6,1.4,11.5,0.5,16.8-2.5c2.9-1.6,3.1-1.8,1-4.6c-4-5.4-7.9-10.8-12.3-15.9
		c-5.6-6.6-12.8-10.9-21.1-13.1c-4.8-1.3-9.7-1.4-13.9,1.9c-2.4,1.8-4.9,3.7-6.7,6c-4.8,6.2-9.3,12.7-13.7,19.2
		C679.5,56.2,677.5,59.8,675.1,63.6z M1051.4,72.4c4.9,1.5,7.6,4.8,10.2,8.1c2.8,3.6,5.5,7.2,8.4,10.6c3.6,4.3,4.8,4.1,8.7,0.9
		c2.6-2.2,5.4-4.3,8.3-6.1c6.5-4,12.5-2.8,18.2,1.7c2.4,1.9,4.9,3.1,7.8,3.4c3.1,0.3,6.4,0.6,9.3-1c0-0.5,0-0.7-0.1-0.9
		c-5-10.6-10-21.4-16.6-31.2c-2.4-3.6-5.3-6.8-8.8-9.5c-2.4-1.8-5.1-2.5-8.2-1.9c-4.1,0.8-7.7,2.6-11.3,4.7
		c-7.6,4.4-14.1,10.3-20.6,16.1C1055.1,68.8,1053.5,70.4,1051.4,72.4z M471,149.4c-2.8-3.5-5.9-7-10.1-9.4c-2.8-1.6-5.8-3-9.3-3.2
		c-4.2-0.3-7.8,1.1-11.5,2.6c-1.8,0.8-3.4,2.3-5.6,3.9c1.8,0.2,2.7,0.3,3.6,0.4c5.9,0.4,10.1,3.3,12.9,8.5c1,1.9,2.2,3.7,3.3,5.5
		c1.2,2,3.4,2.9,5.6,1.9c1.4-0.6,2.8-1.3,3.8-2.4C466.2,154.8,468.4,152.2,471,149.4z"/>
	<path fill="#F2F2F2" d="M671.1,208.1c2.8-1.6,5.3-3.1,7.8-4.4c2.8-1.5,5.3-0.9,7.8,1c3,2.2,4.7,5.3,6.6,8.3
		c2.9,4.4,6.3,8.5,7.5,13.8c0.5,2.2,1.1,4.4,1.3,6.6c0.2,3.1-1.9,5.5-5.5,6.7c-1.5,0.5-3,1.2-4.5,1.8c-0.4,0.2-0.7,0.5-1.2,0.9
		c1.7,4.5,3.3,8.8,5,13.5c11.4-5.4,22.5-10.7,33.8-16c-0.8-3.6,0.2-7.2-1.6-10.8c-1.8,0.6-3.4,1-4.9,1.6c-4.5,1.7-7.7,0.6-8.3-4.6
		c-0.5-3.9-0.6-7.9-0.6-11.9c0.1-6.3,0.5-12.5,0.7-18.8c0-1.1,0.1-2.2-0.3-3.2c-0.9-2.2-0.7-4.3,0.2-6.3c2-4,4.3-8,7.9-10.8
		c0.7-0.5,1.4-1,2.2-1.3c3.2-1.5,6.2-0.7,8.7,1.9c2.3,2.4,2.6,5.6,3.9,8.4c1.7,3.6,3.2,7.3,4.7,11c1.8,4.6,3.4,9.3,5.1,13.9
		c0.7,2,1.4,4.1,2.3,6c1.5,3.2-0.4,7.6-3.9,8.1c-3.7,0.5-6.9,2.2-10.4,3.2c-1.1,0.3-1.7,0.9-1.6,2c0.3,3,0.6,5.9,0.9,9.1
		c0.9-0.1,1.6-0.1,2.1-0.3c12.6-5.2,25.3-10,38.3-13.9c9.5-2.9,19.1-5.5,28.7-7.7c10.3-2.4,20.7-4.4,31.1-6.1
		c8.8-1.5,17.7-2.6,26.6-3.6c12.5-1.4,25.1-2.2,37.8-2.2c6,0,12.1-0.6,18.1-0.3c10.2,0.5,20.4,0.3,30.6,1.6c4.4,0.6,8.8,0.5,13.2,1
		c6.7,0.7,13.5,1.4,20.2,2.3c7.3,1,14.5,1.9,21.7,3.3c9.1,1.8,18.1,3.9,27.1,6.1c6.1,1.5,12.1,3.1,18.1,5
		c11.6,3.6,23.2,7.4,34.7,11.3c7.9,2.7,15.9,5.6,23.6,8.8c9.8,4.1,19.5,8.6,29.2,13c6.4,2.9,12.7,5.9,19,9.1
		c5.7,2.9,11.4,6.1,17,9.4c9.2,5.5,18.3,11,27.3,16.8c7.7,4.9,15.2,10.2,22.8,15.4c0.7,0.5,1.4,1,2.5,1.7c2-3.1,3.9-6.1,5.7-9.1
		c0.6-0.9,0.3-2-0.9-2.3c-2.9-0.8-4.5-3.3-6.3-5.3c-1.7-1.9-2.1-3.9-0.9-6.5c2.6-5.6,6.2-10.3,10.3-14.8
		c6.6-7.2,13.3-14.2,19.9-21.3c1.5-1.6,2.9-3.4,4.4-5.1c0.3-0.3,0.5-0.8,0.9-0.9c5.3-1.9,10.5-4.3,16.5-2.7c2.4,0.6,4.4,1.8,6.1,3.5
		c0.5,0.5,0.9,1.4,1,2.2c0.2,3.6-1.1,7-2.1,10.4c-1,3.1-2.2,6.1-3.5,9c-2,4.7-4.2,9.5-6.3,14.1c-1.6,3.5-3.2,7-5,10.4
		c-2,3.7-3.9,7.4-6.3,10.8c-2.8,3.9-7.1,5.2-11.7,4.2c-2.6-0.6-5.1-1.6-7.6-2.5c-2.4-0.9-3.2-0.8-4.5,1.4c-1.5,2.6-3,5.2-4.7,8.2
		c2.8,2.3,5.7,4.7,8.6,7c4.9,4,9.9,8,14.7,12.1c6.4,5.6,12.9,11.1,19.1,17c4.2,4,7.8,8.6,11.6,13c2.8,3.2,5.5,6.7,8.4,9.8
		c1.2,1.3,1.3,2.4,0.7,3.8c-0.6,1.3-2.2,1.9-3.8,1.7c-1.4-0.2-2.5-0.7-3.4-2c-3.2-4.6-6.4-9.2-9.9-13.5c-3-3.6-6.6-6.8-10-10.1
		c-3.3-3.2-6.6-6.5-10.1-9.5c-4.9-4.2-9.8-8.4-14.8-12.4c-4.1-3.3-8.3-6.6-12.5-9.8c-0.5-0.4-1.1-0.7-1.8-1.1
		c-0.7,0.8-1.5,1.4-1.9,2.2c-2.9,5.1-5.8,10.3-8.8,15.4c-0.7,1.3-1.8,2.5-3.1,3.2c-1.4,0.8-3.1,0.9-4.4-1.2c2.8-4.9,5.6-10,8.4-15
		c1.4-2.4,2.7-4.9,4.1-7.3c0.6-1.1,0.4-1.8-0.6-2.5c-7.5-5.1-14.9-10.2-22.5-15.2c-5.3-3.5-10.7-6.9-16.1-10.2
		c-12.7-8-25.8-15.3-39.3-21.8c-18-8.6-36.1-16.9-54.9-23.7c-11.2-4-22.7-7.4-34.1-11.2c-14.3-4.8-29-8.4-43.7-11.7
		c-8.3-1.9-16.8-2.9-25.2-4.1c-6.5-1-13-1.8-19.5-2.5c-4.2-0.5-8.4-0.6-12.6-0.9c-4.8-0.4-9.7-1-14.5-1.2
		c-13.9-0.3-27.8-0.6-41.8-0.5c-7.8,0-15.5,0.7-23.2,1.3c-14.9,1.1-29.8,3.1-44.5,6c-10,2-20.1,3.9-30,6.5
		c-11.8,3.2-23.6,6.9-35.2,10.7c-8.1,2.7-15.9,6-23.9,9.1c-1,0.4-1.9,1-2.8,1.4c0.4,3.5,0.9,6.8,1.1,10.1c0.2,2.6-0.3,3.2-2.5,5.2
		c-2.8-3.8-2.7-8.5-3.8-12.7c-2.7,0.2-28.5,12-32.6,15c0.5,2.3,1,4.7,1.5,7.2c0.6,3.3,0.6,3.3-2.8,4.8c-3.6-1.9-2.2-6.3-4.5-9.3
		c-2.2,1.1-4.6,2.2-6.8,3.5c-16.7,9.4-33.5,18.8-50.2,28.3c-10.7,6.1-21.2,12.5-31.8,18.6c-10.5,6.1-21.1,12.2-31.7,18.3
		c-9.1,5.2-18.1,10.4-27.3,15.3c-6.8,3.7-13.8,7.2-20.8,10.4c-13.9,6.4-27.8,12.8-41.9,18.8c-9,3.8-18.4,6.8-27.7,9.9
		c-8.1,2.7-16.2,5.2-24.4,7.4c-6.7,1.8-13.6,3.4-20.4,4.7c-9.3,1.7-18.6,3.3-28,4.6c-10,1.3-20,1.8-30,1.3
		c-7.5-0.4-15.1-0.4-22.4-2.6c-4.7-1.3-9.3-2.8-13.5-5.3c-1.9-1.1-1.9-2.4-0.1-3.7c1.5-1,3.1-1.1,4.6-0.2c4.7,2.9,10,4.2,15.3,5
		c3.8,0.6,7.7,0.7,11.5,0.8c7.9,0.3,15.7,0.5,23.6,0.1c11.9-0.7,23.6-2.5,35.2-4.8c12.3-2.4,24.4-5.4,36.3-9.1
		c10.5-3.3,20.9-6.8,31.2-10.7c9-3.4,17.8-7.1,26.6-11c15.9-7.1,31.6-14.4,46.7-23c14.5-8.2,29-16.5,43.5-24.9
		c16.2-9.4,32.5-18.8,48.7-28.2c8.7-5,17.2-10.3,26-15.2c7.6-4.3,15.4-8.2,23.2-12.2c3.1-1.6,3.4-1.8,2.1-5.2
		c-1.3-3.5-2.8-7-4.3-10.8c-1,0.1-2.1,0-3.1,0.2c-2,0.5-3.9,1.2-5.9,1.6c-4.2,0.8-7-1-7.6-5.2c-0.4-3.1-0.5-6.2-0.2-9.3
		c0.4-4.3,1.3-8.5,2.2-12.7C671.8,215.6,671.8,211.9,671.1,208.1z M1239.8,295.2c2.5,2.3,5.3,2.8,8,3.5c2.5,0.7,4.2-0.3,5.6-2.6
		c3.5-5.5,6.6-11.1,9.5-16.8c4.5-8.9,7.6-18.3,10.7-27.7c0.4-1.3,0.6-2.8,0.5-4.1c-0.2-1.3-0.8-2.4-2.5-2.9
		c-2.9-0.8-5.4-0.3-7.7,1.2c-3.7,2.4-7,5.2-9.9,8.6c-3.6,4.2-7.3,8.2-11,12.2c-2.6,2.9-5.4,5.6-7.9,8.6c-2.3,2.8-4.7,5.6-5.5,9.4
		c-0.9,4.3,0.5,6.6,5,7.6c2.5-3.6,5-7.2,7.6-10.7c5-6.8,10.1-13.7,15.2-20.5c0.8-1.1,1.8-2.1,3.4-2.3c2.2-0.2,3.4,1.2,2.6,3.2
		c-0.4,1-1.1,1.9-1.8,2.6c-7.9,8.7-14.2,18.6-20.6,28.4C1240.5,293.5,1240.2,294.3,1239.8,295.2z M733.3,221.5
		c3.1-1.2,5.3-2.1,7.6-3.1c2.2-0.9,2.8-1.7,2-4c-2.1-6-4.5-11.9-6.8-17.8c-0.6-1.6-1.5-3.1-2-4.7c-1.3-3.9-3.1-7.6-5.7-10.7
		c-1.2-1.5-2.8-2-3.9-0.9c-1.1,1.1-2.4,2.4-2.8,3.8c-0.7,2.9-1.1,5.9-1.3,8.9c-0.4,6.2-0.5,12.5-0.7,18.7c-0.1,2.3-0.1,4.7,0,7.1
		c0.1,2.3,0.2,4.8,2.5,6.5c2-0.8,3.9-1.6,6-2.4c-0.2-2.3-0.3-4.3-0.5-6.4c-0.3-2.3-0.8-4.7-1.1-7c-0.2-1.9,1.1-3.5,3-4
		c2.1-0.6,2.3,1.2,2.8,2.3c0.4,0.9,0.5,2,0.6,3.1C733.2,214.2,733.3,217.4,733.3,221.5z M688.8,236.4c2.2-0.2,5.4-1.4,6.5-2.4
		c1-0.9,1.3-2,0.9-3.2c-0.6-1.8-1.1-3.8-2-5.4c-2.2-3.8-4.6-7.5-7.1-11.1c-1-1.4-2.2-2.7-3.5-3.7c-3.9-3-5.2-2.6-6.2,2.2
		c-1.4,6.4-2.5,12.9-3.7,19.3c-0.3,1.5-0.2,3,0,4.5c0.7,4.6,1.6,5.1,6,3.9c0.7-0.2,1.4-0.5,2.2-0.7c1.3-0.4,1.6-1.3,1.3-2.5
		c-0.2-0.6-0.3-1.3-0.5-1.9c-0.9-2.5-1.9-5-2.8-7.6c-0.6-1.6,0.5-3.9,2.2-4.4c1.4-0.5,2.9,0.3,3.5,2c0.6,1.5,0.9,3.1,1.4,4.6
		C687.6,232.2,688.2,234.3,688.8,236.4z"/>
</g>
</svg>
