<?xml version="1.0" encoding="utf-8"?>
<!-- Generator: Adobe Illustrator 18.1.0, SVG Export Plug-In . SVG Version: 6.00 Build 0)  -->
<!DOCTYPE svg PUBLIC "-//W3C//DTD SVG 1.1//EN" "http://www.w3.org/Graphics/SVG/1.1/DTD/svg11.dtd">
<svg version="1.1" id="Layer_1" xmlns="http://www.w3.org/2000/svg" xmlns:xlink="http://www.w3.org/1999/xlink" x="0px" y="0px"
	 width="1200px" height="800px" viewBox="0 0 1200 800" enable-background="new 0 0 1200 800" xml:space="preserve">
<g>
	<path fill="#F2F2F2" d="M384.5,423.8c-1-3.1-1.8-5.7-2.8-8.3c-0.9-2.7-1.6-3.1-4.3-2.3c-3.7,1-7.5,1.1-11.2,0.9
		c-5-0.2-9.7-1.7-14.2-3.4c-6.8-2.7-12.3-7.3-16.4-13.3c-1.8-2.7-3.3-5.5-5-8.3c-0.1-0.1-0.1-0.3-0.1-0.3c-4.5-3.2-3-8.1-3.1-12.3
		c-0.2-5.6,1-11.1,2.9-16.6c3-9.1,7.6-17.4,14.7-23.9c5.2-4.7,11.1-8.7,18.1-10.2c1.4-0.3,2.8-0.4,4.1-0.5c2-0.2,4.1-0.2,6.2-0.5
		c3.4-0.4,6.6,0.1,9.9,1.2c1.2,0.5,2.4,0.7,4,1.2c0.5-3.4,1.1-6.6,1.5-9.9c0.7-6.6,2.9-12.8,5.3-18.9c0.4-0.9,0.7-1.9,1.1-2.9
		c0.8-2.1,2.3-3.7,4.2-4.9c1.4-0.8,2.6-0.6,3.8,0.4c1.8,1.5,1.9,2,0.2,3.8c-0.4,0.4-0.7,0.7-1.7,1.7c1.3-0.1,1.8-0.1,2.2-0.3
		c5.2-1.8,10.5-2.6,15.9-1.4c2,0.5,4.1,1.1,5.9,2c6.9,3.4,12.8,7.8,15.4,15.6c0.5,1.4,1.4,2.7,1.9,4.1c2,5.1,4.1,10,5.9,15.1
		c2.3,6.4,2.8,13.2,3,20c0.3,5.4,0.1,10.9-1.4,16.1c-2.1,7.6-4.9,14.8-11,20.4c-1.5,1.3-0.7,2.8-0.5,4.1c0.9,4.4,2,8.8,2.9,13.2
		c0.4,2,0.3,4.1,0.5,6.4c2.1,0,4.1,0.2,5.9,0c4.5-0.6,9.1-1.4,13.6-2c6.8-0.9,13.7-1.9,20.5-2.7c9-1,18.1-1.8,27.2-2.9
		c0.8-0.1,1.6-0.4,2.3-0.6c0.6-3.9-4.4-47.1-6-51.1c-0.6-0.1-1.3-0.2-2-0.2c-7.6,0.3-14.4-2.4-20.8-6.3c-8.8-5.3-14.3-13-17.5-22.4
		c-2.4-7.2-4.3-14.6-6.2-21.9c-1.5-5.8-1.3-11.9-1.4-17.9c-0.1-9.6,0.1-19.2,2.2-28.6c2.9-12.8,7.7-24.9,15.2-35.7
		c1.6-2.3,3.4-4.3,5.4-6.3c1.2-1.1,2.9-1.7,4.4-2.5c1.4-0.7,2.9-1.5,4.2-2.2c4.5-2.3,9-4.4,14.4-4.3c6,0.1,10.7,2.6,14.6,6.8
		c4.1,4.3,6.7,9.6,9.5,14.8c3.7,7.1,5.5,14.9,7.6,22.6c0.8,2.9,0.8,6.2,1.1,9.2c0.5,5.3,0.8,10.6,1.2,15.8c0,0.3,0.3,0.6,0.5,1.1
		c0.9-0.2,1.8-0.1,2.7-0.5c7.6-3.1,14.9-1.5,21.9,2c2.9,1.5,5.7,3.3,8.9,5.3c1.1-2.2,2.1-4.2,3.1-6.3c2.8-5.4,5.4-11,8.4-16.3
		c1.4-2.5,3.2-4.8,5.2-6.9c5.4-6,11.1-11.8,17.8-16.4c1.8-1.2,3.9-2,6-2.5c2.9-0.6,4.3,0.7,4.8,4.2c-1.7,0.7-3.3,1.4-4.9,2.2
		c-1.6,0.9-2.9,2-4.5,3c0.1,0.3,0.3,0.5,0.4,0.7c1.3-0.6,2.7-0.9,3.9-1.6c4.2-2.3,8.8-3.4,13.5-3.9c1.5-0.2,3.2,0.4,4.6,1
		c3.7,1.8,6.5,4.2,8.7,8.1c6.1,11.2,7.4,23,6.3,35.5c-1.4,15-4.7,29.5-8.8,43.9c-4,14.1-10.2,27.2-18.5,39.2
		c-3.7,5.4-9.2,8.7-15,11.3c-4.6,2.1-9.6,2.4-14.5,2.7c-2.3,0.1-4.7-0.6-7-1c-1.7,3.6-3.2,14.7-3.1,21.8c12.2,0.3,24.3,0.5,36.5,0.8
		c12.2,0.4,24.3,0.9,36.8,1.5c0.4-1.1,0.8-2.3,1.2-3.4c2.2-7,4.4-14.1,6.7-21.1c0.5-1.5,0.8-2.8-0.3-4.2c-4.7-6-6.6-13.1-7.8-20.5
		c-1.7-9.9-1.8-19.6-0.5-29.6c1.2-9.2,2.9-18.1,5.7-27c4.8-15.1,11.4-29.2,21.1-41.7c6.4-8.3,13.2-16.3,21.8-22.5
		c4.6-3.2,9.3-6.4,13.9-9.6c0.6-0.5,1.5-0.7,2.2-0.9c2.8-0.8,5.3-0.8,7.8,1.1c1.4,1.1,3.3,1.5,5.1,2c4,1.3,7.6,2.9,10.2,6.5
		c1.8,2.7,4.2,4.9,5.9,7.6c3.3,5.3,4,11.2,4.2,17.2c0.1,2,0.2,4.1,0.4,6.5c1.9-0.2,3.7-0.5,5.5-0.6c8.9-0.6,16.2,2.7,21.7,9.7
		c4.3,5.4,6.8,11.5,7.7,18.5c1,7.6,1.9,15.1,1.5,22.7c-0.5,8-1.5,16-4.4,23.7c-1.9,5.2-2.6,10.8-4.6,15.8
		c-4.1,10.4-8.4,20.7-14.6,30.1c-3.7,5.5-8,10.5-14,13.6c-2.5,1.3-5.3,2.3-8.1,2.9c-2.4,0.5-3.4,1.6-3.8,3.8c-0.4,2.5-0.8,5-1.3,7.6
		c1.5,0.4,2.7,0.8,3.9,1c10.1,1.6,20.3,2.9,30.4,4.6c7.8,1.3,15.6,2.9,23.4,4.3c2.5,0.5,5.1,0.6,7.5,1.3c1.6,0.4,2.5-0.2,3-1.5
		c1.1-2.4,2-4.9,3.2-7.3c0.7-1.5,0.2-2.3-0.9-3.2c-2.1-1.9-4.2-3.9-6-6.2c-3.4-4.5-4.1-9.8-3.1-15.1c1.9-10.7,6.2-20.5,12.9-29.1
		c3.7-4.8,7.5-9.4,12.3-13c2.9-2.1,6-4.3,9.1-6.3c4.7-2.9,9.9-2.8,15-1.4c4.4,1.2,8.3,3.5,12,6.2c5.7,4.1,7.6,10.2,8,16.9
		c0,0.5,0,0.9-0.2,1.4c-2.5,9.1-5,18.2-10.4,26.2c-4.7,6.9-9.9,13.4-16.5,18.5c-5.8,4.5-12.6,6.4-20,6.2c-6.1-0.2-4.5-0.6-7.4,4.3
		c-0.8,1.4-1.3,2.9-1.9,4.5c0.7,0.5,1.3,1,1.8,1.2c5.6,1.2,11.2,2.3,16.9,3.5c9,1.9,18.1,3.7,26.9,6.1c15.1,4,30.2,8.4,45.2,12.6
		c19.4,5.5,38.6,11.6,57.6,18.3c12.6,4.4,25,9.5,37.1,14.9c8.9,4,18.1,7.6,27.1,11.5c12.6,5.4,24.8,11.8,36.6,18.8
		c10.7,6.4,21.2,13,31.8,19.5c8,5,16.1,9.9,24,15.1c5.8,3.9,11.4,8.2,17,12.4c4.9,3.7,9.7,7.5,14.6,11.1c2.7,2,4.1,4.9,5.9,7.6
		c0.4,0.6,0.2,1.5,0.3,3c-3.2-2-5.9-3.7-8.5-5.5c-8.9-6.2-17.7-12.4-26.7-18.5c-7.7-5.3-15.6-10.2-23.4-15.3
		c-7.6-5-15.2-9.9-22.9-14.8c-5-3.1-10.1-6-15.2-8.8c-5.8-3.3-11.6-6.6-17.6-9.7c-6.3-3.1-12.7-6-19.1-8.9c-4.3-1.9-8.7-3.8-13-5.6
		c-13.4-5.7-26.9-11.6-40.5-16.9c-9.1-3.6-18.5-6.4-27.8-9.5c-8.5-2.9-17-5.7-25.6-8.5c-3-1-6.2-1.8-9.3-2.7
		c-8.7-2.5-17.2-5.3-25.9-7.6c-14.5-3.8-29-7.5-43.6-11c-8.4-2-16.9-3.5-25.3-5.3c-0.5-0.1-0.9-0.1-1.8-0.2
		c-1.2,2.4-2.4,4.9-3.5,7.4c-1.5,3.1-2.8,6.4-4.2,9.5c-1,2.2-4.2,2.8-6.2,1.2c-1.1-0.9-0.9-2.3,0-4.1c2.5-4.9,4.8-9.9,7.1-14.8
		c-3.3-1.9-60.1-11.8-66-11.6c-1.2,5.1-2.4,10.1-3.6,15.3c-0.5,1.8-1.1,3.8-1.8,5.5c-0.3,0.7-0.8,1.5-1.5,1.8
		c-0.8,0.5-2,0.8-2.9,0.6c-1.1-0.4-1-1.6-0.8-2.7c1-5.5,1.9-11.1,2.9-16.7c0.3-1.6,0.6-3.1,0.9-4.9c-1.1-0.3-1.9-0.6-2.9-0.6
		c-7.3-0.9-14.6-1.8-21.9-2.8c-4.9-0.6-9.8-1.2-14.7-1.7c-4.6-0.5-9.2-0.7-13.8-1.1c-4.1-0.4-8-0.7-12.1-1c-0.8-0.1-1.7-0.3-2.4,0
		c-0.7,0.3-1.7,1-1.8,1.7c-1.3,7.7-2.6,15.5-3.7,23.1c-0.5,2.9-0.6,5.7-1.1,8.6c-0.2,1.4-0.8,2.7-2.4,3.1c-1.8,0.6-3.4,0.1-4.4-1.2
		c-0.6-0.8-0.5-2.4-0.3-3.5c1.8-10.4,3.7-20.8,5.4-31.3c0-0.2-0.2-0.5-0.4-0.9c-0.7-0.1-1.6-0.3-2.5-0.3c-7.8-0.4-15.7-0.6-23.5-0.9
		c-8.2-0.3-16.4-0.5-24.6-0.7c-6.1-0.2-12.2-0.4-18.2-0.5c-4-0.1-4.1,0-4.2,4.1c-0.1,6.6-0.1,13.4,0,20c0,4.8-1.5,6.1-6.7,5.4
		c-0.7-9.4,1.1-18.9,0.3-28.7c-8.1-0.6-16.1-0.1-24.5,0.2c-0.2,3-0.2,5.9-0.5,8.8c-0.3,3.2-0.7,6.4-1.3,9.6c-0.2,1-1.1,2-2,2.6
		c-0.7,0.5-2.1,0.6-2.8,0.2c-0.6-0.5-1.2-1.8-1.1-2.7c0.1-5.2,0.4-10.3,0.6-15.5c0-0.6-0.2-1.3-0.3-2.2c-6.6-0.6-12.9,0.8-19.7,1.2
		c0,3.3,0.1,6.4,0,9.4c-0.1,4.3-0.2,8.7-0.6,13c-0.3,2.7-1,5.4-1.8,8c-0.3,0.9-1,1.8-1.5,2.6c-2.3-0.7-1.9-2.4-1.9-3.8
		c0.1-5.4,0.3-10.8,0.3-16.2c0-4-0.2-8-0.3-12.3c-2.3,0-4.3-0.2-6.4,0c-9,0.8-18.1,1.8-27.1,2.8c-6.4,0.7-12.8,1.8-19.2,2.8
		c-4.5,0.6-9.1,1.2-13.7,1.8c-2.7,0.4-2.9,0.7-2.7,3.6c0.2,3.3-0.1,6.6-0.3,9.9c-0.1,1.7-1.1,2.4-2.6,2.9c-2.2,0.7-3.3,0.2-3.6-2.2
		c-0.3-2.2-0.1-4.4-0.3-6.5c-0.2-1.8-0.6-3.6-0.9-5.8c-14.5,2.2-28.5,5.2-42.8,8.4c1,3.6,2,6.8,2.8,10.1c1,4.5,2,8.9,2.8,13.5
		c0.3,1.8,0.6,3.8-1.5,5c-1.9,1.1-3.4,0.7-4-1.4c-0.8-2.8-1.3-5.6-2-8.4c-1.5-5.6-3-11.3-4.6-17.2c-2.3,0.5-4.2,0.7-6.1,1.2
		c-11.8,3.1-23.7,6.1-35.4,9.5c-16.6,4.8-33.2,9.8-49.6,15.1c-19.9,6.4-39.4,13.7-58.6,22c-7.4,3.2-15,6-22.4,9.2
		c-7.2,3.1-14.2,6.7-21.4,9.9c-11,4.7-21.1,10.9-31.4,16.8c-7.9,4.5-15.8,9.2-23.3,14.2c-9.9,6.6-19.8,13.4-29.5,20.5
		c-9,6.5-17.9,13.4-26.6,20.4c-9.6,7.6-18.7,15.8-27.4,24.4c-2,2-4.1,2.9-6.7,1.7c-0.6-0.3-1.2-1-2.1-1.8c3-3.1,5.7-6.3,8.8-9
		c6-5.5,12.1-11.1,18.3-16.3c6.5-5.5,13.2-10.8,20-15.9c8.7-6.5,17.4-12.9,26.3-19.2c5.7-4.1,11.5-8.1,17.5-11.7
		c13.3-7.9,26.5-15.8,40.1-23.1c10.2-5.5,21-10.1,31.6-14.8c10.6-4.7,21.4-9.2,32.1-13.6c6.7-2.8,13.5-5.3,20.3-7.9
		c8.4-3.1,16.8-6.3,25.3-9.2c8.4-2.9,16.9-5.5,25.3-8.1c14.1-4.3,28.2-8.7,42.4-12.7c8.2-2.3,16.5-4.1,24.8-6.2
		C380.8,424.7,382.4,424.3,384.5,423.8z M674.2,357.3c-0.3,0.7-0.7,2.1-1.3,3.5c-1.6,3.7-3,7.5-4.7,11.1c-0.7,1.6-0.5,2.6,1,3.4
		c4.8,2.8,9.9,4.2,15.5,3.3c8.1-1.3,14.6-5.5,20-11.5c6.2-6.8,10.8-14.5,15.1-22.6c6.2-11.7,10.4-24.1,14.2-36.7
		c2.4-7.9,3.8-16.1,5.5-24.2c0.6-2.7,0.7-5.3,1.2-8.5c-1.8,0.5-3,1.2-4.3,1.1c-1.6,0-2.2-1.4-2.6-3.3c1.7-1.3,3.4-2.8,5.3-4
		c1.8-1.2,2.9-2.5,2.7-4.8c-0.2-2.2,0-4.4,0-6.5c0-6.9-1.6-13.4-5.5-19.3c-6.2-9-14.4-10.1-23.7-6.7c-3.7,1.3-6.8,4.3-9.8,7
		c-4.5,4.1-8.8,8.5-13,12.9c-7.7,8.2-13.9,17.5-18.9,27.6c-4.8,9.7-8.2,19.8-10.8,30.2c-1.3,5.2-2.1,10.4-2.8,15.6
		c-0.7,6.1-0.9,12.2-0.4,18.2c0.6,7.6,1.7,14.8,4.2,21.9c0.4,0.9,0.8,1.8,1.5,3.1c3.6-5,4.7-10.8,8.1-14
		C671.9,355.5,672.8,356.2,674.2,357.3z M511.7,343.3c2.1,0.2,3-1.2,4.1-2.4c6.7-7,10.1-15.7,12.2-24.9c1.1-4.9,1.1-10,1.7-15
		c0.6-6.1,1.2-12.1,1.3-18.2c0.1-8.6-0.6-17-1.5-25.5c-0.6-7.3-2.6-14.3-4.8-21.2c-2.6-8.1-6.6-15.5-12.3-21.9
		c-3-3.5-7.1-5.1-11.8-3.9c-4.3,1.1-8.1,3.1-11.9,5.4c-3.4,2.1-6.1,5-8,8.5c-2.4,4.3-4.8,8.7-6.9,13.2c-3.5,7.4-6.4,15.1-7.4,23.3
		c-0.8,6.8-1.4,13.7-1.7,20.6c-0.2,4.9,0.2,9.9,0.6,14.8c0.6,7.6,2.6,14.7,5.2,21.7c1.7,4.6,3.4,9.4,6,13.5
		c5.1,8.1,12.5,13.1,22,14.6c2.1,0.4,4.3,0.9,6.4-0.6c-0.5-3.9-0.7-7.7-1.4-11.6c-0.6-3.6-0.5-7.4-2.6-10.6c-0.6-1-1-2.4,0.3-3
		c1-0.6,2.6-0.7,3.5-0.4c2.6,1.2,4.5,3,4.8,6.2c0.4,4.1,0.9,8.2,1.5,12.3C511,340.1,511.4,341.7,511.7,343.3z M582,372.7
		c2.5,0.4,4.4,0.9,6.4,1c8.1,0.4,14.8-3.1,20.6-8.4c6.3-5.7,9.8-13.4,13.3-20.9c6-12.9,9.4-26.7,12.3-40.5c2.2-10.3,3.4-20.9,3-31.6
		c-0.3-7.9-1.6-15.5-5.5-22.6c-3.1-5.5-5.6-6.9-11.7-5.4c-0.2,0.1-0.5,0.2-0.6,0.3c-4.1,1.5-8.3,2.8-12.3,4.4
		c-1.5,0.6-2.9,1.1-4.3,0.4c-1.8-0.9-2.9-0.1-4,1c-4.8,5.2-9.5,10.4-12.6,16.8c-3.6,7.4-6.7,14.9-10.3,22.2
		c-2.5,5.1-4.3,10.4-5.8,15.8c-3.3,12.3-4.2,25-3.5,37.7c0.4,7.1,1.8,13.9,4.8,20.5c0.9,2.1,2,4.3,4.6,5.2c0.3-0.3,0.6-0.5,0.6-0.6
		c1.3-4.4,2.6-8.8,4-13.3c0.4-1.1,0.6-2.2,1.1-3.2c0.8-1.6,1.7-1.8,2.9-0.6c1.4,1.2,1.5,2.9,1.1,4.5c-0.8,4-1.9,7.8-2.9,11.7
		C582.8,368.8,582.4,370.6,582,372.7z M739.4,392.6c4.7-1.4,8.3-4,11.3-7.4c6.6-7.6,11-16.6,14.6-25.8c3.2-8.2,5.7-16.8,8.5-25.2
		c2.7-8.2,4.1-16.6,3.9-25.1c-0.1-7.2-0.9-14.5-1.8-21.6c-0.8-6.4-4.3-11.6-9.5-15.4c-5.6-4.1-11.5-3.6-17.3-1
		c-1.7,9.2-2.9,18.1-4.9,26.8c-1.5,6.6-3.9,13-5.6,19.6c-2.5,9.4-6,18.3-10.6,26.9c-2.3,4.2-4.4,8.5-5.1,13.4c-0.6,4-1,7.8,0.1,11.6
		c1.6,5.2,3.3,10.2,5.1,15.4c0.4,0.9,1.3,1.7,2.2,2.8c1.9-2.3,3.8-2.9,6.4-1.7C739.3,387.4,738.1,390.2,739.4,392.6z M387.1,333.5
		c-2.6-0.4-5.1-0.7-7.5-1.1c-4.6-0.6-9.2-0.7-13.7,0.2c-7.6,1.6-13.6,6.3-18.5,12c-3.6,4.1-6.6,8.8-8.7,14.1
		c-4.2,11-5.5,21.6,0.7,32.4c7.3,12.3,19.1,18.8,33.7,16.2c1.7-0.3,2.9-0.9,3.1-3c0.5-2.9,2.1-3.6,5.1-2.8c1,0.3,2,0.5,3,0.7
		c1.8-1.5,3.5-2.9,5.3-4.4c3.9-3.1,6.4-7.3,8.3-11.6c0.8-1.8,2.4-4,0.9-6.2c-3.8-5.3-6.2-11.3-8.2-17.4c-2.3-6.8-3.7-13.8-3.6-21
		C387.1,339,387.1,336.5,387.1,333.5z M436,380.7c0.4,0.1,0.7,0.2,1,0.3c1.4-2.2,3-4.3,4.1-6.6c3.1-7.2,5-14.6,3.9-22.5
		c-0.7-5-0.9-10.1-2-15c-2-9.4-6.4-18-10.9-26.5c-0.9-1.8-2.8-3-4.2-4.5c-0.8-0.7-1.8-1.3-2.8-2c-4.4-3.3-9.6-3.9-14.7-3.9
		c-2.9,0-5.7,0.8-8.6,1.2c-1.3,0.2-2.2,0.7-2.6,1.9c-0.8,2.4-1.8,4.8-2.3,7.2c-2.9,12.1-3.9,24.2-2.7,36.7
		c1.1,11.1,4.7,21.4,10.9,30.6c3.2,4.9,7.6,8.3,13.6,9.2c3.8,0.6,7.5,0.2,11.2-1.2c-1.6-5-2.1-9.8-5.2-13.8
		c-1.8-2.5-0.2-5.3,2.9-5.5c2.9-0.2,4.4,1.2,5.3,4.3C434.1,373.8,435,377.2,436,380.7z M537.7,372.3c0-1.4,0.1-2.6,0-3.7
		c-0.2-1.9-0.5-3.9-0.7-5.8c-0.2-1.7,0.4-3,1.8-3.8c1.6-0.8,3.1-0.5,4.5,0.6c1.3,1,2.3,2.2,2.2,4.1c-0.1,2.4-0.1,4.9,0.1,7.3
		c0.1,2.1,0.9,2.7,2.9,1.8c1.8-0.8,3.7-1.8,5.3-3.1c2.6-2.1,4.8-4.7,7.3-6.9c1.6-1.4,2-2.8,1.4-4.9c-1.8-6.1-2.5-12.4-2.6-18.8
		c0-3.7,0-7.4,0.1-11c0.2-3.4,0.4-6.9,0.9-10.3c1.5-8.8,3.4-17.4,6.7-25.7c0.6-1.7,0.4-2.8-0.8-4c-5-4.7-10.4-8.3-17.7-7.3
		c-1.7,0.3-3.5,0.1-5.1,0.6c-2.6,1-5.3,2.5-5.8,5.3c-0.9,5-1.3,10-1.8,15.1c-0.4,3.9-0.1,7.9-0.8,11.7c-1.7,8.2-4.8,15.8-8.8,23.2
		c-1.6,2.8-3.9,5.2-2.9,8.8c0.1,0.3-0.2,0.6-0.2,1c0.1,2.4-0.1,4.9,0.6,7.1c1,3.6,2.5,7.1,3.8,10.7c1.4,3.9,4.7,5.7,7.7,7.9
		C536,372.5,536.7,372.3,537.7,372.3z M816.2,408.4c1.3,0.1,2.2,0.3,3,0.2c6.1-0.5,11.4-2.6,15.8-6.7c10.7-9.8,18-21.5,21.1-35.7
		c1.3-5.8,0.3-11.2-4.1-15.6c-1.9-1.9-4.3-3.4-6.7-4.8c-3.4-1.8-7.2-2.4-10.5-0.4c-4.1,2.4-7.9,5.2-11.4,8.3
		c-7.4,6.7-13.4,14.6-16.8,24.1c-2.3,6.3-4.9,12.4-3.2,19.4c0.8,3.6,2.5,6.3,5.8,8.3c3.4-3.5,4.2-9.3,9.9-11
		C821.4,399.9,817,403.6,816.2,408.4z M658.1,403.1c23.5,2.4,46.2,4.6,69.3,7c0.6-3.1,1.4-6.5,1.7-9.9c0.1-1.1-0.8-2.9-1.8-3.4
		c-3.5-1.8-5-5.2-6.2-8.4c-2.4-6-4.1-12.3-6-18.4c-0.3-0.8-0.6-1.6-0.9-2.8c-1.1,1.1-2,1.8-2.8,2.7c-3.2,3.9-6.7,7.2-11.1,9.8
		c-10.6,6.3-21.4,7.4-32.5,1.8c-0.7-0.4-1.7-0.6-2.8-0.9C662,388,660.2,395.6,658.1,403.1z M391.5,421.7c2.6-0.4,5.1-0.6,7.6-1.1
		c11.4-2.2,22.8-4.4,34.2-6.6c2.3-0.5,2.8-0.8,2.7-3.2c-0.1-2.5-0.5-5.1-0.9-7.6c-0.8-3.8-1.7-7.6-3.4-11.2
		c-4.5,0.6-8.8,0.9-13.2,0.6c-4.5-0.4-8.3-3-12.4-4.4c-0.9,1.9-1.6,3.8-2.6,5.3c-1.8,2.8-3.9,5.4-5.8,8.2c-0.4,0.5-0.6,1-1,1.4
		c-2.4,1.8-4.8,3.6-7.3,5.2c-1.2,0.7-1.6,1.7-1.2,2.9C389.1,414.6,390.3,418.1,391.5,421.7z M565.3,367c-1.5,2.3-3.1,4.1-3.9,6.2
		c-1.1,2.9-3.2,4.4-5.8,5.5c-1.8,0.8-3.9,1.5-5.8,2.1c-1.8,0.6-3,1.8-3.1,3.7c-0.3,3.9-0.6,7.8-0.7,11.7c-0.1,1.7,0.1,3.4,0.2,5.5
		c8.6-0.3,16.7-0.6,24.5-0.8c1.2-7.7,2.3-15,3.6-22.3c0.4-1.8,0-3.1-1.6-4.1c-2.5-1.4-4.2-3.5-5.8-5.8
		C566.6,368.3,566.1,367.9,565.3,367z M514.3,349.5c-2.1,0.6-1.7,2.3-1.5,3.7c0.6,4.7,1.2,9.3,1.8,14c0.9,7.6,1.8,15.1,2.5,22.6
		c0.4,3.5,0.5,7.1,0.7,10.7c0.1,1,0.6,1.9,0.7,2.8c5.9-0.4,11.5-0.7,17.1-1.1c2.7-0.2,2.9-0.3,2.9-3c0-4.9-0.2-9.7-0.2-14.6
		c0-1.8-0.8-2.8-2.3-3.5c-2.4-1.2-5.1-2.2-7.2-3.9c-2.7-2.1-5.2-4.6-7.1-7.4c-3.3-4.6-5.3-9.9-5.8-15.6
		C515.9,352.6,516.1,350.7,514.3,349.5z"/>
</g>
<g>
</g>
<g>
</g>
<g>
</g>
<g>
</g>
<g>
</g>
<g>
</g>
<g>
</g>
<g>
</g>
<g>
</g>
<g>
</g>
<g>
</g>
<g>
</g>
<g>
</g>
<g>
</g>
<g>
</g>
</svg>
