<?xml version="1.0" encoding="utf-8"?>
<!-- Generator: Adobe Illustrator 18.1.0, SVG Export Plug-In . SVG Version: 6.00 Build 0)  -->
<!DOCTYPE svg PUBLIC "-//W3C//DTD SVG 1.1//EN" "http://www.w3.org/Graphics/SVG/1.1/DTD/svg11.dtd">
<svg version="1.1" id="Layer_1" xmlns="http://www.w3.org/2000/svg" xmlns:xlink="http://www.w3.org/1999/xlink" x="0px" y="0px"
	 width="1200px" height="800px" viewBox="200 -100 1200 800" enable-background="new 200 -100 1200 800" xml:space="preserve">
<g>
	<desc  xmlns:shape="http://adobe.com/products/shape">
		<shape:version>1.1.2</shape:version>
		<shape:captureDetail>0.750000</shape:captureDetail>
		<shape:source>1</shape:source>
	</desc>
	<path fill="#F2F2F2" d="M1294,459.8c0.9,5.3-5.5,8.5-10.6,9.9c-140.5,38.3-292.5,38.1-430.4-8.9c-54.1-18.4-105.5-43.7-159.2-62.9
		c-34.7-12.4-70.9-22.3-107.8-23c-55.1-1-110.4,19.5-151.6,56.3c36.5-46.8,100.3-65.5,159.6-61.6c59.3,3.8,115.3,26.7,170,49.9
		c44.5-95.8,124.1-173.1,216.5-224.3s197.3-77.3,302.6-86.3c1.1,4.3-4.9,6.6-9.4,7.1c-99.9,9.2-199.2,34.6-287.3,82.6
		S821.8,318.1,775.5,407.2c-3.5,6.8-4.5,18.5,3.2,19c41.4-93.2,118.7-167.8,208.2-216.8s190.7-73.6,292.2-83.8
		c-0.1,5.6-7.2,7.6-12.8,8.2c-97.1,10-193.7,34.7-279.1,82S828,334,786.4,422.3c-0.9,1.7-1.7,3.8-0.9,5.6c2.2,4.8,9-0.2,11.3-4.9
		c43.3-89,119.4-160.1,207.1-206s186.8-67.8,285.7-72.9c-97.3,12.2-194.6,33.8-281.9,78.4s-164.4,114-204.8,203.3
		c-2.2,5-1.5,13.8,3.8,12.5c18.1-30.3,36.3-60.8,58.5-88.3c88.1-109.3,229.5-161.5,367.9-184.8c20.7-3.5,42.1-6.4,62.4-0.9
		c-37.8,3-75.5,8.6-112.6,16.6c-74.6,16-147.7,42.2-211.9,83.6s-119,98.6-151.4,167.7c-1.7,3.5-3.2,7.7-1.1,10.9
		c98.8-163.8,289.6-267.6,480.8-261.4c-82.6,8.9-165.9,22.3-242.1,55.6c-96.6,42.2-178.8,116.3-230.8,208
		C975,501.3,1142.2,506.6,1294,459.8z"/>
	<path fill="#F2F2F2" d="M693.1,93.5c0.1,1.2,0.3,2.5-0.2,3.5c-0.6,1.1-2.2,1.7-3,0.8c-2.5-5.8-4-12.1-4.3-18.5
		c-0.1-1.9,0.3-4.4,2.2-4.9c2.1-0.3,3.2,2.5,3.5,4.5C691.8,83.9,692.4,88.7,693.1,93.5z"/>
	<path fill="#F2F2F2" d="M707.1,87.7c0.5-2.7,0.9-5.3,1.4-8.1c0.4-1.9,0.7-3.9,1.9-5.4s3.5-2.3,5.1-1.2c-0.7,6.3-2,12.5-3.7,18.7
		c-0.1,0.6-0.4,1.1-0.7,1.5c-1.1,1.2-3.2,0.4-3.8-1C706.6,90.9,706.9,89.2,707.1,87.7z"/>
	<path fill="#F2F2F2" d="M732.2,279.2c-1.9-3.7-3.7-7.4-5.6-11.1c-0.6-1.2-1.2-2.7-0.6-3.8c0.7-1.2,2.5-1.4,3.7-0.6
		c1.2,0.7,1.9,2,2.7,3.2c2.7,4.8,5.4,9.9,5.1,15.3C735.8,283.8,733.2,281.4,732.2,279.2L732.2,279.2z"/>
	<path fill="#F2F2F2" d="M739.9,88c-2.4,2.3-4.8,4.7-7.1,7c-0.6,0.5-1.2,1.1-1.9,1.2c-1.4,0.2-2.6-1.4-2.5-2.8s0.9-2.7,1.8-3.8
		c3.2-4.3,6.9-8.8,12.2-9.3C744.3,82.6,742,85.9,739.9,88z"/>
	<path fill="#F2F2F2" d="M755.3,102.2c0.5-0.1,1.1-0.3,1.6-0.2c1.9,0.2,2.5,2.9,1.4,4.5c-1,1.5-3,2.2-4.8,2.7
		c-4.3,1.3-8.9,2.6-13,1.1c-0.9-2.4,2.2-4.3,4.6-5C748.5,104.3,751.9,103.2,755.3,102.2z"/>
	<path fill="#F2F2F2" d="M655.3,316.3c-2.9-4.2-5.3-8.7-7-13.5c-0.2-0.6-0.5-1.4-0.3-2.2c0.4-1.6,2.6-2,4-1.2s2.2,2.4,2.8,3.9
		c1.1,2.5,2.2,5,3.3,7.4c0.6,1.4,1.3,3,0.8,4.5C658.4,316.7,656.2,317.5,655.3,316.3z"/>
	<path fill="#F2F2F2" d="M673,97.8c3.8,2.5,6.7,6.3,10.2,9.1c3.6,2.9,8.5,4.8,12.7,3.1c8.1-3.4,17.2,0.3,25.2,3.8
		c12.4,5.6,25.3,11.5,34.1,22.1c2.3,2.7,4.3,5.8,7.3,7.9c3,2.1,7.1,2.9,10.1,0.8c6.1-4.4,14.7-3.9,21.1-0.1s10.7,10.4,13.6,17.4
		c0.5,1.3,1,2.7,0.8,4c-0.4,3.7-5,5.2-8.6,5.9c-9.4,1.7-18.9,3.5-28.3,5.2c-5.4,1,2.7,12.3-2.4,14.3c-2.3-5.7-7.9-9.9-14.1-10.5
		c-6.1-0.6-12.5,2.3-15.9,7.4c1.5,3.3,2.1,7.1,1.7,10.8c-3.1,1.3-4.2-3.9-5.8-6.8c-3.1-5.7-11.7-3.4-17.5-0.3
		c-1.2,0.6-2.6,1.4-3.2,2.7c-0.8,1.7,0,3.7,0.8,5.3c0.8,1.7,1.6,3.6,0.9,5.3c-0.7,1.7-3.8,2-4.2,0.1c-1.1-6.3-8.4-10.6-14.4-8.5
		s-9.1,10.1-6.1,15.6c-3.2-3.5-6.7-7.3-11.4-8.1c-4.7-0.9-10.4,2.7-9.6,7.4c0.6,3.7,4.3,8.1,1.3,10.1c-1.7,0.2-2.5-1.9-3.1-3.5
		c-2.3-5.6-9.5-7.6-15.4-6.2c-5.8,1.4-10.6,5.6-15.1,9.5c2.7,3.5,4.1,8.2,3.6,12.7c-3.2,0.3-5.3-3.2-6.8-6.1s-4.6-6-7.5-4.5
		c-18.2,9.7-36.5,19.2-54.8,28.9c-1.6,0.8-3.4,1.7-5,0.9c-2.2-0.9-2.4-3.7-2.4-6.1c0.3-15.5,0.8-31.4,6.7-45.8
		c5.9-14.3,18.4-27,33.8-28.6c5.2-0.6,12.5-1.6,12.5-6.8c-0.1-15.4,3.3-30.6,9.7-44.5c4.1-8.9,9.7-17.4,17.9-22.6
		C653.5,93.7,664.8,92.4,673,97.8 M632.9,122.4c-7.4,14.4-10.7,30.8-9.7,46.9c0.3,4.1-1.2,10.2-5.2,9.2
		c-14.1-3.6-29.2,4.9-37.3,17.1c-8.1,12.2-10.4,27.2-11.5,41.7c-0.3,3.6,1.9,8.8,5,7.1c68.6-37.8,143.4-64.2,220.5-77.8
		c4.8-0.9,4.5-8.2,1.4-12c-6.3-7.7-19-9.2-26.7-3c-4.7,3.7-11.7-0.2-15-5.3c-3.2-5-5-11.2-9.9-14.8c-5.7-4.3-14-3.2-19.9,0.7
		s-9.8,10.1-13.2,16.4c-1.4,2.6-5.3,0.2-7.1-2.2c-9.4-13-18.8-25.9-28.3-38.9c-5.4-7.4-16.7-8.8-25-4.9
		C642.9,106.3,637.1,114.2,632.9,122.4 M707.9,138.5c1.7,0.5,3.4-0.9,4.7-2.1c3.2-3.1,6.5-6.1,9.7-9.2c1.1-1,2.2-2.3,1.9-3.7
		c-0.2-0.9-1-1.6-1.8-2.2c-5.3-3.9-11.6-6.3-18.2-6.9c-4.3-0.4-9.4,0.4-11.5,4.2c4.2,5.9,8.4,11.8,12.5,17.7
		C706,137.1,706.7,138.2,707.9,138.5z"/>
	<path fill="#F2F2F2" d="M784.2,231.9c-1.2-2.6-2.3-5.2-3.5-7.8c-0.8-1.7-1.4-4,0-5.1c1-0.9,2.6-0.5,3.6,0.3c1,0.9,1.6,2.1,2.1,3.3
		c1.5,3.6,3.1,7.2,4.6,10.8c0.7,1.7-1.7,3.3-3.5,2.7C785.9,235.5,784.9,233.6,784.2,231.9z"/>
	<path fill="#F2F2F2" d="M784.5,274.1c-1.1-0.1-1.8-1.2-2.3-2.2c-1.8-3.4-3.5-6.8-5.2-10.3c-0.6-1.2-1.2-2.4-1.1-3.7
		c0.1-1.3,0.9-2.7,2.2-2.7c1.6-0.1,2.7,1.6,3.3,3.1c1.5,3.3,3,6.6,4.5,9.9c0.5,1.2,1,2.3,0.9,3.5C786.8,273,785.7,274.2,784.5,274.1
		z"/>
	<path fill="#F2F2F2" d="M763.8,280.3c-0.9-1.9-1.7-4.6,0.1-5.7c1.9-1.2,4.3,1.2,5.3,3.2c2.1,4.3,3.7,8.9,4.7,13.6
		c-1,1-2.7,0.8-3.8,0c-1.2-0.9-1.8-2.2-2.4-3.4C766.4,285.5,765.1,282.9,763.8,280.3z"/>
	<path fill="#F2F2F2" d="M637.4,270.1c0,0.7-0.2,1.5-0.7,1.9c-1.3,1-3-0.6-3.8-2.2c-2.1-4-4.3-7.9-6.3-11.8
		c-0.2-2.1,2.6-3.3,4.5-2.5c1.9,0.9,2.9,3,3.7,4.8C636.1,263.5,637.5,266.7,637.4,270.1z"/>
	<path fill="#F2F2F2" d="M733.7,245c-0.5-0.1-0.8-0.7-1.1-1.2c-1.9-3.5-3.7-7.1-5.4-10.7c-0.8-1.7-1.4-4.2,0.2-5.2
		c1.8-1.1,3.8,1.1,4.8,3c0.9,1.7,1.8,3.3,2.7,5c1.5,2.8,2.8,6.8,0.3,8.7C734.8,245,734.2,245.2,733.7,245z"/>
	<path fill="#F2F2F2" d="M626.8,305.5c-2.6-3.3-4.8-7-6.3-10.9c-0.2-0.5-0.4-1-0.4-1.5c0-1.9,2.5-2.8,4.2-2s2.6,2.5,3.4,4.3
		c1,2.2,1.9,4.4,2.7,6.6c0.7,1.9,0.6,5.2-1.5,5C628.1,307,627.4,306.2,626.8,305.5L626.8,305.5z"/>
	<path fill="#F2F2F2" d="M738.7,329.5c-1.1-2.3-2.2-4.7-3.3-7c-0.6-1.2-1.2-2.5-0.9-3.7c0.3-1.4,1.9-2.5,3.4-2.3
		c3.1,3.4,5.3,7.6,6.4,12c0.4,1.5,0.4,3.4-0.9,4.2C741.5,333.7,739.6,331.5,738.7,329.5z"/>
	<path fill="#F2F2F2" d="M697.7,250.5c-2.2-3.2-4.2-6.6-5.8-10.1c-0.3-0.6-0.6-1.2-0.5-1.9c0.1-1.8,2.5-2.7,4.2-2s2.7,2.5,3.4,4
		c1.1,2.2,2,4.5,2.8,6.8c0.6,1.9,0.5,4.8-1.4,4.8C699.1,252.3,698.3,251.4,697.7,250.5z"/>
	<path fill="#F2F2F2" d="M655.1,271.3c-0.4-0.7-0.9-1.6-0.8-2.5c0.2-1.7,2.5-2.5,4-1.8c1.6,0.6,2.5,2.2,3.4,3.7
		c1.9,3.2,3.7,7,2.7,10.6c-1.9,1.4-4.3-0.9-5.4-3C657.8,276.2,656.5,273.7,655.1,271.3z"/>
	<path fill="#F2F2F2" d="M692.3,284.8c-2.2-3-4-6.3-5.3-9.9c-0.2-0.6-0.5-1.3-0.4-2c0.3-1.6,2.3-2.3,3.8-1.7c1.5,0.6,2.5,2,3.2,3.4
		c1.4,2.7,2.5,5.6,3,8.7c0.2,1.2,0.1,2.7-0.9,3.3C694.5,287.1,693.1,285.9,692.3,284.8z"/>
	<path fill="#F2F2F2" d="M605.3,258.3c-1.1-2.5-2.2-4.8-3.3-7.3c-0.3-0.7-0.6-1.4-0.6-2.2c-0.1-1.5,1.3-3,2.8-3
		c3.5,2.4,5.9,6.3,6.5,10.5c0.3,2-0.6,4.8-2.7,4.6C606.6,260.9,605.8,259.5,605.3,258.3z"/>
	<path fill="#F2F2F2" d="M659.7,235.3c-0.4-0.7-0.6-1.4-0.5-2.2c0.2-1.3,1.7-2.1,3.1-1.9c1.3,0.2,2.5,1.1,3.3,2.1
		c2.3,2.6,3.7,6.1,3.7,9.5c0,0.9-0.1,1.9-1,2.3s-1.9-0.3-2.6-1C663.2,241.5,661.2,238.6,659.7,235.3z"/>
	<path fill="#F2F2F2" d="M758,243c1,2.5,2,5.1,3,7.6c0.7,1.7,0.8,4.5-1.1,4.7c-0.9,0.1-1.7-0.7-2.4-1.5c-2.2-2.7-3.8-5.9-5-9.2
		c-0.6-1.9-0.6-4.6,1.2-5.2C755.8,238.8,757.3,241.1,758,243z"/>
	<path fill="#F2F2F2" d="M685.8,306.5c1.2-1.3,3.5-0.8,4.6,0.4c1.2,1.3,1.7,3,2.5,4.5c1,1.9,2.5,3.7,2.4,5.8c-0.1,2.1-3.2,3.9-4.3,2
		c-1.5-2.6-3.1-5.1-4.6-7.7C685.5,310.1,684.6,308,685.8,306.5z"/>
	<path fill="#F2F2F2" d="M796.8,195.7c-0.2-0.5-0.4-0.9-0.4-1.5c0-1.5,1.9-2.5,3.3-2.1c1.4,0.4,2.5,1.7,3.2,3
		c1.9,3.3,2.9,7.1,2.7,11c-0.9,0.9-2.4,0.7-3.3,0c-0.9-0.7-1.5-1.9-2-3C799.1,200.8,798,198.3,796.8,195.7z"/>
	<path fill="#F2F2F2" d="M717.5,306.7c-1.7-3.3-3.4-6.6-5.1-9.9c-0.7-1.4,0.7-3.2,2.3-3.3c1.6-0.1,3,1.2,3.8,2.5
		c0.8,1.4,1.2,3,1.9,4.5c0.7,1.7,1.8,3.2,1.7,5s-2.2,3.5-3.7,2.5C718,307.8,717.7,307.2,717.5,306.7z"/>
	<path fill="#F2F2F2" d="M747.6,213.4c-0.8-1.4-1.6-2.9-1.4-4.5c0.1-1.6,1.6-3.2,3.1-2.8c0.8,0.2,1.4,0.9,1.9,1.5
		c2.6,3.4,3.8,7.7,3.5,12c-1.4,1.6-3.9-0.5-5-2.4C749,215.9,748.3,214.6,747.6,213.4z"/>
</g>
</svg>
