<?xml version="1.0" standalone="no"?>
<!DOCTYPE svg PUBLIC "-//W3C//DTD SVG 20010904//EN"
 "http://www.w3.org/TR/2001/REC-SVG-20010904/DTD/svg10.dtd">
<svg version="1.0" xmlns="http://www.w3.org/2000/svg"
 width="1024.000000pt" height="1024.000000pt" viewBox="0 0 1024.000000 1024.000000"
 preserveAspectRatio="xMidYMid meet">
<metadata>
Created by potrace 1.11, written by Peter Selinger 2001-2013
</metadata>
<g transform="translate(0.000000,1024.000000) scale(0.100000,-0.100000)"
fill="#000000" stroke="none">
<path d="M2405 10210 c-189 -46 -311 -239 -313 -490 0 -52 4 -120 9 -150 5
-30 11 -71 14 -90 3 -19 16 -84 30 -145 50 -230 56 -272 56 -388 0 -82 -17
-187 -31 -187 -14 0 -114 73 -150 109 -72 74 -171 215 -251 358 -107 193 -277
351 -418 388 -142 37 -319 -33 -385 -154 -35 -65 -37 -115 -10 -245 13 -61 25
-122 28 -136 39 -218 194 -766 306 -1080 28 -80 55 -156 60 -170 30 -90 176
-439 269 -645 45 -98 212 -429 266 -526 25 -45 45 -83 45 -84 0 -2 28 -50 61
-107 34 -57 69 -116 79 -133 49 -85 268 -429 293 -460 4 -5 49 -68 100 -140
50 -71 95 -134 99 -140 4 -5 44 -57 88 -115 88 -114 86 -113 146 -185 72 -88
74 -108 12 -160 -66 -56 -135 -70 -343 -70 -136 0 -183 5 -310 33 -322 73
-628 234 -974 512 -80 65 -157 129 -171 142 -14 13 -63 57 -110 98 -47 41
-105 95 -130 118 -100 96 -161 116 -254 80 -82 -32 -150 -86 -256 -205 -66
-75 -75 -86 -127 -165 -99 -150 -134 -253 -129 -387 2 -80 7 -95 60 -216 232
-521 507 -981 822 -1375 126 -158 174 -211 354 -390 241 -242 488 -436 745
-587 94 -55 351 -183 368 -183 7 0 17 -4 22 -9 26 -24 409 -147 514 -166 19
-3 37 -8 41 -10 4 -2 26 -7 50 -10 23 -3 45 -7 49 -9 8 -6 110 -19 231 -32 30
-3 71 -7 90 -10 51 -6 360 -5 427 1 355 34 622 110 923 262 183 93 186 93 253
92 130 -4 232 -76 338 -243 29 -44 60 -92 69 -106 9 -14 47 -74 85 -135 127
-203 329 -475 500 -671 62 -72 397 -410 475 -480 398 -357 970 -720 1414 -898
275 -111 506 -125 675 -40 144 72 252 226 259 370 6 111 5 114 -168 345 -131
175 -245 355 -344 543 l-47 90 21 20 c54 54 188 3 327 -125 128 -117 362 -234
528 -263 17 -3 41 -8 55 -12 14 -3 72 -7 130 -9 109 -4 188 8 270 40 225 89
278 305 131 531 -49 77 -100 126 -246 239 -112 87 -199 167 -243 225 -33 43
-75 121 -69 127 4 3 68 -8 144 -25 219 -49 251 -54 388 -56 265 -6 500 125
574 319 29 76 24 211 -11 287 -63 136 -123 177 -293 202 -170 24 -540 107
-715 161 -548 168 -982 358 -1413 619 -65 39 -126 76 -135 81 -117 71 -490
340 -557 402 -11 10 -46 39 -78 63 -63 47 -97 100 -91 140 5 27 66 155 110
230 38 64 98 169 122 210 21 38 204 355 294 510 30 52 66 115 80 140 199 352
269 444 379 505 25 13 104 38 175 54 365 83 708 253 753 374 48 126 -74 237
-304 274 -24 4 -253 50 -340 68 -53 12 -184 60 -234 87 -155 83 -213 152 -335
397 -74 147 -121 221 -205 320 -65 78 -58 71 -141 142 -278 239 -650 371
-1025 364 -138 -3 -167 -6 -275 -26 -394 -75 -812 -326 -1090 -653 -82 -97
-117 -120 -184 -119 -72 1 -139 35 -186 95 -50 62 -82 148 -116 313 -2 11 -6
29 -8 40 -8 37 -75 370 -80 400 -3 17 -8 41 -11 55 -5 23 -48 286 -59 355 -2
17 -9 59 -14 95 -6 36 -13 90 -17 120 -3 30 -8 66 -10 80 -5 27 -11 77 -20
155 -3 28 -8 68 -11 90 -3 22 -7 58 -9 80 -2 22 -6 65 -9 95 -3 30 -8 84 -11
120 -3 36 -8 81 -10 100 -3 19 -7 76 -10 125 -3 50 -7 117 -10 150 -2 33 -7
111 -10 173 -6 123 -17 162 -60 204 -53 53 -111 73 -210 73 -81 0 -95 -3 -144
-30 -105 -58 -191 -187 -260 -391 -25 -75 -146 -487 -156 -534 -2 -8 -19 -67
-38 -130 -31 -105 -36 -113 -46 -90 -6 14 -60 149 -120 300 -147 371 -275 682
-312 758 -36 73 -85 117 -153 137 -52 16 -150 18 -201 5z m270 -745 c64 -181
133 -375 152 -430 54 -153 94 -224 168 -297 97 -96 228 -110 335 -36 57 40 71
54 119 123 81 116 123 255 147 485 15 152 63 321 113 399 33 51 108 128 116
119 6 -5 10 -43 20 -183 3 -44 8 -96 10 -115 2 -19 7 -73 10 -120 11 -149 23
-295 30 -370 2 -25 7 -79 10 -120 4 -41 9 -93 11 -115 2 -22 6 -69 9 -105 3
-36 8 -76 10 -90 2 -14 6 -54 10 -90 3 -36 8 -76 10 -90 2 -14 7 -45 10 -70 3
-25 10 -70 15 -100 5 -30 11 -72 14 -93 14 -93 60 -298 91 -406 78 -273 161
-454 327 -714 39 -63 54 -134 39 -194 -21 -84 -232 -447 -419 -723 -222 -327
-495 -667 -613 -761 -124 -100 -169 -81 -357 151 -211 262 -439 579 -622 865
-58 92 -218 360 -285 480 -134 238 -360 712 -463 970 -61 153 -163 424 -166
440 -3 18 -37 119 -47 140 -17 38 -143 480 -164 575 -2 8 -15 62 -30 120 -43
172 -39 264 11 297 21 13 24 10 79 -94 155 -294 368 -550 612 -734 181 -138
371 -123 477 37 80 122 91 266 36 469 -85 315 -90 339 -94 439 -5 112 36 241
97 304 l31 32 12 -32 c7 -18 65 -181 129 -363z m3788 -1710 c103 -10 192 -30
286 -64 250 -91 407 -239 527 -498 152 -326 175 -364 270 -442 128 -107 286
-171 539 -220 l90 -18 -1 -37 c-3 -83 -96 -147 -299 -207 -60 -18 -129 -40
-153 -50 -124 -53 -260 -181 -366 -344 -21 -33 -47 -72 -57 -87 -11 -15 -19
-30 -19 -33 0 -3 -11 -22 -23 -43 -13 -20 -50 -86 -82 -147 -32 -60 -66 -124
-76 -142 -10 -18 -35 -63 -55 -100 -95 -174 -278 -476 -399 -658 -511 -772
-1061 -1317 -1672 -1659 -88 -49 -178 -93 -331 -162 -182 -83 -565 -196 -742
-219 -211 -28 -278 -33 -440 -33 -164 0 -225 4 -360 22 -19 3 -42 7 -50 10 -8
3 -33 7 -55 10 -22 3 -92 18 -155 35 -443 114 -860 355 -1234 710 -84 81 -212
212 -257 266 -19 22 -42 49 -52 60 -143 155 -446 578 -616 860 -23 39 -46 77
-51 85 -50 79 -142 246 -186 335 -121 249 -115 439 19 566 37 35 117 70 173
76 71 8 124 -14 194 -78 30 -28 80 -72 110 -98 30 -25 63 -54 73 -63 34 -29
209 -152 287 -200 308 -189 696 -332 985 -363 33 -4 76 -8 95 -11 77 -9 313
-3 405 10 17 3 50 7 75 11 77 10 201 42 305 78 267 92 458 217 700 461 229
230 392 454 690 946 397 656 663 975 1006 1205 189 128 407 209 619 230 36 4
66 8 67 8 4 4 152 -1 216 -8z m350 -3724 c14 -5 64 -43 113 -83 537 -445 1208
-813 1880 -1032 144 -46 183 -58 354 -103 102 -27 111 -29 180 -43 25 -5 77
-15 115 -24 39 -8 86 -18 105 -20 19 -3 44 -8 55 -10 12 -2 47 -7 78 -11 32
-4 72 -17 90 -29 61 -41 72 -138 27 -229 -42 -84 -126 -123 -249 -114 -89 6
-95 7 -220 46 -154 47 -179 52 -259 52 -159 0 -277 -80 -295 -199 -18 -116 93
-280 273 -403 224 -155 293 -235 293 -346 0 -51 -34 -135 -68 -169 -33 -33
-91 -64 -120 -64 -38 0 -36 -2 -408 287 -368 286 -387 297 -522 298 -116 0
-226 -81 -288 -213 -30 -62 -32 -74 -31 -167 2 -173 59 -302 253 -575 160
-224 218 -337 224 -433 8 -131 -84 -188 -244 -151 -151 35 -672 346 -1026 610
-65 49 -120 91 -123 94 -3 3 -48 40 -100 82 -52 42 -104 85 -115 95 -12 10
-54 47 -95 83 -100 86 -426 411 -531 530 -223 251 -409 495 -583 764 -89 138
-108 179 -108 227 1 79 6 84 406 452 46 43 299 281 391 369 44 42 98 93 120
113 22 21 102 97 178 169 77 72 149 136 160 143 27 15 57 16 90 4z"/>
<path d="M6595 7316 c-49 -21 -93 -79 -101 -132 -9 -64 8 -115 55 -157 114
-103 290 -26 293 128 2 121 -134 210 -247 161z"/>
</g>
</svg>
