<?xml version="1.0" encoding="utf-8"?>
<!-- Generator: Adobe Illustrator 18.1.0, SVG Export Plug-In . SVG Version: 6.00 Build 0)  -->
<!DOCTYPE svg PUBLIC "-//W3C//DTD SVG 1.1//EN" "http://www.w3.org/Graphics/SVG/1.1/DTD/svg11.dtd">
<svg version="1.1" id="Layer_1" xmlns="http://www.w3.org/2000/svg" xmlns:xlink="http://www.w3.org/1999/xlink" x="0px" y="0px"
	 width="275px" height="176px" viewBox="0 0 275 176" enable-background="new 0 0 275 176" xml:space="preserve">
<circle fill="#FFFFFF" cx="137.5" cy="88" r="88"/>
<circle fill="#57A5A6" cx="137.5" cy="88" r="64"/>
<g id="pic-bird-2">
	<path fill="#FFFFFF" d="M162.2,80.2c-1.5,0.3-2.4,1.8-3.2,3.1c-1.9,3.3-3.8,6.7-5.7,10c-0.2,0.4-0.4,0.8-0.4,1.2
		c0.1,0.4,0.4,0.8,0.8,1c7.2,6.1,16.2,10.2,25.5,11.6c1.7,0.2,2.6,2.6,1.9,4.2s-2.6,2.5-4.3,2.6c-1.7,0.1-3.5-0.4-5.2-0.8
		c0.6,1.7,2.2,2.7,3.6,3.8c1.4,1.1,2.5,3,1.7,4.7c-0.6,1.2-2.1,1.6-3.4,1.7c-2.4,0-4.8-0.9-6.6-2.5c-0.9-0.8-2.2-1.8-3-0.9
		c1.2,2.4,2.6,4.7,4.3,6.7c1.4,1.7-0.1,4.5-2.2,5.1c-2.1,0.7-4.3-0.1-6.3-1c-8.3-3.8-15.3-10.2-20-18.1c-0.6-1-1.1-1.9-1.9-2.6
		c-0.9-0.7-2.1-1-3-0.4c-7.6,4.5-17.6,3.3-25-1.4c-7.4-4.8-12.5-12.4-16-20.5c-0.9-2.2,0.8-4.6,2.4-6.4c0.9-1,2.4-2,3.4-1.1
		c2.4,2.2,4.9,4.5,7.7,6.1c2.9,1.6,6.2,2.6,9.4,2c0.7-0.1,1.7-0.9,1.2-1.4c-8.2-10.1-13.9-22.3-16.3-35.1c-0.3-1.7,1.8-3,3.5-2.6
		c1.7,0.5,2.8,2,3.7,3.5c0.9,1.5,1.8,3.1,3.4,3.9c0.6-1.9,0-3.8-0.4-5.7c-0.4-1.9-0.6-4,0.6-5.7c1.1-1.6,4-1.8,4.8,0
		c1.3,3.1,2.6,6.3,3.8,9.5c0.6-2,1.1-3.9,1.7-5.9c0.5-1.6,1-3.2,2.3-4.1c1.3-0.9,3.6-0.3,3.7,1.3c0.3,6.9,1.2,13.7,2.7,20.4
		c0.2,0.9,0.4,1.9,1.1,2.5c0.7,0.7,1.9,0.8,2.5,0.1c2.9-3.7,7.2-6.2,11.8-6.4s9.4,2.1,11.6,6.2c0.7,1.2,1.1,2.5,2,3.4
		c1.7,1.8,4.3,1.9,6.7,2.4c1.1,0.2,2.5,0.9,2.3,2c-0.1,0.7-0.8,1.1-1.4,1.5C166.3,79.1,164.3,79.8,162.2,80.2 M100.4,84
		c-1.2-1.1-3.4,0-3.7,1.6c-0.4,1.6,0.4,3.2,1.2,4.7c4.6,8.2,10.7,16.4,19.7,18.9c7.8,2.2,16.5-0.6,22.9-5.7
		c6.4-5.1,10.9-12.2,14.7-19.4c1.2-2.2,2.6-4.7,4.9-5.5c1.5-0.5,3.7-0.8,3.6-2.4c-2.3-0.4-4.8-1-6.2-2.8c-0.9-1.2-1.3-2.8-2.1-4.1
		c-2.5-4.3-8.9-4.8-13.2-2.4c-4.3,2.4-7.1,6.9-9.7,11.2c-2.6,4.3-5.4,8.7-9.7,11.1c-3.6,1.9-8,2.3-12,1.2
		C106.8,89.3,103.3,86.9,100.4,84 M164.5,116.4c0.9,0.1,1.6,0.6,2.2,1.1c1.6,1.2,3.2,2.5,4.8,3.7c1.1,0.9,2.6-1,2.2-2.3
		c-0.5-1.3-1.9-2-3.1-2.9c-1.1-0.9-2.2-2.4-1.5-3.6c0.7-1.2,2.4-1.3,3.7-0.9c1.3,0.4,2.7,1,4,0.5c1.3-0.5,1.6-2.9,0.2-3
		c-8.9-1.3-17.5-5.2-24.4-11c-0.3-0.3-0.8-0.6-1.2-0.5c-0.2,0-0.4,0.2-0.6,0.4c-3.2,3-6.3,6-9.5,9c-0.4,0.4-0.9,0.9-0.9,1.5
		c0,0.4,0.2,0.8,0.4,1.1c5.2,8.5,12.8,15.4,21.5,20c1.1,0.6,2.8,0.9,3.2-0.3c0.1-0.4,0-0.9-0.1-1.3c-0.6-1.5-1.6-2.7-2.5-4
		c-0.9-1.3-1.6-2.8-1.5-4.4C161.5,117.8,162.9,116.2,164.5,116.4 M117.7,54c-0.8-2.3-1.6-4.5-2.4-6.8c-1.2,0.9-1.3,2.7-1,4.1
		c0.3,1.5,0.9,2.9,1,4.4c0,1.5-0.8,3.2-2.3,3.4c-1.1,0.1-2.1-0.5-2.9-1.2c-2.2-1.9-4-4.2-5.2-6.8c-0.6,0-0.7,0.9-0.6,1.5
		c2.6,12.1,8.3,23.5,16.2,33c0.3,0.4,0.7,0.8,1.2,0.9c0.7,0.1,1.2-0.5,1.7-1c3.1-3.6,5.8-7.5,8-11.5c0.2-0.4,0.4-0.8,0.4-1.2
		c0-0.7-0.4-1.3-0.8-1.9c-3-4.7-3.5-10.5-4-16c-0.2-2.5-0.4-4.9-0.6-7.4c-1.8,1.1-1.9,3.7-2.2,5.8c-0.3,2.1-1.7,4.7-3.8,4.3
		C118.9,57.1,118.2,55.5,117.7,54"/>
	<ellipse fill="#FFFFFF" cx="150.7" cy="70.5" rx="1.5" ry="1.5"/>
</g>
<g>
</g>
<g>
</g>
<g>
</g>
<g>
</g>
<g>
</g>
<g>
</g>
<g>
</g>
<g>
</g>
<g>
</g>
<g>
</g>
<g>
</g>
<g>
</g>
<g>
</g>
<g>
</g>
<g>
</g>
</svg>
