<?xml version="1.0" encoding="utf-8"?>
<!-- Generator: Adobe Illustrator 18.1.0, SVG Export Plug-In . SVG Version: 6.00 Build 0)  -->
<!DOCTYPE svg PUBLIC "-//W3C//DTD SVG 1.1//EN" "http://www.w3.org/Graphics/SVG/1.1/DTD/svg11.dtd">
<svg version="1.1" id="Layer_1" xmlns="http://www.w3.org/2000/svg" xmlns:xlink="http://www.w3.org/1999/xlink" x="0px" y="0px"
	 width="275px" height="176px" viewBox="0 0 275 176" enable-background="new 0 0 275 176" xml:space="preserve">
<circle fill="#FFFFFF" cx="137.5" cy="88" r="88"/>
<circle fill="#C03E3E" cx="137.5" cy="88" r="64"/>
<g id="pic-ladybug">
	<path fill="#FFFFFF" d="M113.6,61.4c2.6-3.4,5.8-7.1,10-7.1c0.9,0,1.5-0.9,1.6-1.8c0.1-0.9-0.1-1.7-0.1-2.6c-0.1-3.9,4.5-7,8.1-5.6
		c3.6,1.5,4.6,6.9,1.8,9.6c-1.2,1.1-1.3,3-0.7,4.5c0.5,1.5,1.6,2.8,2.7,3.9c0.7,0.8,1.5,1.6,2.5,1.7c3,0.2,5.9,1.1,8.5,2.7
		c1.1,0.7,2.5-0.2,3.2-1.3c0.7-1.1,0.9-2.4,1.6-3.5s2.1-1.9,3.2-1.2c-1.4,1.8-2.5,3.8-3.5,5.9c-0.2,0.5-0.5,1-0.4,1.6
		c0.1,0.6,0.5,1.1,0.9,1.5c2.8,3,5.5,6.1,8.3,9.1c0.5,0.6,1.1,1.2,1.8,1.3c1.9,0.3,3.7-2.7,5.3-1.6c0.2,0.8-0.5,1.5-1.3,1.8
		c-0.8,0.3-1.6,0.4-2.2,0.9c-1.3,1-1.1,3-0.7,4.7c0.7,3.1,1.5,6.2,2.2,9.3c0.2,0.9,0.4,1.7,1,2.4c1.8,2.1,5.2,0.7,7.8,1.4
		c0.2,0.1,0.4,0.1,0.6,0.3c0.6,0.5,0.2,1.6-0.5,1.9c-0.7,0.3-1.5,0.2-2.3-0.1c-1.2-0.3-2.5-0.7-3.7-0.6s-2.6,1-2.8,2.2
		c-1.1,6.9-5.2,13.4-11,17.3c-5.8,4-13.3,5.3-20.2,3.8c-1.9-0.4-3.3,1.8-3.8,3.7c-0.5,1.9-1.4,4.2-3.4,4.4c-0.4-1.7,0.8-3.3,1.7-4.9
		c0.9-1.5,1.2-3.9-0.3-4.7c-4-2.1-7.4-5.2-10-9c-0.7-1.1-2.5-0.9-3.7-0.2s-2.5,1.5-3.8,1c-0.4-0.9,0.6-1.8,1.5-2.1
		c1-0.2,2.1-0.3,2.7-1c0.8-1,0.2-2.3-0.4-3.4c-1.9-4-2.9-8.4-2.9-12.9c0-1.7-1.9-2.7-3.6-2.9s-3.5-0.2-4.8-1.4
		c0.2-0.5,0.5-1,0.7-1.5c1.6,0.3,3.2,0.6,4.8,1c0.6,0.1,1.3,0.2,1.8-0.1c0.5-0.3,0.7-0.8,0.9-1.3c1.6-3.6,3.2-7.8,1.6-11.4
		c-0.5-1.2-1.5-2.4-1.8-3.7c-0.2-1.2,0-2.8-1.1-3.5c-0.6-0.4-1.4-0.4-2.2-0.4c-3-0.1-5.9-2.3-6.7-5.2c-0.7-2.9,1-6.3,4-7.2
		C109.7,56.3,113.2,58.4,113.6,61.4 M130.2,67.5c-1.4,0.5-2.8,1.4-2.9,2.8c-0.1,0.8,0.2,1.5,0.5,2.3c6.5,15.3,14.6,29.9,24.2,43.4
		c0.6,0.9,1.5,1.9,2.6,1.9c0.6,0,1.1-0.3,1.6-0.6c4.4-2.8,7.1-7.8,7.9-12.9c0.8-5.1,0-10.4-1.6-15.4c-2.2-6.9-6-13.5-11.8-17.9
		C144.9,66.7,136.9,64.9,130.2,67.5 M147.1,122.3c1.1-0.2,2.3-0.6,3.1-1.4c0.8-0.8,1.1-2.2,0.4-3.1C140,104,132.5,88.2,125.1,72.5
		c-0.3-0.7-1.3-0.9-2-0.6c-0.7,0.3-1.2,0.9-1.6,1.6c-6.6,9.7-8.4,22.9-3.4,33.5C123.2,117.7,135.6,124.7,147.1,122.3 M115.6,74.5
		c0.3,0.6,0.8,1.2,1.5,1.2c0.5,0,1-0.5,1.3-0.9c3.8-5,9.3-8.5,15.4-9.9c0.6-0.1,0.9-0.8,0.8-1.4c-0.1-0.6-0.4-1.1-0.8-1.6
		c-2-2.6-4.7-4.7-7.8-5.4s-6.8,0.4-8.7,2.9c-0.7,0.9-1.1,1.9-1.5,3C114.4,66.2,113.7,70.8,115.6,74.5 M134.1,52.4
		c0.9-2.5-0.5-5.8-3.1-6.5c-0.5-0.1-1-0.2-1.5,0c-0.6,0.2-1,0.8-1.4,1.4c-0.9,1.7-1.2,4-0.1,5.7c1.1,1.7,3.7,2.2,5.1,0.9
		C133.6,53.4,133.8,52.9,134.1,52.4 M106.1,59.4c-1.2,1.7-1.5,4.1-0.4,5.9c1,1.8,3.5,2.8,5.4,1.8c0.4-0.2,0.7-0.5,0.9-0.8
		c0.5-0.8,0.3-1.9,0-2.7c-0.6-2.1-1.8-4.4-3.9-4.9c-0.4-0.1-0.8-0.1-1.2,0.1C106.5,58.9,106.3,59.1,106.1,59.4z"/>
	<path fill="#FFFFFF" d="M156.9,100.4c0.8,0.5,1.3,1.4,1.5,2.3c0.3,1.3,0,2.8-1.1,3.8c-1,1-2.7,1.1-3.7,0.3c-0.7-0.5-1-1.4-1.2-2.3
		c-0.2-1.3,0.1-2.6,1-3.5C154.3,100,155.8,99.7,156.9,100.4 M154.4,103.9c-0.5,0.5,0.1,1.6,0.9,1.5c0.7-0.1,1.3-0.9,1.3-1.6
		c0-0.8-0.5-1.4-0.9-2c-0.8,0.2-1.4,1.1-1.3,1.9L154.4,103.9z"/>
	<path fill="#FFFFFF" d="M150,83.4c1.5-0.8,3.6,0.3,4.1,2s-0.6,3.5-2.1,4.4c-0.7,0.4-1.6,0.7-2.4,0.4c-1.6-0.6-1.9-2.7-1.4-4.2
		C148.5,85,149.1,83.9,150,83.4 M151.8,88.1c0.5-0.6,0.7-1.4,0.5-2.2c-0.3-0.7-1.1-1.3-1.8-1.1c-0.5,0.8-0.9,1.6-0.7,2.5
		C150,88.2,151.3,88.8,151.8,88.1z"/>
	<path fill="#FFFFFF" d="M136.7,75.4c1.5-1.3,4.2-0.1,4.5,1.8c0.3,1.9-1.5,3.8-3.4,3.9c-0.6,0-1.1-0.1-1.6-0.5c-1-0.8-1-2.3-0.5-3.5
		C135.8,76.4,136.1,75.8,136.7,75.4 M139,79.2c0.7-0.7,0-1.8-0.3-2.6c-0.3,0-0.5,0-0.7,0c-0.5,0.5-0.9,1.3-0.7,2.1
		C137.5,79.2,138.5,79.7,139,79.2z"/>
	<path fill="#FFFFFF" d="M135.9,117.9c-1.7-0.8-2.7-2.9-2-4.7c0.7-1.7,2.9-2.7,4.6-1.9c0.4,0.2,0.8,0.5,1.1,0.9
		c0.4,0.6,0.4,1.3,0.4,1.9c-0.1,1.8-0.9,3.8-2.7,4C136.9,118.2,136.4,118.1,135.9,117.9 M138.4,113.7c-0.1-0.3-0.3-0.6-0.6-0.8
		c-0.4-0.3-1-0.2-1.5-0.1c-0.7,0.5-0.9,1.5-0.6,2.2c0.4,0.8,1.3,1.2,2.1,1C138.5,115.4,138.7,114.5,138.4,113.7z"/>
	<path fill="#FFFFFF" d="M121.5,105.4c-0.3-0.3-0.5-0.6-0.6-1c-0.1-0.5,0-1,0.2-1.5c0.4-1.1,0.9-2.1,1.9-2.7
		c1.5-0.9,3.6-0.3,4.5,1.2c0.8,1.5,0.3,3.6-1.2,4.5C124.8,106.9,122.7,106.6,121.5,105.4 M123,104c0.4,0.9,1.9,1,2.5,0.2
		c0.6-0.8,0.3-2.1-0.5-2.6c-0.4-0.3-0.9-0.4-1.3-0.3C123.2,102.2,122.6,103.2,123,104z"/>
	<path fill="#FFFFFF" d="M120.3,87.6c-0.3-1.9,1.9-3.6,3.8-3.5c0.4,0,0.9,0.1,1.2,0.4c0.9,0.6,1.2,1.7,1,2.8c-0.3,1.4-1.5,2.6-3,2.7
		C121.9,90.2,120.5,89,120.3,87.6 M122.2,87.4c0.2,0.8,1.1,1.5,1.8,1c0.2-0.2,0.4-0.4,0.4-0.7c0.2-0.7-0.1-1.6-0.8-1.8
		s-1.5,0.7-1,1.3L122.2,87.4z"/>
	<circle fill="#FFFFFF" cx="108.4" cy="63.4" r="1"/>
	<circle fill="#FFFFFF" cx="130.8" cy="50.6" r="1"/>
</g>
<g>
</g>
<g>
</g>
<g>
</g>
<g>
</g>
<g>
</g>
<g>
</g>
<g>
</g>
<g>
</g>
<g>
</g>
<g>
</g>
<g>
</g>
<g>
</g>
<g>
</g>
<g>
</g>
<g>
</g>
</svg>
