<?xml version="1.0" encoding="utf-8"?>
<!-- Generator: Adobe Illustrator 18.1.0, SVG Export Plug-In . SVG Version: 6.00 Build 0)  -->
<!DOCTYPE svg PUBLIC "-//W3C//DTD SVG 1.1//EN" "http://www.w3.org/Graphics/SVG/1.1/DTD/svg11.dtd">
<svg version="1.1" id="Layer_1" xmlns="http://www.w3.org/2000/svg" xmlns:xlink="http://www.w3.org/1999/xlink" x="0px" y="0px"
	 width="275px" height="176px" viewBox="0 0 275 176" enable-background="new 0 0 275 176" xml:space="preserve">
<circle fill="#FFFFFF" cx="137.5" cy="88" r="88"/>
<circle fill="#AFC66D" cx="137.5" cy="88" r="64"/>
<g>
	<path fill="#FFFFFF" d="M123,99.5c-0.1,0-0.1,0-0.2,0c-0.7,0-1.2-0.3-1.7-0.7c-0.1-0.1-0.2-0.2-0.2-0.4c-0.1-0.5-0.3-1.1-0.4-1.6
		c-0.1-0.5-0.5-0.9-0.8-1.4c0,0-0.1,0-0.2-0.1c-0.2,0.2-0.3,0.4-0.5,0.6c-0.2,0.3-0.5,0.5-0.8,0.8c-0.8,0.6-1.6,0.7-2.5,0.3
		c0,0,0,0-0.1,0c0,0.1-0.1,0.2-0.2,0.3c-0.1,0.4-0.3,0.7-0.6,1c-0.3,0.4-0.6,0.5-1.1,0.4c-0.2,0-0.5-0.1-0.7-0.1
		c-0.4-0.1-0.8-0.3-1.2-0.6c-0.1-0.1-0.2-0.2-0.3-0.3c-0.2,0.1-0.4,0.2-0.6,0.4c-0.2,0.2-0.4,0.5-0.6,0.8c-0.3,0.5-0.7,0.8-1.2,0.9
		c-0.1,0-0.1,0-0.2,0c-0.8-0.1-1.6-0.2-2.2-0.8c-0.3-0.2-0.5-0.5-0.8-0.8c-0.3-0.4-0.7-0.7-1.1-1.1c-0.1,0.2-0.3,0.3-0.4,0.4
		c-0.3,0.4-0.6,0.8-0.8,1.1c-0.3,0.4-0.9,0.7-1.5,0.6c-0.4-0.1-0.8-0.2-1.2-0.4c-0.1-0.1-0.2-0.2-0.3-0.3c-0.4-0.4-0.6-1-0.8-1.5
		c-0.2-0.3-0.3-0.6-0.4-0.9c0-0.1-0.1-0.1-0.2-0.3c-0.2,0.2-0.3,0.3-0.4,0.5c-0.2,0.4-0.4,0.8-0.6,1.1c-0.2,0.3-0.4,0.7-0.7,0.9
		c-0.3,0.2-0.6,0.2-1,0.1c-0.3-0.1-0.5-0.2-0.8-0.3c-0.2-0.1-0.3-0.2-0.4-0.4c-0.2-0.5-0.3-1-0.4-1.6c0-0.4-0.1-0.9-0.1-1.3
		c0-0.3-0.1-0.6-0.1-0.9c0-0.7,0.1-1.5,0-2.2c0-0.7,0-1.3-0.2-2c-0.1-0.4,0-0.8-0.1-1.1c0-0.6,0-1.3,0-1.9c0-0.9-0.1-1.8-0.1-2.7
		c0-0.5,0-1.1-0.1-1.6c-0.1-0.7-0.1-1.5-0.2-2.2c-0.1-0.6-0.1-1.2-0.2-1.8c0-0.3,0-0.6-0.1-0.9c0-0.8-0.1-1.6-0.1-2.3
		c0-1.1-0.2-2.1-0.5-3.1c0-0.1-0.1-0.2-0.1-0.3c-0.1-0.2-0.1-0.3,0.1-0.4c-0.4-0.1-0.8-0.3-1.1-0.4c-0.3-0.1-0.6-0.2-0.8-0.4
		c-0.4-0.3-0.8-0.7-1.1-1c-0.2-0.2-0.3-0.6-0.5-0.9c-0.1-0.1-0.1-0.3-0.2-0.5c-0.3-0.8-0.3-1.6-0.3-2.4c0-0.6,0.1-1.1,0.2-1.7
		c0.2-0.5,0.3-1.1,0.8-1.5c0.2-0.2,0.3-0.4,0.5-0.5c0.1-0.1,0.1-0.1,0.2-0.1c0.4-0.1,0.8-0.3,1.2-0.4c0.6-0.1,1.1,0,1.6,0.2
		c0.5,0.2,1,0.4,1.3,0.8c0.3,0.3,0.7,0.6,0.9,1.1c0.2,0.4,0.5,0.8,0.7,1.2c0.1,0.3,0.3,0.6,0.4,0.9c0,0.1,0.1,0.2,0.1,0.3
		c0.1,0.4,0.3,0.8,0.4,1.3c0.1,0.4,0.2,0.9,0.2,1.3c0,0.3,0,0.3,0.3,0.3c0.7,0.1,1.5,0.1,2.2,0c0.2,0,0.4,0,0.5,0
		c0.6,0,1.3-0.1,1.9-0.1c0.4,0,0.9,0,1.3,0c0.5,0,1-0.1,1.6,0c0.7,0,1.4,0.1,2.1,0.1c0.3,0,0.7-0.1,1-0.1c0.6-0.1,1.2-0.2,1.8-0.3
		c0.5-0.1,1.1-0.1,1.5-0.4c0,0,0.1,0,0.1,0c0.4,0,0.5,0,0.6-0.4c0.2-0.6,0.5-1.2,0.7-1.8c0.2-0.8,0.5-1.7,0.6-2.6
		c0-0.1,0.1-0.3,0.1-0.4c0.2-0.7,0.5-1.3,0.7-2c0.2-0.6,0.5-1.2,0.6-1.8c0.1-0.5,0.4-1,0.5-1.6c0-0.1,0.1-0.1,0.1-0.1
		c0.3-0.1,0.6-0.3,0.9-0.4c0.2-0.1,0.4,0,0.6,0c0.2,0,0.4,0,0.5,0c0.3,0,0.7-0.1,1-0.2c0.3-0.1,0.6-0.1,0.9,0c0.1,0,0.1,0,0.2,0
		c0.6,0,0.9,0.3,1.2,0.7c0.2,0.3,0.2,0.6,0.1,0.9c-0.1,0.8-0.2,1.5-0.3,2.3c0,0.4-0.1,0.8-0.1,1.1c0,0,0,0.1,0,0.1
		c-0.2,0.4-0.1,0.9-0.1,1.3c-0.1,0.4,0,0.9-0.1,1.3c-0.1,0.4-0.2,0.7-0.2,1.1c-0.1,0.5-0.1,1-0.2,1.6c0,0.1,0,0.2-0.1,0.3
		c0,0.1,0,0.3,0,0.4c0.2,0,0.4,0,0.6,0c0.1-0.2,0.1-0.4,0.2-0.7c0.1-0.5,0.3-1,0.5-1.4c0.2-0.7,0.4-1.4,0.6-2.2
		c0.2-0.6,0.3-1.3,0.5-1.9c0.1-0.3,0.2-0.6,0.3-0.9c0.2-0.6,0.4-1.2,0.6-1.9c0.1-0.4,0.2-0.8,0.4-1.1c0.4-0.6,1-0.9,1.8-1
		c0.6-0.1,1.2,0,1.7-0.2c0.2-0.1,0.5,0,0.7,0c0,0,0.1,0,0.1,0c0.2-0.2,0.4-0.1,0.6,0c0.1,0,0.1,0,0.2,0c0.2,0.4,0.5,0.7,0.5,1.1
		c0,0.1,0,0.2,0,0.3c0,0.4-0.1,0.7-0.2,1.1c-0.1,0.4-0.1,0.7-0.2,1.1c-0.1,0.6-0.2,1.2-0.3,1.8c-0.1,0.4-0.2,0.7-0.2,1.1
		c-0.1,0.5-0.1,0.9-0.2,1.4c-0.1,0.6-0.1,1.1-0.1,1.7c0,0.3,0,0.6,0.1,0.9c0.2-0.1,0.3-0.1,0.4-0.2c0.4-0.3,0.9-0.5,1.4-0.6
		c0.3,0,0.6,0,0.9,0.1c0.8,0.1,1.7,0.2,2.5,0.2c0.3,0,0.5,0,0.8,0c0.6,0,1.1,0,1.7,0.1c0.3,0,0.6,0,0.9,0c0.2,0,0.4,0,0.5,0
		c0.1,0,0.2,0,0.3,0c0.7,0.1,1.4,0.1,2.2,0c0.9,0,1.7,0,2.6-0.1c0.7-0.1,1.4,0,2.1,0c0.4,0,0.9,0.1,1.3,0.1c0.3,0,0.6-0.1,0.8-0.1
		c1.1,0,2.2,0,3.3,0c0.3,0,0.7,0,1-0.1c0.2,0,0.4,0,0.7,0c0.7,0,1.5-0.1,2.2-0.2c1,0,1.9-0.1,2.9-0.2c0.6,0,1.2-0.1,1.8-0.1
		c0.5,0,1,0,1.6,0c0.1,0,0.1,0,0.2,0c0.5-0.1,1.1-0.1,1.6,0c0.3,0,0.7,0.1,1,0.1c0.5,0.1,1.1,0.1,1.7,0.1c0.7,0,1.3,0,2,0
		c0.3,0,0.6,0,1,0.1c0.1,0,0.2,0,0.3,0c0.4,0,0.7,0,1.1,0c0.3,0,0.4-0.1,0.5-0.3c0.2-0.2,0.3-0.5,0.5-0.7c0.3-0.6,0.6-1.2,1-1.8
		c0,0,0-0.1,0.1-0.1c0.5-0.6,0.8-1.2,1.2-1.9c0.4-0.6,0.7-1.3,1.2-1.8c0.4-0.5,0.8-1,1.1-1.6c0.2-0.3,0.4-0.6,0.7-0.9
		c0.4-0.4,0.8-0.9,1.2-1.3c0.3-0.3,0.7-0.6,0.9-0.9c0.2-0.2,0.3-0.5,0.5-0.7c0,0,0-0.1,0.1-0.1c0.4-0.4,0.8-0.8,1.4-0.7
		c0.4,0,0.7,0,1.1,0c0.1,0,0.2,0,0.3,0c0.2,0,0.5,0,0.7,0c0.4,0.1,0.8,0.1,1.3,0.1c0.1,0,0.1,0,0.2,0.1c0.3,0.1,0.7,0.3,1,0.4
		c0.3,0.1,0.5,0.3,0.8,0.5c0.1,0.1,0.2,0.2,0.4,0.3c0,0.2,0,0.4,0.1,0.6c0.1,0.2,0,0.5,0,0.8c0,0.5-0.3,1-0.6,1.4
		c-0.2,0.3-0.4,0.6-0.6,0.9c-0.3,0.6-0.8,1.2-1.2,1.8c-0.3,0.5-0.6,0.9-0.9,1.4c-0.3,0.6-0.8,1.2-1.2,1.8c-0.2,0.3-0.4,0.6-0.6,0.9
		c-0.1,0.2-0.3,0.4-0.4,0.6c-0.1,0.1-0.2,0.2-0.2,0.4c-0.1,0.2-0.2,0.4-0.4,0.6c-0.2,0.1-0.3,0.3-0.4,0.4c-0.3,0.6-0.5,1.1-0.7,1.7
		c-0.1,0.2-0.2,0.4-0.3,0.5c-0.1,0.2-0.2,0.5-0.2,0.7c0,0.3-0.1,0.6-0.2,0.9c-0.2,0.4-0.2,0.8-0.2,1.1c0,0.2-0.1,0.3-0.1,0.5
		c-0.2,0.8-0.3,1.6-0.5,2.3c-0.1,0.6-0.2,1.2-0.3,1.8c0,0.2-0.1,0.5-0.1,0.7c-0.1,0.4-0.1,0.7,0,1.1c0.1,0.5,0.1,1,0,1.6
		c0,0.3-0.1,0.6-0.1,1c-0.1,0.8-0.1,1.6-0.2,2.5c0,0.1,0,0.1,0,0.2c0.1,0.7-0.1,1.4,0,2c0,0.1,0,0.2,0,0.2c0,0.2,0,0.3,0.1,0.5
		c0.1,0.1,0.1,0.2,0.1,0.3c0,0.1,0,0.3,0,0.4c-0.1,0.7,0.1,1.3,0.2,2c0,0.6,0,1.3,0,1.9c0,0.5,0,1.1,0.1,1.6c0,0.6,0,1.2,0,1.7
		c0,0.5,0,1.1,0.1,1.6c0,0.4,0.1,0.9,0.1,1.3c0.1,0.7,0.1,1.3,0.2,2c0.2,1,0.2,2.1,0.2,3.2c0,0.3-0.1,0.6,0.1,0.9c0,0.1,0,0.1,0,0.2
		c-0.1,0.5,0,1.1,0,1.6c0,0.5,0,1,0.1,1.5c0,0.7,0,1.4,0,2c0,0.6,0,1.3,0,1.9c0,0.2,0,0.4,0,0.6c0,0.7-0.1,1.4-0.1,2
		c0,0.6,0,1.1,0,1.7c0,0.2,0,0.5,0,0.7c0,0.6,0,1.3,0,1.9c0,0.1,0.1,0.3,0.1,0.4c0.1,0.4,0.2,0.7,0.1,1.1c0,0.1-0.1,0.1-0.1,0.2
		c-0.2,0.2-0.4,0.4-0.6,0.6c-0.2,0.2-0.5,0.1-0.7,0.2c-0.1,0-0.2,0-0.4,0.1c-0.6,0.2-1.2,0.2-1.8,0.3c-0.4,0-0.8,0-1.2,0
		c-0.4,0-0.8,0-1.1,0.1c-0.4,0-0.8,0-1.2-0.2c-0.1,0-0.1,0-0.2,0c-0.5-0.1-1-0.3-1.2-0.9c-0.1-0.3-0.3-0.6-0.4-1
		c-0.1-0.3-0.1-0.6-0.1-0.9c0-0.4,0.1-0.8,0.1-1.1c0-0.1,0.1-0.1,0.1-0.2c0.3-0.5,0.8-0.8,1.3-1.1c0.3-0.2,0.6-0.3,1-0.4
		c0.1-0.2,0.1-0.4,0.1-0.7c-0.1-0.7-0.2-1.5-0.2-2.2c0-0.9-0.1-1.8-0.2-2.6c0-0.3-0.1-0.5-0.4-0.5c-0.2,0-0.4-0.1-0.6-0.2
		c-0.1,0-0.1,0-0.2-0.1c-0.2-0.2-0.4-0.3-0.7-0.3c-0.1,0-0.2,0-0.3-0.1c-0.3-0.1-0.5,0.1-0.5,0.4c0,0.3,0,0.5-0.1,0.8
		c0,0.2,0,0.3,0,0.5c0,0.5,0,1,0,1.5c0,0.6-0.1,1.3-0.1,1.9c0,0.7-0.1,1.4,0,2.1c0,0.5,0,1.1-0.1,1.6c0,0.2,0,0.4,0,0.6
		c0,0.2,0,0.3,0,0.5c0,0.2-0.1,0.4,0,0.7c0,0.1,0,0.2,0,0.2c-0.2,0.4-0.2,0.8-0.3,1.3c0,0.1,0,0.1-0.1,0.2c-0.3,0.2-0.6,0.4-1,0.4
		c-0.5,0.1-1.1,0-1.7,0.1c-0.7,0.1-1.3,0.3-2,0.3c-0.2,0-0.5,0-0.7-0.1c-0.2-0.1-0.4-0.1-0.6-0.1c-0.3,0-0.6-0.1-0.8-0.2
		c-0.3-0.2-0.7-0.2-1.1-0.4c-0.1,0-0.1-0.1-0.2-0.2c-0.1-0.1-0.2-0.3-0.3-0.4c-0.4-0.3-0.3-0.7-0.3-1.2c0-0.1,0-0.3,0-0.4
		c0-0.1,0.1-0.3,0.1-0.4c0.2-0.4,0.3-0.8,0.6-1.1c0.2-0.2,0.5-0.5,0.7-0.6c0.5-0.3,0.9-0.6,1.5-0.7c0.5-0.1,0.8-0.6,0.8-1.1
		c0-0.6-0.1-1.1-0.1-1.7c-0.1-0.9-0.1-1.7-0.2-2.6c0-0.4,0-0.7,0-1.1c0-0.4-0.2-0.5-0.5-0.3c-0.4,0.3-0.8,0.3-1.3,0.3
		c-0.2,0-0.3,0.1-0.5,0.1c-0.8,0.2-1.6,0.2-2.4,0.2c-0.6,0-1.2,0-1.8,0c-0.7,0-1.4,0.1-2.1,0.1c-0.2,0-0.4,0-0.6,0
		c-0.4,0-0.8-0.1-1.2-0.1c-0.5,0-0.9-0.1-1.4-0.1c-0.1,0-0.1,0-0.2,0c-0.9-0.3-1.8-0.2-2.7-0.2c-0.6,0-1.3,0.1-1.9,0.1
		c-0.3,0-0.3,0.1-0.3,0.4c0,0.4,0,0.8,0.1,1.1c0,0.4,0.1,0.8,0,1.2c0,0.5-0.1,1-0.1,1.5c0,0.4,0.1,0.8,0,1.2c0,0.4-0.1,0.8-0.1,1.1
		c0,0.5,0,1.1,0,1.7c0,0.5,0,0.9,0,1.4c0,0.6,0,1.3,0,1.9c0,0.2,0,0.5-0.1,0.7c-0.1,0.2-0.2,0.3-0.4,0.4c-0.4,0.2-0.8,0.3-1.3,0.5
		c-0.5,0.1-0.9,0.1-1.4,0.1c-0.4,0-0.7,0-1.1,0.1c-0.4,0-0.8,0-1.2,0.1c-0.5,0.1-1,0-1.5,0.1c-0.1,0-0.2,0-0.3-0.1
		c-0.4-0.2-0.8-0.3-1.2-0.5c-0.1,0-0.1-0.1-0.1-0.1c-0.4-0.5-0.7-1-0.5-1.7c0.1-0.4,0.1-0.7,0.3-1.1c0.2-0.6,0.5-1,1-1.4
		c0.4-0.3,0.8-0.6,1.3-0.9c0.2-0.2,0.3-0.4,0.3-0.7c0-1.3-0.1-2.6-0.2-3.9c-0.1-0.8-0.2-1.6-0.2-2.4c0-0.4-0.1-0.4-0.4-0.5
		c-0.5-0.1-0.9-0.1-1.4-0.1c-0.4,0-0.9,0-1.3,0c-0.2,0-0.3,0.1-0.2,0.2c0.1,0.3,0,0.5,0,0.8c0,0.4-0.1,0.8-0.1,1.1
		c0,0.2,0,0.5,0,0.7c0,0.4,0,0.9,0,1.3c0,0.1,0,0.2,0,0.3c-0.1,0.6-0.2,1.2-0.1,1.8c0,0.4,0,0.8,0.1,1.2c0,0.2-0.1,0.3,0,0.5
		c0.1,0.6,0.2,1.2,0.1,1.7c0,0.5,0,1-0.2,1.5c-0.1,0.5-0.2,1-0.7,1.3c-0.2,0.1-0.5,0.2-0.7,0.3c-0.4,0.2-0.9,0.2-1.3,0.3
		c-0.2,0-0.4,0.1-0.6,0c0,0-0.1,0-0.1,0c-0.3,0.2-0.6,0.1-0.9,0.1c-0.2,0-0.4-0.1-0.6,0.1c0,0-0.1,0-0.1,0c-0.3-0.2-0.6,0-0.8,0
		c-0.3,0-0.5-0.1-0.8-0.1c-0.3,0-0.7-0.1-1-0.1c-0.6-0.1-1.1-0.3-1.5-0.7c-0.1-0.1-0.2-0.2-0.3-0.4c-0.4-0.5-0.3-1-0.1-1.5
		c0.1-0.2,0.3-0.3,0.4-0.5c0.4-0.4,0.8-0.8,1.3-1.1c0.4-0.3,0.8-0.6,1.2-0.9c0.1-0.1,0.2-0.2,0.3-0.3c0.1-0.1,0.1-0.2,0.2-0.2
		c0.2-0.1,0.2-0.2,0.2-0.4c0-0.2,0.1-0.4,0.1-0.7c0-0.5,0-0.9-0.1-1.4c-0.1-0.7-0.1-1.4-0.1-2.1c0-0.6,0.1-1.1,0-1.7
		c0-0.2,0.1-0.4,0.1-0.7c0,0,0-0.1,0-0.1c0-0.4-0.1-0.5-0.4-0.7c-0.2-0.1-0.4-0.2-0.6-0.3c-0.3-0.1-0.4-0.4-0.5-0.7
		c0-0.1-0.1-0.1-0.1-0.3c-0.1,0.1-0.1,0.1-0.2,0.2c-0.2,0.3-0.5,0.4-0.8,0.6c0,0-0.1,0-0.1,0c-0.4,0-0.9,0.1-1.3-0.1
		c-0.4-0.2-0.7-0.5-0.8-0.9c-0.2-0.5-0.2-1-0.2-1.6c0-0.7,0-1.4,0-2.2c0-0.2,0-0.4,0-0.6c0-0.1,0-0.2-0.1-0.4c0-0.1,0-0.2,0-0.2
		c0.2-0.4,0.2-0.9,0.2-1.4c0.1-0.4,0.1-0.9,0.1-1.3c0-0.4,0-0.8,0.1-1.2c-0.2,0-0.2,0.2-0.3,0.3c-0.1,0.2-0.2,0.5-0.3,0.7
		C123.4,99.2,123.2,99.4,123,99.5z M127.5,119.4c0.1,0.2,0.2,0.4,0.4,0.4c0.3,0,0.5,0,0.8,0c0.3,0,0.6,0,0.8,0
		c0.8,0.1,1.6,0,2.3-0.1c0.1,0,0.1,0,0.2,0c0.4,0,0.7-0.1,0.8-0.5c0.1-0.5,0.1-1,0.1-1.5c0-0.5-0.1-1-0.1-1.5
		c-0.1-0.8,0-1.6,0.1-2.4c0-0.4,0.1-0.8,0.1-1.2c0-0.5,0-1,0-1.5c0-0.5,0-1,0.1-1.5c0-0.1,0-0.2,0-0.3c0-0.5-0.1-1-0.1-1.5
		c0-0.1,0-0.1,0.1-0.2c0.1-0.3,0.4-0.4,0.7-0.5c0.1-0.1,0.3-0.2,0.4-0.2c0.4,0,0.8,0,1.1,0.2c0,0,0.1,0,0.1,0c0.4,0,0.8,0,1.2,0
		c0.7-0.1,1.5-0.1,2.2,0.1c0.3,0.1,0.7,0.1,1,0.1c0.2,0,0.3,0,0.4,0.1c0.5,0.3,0.6,0.8,0.7,1.3c0.1,0.6,0.1,1.2,0.1,1.9
		c0.1,0.9,0.2,1.8,0.3,2.8c0,0.5,0.1,0.9,0.1,1.4c0,0.1,0,0.1,0,0.2c0,0.3,0,0.5,0.1,0.8c0.1,0.3,0.1,0.6,0.1,0.9
		c0,0.2,0,0.4-0.1,0.5c-0.1,0.2-0.6,0.5-0.9,0.5c-0.1,0-0.2,0-0.3,0.1c0,0-0.1,0-0.2,0c-0.2-0.1-0.3,0-0.4,0.1
		c-0.1,0.1-0.2,0.2-0.3,0.2c-0.7,0.5-0.9,1.2-0.9,2c0.3,0.2,0.6,0.3,0.9,0.3c0.5,0,1-0.1,1.4-0.1c0.6,0,1.2-0.1,1.7-0.1
		c0,0,0.1,0,0.1,0c0.3,0,0.5-0.2,0.5-0.5c0-0.4,0.1-0.7,0.1-1.1c0-0.5,0-0.9,0-1.4c0-0.2,0-0.5,0-0.7c0-0.4,0-0.7,0-1.1
		c0-0.5,0.1-0.9,0.1-1.4c0-0.5,0-1.1,0-1.6c0-0.8,0.1-1.5,0.1-2.3c0-0.2,0-0.4,0-0.5c-0.1-0.6-0.2-1.2-0.2-1.8
		c0-0.2,0.1-0.3,0.2-0.4c0.4-0.2,0.7-0.5,1.1-0.4c0.3,0.1,0.6,0,0.7,0.2c0.4,0,0.7-0.1,1.1-0.1c0.6,0,1.3,0,1.9,0c0.2,0,0.4,0,0.6,0
		c0.7,0.1,1.4,0.1,2.1,0.2c0.8,0.1,1.6,0.2,2.3,0.2c0.6,0,1.1,0,1.7,0c0.8-0.1,1.6-0.1,2.4-0.1c0.7,0,1.4,0,2.1-0.3c0,0,0.1,0,0.1,0
		c0.3,0,0.5-0.1,0.7-0.2c0.5-0.2,0.9-0.3,1.4-0.4c0.5-0.1,0.9-0.1,1.3-0.3c0.1,0,0.2-0.1,0.3,0c0.3,0,0.6,0.1,0.9,0.3
		c0.2,0.1,0.3,0.2,0.3,0.4c0,0.3,0.2,0.5,0.1,0.8c0,0.1,0,0.2,0,0.2c0,0.1,0,0.1,0,0.2c-0.1,0.3-0.1,0.7-0.1,1c0,0.2,0,0.4,0,0.6
		c0,0.4,0,0.9,0.1,1.3c0.1,0.8,0.1,1.6,0.2,2.5c0,0.2,0.1,0.3,0,0.5c-0.1,0.3,0,0.5,0.1,0.7c0,0.1,0,0.2,0,0.2c-0.2,0.3-0.2,0.7,0,1
		c-0.3,0.5-0.8,0.6-1.3,0.6c-0.3,0-0.5,0-0.8,0.1c-0.2,0.1-0.5,0.2-0.7,0.3c-0.2,0.1-0.5,0.3-0.7,0.5c-0.1,0.2-0.2,0.4-0.3,0.6
		c-0.1,0.2-0.1,0.3-0.1,0.5c0,0.3,0.2,0.6,0.5,0.6c0.5,0.1,1,0.1,1.5,0.1c0.5-0.1,1.1,0,1.6-0.2c0.1,0,0.3-0.1,0.4-0.1
		c0.2,0,0.3,0,0.4-0.2c0.1-0.1,0.2-0.3,0.2-0.4c0.1-0.5,0.1-1,0.1-1.6c0-0.6,0-1.1,0-1.7c0-0.1,0-0.2,0-0.4c0-0.4,0-0.8,0-1.2
		c0,0,0,0,0-0.1c0-0.5,0.1-1,0.1-1.5c0-0.7,0-1.4,0-2.1c0-0.3,0.1-0.6,0.1-0.8c0.1-0.6,0.1-1.1,0.1-1.7c0-0.3,0-0.4,0.3-0.5
		c0.3-0.1,0.5-0.1,0.8-0.2c0.4-0.1,0.7-0.2,1.1-0.1c0.6,0.1,1.2,0,1.7,0.2c0,0,0.1,0,0.1,0c0.1,0,0.2,0,0.3,0c0.1,0.1,0.3,0.1,0.4,0
		c0.2-0.1,0.5-0.1,0.7-0.1c0.1,0,0.2,0,0.3,0c0.3,0,0.6,0,0.8,0.4c0.1,0.2,0.2,0.4,0.5,0.4c0,0.4,0,0.8,0,1.2c-0.1,0.5,0,1,0.1,1.5
		c0,0.4,0.1,0.9,0.1,1.3c0,0.6,0.1,1.1,0.2,1.7c0,0.4,0.1,0.7,0.1,1.1c0,0.4-0.1,0.7,0.2,1.1c0.1,0.1,0.1,0.3-0.1,0.4
		c-0.2,0.2-0.4,0.3-0.5,0.4c-0.1,0.2-0.3,0.2-0.4,0.3c-0.1,0-0.3,0.1-0.5,0.1c-0.2-0.2-0.4-0.1-0.6,0c-0.1,0-0.1,0.1-0.2,0.1
		c-0.3,0-0.4,0.2-0.5,0.3c-0.1,0.2-0.2,0.5-0.2,0.8c0,0.3,0.1,0.6,0.4,0.9c0.3,0.2,0.6,0.2,1,0.2c0.4,0,0.9-0.1,1.3-0.1
		c0.5,0,0.9-0.1,1.3-0.2c0.1,0,0.2-0.1,0.3-0.3c0-0.2,0-0.5,0.1-0.7c0-0.4,0-0.8,0-1.1c0-0.3,0-0.6,0-0.9c0-0.3,0-0.6,0-0.8
		c0-0.5,0-1.1,0-1.6c0-0.6,0-1.2,0-1.8c0-0.5,0-1,0-1.6c0-0.5,0-1,0-1.5c0-0.7,0-1.3-0.1-2c0-0.4,0-0.8,0-1.3c0-0.9-0.1-1.8-0.1-2.8
		c0-0.7,0-1.4-0.1-2.1c0-0.1,0-0.1,0-0.2c-0.1-0.7-0.3-1.4-0.3-2.1c-0.1-0.9-0.1-1.8-0.2-2.7c0-0.2,0-0.4-0.1-0.6
		c-0.1-0.3,0-0.7,0-1c0-0.5,0-1.1-0.1-1.6c0-0.3-0.1-0.7-0.1-1c0-0.8,0.1-1.5,0-2.3c0-0.2,0-0.4,0.1-0.5c0-0.1,0.1-0.2,0-0.2
		c-0.1-0.3-0.2-0.7-0.2-1c0-0.1-0.1-0.2,0-0.3c0.1-0.6,0-1.1,0-1.7c0-0.2,0-0.4,0-0.6c0.1-0.9,0.3-1.7,0.3-2.6c0-0.3,0-0.7,0-1
		c0-0.4,0-0.9,0-1.3c0-0.5-0.1-1,0-1.6c0.1-0.8,0.3-1.6,0.4-2.5c0.1-0.7,0.2-1.4,0.4-2.1c0-0.1,0-0.3,0-0.4
		c-0.1-0.6,0.1-1.1,0.2-1.6c0.1-0.6,0.4-1.1,0.4-1.7c0.1-0.7,0.4-1.3,0.8-2c0.2-0.4,0.4-0.7,0.7-1c0.3-0.5,0.6-1,0.9-1.5
		c0.2-0.3,0.4-0.6,0.7-0.9c0.1-0.2,0.2-0.3,0.4-0.5c0.1-0.2,0.3-0.4,0.4-0.7c0.2-0.4,0.5-0.7,0.7-1.1c0.2-0.4,0.5-0.7,0.7-1.1
		c0.2-0.3,0.5-0.7,0.7-1c0.3-0.4,0.6-0.9,0.8-1.3c0.4-0.6,0.8-1.2,0.9-1.9c-0.3-0.1-0.7-0.2-1-0.3c-0.1,0-0.1,0-0.2,0
		c-0.6,0-1.1,0-1.7,0c-0.1,0-0.1,0-0.2,0.1c-0.3,0.3-0.6,0.6-0.9,0.8c-0.5,0.5-1.1,1.1-1.6,1.6c-0.3,0.3-0.5,0.6-0.8,0.9
		c-0.2,0.3-0.4,0.6-0.6,0.9c-0.5,0.6-1,1.3-1.5,1.9c0,0,0,0.1-0.1,0.1c-0.3,0.5-0.6,1-0.9,1.5c-0.5,0.8-0.9,1.6-1.4,2.4
		c0,0,0,0.1-0.1,0.1c-0.3,0.6-0.7,1.2-1,1.9c-0.2,0.5-0.5,0.9-0.9,1.2c0.2,0.2,0.2,0.4,0.1,0.7c-0.1,0.2-0.1,0.4-0.1,0.6
		c0.1,1.2-0.2,2.4-0.5,3.6c-0.2,0.9-0.5,1.7-0.7,2.6c-0.2,0.7-0.5,1.4-0.9,2.1c-0.2,0.4-0.4,0.7-0.5,1.1c-0.2,0.4-0.4,0.8-0.6,1.2
		c-0.3,0.6-0.7,1.1-1,1.7c-0.3,0.6-0.8,1.2-1.2,1.7c-0.2,0.3-0.5,0.5-0.8,0.8c-0.6,0.6-1.2,1.1-1.9,1.7c-0.5,0.4-1.1,0.8-1.6,1.2
		c-0.5,0.3-1,0.7-1.5,1c-0.6,0.3-1.2,0.6-1.8,0.9c-0.1,0-0.2,0.1-0.3,0.1c-0.2,0.3-0.6,0.3-0.9,0.4c-0.1,0-0.3,0-0.4,0.1
		c-0.3,0.1-0.6,0.3-0.9,0.4c-0.7,0.2-1.4,0.5-2.1,0.6c-0.6,0.1-1.1,0.3-1.7,0.3c-0.3,0-0.6,0.1-0.9,0.1c-0.1,0-0.1,0-0.2,0
		c-0.4-0.1-0.7,0.1-1.1,0c0,0-0.1,0-0.2,0c-0.6,0-1.2,0-1.8,0c-0.2,0-0.3-0.1-0.5,0c-0.4,0.1-0.7,0-1.1-0.1c-0.1,0-0.1,0-0.2,0
		c-0.1,0-0.3,0-0.4,0c-0.2,0-0.5-0.1-0.7-0.2c-0.2-0.1-0.5-0.1-0.7-0.1c-0.3,0-0.5-0.2-0.7-0.1c0,0-0.1,0-0.2-0.1
		c-0.2-0.2-0.5-0.3-0.7-0.2c-0.1-0.1-0.2-0.2-0.3-0.2c-0.3-0.1-0.5-0.2-0.8-0.3c-0.8-0.4-1.6-0.8-2.4-1.2c-0.1,0-0.1-0.1-0.2-0.1
		c-0.2-0.3-0.5-0.4-0.8-0.5c-0.3-0.1-0.5-0.2-0.7-0.4c-0.1-0.1-0.1-0.1-0.2-0.2c-0.3-0.2-0.6-0.5-0.9-0.7c-0.6-0.5-1.1-1.1-1.7-1.6
		c-0.4-0.4-0.9-0.8-1.2-1.3c-0.3-0.4-0.5-0.7-0.8-1.1c-0.1-0.2-0.3-0.4-0.4-0.6c-0.3-0.4-0.5-0.9-0.8-1.3c-0.3-0.5-0.5-1-0.8-1.6
		c-0.2-0.4-0.4-0.9-0.5-1.4c-0.2-0.6-0.3-1.2-0.5-1.7c-0.1-0.2-0.2-0.4-0.2-0.5c-0.1-0.5-0.2-0.9-0.3-1.4c-0.2-1-0.4-2-0.6-3
		c-0.1-0.6-0.2-1.3-0.3-2c0-0.2,0-0.3,0.1-0.4c0.1,0,0.1-0.1,0.2-0.1c0-0.2-0.1-0.3-0.2-0.3c-0.2,0-0.3,0-0.5-0.1
		c-0.6-0.1-0.9-0.5-0.9-1.1c0-0.1,0-0.2,0-0.2c0-0.4,0.2-0.9,0.1-1.3c0-0.2,0-0.4,0-0.6c0-0.5,0.1-0.9,0.1-1.4
		c0.1-0.5,0.1-1,0.2-1.5c0.1-1,0.4-1.9,0.5-2.9c0-0.2,0.1-0.3,0.1-0.5c0-0.2,0.1-0.3,0.1-0.5c0-0.1-0.1-0.2-0.1-0.2
		c-0.3-0.1-0.5-0.1-0.7,0.2c-0.1,0.1-0.2,0.2-0.3,0.3c-0.4,0.6-0.7,1.2-0.8,1.9c-0.1,0.2-0.1,0.5-0.2,0.7c-0.2,0.7-0.4,1.3-0.6,2
		c-0.1,0.5-0.3,1-0.4,1.5c-0.2,0.6-0.4,1.2-0.6,1.8c-0.2,0.7-0.4,1.4-0.4,2.1c0,0.5-0.4,0.8-0.9,0.8c-0.4,0-0.7,0.1-1.1-0.1
		c0,0,0,0-0.1,0c-0.3,0-0.7,0-1-0.1c-0.5-0.1-1-0.1-1.5-0.4c0,0-0.1,0-0.1,0c-0.3,0-0.5-0.2-0.6-0.5c0-0.1-0.1-0.2,0-0.3
		c0-0.2,0.1-0.3,0.1-0.4c0.3-0.7,0.4-1.4,0.5-2.1c0.1-0.7,0.2-1.3,0.3-2c0.2-1.1,0.1-2.2,0.3-3.2c0.1-0.6,0.2-1.2,0.2-1.9
		c0-0.1,0-0.2,0-0.3c-0.3,0-0.6,0.1-0.9,0.1c-0.2,0-0.4,0.1-0.5,0.3c-0.2,0.5-0.3,0.9-0.5,1.4c-0.1,0.4-0.3,0.8-0.4,1.3
		c-0.2,0.7-0.5,1.3-0.7,2c-0.2,0.7-0.3,1.4-0.5,2c-0.1,0.5-0.3,0.9-0.4,1.4c-0.1,0.4-0.3,0.9-0.4,1.3c-0.1,0.3-0.1,0.5-0.2,0.8
		c-0.1,0.1-0.2,0.3-0.3,0.4c-0.1,0-0.2,0-0.3,0c0,0-0.1,0-0.1,0c-0.4,0.1-0.8,0.2-1.2,0.1c-0.2,0-0.4,0-0.5,0
		c-0.3,0-0.5,0.1-0.8,0.1c-0.9,0.1-1.7,0.3-2.6,0.5c-0.5,0.1-0.9,0.1-1.4,0.1c-0.3,0-0.5-0.1-0.8-0.1c-1.1,0-2.1,0.1-3.2,0.1
		c-0.2,0-0.4,0-0.6,0c-0.2,0-0.4,0.1-0.6,0.1c-0.4,0-0.7,0.1-1.1,0.1c-0.2,0-0.4,0-0.5,0c-0.5,0-1,0-1.5,0c-0.4,0-0.8,0-1.2,0
		c-0.2,0-0.5,0.2-0.7,0c0,0-0.1,0-0.1,0c-0.2,0.2-0.4,0-0.5-0.1c-0.2-0.1-0.3-0.1-0.5,0c-0.3,0.2-0.6,0.3-0.8,0.5
		c-0.1,0.1-0.3,0.1-0.4,0.2c0.3,0.3,0.4,0.6,0.5,1c0.1,0.4,0.2,0.8,0.3,1.2c0.1,0.3,0,0.7,0.1,1c0,0.2,0.1,0.4,0.1,0.6
		c0,0.3,0,0.6,0,0.8c0,0.2,0,0.5,0.1,0.7c0,0.1,0,0.2,0,0.3c0,0.2,0,0.5,0,0.7c0,0.3,0.1,0.7,0.1,1c0,0.5,0.1,1.1,0.1,1.6
		c0,0.5,0.1,1,0.2,1.5c0,0.4,0.1,0.8,0.1,1.1c0,0.6,0.1,1.1,0.1,1.7c0,0.5,0,1,0,1.6c0,0.5,0,0.9,0.1,1.4c0,0.4,0,0.8,0,1.2
		c0,0.1,0,0.2,0,0.2c0,0.4,0,0.8,0.1,1.1c0.1,0.5,0.1,1,0.1,1.5c0,0.3,0,0.6,0,0.9c0,0.3-0.1,0.6,0,1c0,0.6,0.1,1.1,0.1,1.6
		c0,0.1,0,0.2,0.1,0.3c0.3-0.3,0.5-0.5,0.7-0.7c0.5-0.6,1.1-0.8,1.8-0.9c0.4-0.1,0.8,0.1,1,0.4c0.1,0.2,0.2,0.4,0.4,0.6
		c0.4,0.5,0.6,1.1,0.9,1.7c0.1,0.2,0.1,0.5,0.4,0.6c0,0,0.1-0.1,0.1-0.1c0.3-0.3,0.6-0.7,1-1c0.5-0.5,1.1-0.8,1.8-0.9
		c0.2,0,0.4,0,0.6,0.1c0.3,0.2,0.5,0.4,0.7,0.7c0.5,0.7,1.1,1.3,1.7,1.9c0.2,0.2,0.3,0.2,0.5-0.1c0.3-0.5,0.8-0.8,1.3-1.1
		c0.1,0,0.2-0.1,0.3-0.2c0.4-0.3,0.8-0.5,1.3-0.5c0.2,0,0.4-0.1,0.5-0.1c0.3,0.1,0.6,0.2,0.8,0.4c0.1,0.1,0.1,0.2,0.2,0.2
		c0.2,0.1,0.2,0.1,0.3,0c0.1-0.2,0.2-0.3,0.4-0.5c0.3-0.2,0.5-0.4,0.8-0.5c0.2-0.1,0.4-0.1,0.5-0.1c0.1,0,0.2,0.2,0.3,0.2
		c0.1,0,0.2,0.1,0.2,0.1c0.3-0.1,0.7-0.2,1-0.5c0.2-0.2,0.3-0.4,0.5-0.6c0.3-0.4,0.7-0.7,1.2-1c0.6-0.3,1.2-0.5,1.8-0.1
		c0.2,0.1,0.4,0.3,0.6,0.4c0.3,0.3,0.5,0.6,0.8,0.9c0.4,0.4,0.6,0.8,0.8,1.3c0,0.1,0.1,0.1,0.1,0.2c0.1-0.1,0.1-0.1,0.2-0.1
		c0.3-0.2,0.5-0.5,0.9-0.6c0.4-0.1,0.8-0.3,1.2-0.4c0.3-0.1,0.6-0.1,0.7,0.3c0,0.1,0.1,0.2,0.2,0.2c0.4,0.5,0.5,1.1,0.5,1.7
		c0,0.5,0,0.9,0,1.4c0,0.3,0,0.6-0.1,0.9c-0.1,0.8-0.2,1.6-0.2,2.4c0,0.2,0,0.5,0,0.7c0,0.2,0,0.3,0,0.5c0,0.4,0,0.8,0,1.2
		c0,0,0,0.1,0.1,0.1c0.3-0.2,0.5-0.4,0.7-0.6c0,0,0.1-0.1,0.1-0.1c0.3-0.1,0.7-0.1,1-0.2c0.2-0.1,0.3,0,0.4,0.2
		c0.3,0.4,0.5,0.8,0.8,1.2c0,0,0,0.1,0,0.2c0.1,0.3,0.1,0.5,0.2,0.8c0.1,0.3,0.1,0.3,0.4,0.2c0.3,0,0.5-0.1,0.7-0.1
		c0.1,0.2,0.2,0.3,0.3,0.4c0.2,0.1,0.2,0.2,0.3,0.4c0,0.6,0,1.1,0,1.7c0,0.6,0,1.2,0,1.8c0,0.1,0.1,0.2,0.1,0.4
		c0,0.2-0.1,0.5-0.1,0.7c0,0.6-0.1,1.2,0.1,1.7c0,0,0,0.1,0,0.1c0,0.3,0,0.6,0.1,1c0,0.1,0,0.2,0.1,0.3c0.1,0.2,0.1,0.3,0.2,0.5
		c0.1,0.2-0.1,0.3,0,0.5c0.1,0.3,0,0.6-0.3,0.8c-0.2,0.1-0.4,0.3-0.6,0.4c-0.1,0.1-0.3,0.1-0.4,0.2c-0.1,0.1-0.2,0.3-0.4,0.2
		c-0.3,0.2-0.7,0.5-1,0.7c-0.1,0.1-0.3,0.2-0.4,0.3C128.1,118.7,127.8,119,127.5,119.4z M154.5,69.1c-0.2,0-0.3,0-0.5,0
		c-1,0.1-1.9,0.1-2.9,0.2c-0.2,0-0.5,0-0.7,0c-0.4,0-0.8,0-1.2,0c-0.7,0-1.4,0.1-2.1,0.1c-0.5,0-1,0-1.5,0c-0.6,0-1.2-0.1-1.8-0.1
		c-0.3,0-0.3,0-0.3,0.3c0.1,0.3,0.1,0.6,0,0.8c0,0.3,0,0.6,0,0.9c0,0.5,0,1.1,0,1.6c0,1.1,0,2.1,0,3.2c0,0.3,0,0.5,0,0.8
		c0,0.6,0,1.1,0,1.7c0.3,0,0.5,0,0.7,0c0.4,0,0.8,0,1.3,0c0.6,0,1.1,0.1,1.7,0.1c1.3,0,2.5,0,3.8,0c0.6,0,1.2,0,1.8,0
		c0.5,0,1,0.1,1.4,0.1c0.1,0,0.2,0,0.3,0c0-0.1,0-0.2,0-0.3c0-0.6-0.1-1.2-0.1-1.8c0-1.3,0-2.7,0-4c0-0.2,0-0.5,0-0.7
		C154.6,71.1,154.5,70.1,154.5,69.1z M143.7,81.1c0,0.5,0,0.9,0.1,1.4c0,0.7,0,1.3,0.1,2c0,0.6,0,1.1,0.1,1.7c0,0.6,0.1,1.1,0.1,1.7
		c0,0.5,0.1,1,0.1,1.5c0,0.2,0.2,0.4,0.4,0.5c0.1,0,0.2,0,0.2,0c0.9,0.2,1.7,0.3,2.6,0.3c0.3,0,0.7,0,1,0c0.6,0.1,1.2,0,1.8-0.1
		c0.1,0,0.2,0,0.3,0c0.9,0,1.8-0.3,2.7-0.5c0.5-0.1,0.9-0.3,1.3-0.4c0.3-0.1,0.5-0.3,0.4-0.7c0-0.1-0.1-0.2-0.1-0.3
		c0-0.5,0-0.9,0-1.4c0-0.5-0.1-1.1-0.1-1.6c0-0.7-0.1-1.4-0.1-2.2c0-0.5,0-1-0.1-1.4c0-0.3-0.1-0.4-0.4-0.4c-0.1,0-0.1,0-0.2,0
		c-0.4,0-0.9,0-1.3-0.1c-0.5,0-1.1,0-1.6,0c-0.1,0-0.2,0-0.3,0c-0.2,0-0.4,0-0.6,0c-0.2,0-0.4,0-0.6,0c-0.8,0-1.6,0-2.3,0
		c-0.6,0-1.2,0-1.7,0c-0.5,0-1.1,0-1.6,0C143.9,81.1,143.8,81.1,143.7,81.1z M166.3,78.2c0.1-0.2,0.2-0.5,0.3-0.7
		c0.1-0.2,0.1-0.4,0.2-0.6c0.2-0.6,0.4-1.1,0.6-1.7c0.2-0.6,0.3-1.3,0.5-1.9c0.2-0.6,0.2-1.1,0.3-1.7c0-0.3,0-0.6,0-0.9
		c0-0.3,0-0.5,0-0.8c0-0.1,0-0.2,0-0.3c0.1-0.4,0.1-0.4-0.3-0.4c-0.1,0-0.2,0-0.4,0c-0.5,0-1.1,0-1.6,0c-0.6,0-1.2-0.1-1.9-0.1
		c-0.7-0.1-1.3-0.1-2-0.2c-0.5-0.1-1,0-1.4,0c-0.1,0-0.2,0.1-0.2,0.1c0,0.3,0,0.6,0,0.9c0,0.3,0,0.6,0,1c0,1.1,0,2.3,0,3.4
		c0,0.8-0.1,1.6-0.1,2.4c0,0.1,0,0.2,0,0.3c0,0.5,0,1-0.1,1.5c0,0.1,0,0.2,0,0.3c0.2,0,0.4,0,0.5,0c0.1,0,0.1,0,0.2,0
		c0.5,0.1,1-0.1,1.5-0.1c0.2,0,0.3,0,0.5-0.1c0.6,0,1.1,0,1.7-0.1C165.2,78.4,165.7,78.3,166.3,78.2z M137.4,69.4
		c-0.1,0-0.2,0-0.3,0c-0.4,0-0.8,0-1.2-0.1c-0.7,0-1.3-0.1-2-0.1c-0.7,0-1.4-0.1-2.1-0.2c-0.2,0-0.5-0.1-0.7-0.1
		c-0.3,0.1-0.7,0.3-1,0.4c-0.3,0.2-0.3,0.2-0.2,0.5c0.1,0.1,0.1,0.3,0.1,0.4c0.1,0.3,0.1,0.7,0.2,1c0,0.2,0.1,0.5,0.1,0.7
		c0,0.7,0.2,1.3,0.3,1.9c0.1,0.4,0.2,0.8,0.3,1.2c0.1,0.7,0.3,1.3,0.5,1.9c0.1,0.5,0.3,0.9,0.4,1.4c0.1,0.2,0.2,0.2,0.3,0.2
		c0.3,0,0.6,0,0.9,0c0.3,0,0.6,0,0.9,0c0.6,0,1.1,0.1,1.6,0.1c0.4,0,0.8,0,1.3,0c0.2,0,0.4,0,0.6,0c0-0.1,0-0.1,0-0.1
		c0-0.8-0.1-1.6-0.1-2.3c0-0.6,0-1.2,0-1.8c0-0.8,0-1.6,0-2.4c0,0,0-0.1,0-0.1c0-0.7,0-1.3,0-2C137.5,69.8,137.5,69.6,137.4,69.4z
		 M91.5,66.2c0,0.5,0.1,0.8,0.1,1.2c0.1,0.5,0.4,1,0.7,1.4c0.2,0.2,0.4,0.4,0.7,0.5c0.7,0.3,1.4,0.1,1.9-0.5
		c0.2-0.2,0.4-0.3,0.6-0.4c0.4-0.2,0.4-0.2,0.3-0.6c-0.1-0.6-0.2-1.2-0.4-1.8c-0.1-0.4-0.3-0.8-0.5-1.2c-0.1-0.3-0.3-0.5-0.4-0.8
		c-0.2-0.4-0.6-0.6-1-0.9c0,0,0,0-0.1,0c-0.6-0.1-1.4,0.4-1.6,1C91.6,64.9,91.4,65.6,91.5,66.2z M133.3,81.1c0.6,1.2,1.3,2.1,2.1,3
		c0.8,1,1.7,1.7,2.7,2.6c0-0.2,0.1-0.3,0.1-0.4c0-0.3,0-0.7,0-1c0-0.3,0-0.6,0-0.8c-0.1-0.9-0.2-1.7-0.2-2.6c-0.1-0.7,0-0.7-0.8-0.7
		c-0.4,0-0.8,0-1.2,0c-0.8,0-1.6,0-2.4-0.1C133.5,81,133.4,81.1,133.3,81.1z M156.7,69c0,0.5,0.1,1,0.1,1.5c0,0.8,0,1.6-0.1,2.4
		c0,0.8,0,1.6,0,2.3c0,0.4,0,0.8,0,1.2c0,0.7,0,1.4,0.1,2c0,0.2,0.1,0.2,0.3,0.2c0.1,0,0.3,0,0.4,0c0.2,0,0.3,0,0.5,0
		c0-0.3,0.1-0.6,0.1-0.9c0-0.6,0-1.2,0-1.8c0-0.3,0-0.5,0-0.8c0-0.6,0-1.1,0-1.7c0-0.6,0-1.2,0.1-1.7c0-0.4,0-0.8,0.1-1.2
		c0-0.3,0-0.7,0-1c0-0.2,0-0.5,0.1-0.8C157.8,68.9,157.3,68.9,156.7,69z M141.3,78.8c0-0.4,0-0.8,0-1.2c0-0.5-0.1-1.1-0.1-1.6
		c0-1.1,0-2.1,0-3.2c0-0.3-0.1-0.7,0-1c0.1-0.7-0.1-1.3-0.1-2c0-0.2-0.2-0.3-0.4-0.3c-0.1,0-0.3,0-0.4,0c-0.2,0-0.5-0.1-0.6,0.1
		c0.1,3.1,0,6.1,0.2,9.2C140.4,78.8,140.9,78.8,141.3,78.8z M160.4,86c0,0,0.1,0,0.1,0.1c1.9-1.4,3.3-3.1,4.4-5.1
		c-0.3,0-0.5,0-0.8,0c-0.7,0.1-1.4,0.1-2.1,0.2c-0.1,0-0.1,0-0.2,0c-0.1,0-0.2,0-0.4,0c-0.3,0-0.7,0.1-1,0.1c-0.2,0-0.2,0.1-0.2,0.2
		c0,0.1,0,0.2,0,0.4c0,0.9,0.1,1.8,0.1,2.8C160.4,85,160.4,85.5,160.4,86z M141.7,88.8c0-0.1,0.1-0.1,0.1-0.2c0-0.3,0-0.7-0.1-1
		c0-0.4-0.1-0.8-0.1-1.2c0-0.7,0-1.4-0.1-2.1c0-1-0.1-2-0.2-3c0-0.1,0-0.3-0.2-0.3c-0.4,0-0.7-0.1-1.1,0.1c0,0.2,0,0.4,0.1,0.6
		c0,0.1,0,0.2,0,0.2c0,0.3,0,0.5,0.1,0.8c0.1,0.5,0.2,1.1,0.2,1.6c0,0.8,0,1.7,0.1,2.5c0,0.2,0.1,0.4,0.1,0.6c0,0.1,0,0.3,0.1,0.5
		c0,0.2,0.1,0.4,0.3,0.5C141.3,88.5,141.5,88.7,141.7,88.8z M157.4,88c0.6-0.2,0.8-0.4,0.7-0.9c0,0,0,0,0,0c0-0.3-0.1-0.7-0.1-1
		c0-1,0-2,0-3.1c0-0.5,0-0.9,0-1.4c0-0.1,0-0.2-0.1-0.3c-0.1-0.2-0.2-0.2-0.3-0.2c-0.2,0-0.3,0-0.5,0c-0.1,0-0.2,0.1-0.2,0.2
		c0,0.4,0,0.7,0,1.1c0,0.3,0.1,0.7,0.1,1c0,0.7,0.1,1.4,0.1,2.1c0,0.6,0.2,1.1,0.1,1.7C157.3,87.5,157.4,87.8,157.4,88z"/>
	<path fill="#FFFFFF" d="M117.4,75.9c0-0.2,0.1-0.3,0.1-0.5c0-0.2,0-0.4,0-0.6c0-0.4,0.1-0.7,0.2-1c0-0.2,0.2-0.4,0.3-0.5
		c0.2-0.1,0.5-0.2,0.8-0.3c0.2-0.1,0.4-0.1,0.5-0.1c0.2-0.1,0.4,0,0.6,0.1c0.1,0.1,0.1,0.1,0.2,0.2c0.2,0.2,0.3,0.4,0.3,0.6
		c0,0.5,0,0.9,0,1.4c0,0.2,0.1,0.4,0.1,0.6c0,0.1,0,0.2-0.1,0.4c-0.2,0.2-0.3,0.5-0.5,0.8c-0.1,0.3-0.4,0.5-0.6,0.5
		c-0.3,0-0.6,0-0.8-0.1c-0.3-0.1-0.5-0.3-0.8-0.5c-0.3-0.2-0.4-0.4-0.4-0.7C117.4,76.1,117.4,76,117.4,75.9
		C117.4,75.9,117.4,75.9,117.4,75.9z"/>
	<path fill="#FFFFFF" d="M112.2,74.6c0,0-0.1-0.1-0.2-0.2c0.3-0.2,0.2-0.5,0.1-0.8c0.2-0.2,0.3-0.3,0.4-0.5c0,0,0-0.1,0.1-0.1
		c0.3,0,0.5-0.3,0.8-0.4c0.1-0.1,0.3-0.1,0.4-0.1c0.3,0,0.5,0,0.7,0.2c0.2,0.1,0.4,0.1,0.5,0.4c0,0.1,0.1,0.2,0.1,0.3
		c0,0.2,0.1,0.4,0.2,0.5c0.1,0.4,0.3,0.8,0.1,1.2c0,0,0,0.1,0,0.1c0.1,0.5-0.2,0.9-0.5,1.2c-0.3,0.3-0.5,0.3-0.9,0.2c0,0,0,0-0.1,0
		c-0.4,0.1-0.7-0.3-1-0.4c-0.4-0.2-0.5-0.5-0.8-0.8c-0.1-0.1-0.2-0.2,0-0.4c0,0,0-0.1,0-0.2C112.1,74.8,112.1,74.7,112.2,74.6z"/>
</g>
<g>
</g>
<g>
</g>
<g>
</g>
<g>
</g>
<g>
</g>
<g>
</g>
<g>
</g>
<g>
</g>
<g>
</g>
<g>
</g>
<g>
</g>
<g>
</g>
<g>
</g>
<g>
</g>
<g>
</g>
</svg>
