<?xml version="1.0" encoding="utf-8"?>
<!-- Generator: Adobe Illustrator 18.1.0, SVG Export Plug-In . SVG Version: 6.00 Build 0)  -->
<!DOCTYPE svg PUBLIC "-//W3C//DTD SVG 1.1//EN" "http://www.w3.org/Graphics/SVG/1.1/DTD/svg11.dtd">
<svg version="1.1" id="Layer_1" xmlns="http://www.w3.org/2000/svg" xmlns:xlink="http://www.w3.org/1999/xlink" x="0px" y="0px"
	 width="341px" height="512px" viewBox="151 -236 341 512" enable-background="new 151 -236 341 512" xml:space="preserve">
<path fill="#FAFAFA" d="M427.8-53.7v-18.8H225.7v20.7l10.6-0.1l79.9,72.2v266.2l20.5-10.6l1.4-265.7l83-63.8L427.8-53.7z
	 M269.6-52.2l46.5-0.4v44L269.6-52.2z M338.3-10.4l0.2-42.5l50.3-0.5L338.3-10.4z"/>
<g id="table">
	<path d="M430.3-55c0-5,0-10,0-14.9c0-1-0.1-2.1-0.4-3.1c-0.3-1.2-1.3-1.5-2.4-1.1c-0.7,0.2-1.4,0.4-2.2,0.4c-2.8,0-5.5-0.1-8.3-0.1
		c-1.6,0-3.2,0.1-4.8,0.1c-2.3,0-4.7-0.2-7-0.2c-3.2-0.1-6.5-0.1-9.7-0.1c-2.2,0-2.4-0.3-2.4-2.4c0-2.7,0-5.3,0-8c0-0.4,0-0.8,0-1.2
		c0.2-3.3,0.5-9.7,0.7-33.2h-4.2c0.3,20.3,0.1,27.9,0.1,28.7c-0.1,4-0.1,8.1-0.1,12.1c0,1.1-0.2,2.3-0.4,3.8c-1.3,0-2.4,0-3.6,0
		c-0.7,0-1-0.5-1.1-1.1c-0.1-1-0.2-2-0.1-2.9c0.1-3.4,0.2-6.8,0.5-10.2c0.1-1.4,0.4-5.2,0.6-30.3h-4.4c0.1,24,0.1,27.2,0.1,27.5
		c-0.1,3.7-0.1,7.4-0.2,11.1c-0.1,1.9-0.1,3.9-0.7,5.9c-0.6,0-1.1,0-1.6,0c-3-0.1-6.1-0.2-9.1-0.2c-9,0-18,0.2-27,0.2
		c-3.1,0-6.2-0.2-9.3-0.2c-1,0-1.9,0.1-2.9,0c-3-0.1-6-0.3-9-0.3c-3.4-0.1-6.8,0-10.2,0c-3.5,0-6.9-0.1-10.4,0
		c-4.3,0.1-8.6,0.4-12.9,0.5c-5,0.1-10,0-14.9,0c-4.3,0-8.5,0-12.8,0c-0.4,0-0.8,0-1.2,0c-0.8,0-1.2-0.3-1.2-1.2
		c0-1.2-0.2-2.4-0.2-3.6c-0.1-7-0.1-14-0.1-21c0-2,0.2-14.1,0.3-26.3H253c0.2,10.3,0.2,20.3,0.3,20.6c0.1,0.5,0,0.9,0,1.4
		c0,5.7,0,11.3,0,17c0,3.3,0.1,6.7,0,10c0,0.8-0.3,1.7-0.5,2.7c-0.5,0.1-0.9,0.3-1.4,0.2c-0.8,0-1.2-0.6-0.6-1.3
		c0.5-0.7,0.3-1.3,0.3-2c-0.2-1.6-0.4-3.2-0.5-4.8c-0.1-2.5-0.1-5.1,0-7.6c0.1-4.7,0.2-9.5,0.4-14.2c0-0.9-0.1-11.4,0.5-22.2H247
		c0.1,10.3,0.1,19.5,0.1,20.3c-0.1,5.6-0.2,11.2-0.3,16.8c0,2.6,0,5.3,0,7.9c0,1.1,0.1,2.2-0.2,3.3c-0.3,1.2-0.6,2.3,0.2,3.6
		c-0.9,0.1-1.5,0.3-2.2,0.3c-4.6,0-9.3,0-13.9-0.1c-1.3,0-2.6,0.1-3.8-0.3c-1.7-0.6-4.3,0.8-3.7,2.9c0.3,1.1,0.2,2.3,0.2,3.4
		c0.1,1.9,0.2,3.8,0.2,5.7c0.1,2.5,0.4,5.1,0.1,7.6c-0.3,2.4,0.3,4.6,0.1,7.1c0.9,0.2,1.8,0.7,2.5,0.5c1.2-0.2,1.4-1.6,1.8-2.7
		c1.9,0.1,3.7,0.4,5.5,0.4c1.6-0.1,2.8,0.6,3.9,1.6c4,3.9,7.8,7.9,11.9,11.7c4.3,4.1,8.8,8.1,13.1,12.1c3,2.8,6.1,5.7,9.1,8.6
		c2.4,2.3,4.8,4.7,7.3,6.9c2.5,2.3,5.1,4.4,7.6,6.6c4.9,4.2,9.8,8.4,14.8,12.6c2,1.7,4.1,3.4,6,5.2c2.3,2.1,4.6,4.4,7,6.7
		c0,1.4,0,2.9,0,4.5c0,1.1,0,2.3,0,3.4c0,0.7-0.1,1.4-0.1,2.1c0.1,1.7,0.2,3.3,0.2,5c0,9.6,0,19.2,0,28.8c0,5.5,0.3,11,0.3,16.5
		c0,4.9-0.1,9.7-0.2,14.6c-0.2,8.5-0.5,17.1-0.7,25.6c-0.1,4.2-0.2,8.3-0.3,12.5c-0.1,4-0.3,8.1-0.3,12.1c-0.1,3.6-0.1,7.3-0.1,10.9
		c0,7.8,0.1,15.6,0.1,23.4c0,6,0,11.9,0,17.9c0,9.6,0,19.1,0,28.7c0,6.2-0.1,12.3,0,18.5c0,6,0.2,12.1,0.3,18.1
		c0,0.9-0.2,1.8-0.1,2.8c0.1,2.8,0.2,5.5,0.3,8.3c1.2,0,2.3,0,3.5,0c0-3,0-5.9,0-8.9c0-2.3,0-4.6,0-6.9c-0.1-5.3-0.2-10.5-0.2-15.8
		c0-6.9,0-13.9,0-20.8c0-4,0.3-8.1,0.3-12.1c0-5.4,0-10.9-0.1-16.3c-0.1-5-0.2-10.1-0.2-15.1c0-5.3,0-10.6,0-15.9c0-1.5,0-3,0-4.5
		c0.1-6.9,0.2-13.8,0.4-20.7c0.2-7.2,0.5-14.4,0.7-21.7c0.1-3.8,0.2-7.6,0.3-11.4c0.1-4.5,0.2-9,0.3-13.5c0.1-3.1,0.2-6.1,0.2-9.2
		c0-5.4-0.2-10.7-0.3-16.1c-0.1-3.9-0.1-7.7,0-11.6c0.2-5.9-0.1-11.8,0.1-17.6c0.1-4.9,0-9.8-0.1-14.7c0-3.4-0.2-6.7-0.2-10.1
		c0-3.2,0.2-6.5,0.3-9.7c0-2.4,0-4.9,0-7.3c0-3.2,0.2-6.4,0.2-9.7c0-1.1-0.2-2.2-0.2-3.3c0-1.4,0.2-2.8,0.2-4.1
		c0-2.8-0.1-5.7-0.2-8.5c0-0.5,0-0.9,0-1.4c0-3.4,0-6.8,0-10.2c0-2.3,0.2-4.6,0.3-6.9c0-0.5,0.2-1,0.3-1.7c0.7,0,1.3,0,2,0
		c3.6,0,7.3-0.1,10.9-0.1c1.4,0,2.7-0.2,4.1-0.3c0.1,0.5,0.2,0.9,0.2,1.2c0,6.6,0.1,13.2,0,19.8c-0.1,4.1-0.4,8.2-0.6,12.2
		c-0.1,2.4-0.3,4.7-0.3,7.1c0,1.1,0.2,2.3,0.2,3.4c-0.1,4.5-0.2,9-0.3,13.5c-0.1,2.6-0.2,5.3-0.2,7.9c-0.1,5.3-0.1,10.6-0.1,15.9
		c0,3.1,0,6.2,0,9.4c-0.1,6.2-0.2,12.5-0.2,18.7c0,4.8,0,9.6,0,14.4c0,3.3-0.2,6.7-0.3,10c0,1.4,0,2.9,0,4.3c0,5.5,0,11,0,16.5
		c0,9.4-0.1,18.8-0.1,28.3c0,7.6,0.1,15.3,0.1,22.9c0.1,10,0.2,20,0.2,30c0,4.9,0.1,9.7,0.1,14.6c0,4.7-0.1,9.5-0.1,14.2
		c0,4.3,0.2,8.6,0.2,12.8c0.1,5.6,0.1,11.2,0.2,16.8c0.1,6.5,0.2,13,0.4,19.6c0.1,2.6,0.4,5.2,0.6,7.8c0.1,1.6,0.3,3.2,0.4,4.8
		c1.2,0,2.3,0,3.5,0c-0.2-3.6-0.3-7.3-0.5-10.9c-0.1-2.6-0.4-5.3-0.5-7.9c-0.1-2.6,0-5.3,0-7.9c-0.1-4.5-0.3-8.9-0.3-13.4
		c-0.1-2.9,0-5.9,0-8.8c0-5-0.2-10-0.2-15.1c0.1-6.5-0.1-13.1-0.1-19.6c0-3,0.2-6.1,0.2-9.1c0-2.8-0.2-5.6-0.2-8.4
		c0-6.5,0-13,0-19.5c0-3.1,0-6.2,0-9.4c0-4.8-0.1-9.6-0.1-14.4c0-3.4,0.1-6.8,0.1-10.2c0-5,0-9.9,0-14.9c0-2.5,0.2-5,0.2-7.5
		c0-3.7,0-7.3,0-11c0.1-5.7,0.3-11.4,0.3-17.2c0.1-6.3,0.2-12.5,0-18.8c-0.1-3.3,0.1-6.7,0.2-10c0.1-2.1,0.2-4.2,0.2-6.2
		c0-1.6-0.2-3.2-0.2-4.8c0-2.5,0.2-5.1,0.2-7.6c0.1-2.7,0.2-5.3,0-8c-0.1-1.4,0.4-2.3,1.3-3.2c1.5-1.5,3-3.1,4.5-4.5
		c2.8-2.5,5.6-5.1,8.5-7.4c4-3.2,8-6.2,12.1-9.3c5.7-4.3,11.4-8.5,17.1-12.8c3.9-3,7.8-6,11.7-8.9c2.9-2.2,5.8-4.4,8.6-6.7
		c4.6-3.8,9.3-7.4,14.2-10.8c1.3-0.9,2.9-1.4,3-3.4c2.3,0.4,4.5,0.7,6.9,1c0.5-0.2,1.3-0.5,2.1-0.9c0.9-0.4,1.5-1.3,1.3-2.4
		C430.5-54.3,430.3-54.6,430.3-55z M314.3-5.9c-0.1,0.6-0.1,1.2-0.1,1.7c0,5.9,0,11.8,0,17.7c0,0.6,0,1.3,0,2.2
		c-0.7-0.4-1.1-0.5-1.4-0.7c-2.3-1.9-4.5-3.7-6.8-5.6c-3.2-2.7-6.4-5.4-9.6-8.2c-3.7-3.2-7.6-6.3-11.2-9.5c-4-3.6-7.8-7.4-11.7-11
		c-4-3.8-8.1-7.5-12.2-11.3c-3-2.8-6.1-5.7-9.1-8.6c-3.2-3.1-6.3-6.2-9.4-9.3c-0.3-0.3-0.4-0.6-0.7-1.1c0.7-0.2,1.2-0.5,1.8-0.5
		c2.4,0,4.9,0.1,7.3,0.1c3.2,0,6.5,0,9.7,0c2.3,0,4.5-0.2,6.8-0.1c0.6,0,1.2,0.3,1.7,0.7c3.1,2.7,6.2,5.5,9.4,8.2
		c2.3,2.1,4.8,4,7.1,6.1c5.5,5.1,11.3,9.7,16.5,15.1c3.4,3.5,7.1,6.6,10.7,9.9C314-8.8,314.6-7.5,314.3-5.9z M314.4-15
		c0,0.2-0.2,0.5-0.5,0.9c-0.8-0.7-1.6-1.3-2.3-2c-4-3.8-7.9-7.6-11.9-11.3c-3-2.7-6.1-5.3-9.1-8c-0.9-0.8-1.6-1.6-2.5-2.4
		c-2-1.8-4.1-3.5-6.2-5.3c-2.4-2.1-4.7-4.2-7.1-6.4c0.3-0.2,0.5-0.4,0.6-0.4c2.8,0,5.7,0,8.5,0c2.9,0,5.9,0.1,8.8,0.2
		c4.5,0.1,8.9,0.1,13.4,0.1c2,0,4,0,6,0c1.8,0,1.9,0,2.2,1.9c0.1,0.6,0.1,1.3,0.1,1.9c-0.1,6.1-0.2,12.3-0.2,18.4
		c0,2.4,0.2,4.8,0.2,7.3C314.4-18.5,314.4-16.8,314.4-15z M413.3-50.5c-3.3,2.6-6.7,5.2-10,7.8c-4.6,3.6-9.2,7.3-13.9,11
		c-4.1,3.2-8.2,6.2-12.3,9.3c-3.1,2.4-6.3,4.7-9.4,7.1c-5.3,4-10.7,8-16,12.1c-2.1,1.6-4.1,3.4-6.1,5.2s-4.1,3.6-6.1,5.4
		c-0.1-0.1-0.3-0.1-0.4-0.2c0-1.5,0-3.1,0-4.6c0.1-2.5,0.3-5,0.2-7.4c0-1.6,0.4-2.9,1.6-4c2.5-2.3,5-4.6,7.6-6.9
		c5.9-5.1,11.8-10.2,17.7-15.3c4.7-4,9.3-8.1,14.1-12c2.3-1.9,4.8-3.4,7.2-5.1c1-0.7,2-1.4,2.8-2.2c0.6-0.6,1.3-0.9,2.1-0.9
		c3.6,0,7.2-0.1,10.8-0.1c2.9-0.1,5.9-0.2,8.8-0.2c0.6,0,1.1,0,2,0.1C413.8-51.1,413.6-50.8,413.3-50.5z M340.3-41.3
		c0-2.4,0-4.8,0-7.3c0-0.6,0.2-1.1,0.3-1.7c14.3-1,28.6-1.7,42.8-0.9c0.1,0.1,0.1,0.3,0.2,0.4c-14.5,12.4-29.1,24.8-43.8,37.4
		c0-1.4,0-2.5,0-3.6c0.2-5.3,0.5-10.6,0.7-15.9C340.5-35.6,340.3-38.5,340.3-41.3z M426.3-66.9c0,3,0,5.9,0,8.9
		c0,1.6-0.1,1.7-1.8,1.8c-0.4,0-0.8,0.1-1.2,0.2c-1.3,0.1-2.6,0.3-3.9,0.3c-1.4,0.1-2.7,0-4.1,0c-2,0-3.9,0.1-5.9,0.1
		c-4.8,0.1-9.6,0.2-14.4,0.3c-5.6,0.1-11.1,0.1-16.7,0.1c-4.7,0-9.4-0.1-14.1-0.1c-4.6,0-9.1,0.2-13.6,0.7c-1.5,0.2-3.1,0.1-4.7,0.1
		c-4.5,0.2-9,0.6-13.5,0.7c-8.8,0.2-17.7,0.3-26.5,0.3c-6.5,0-12.9-0.3-19.4-0.4c-2.8,0-5.5,0.1-8.3,0.1c-3.1,0-6.1-0.1-9.2-0.1
		c-5.4,0-10.8,0.1-16.1,0.1c-6.1,0-12.2,0-18.2,0c-2,0-4-0.2-6-0.3c-0.8,0-1.1-0.5-1.1-1.2c-0.1-2.7-0.2-5.3-0.4-8
		c-0.1-1.3-0.2-2.5-0.2-3.8c0-0.9,0.2-1.8,0.3-3c0.8,0,1.3,0,1.8,0c1.8,0,3.7,0,5.5-0.1c1.5,0,3-0.1,4.5,0c2.9,0.2,5.9-0.2,8.8-0.3
		c2-0.1,4,0.2,6.1,0.2c2.9,0,5.9,0.2,8.8,0c5.2-0.5,10.4,0,15.6-0.2c5-0.2,10,0.1,15-0.1c3.3-0.1,6.6-0.3,9.9-0.4c2-0.1,4,0,6,0
		c2.4,0,4.8,0,7.2,0c3.6,0,7.2-0.2,10.7-0.1c4.3,0.1,8.6,0.3,13,0.5c1.2,0,2.4,0,3.6,0c2,0,4,0,6,0c4.4-0.1,8.8-0.3,13.2-0.4
		c0.9,0,1.8,0.1,2.7,0.1c5.9,0.1,11.9,0.3,17.8,0.4c3.4,0,6.8-0.1,10.2,0c1.9,0,3.8,0.2,5.7,0.3c2.5,0.1,5.1,0.1,7.6,0.1
		c5.5,0,11-0.2,16.5,0.1C426.8-69.9,426.3-70.5,426.3-66.9z"/>
</g>
<g id="bird-1">
	<path fill="#FAFAFA" d="M290.9-149.9c-2.1-4.8-4.8-8.2-8.6-10.4c-2.5-1.5-5.3-2.6-8.6-3.4c-2.5-0.6-4.8-0.8-7-0.7
		c-3.1,0.2-6.1,0.7-9.1,1.1c-0.7,0.1-1.4,0.2-2.1,0.3c-1.3,0.2-2.4,0.7-3.4,1.4c-0.8,0.6-1.6,0.9-2.6,1c-0.4,0-0.6,0-0.7-0.7
		c-0.2-1-0.4-2-0.7-3.1c-0.7-1.9-1.3-3.9-2-5.8c-0.7-1.9-1.3-3.8-2-5.8c-1.4-4.1-2.7-8.2-3.7-11.3c-1-3.3-2.1-6.4-3-9.7
		c-0.5-1.6-0.9-3.1-1.3-4.7c-0.3-1.3-0.7-2.5-1-3.8c-1-3.4-1.9-6.7-2.9-10.1l-1.5-5c-0.3-0.9-0.5-1.8-0.8-2.8l-0.7-2.4l-1-0.1
		c-2.9-0.3-6.9,0.2-9.5,1.4c-1.2,0.5-2,1.5-2.3,2.8l-0.1,0.3c-0.3,1.3-0.7,2.7-0.9,4.2c-0.3,1.6-0.5,3.2-0.7,4.7
		c-0.4,2.5-0.7,5-1.2,7.5c-1,4.9-1.2,9.9-1.5,14.8v0.9c-0.3,6.6-0.3,12.1,0.2,17.2c0.1,1,0.2,2,0.2,3.1c0.3,4.3,0.7,8.7,1.5,13.1
		c1,5.7,2.1,10.5,4,15.2c1.4,3.5,2.9,6.6,4.4,9.5c0.7,1.3,1.5,2.5,2.4,3.7c0.5,0.6,0.9,1.3,1.3,1.9c3.3,5,7.9,9.1,14.2,12.5
		c4.3,2.3,9.2,3.6,14.4,3.9c1.2,0.1,2.2,0.1,3.2,0.1c4.8,0,8.5-0.7,11.9-2.3c0.4-0.2,0.8-0.3,1.2-0.5c1.7-0.7,3.5-1.5,5-3
		c0.4-0.4,0.8-0.7,1.1-0.7c0.5,0,1,0.7,1.1,1c0.8,1.4,1.7,2.9,2.5,4.3c0.6,1,1.2,2,1.8,3.1c0.4,0.8,0.9,1.5,1.4,2.2
		c0.2,0.3,0.4,0.6,0.6,1l0.6,1l2.6-0.8l-0.1-1.2c0-0.2,0-0.5,0-0.7c0-0.6-0.1-1.1-0.1-1.7c-0.1-0.9-0.2-1.7-0.3-2.6
		c-0.2-1.3-0.4-2.7-0.5-4c-0.1-1.2-0.3-2.6-1.3-3.9c-0.3-0.4-0.6-1-0.5-1.2c0.6-1.3,1.4-2.5,2.1-3.5c0.3-0.4,0.6-0.9,1-1.3
		c0.5-0.6,1-1.2,1.4-1.9c1.6-2.6,2.6-5.6,3.3-9.7C293.3-140.9,292.7-145.6,290.9-149.9z"/>
	<path d="M284.6-135.5c-0.1,1.4-0.4,3.5-1.7,5.3c-1.5,2.2-3.6,3.2-6,3.6c-2,0.4-4,0.3-5.6-1.1c-1-0.8-1.9-1.9-2.5-3
		c-1.7-3.7-1.2-7.4,0.6-11c0.5-1.1,1.3-2.1,2.1-3c0.7-0.8,1.6-1.4,2.9-1.2c0.8,0.1,1.7-0.4,2.6-0.7c2-0.7,3.3,0.3,4.3,1.8
		c0.4,0.6,0.8,1.3,1.2,1.9C284.1-141.1,284.7-138.2,284.6-135.5z M279.9-132.9c2.3-3.3,0.5-8-1.8-9.8c-1.9-1.4-4.2-1.1-5.2,1.1
		c-1.4,3.1-2.4,6.2-0.7,9.6c1.1,2.1,3.2,2.9,5.1,1.5c-2.3-1.1-2.4-1.2-2.3-2.5c0.1-1.2,0.5-1.4,1.9-1.9
		C278.8-135.6,279.2-134.2,279.9-132.9z"/>
	<path d="M235.8-113c2.8,1.8,6,3.1,9.3,4.1c5.4,1.7,13.9,1.6,14.6,1.6c2.4,0,4.9-0.4,7.1-1.2c3.1-1.1,6-2.6,9-3.9
		c0.2-0.1,0.4-0.1,0.8-0.2c0.5,0.6,1,1.2,1.5,1.9c1.9,2.9,3.7,5.8,5.6,8.8c1,1.7,2,3.3,3.1,5c0.3,0.4,0.9,0.8,1.4,0.9
		c1.8,0.2,2.6-1.1,2.2-2.9c-0.5-2-1-4-1.3-6c-0.3-1.6-0.3-3.3-0.6-5c-0.5-3.2-0.7-6.3-0.4-9.5c0.1-1.3,0.6-2.7,1.4-3.7
		c0.6-0.9,1-1.8,1.5-2.7c0.2-0.4,0.3-0.8,0.5-1.1c0.8-1.5,1.5-3,1.9-4.8c0.9-4.5,1.8-9.1,0.9-13.7c-0.5-2.6-1-5.3-2.2-7.6
		c-1.8-3.6-4.5-6.6-8.1-8.8c-4.5-2.7-9.3-4.1-14.5-4.2c-3.5-0.1-7.1,0.6-10.7,0.9c-2.2,0.2-4.3,0.7-6.4,1.4c-0.4,0.1-0.9,0-1.4,0
		c-0.7-1.7-1.4-3.5-2-5.2c-0.5-1.4-1-2.8-1.5-4.2c-2-5.9-4-11.8-6.1-17.7c-1.1-3.3-2-6.7-2.8-10.2c-1.1-4.4-2.5-8.8-3.8-13.1
		c-1.2-4-2.4-8-2.8-12.1c-0.2-2.1-2.2-3.2-4.2-2.4c-1,0.4-2,0.8-3.1,1c-3,0.6-6,1.2-9,1.8c-1.2,0.3-1.3,0.5-1.3,1.8
		c0,0.5,0,1-0.1,1.6c-0.7,3.8-1.6,7.6-2.2,11.4c-0.7,4.3-1.3,8.7-1.8,13c-0.3,2.3-0.4,4.6-0.5,6.9c-0.2,4.3-0.6,8.5-0.5,12.8
		c0.2,5.8,0.7,11.5,1.3,17.3c0.5,4.2,1.4,8.4,2.1,12.6c0.7,3.6,2,7,3.5,10.3c0.9,2.1,1.8,4.3,2.9,6.3c2.6,4.6,5.3,9.1,9.2,12.8
		C230.7-117,233.1-114.8,235.8-113z M223.6-132c-1.6-3.1-3.1-6.2-4.4-9.4c-2-4.8-3-9.8-3.9-14.9c-0.9-5.3-1.2-10.6-1.7-16
		c-0.5-5.7-0.4-11.3-0.1-17c0.3-5.2,0.5-10.4,1.5-15.5c0.8-4.1,1.3-8.2,2-12.3c0.2-1.5,0.6-2.9,1-4.4c0.2-0.8,0.6-1.4,1.5-1.8
		c2.3-1,5.9-1.6,8.7-1.3c0.4,1.4,0.8,2.8,1.2,4.2c1.5,5,2.9,10.1,4.4,15.1c0.8,2.8,1.5,5.7,2.4,8.5c1,3.3,2,6.5,3,9.7
		c1.2,3.8,2.5,7.6,3.7,11.4c1.3,3.9,2.7,7.7,4,11.6c0.3,0.9,0.5,1.9,0.6,2.8c0.2,1.4,1,2,2.3,2c1.3,0,2.4-0.5,3.4-1.3
		c0.8-0.6,1.7-0.9,2.7-1.1c3.7-0.5,7.4-1.2,11.1-1.4c2.2-0.1,4.4,0.1,6.5,0.6c2.8,0.7,5.6,1.7,8.2,3.2c3.8,2.3,6.2,5.7,8,9.7
		c1.8,4.3,2.2,8.8,1.5,13.2c-0.5,3.1-1.3,6.3-3.1,9.1c-0.7,1.1-1.6,2.1-2.4,3.2c-0.8,1.2-1.6,2.4-2.2,3.7c-0.5,1,0.1,2,0.6,2.8
		c0.7,1,0.9,2.1,1,3.2c0.2,2.2,0.6,4.5,0.9,6.7c0.1,0.8,0.1,1.5,0.2,2.3c-0.1,0-0.2,0.1-0.4,0.1c-0.7-1-1.4-2.1-2-3.1
		c-1.4-2.4-2.8-4.9-4.2-7.3c-1.2-2-3-2.2-4.6-0.6c-1.6,1.6-3.7,2.3-5.7,3.2c-4.6,2.1-9.5,2.3-14.5,2c-4.8-0.2-9.5-1.4-13.7-3.7
		c-5.5-2.9-10.2-6.7-13.7-11.9C226-128.3,224.6-130.1,223.6-132z"/>
</g>
<g id="bird-2">
	<path fill="#FAFAFA" d="M431.1-209.3c-0.1-1.5-0.7-2.7-1.9-3.4l-0.5-0.3l-0.6,0.1c-0.5,0.1-1,0.2-1.5,0.3c-1.2,0.2-2.5,0.5-3.7,0.8
		c-1,0.3-2,0.6-3,0.9c-0.5,0.1-0.9,0.3-1.4,0.4s-1,0.3-1.5,0.4c-1.2,0.3-2.5,0.7-3.7,1.2c-0.8,0.3-2.3,0.9-2.9,2.7
		c-0.7,2.1-1.5,4.2-2.3,6.2l-0.3,0.8c-0.5,1.3-1,2.6-1.5,3.9c-0.9,2.2-1.7,4.4-2.5,6.6c-1.5,4.1-2.9,8.4-4.3,12.4l-0.9,2.8
		c-0.5,1.5-1,3.1-1.5,4.6c-0.3,0.8-0.5,1.7-0.8,2.5c-0.4,1.1-0.8,2.3-1.1,3.4c-0.9,2.6-1.7,5.2-2.5,7.8c-0.6,2.1-1.3,4.8-1.5,7.6
		c0,0.7-0.3,1-0.9,1c-0.2,0-0.5-0.1-0.7-0.2c-0.1-0.1-0.2-0.1-0.4-0.2c-0.4-0.2-0.8-0.5-1.4-0.6c-5.4-1.1-9.5-1.4-13.4-0.9
		c-4.3,0.5-9.8,1.4-15.3,3.4c-3.5,1.3-7.5,3-11,5.8c-3.8,3.1-6.6,6.9-8.8,11.6c-1.8,3.9-2.6,8.1-2.7,12.9c0,4.2,1.9,7.7,3.7,10.2
		c1.5,2.3,3.5,3.7,5.9,4.2c0.6,0.1,1.2,0.4,1.8,0.7l0.4,0.2c0.9,0.4,1,0.5,0.6,1.6c-0.1,0.3-0.3,0.6-0.4,1c-0.3,0.6-0.6,1.3-0.8,2
		c-0.4,1.1-0.7,2.2-1,3.2c-0.1,0.5-0.3,0.9-0.4,1.4l-0.4,1.2l2.2,1.1l0.7-0.5c0.1,0,0.1-0.1,0.2-0.1c0.2-0.1,0.6-0.3,0.8-0.6
		l0.4-0.5c0.7-0.8,1.5-1.6,2.2-2.5c0.9-1.2,1.9-2.5,3-4.1c0.3-0.4,0.4-0.4,0.5-0.4s0.3,0,0.5,0.1c0.5,0.2,1,0.4,1.5,0.6
		c2.3,0.9,4.6,1.8,7.4,1.9h1.1c2.1,0.1,4.4,0.1,6.3,0c4.3-0.3,8.2-0.6,12.1-1.7l1.3-0.4c2.8-0.7,5.7-1.5,8.4-2.8
		c5.4-2.6,10-6.6,13.7-11.8c3.2-4.5,6-9.4,8.6-15.2c1-2.1,1.9-4.4,2.8-6.8l0.1-0.4c1.4-3.8,2.9-7.7,4.2-11.6
		c1.5-4.4,2.2-8.8,2.7-12.6c0.7-4.8,1.3-9.2,1.8-13.6c0.3-2.7,0.5-5.4,0.7-8l0.2-2.6c0.3-4,0.6-8.1,0.9-12.1
		c0.3-3.8,0.5-7.7,0.7-11.7C431.1-206.4,431.1-207.7,431.1-209.3z"/>
	<path d="M358.8-117.8c0.6,4.8-4.9,9.8-9.3,9.7c-2.2,0-4-0.9-5.4-2.6c-1.9-2.2-2.2-4.8-1.4-7.4c0.6-2,1.4-3.9,2.2-5.8
		c0.6-1.4,1.5-2.4,3.2-2.6c0.4-0.1,0.8-0.4,1.2-0.7c1.5-1.3,3.9-1.1,5.5-0.2c1.6,0.9,2.7,2.2,3,4
		C358.2-121.5,358.5-119.6,358.8-117.8z M355.1-118.9c-0.1-0.9-0.1-1.9-0.5-2.8c-0.4-1.1-1.2-2.1-1.8-3.1c-0.4-0.5-1-0.5-1.6-0.2
		c-0.7,0.4-1.5,0.8-2.2,1.3c-0.3,0.2-0.6,0.4-0.7,0.7c-0.8,1.9-1.4,3.8-2.2,5.7c-0.4,0.9-0.2,1.8,0.1,2.7c0.5,1.6,2.8,3.2,4.1,2.9
		c1.4-0.3,2.6-1,3.5-2.3C354.8-115.4,354.9-117.1,355.1-118.9z"/>
	<path d="M350.3-114.1c-1.2,0-2.2-0.9-2.2-1.9c0-0.9,1-1.8,1.9-1.8c1,0,2,1.1,1.9,2.1C352-114.9,351.1-114.1,350.3-114.1z"/>
	<path d="M433.7-213.6c-0.1-2-1-3.1-3.2-2.9c-0.8,0.1-1.5,0.5-2.3,0.7c-3.1,1-6.2,2-9.3,2.9c-1.9,0.6-3.7,1.2-5.6,1.7
		c-0.8,0.2-1.7,0.1-2.6,0.3c-2,0.3-2.2,0.3-2.4,2.2c-0.2,1.1-0.4,2.2-0.8,3.2c-2.5,7.2-5.2,14.3-7.7,21.5c-1.8,5.3-3.5,10.6-5.2,16
		c-1.5,4.6-2.9,9.1-4.3,13.7c-0.5,1.6-1,3.3-1.5,4.9c-0.6,0-1,0-1.4,0c-2.6-0.2-5.3-0.6-7.9-0.7c-5.3-0.2-10.5,0.8-15.6,2.1
		c-2.2,0.6-4.3,1.1-6.5,1.9c-1.5,0.5-3,1.3-4.4,1.9c-0.9,0.4-2,0.7-2.8,1.3c-3.1,2.1-6.1,4.2-8.4,7.4c-2.4,3.2-4.6,6.5-5.7,10.4
		c-0.4,1.4-0.8,2.8-1.1,4.2c-0.6,2.5-0.8,5.1-0.6,7.7c0.2,2.4,0.8,4.6,1.9,6.8c1.7,3.4,4.1,6.3,7.6,7.9c1.4,0.7,1.9,1.5,1.7,3
		c0,0.5-0.1,1-0.3,1.5c-0.9,3.2-1.8,6.4-2.7,9.6c-0.5,1.6-0.3,2.5,0.9,3c1.1,0.5,2.3,0,3-1.2c0.3-0.5,0.7-1.1,1.1-1.5
		c2.5-2.8,5.1-5.5,7.5-8.4c0.6-0.7,1.4-0.9,2.1-0.9c1.6,0.1,3.2,0.4,4.7,0.7c2.8,0.6,5.7,0.6,8.6,0.7c10.7,0.3,22.5-4,26.4-6
		c3.6-1.7,6.5-4.2,9.2-7c2.6-2.8,5-5.9,6.8-9.3c1.6-3.1,3.6-5.9,5.1-9.1c2.6-5.5,5-11,6.8-16.9c0.8-2.4,1.7-4.8,2.2-7.3
		c0.8-3.7,1.5-7.5,2.1-11.2c0.6-4.1,1-8.2,1.4-12.4c0.1-1,0.1-2,0.2-2.9c0.4-3.8,0.8-7.7,1.1-11.5c0.2-2.8,0.3-5.5,0.4-8.3
		c0-1.1,0-2.2,0.1-3.3c0.2-4.2,1-8.4,0.6-12.6c0-0.6,0.2-1.1,0.3-1.7C433.4-212.2,433.7-212.9,433.7-213.6z M429.5-205.2
		c-0.2,3.9-0.4,7.8-0.7,11.7c-0.3,4-0.6,8.1-0.9,12.1c-0.3,3.5-0.5,7-0.9,10.5c-0.5,4.5-1.1,9-1.7,13.6c-0.6,4.2-1.3,8.3-2.6,12.3
		c-1.3,4-2.8,7.9-4.3,11.9c-0.9,2.3-1.8,4.5-2.8,6.7c-2.4,5.2-5.1,10.2-8.4,14.9c-3.4,4.8-7.7,8.7-13.1,11.3c-3,1.5-6.3,2.2-9.5,3.1
		c-3.9,1-7.8,1.3-11.8,1.6c-2.4,0.2-4.8,0-7.2-0.1c-3-0.1-5.7-1.3-8.4-2.3c-1.2-0.4-2.1-0.2-2.8,0.8c-0.9,1.4-1.9,2.7-2.9,4
		c-0.8,1-1.7,1.9-2.6,2.8c-0.2,0.2-0.5,0.4-0.8,0.6c-0.1,0-0.2-0.1-0.3-0.1c0.5-1.5,0.9-3,1.4-4.5c0.3-1,0.8-1.9,1.2-2.9
		c0.7-1.8,0.4-2.7-1.3-3.5c-0.8-0.4-1.7-0.8-2.6-1c-2.2-0.4-3.8-1.9-4.9-3.6c-1.9-2.8-3.4-5.9-3.4-9.4c0-4.2,0.7-8.3,2.5-12.3
		c2-4.4,4.7-8.1,8.4-11.1c3.1-2.6,6.8-4.2,10.5-5.5c4.9-1.8,9.9-2.7,15-3.3c4.3-0.6,8.6,0,12.9,0.9c0.5,0.1,0.9,0.5,1.4,0.7
		c1.6,0.8,3.6,0.1,3.7-2.1c0.1-2.4,0.7-4.9,1.4-7.3c1.1-3.8,2.4-7.5,3.6-11.2c0.8-2.4,1.5-4.7,2.3-7.1c1.7-5.1,3.4-10.2,5.2-15.2
		c1.3-3.5,2.7-7,4.1-10.5c0.9-2.4,1.8-4.7,2.6-7.1c0.3-1.1,1.2-1.4,2-1.7c1.7-0.6,3.4-1,5.1-1.5c1.4-0.4,2.9-0.9,4.3-1.3
		c1.7-0.4,3.5-0.7,5.2-1.1c0.9,0.5,1.1,1.3,1.2,2.1C429.5-207.9,429.5-206.6,429.5-205.2z"/>
</g>
</svg>
