<?xml version="1.0" encoding="utf-8"?>
<!-- Generator: Adobe Illustrator 17.1.0, SVG Export Plug-In . SVG Version: 6.00 Build 0)  -->
<!DOCTYPE svg PUBLIC "-//W3C//DTD SVG 1.1//EN" "http://www.w3.org/Graphics/SVG/1.1/DTD/svg11.dtd">
<svg version="1.1" id="Layer_1" xmlns="http://www.w3.org/2000/svg" xmlns:xlink="http://www.w3.org/1999/xlink" x="0px" y="0px"
	 viewBox="0 0 32 32" enable-background="new 0 0 32 32" xml:space="preserve">
<g id="pdf">
	<linearGradient id="SVGID_1_" gradientUnits="userSpaceOnUse" x1="16" y1="0.25" x2="16" y2="31.8765">
		<stop  offset="0" style="stop-color:#D92C20"/>
		<stop  offset="1" style="stop-color:#8B0F07"/>
	</linearGradient>
	<rect fill="url(#SVGID_1_)" width="32" height="32"/>
	<g>
		<path id="path4463" fill="#FFFFFF" d="M11.424,18.175c0.792-1.587,1.691-3.376,2.411-5.171l0,0l0.285-0.708
			c-0.94-3.662-1.504-6.6-1.001-8.5l0,0C13.254,3.3,13.816,3,14.415,3l0,0l0.365,0.006h0.067c0.821-0.013,1.208,1.056,1.252,1.47
			l0,0c0.073,0.691-0.24,1.862-0.24,1.862l0,0c0-0.473,0.018-1.237-0.274-1.896l0,0c-0.339-0.763-0.663-1.219-0.955-1.291l0,0
			c-0.146,0.101-0.289,0.308-0.338,0.708l0,0c-0.102,0.56-0.132,1.267-0.132,1.631l0,0c0,1.288,0.248,2.989,0.735,4.741l0,0
			c0.092-0.272,0.173-0.532,0.237-0.777l0,0c0.099-0.385,0.735-2.937,0.735-2.937l0,0c0,0-0.16,3.396-0.383,4.425l0,0
			c-0.048,0.217-0.101,0.432-0.155,0.652l0,0c0.803,2.296,2.097,4.346,3.642,5.821l0,0c0.609,0.583,1.378,1.051,2.105,1.479l0,0
			c1.589-0.233,3.053-0.343,4.274-0.328l0,0c1.619,0.022,2.809,0.267,3.29,0.752l0,0c0.236,0.236,0.332,0.521,0.361,0.84l0,0
			c0.007,0.125-0.052,0.416-0.069,0.489l0,0c0.018-0.088,0.018-0.524-1.283-0.949l0,0c-1.024-0.335-2.94-0.324-5.24-0.074l0,0
			c2.66,1.331,5.251,1.992,6.072,1.596l0,0c0.201-0.099,0.444-0.441,0.444-0.441l0,0c0,0-0.145,0.673-0.249,0.841l0,0
			c-0.133,0.183-0.393,0.38-0.64,0.448l0,0c-1.297,0.354-4.672-0.465-7.616-2.185l0,0c-3.289,0.495-6.899,1.41-9.794,2.382l0,0
			c-2.844,5.1-4.983,7.442-6.723,6.551l0,0l-0.639-0.327c-0.26-0.152-0.299-0.522-0.239-0.824l0,0
			c0.203-1.016,1.447-2.544,3.946-4.072l0,0c0.269-0.167,1.467-0.815,1.467-0.815l0,0c0,0-0.887,0.879-1.094,1.051l0,0
			c-1.996,1.673-3.467,3.777-3.431,4.593l0,0l0.008,0.071C5.614,28.244,8.156,24.715,11.424,18.175 M12.459,18.718
			c-0.546,1.051-1.079,2.027-1.571,2.921l0,0c2.724-1.168,5.656-1.915,8.447-2.446l0,0c-0.375-0.265-0.739-0.546-1.082-0.842l0,0
			c-1.537-1.331-2.709-2.992-3.558-4.74l0,0C14.155,15.096,13.515,16.674,12.459,18.718"/>
	</g>
</g>
</svg>
