<?xml version="1.0" encoding="utf-8"?>
<!-- Generator: Adobe Illustrator 18.1.0, SVG Export Plug-In . SVG Version: 6.00 Build 0)  -->
<!DOCTYPE svg PUBLIC "-//W3C//DTD SVG 1.1//EN" "http://www.w3.org/Graphics/SVG/1.1/DTD/svg11.dtd">
<svg version="1.1" id="Layer_1" xmlns="http://www.w3.org/2000/svg" xmlns:xlink="http://www.w3.org/1999/xlink" x="0px" y="0px"
	 width="80px" height="80px" viewBox="0 0 80 80" enable-background="new 0 0 80 80" xml:space="preserve">
<g>
	<circle fill="#FFFFFF" cx="40" cy="40" r="40"/>
	<g>
		<path fill="none" d="M48.6,39c-0.1-0.1-0.3-0.3-0.5-0.4c0,0-0.1,0-0.1-0.1c-2.4-1.1-9-1-12.4-0.5c-0.9,0.1-1.4,0.6-1.5,1.3
			c-0.1,0.5,0.1,1.3,1,1.8c0.2,0,0.5,0,0.8,0c6.2,0.1,10.2,0.7,12.2,2C48.1,42.9,49.9,40.5,48.6,39z"/>
		<path fill="none" d="M45.2,50.1c0-0.1-0.1-0.2-0.1-0.2c0,0,0-0.1-0.1-0.1c-0.9-1-3.5-1.8-6.5-1.9c-1.8-0.1-3.7-0.1-5,0.1
			c-1.1,0.2-1.5,0.4-1.5,0.6c-0.1,0.4,0,0.5,0.1,0.6c0.4,0.5,1.9,1.3,8.2,1.6c0.5,0,0.9,0.5,0.9,1c0,0.5-0.5,0.9-1,0.9
			c-7.1-0.4-8.9-1.4-9.6-2.3c-0.7-0.9-0.5-1.8-0.4-2.1c0.1-0.7,0.5-1.1,1-1.5c-1-1.5-0.8-2.6-0.4-3.3c0.4-0.7,1.1-1.3,2-1.7
			c-0.5-0.7-0.8-1.6-0.7-2.5c0.2-1.5,1.4-2.6,3.1-2.9c0.6-0.1,1.3-0.2,2.2-0.2c-1.2-0.7-2.3-0.9-2.3-0.9c-0.5-0.1-0.8-0.6-0.7-1.1
			c0.1-0.5,0.6-0.8,1.1-0.7c0.1,0,2.4,0.6,4.4,2.2c0.1,0.1,0.2,0.2,0.3,0.4c0.8,0,1.6,0,2.4,0c2.4,0.1,4.3,0.4,5.6,0.9
			c0.8-0.5,2.8-1.9,2.3-3.3c-0.2-0.4-0.5-0.7-3-0.5c-1.7,0.2-3.4,0.3-4.5-0.8c-1.8-1.8-4.2-2.4-6-2.6c-0.1,0-0.2,0-0.2,0
			c-1.1-0.1-1.9-0.1-2.2-0.1c-3.6,0.3-6.9,1.4-8.2,2.4c-2.5,1.9-4.5,3.4-4.3,8.5c0.1,3.8,0.6,9,2.3,10.1c1.7,1.1,7.2,3.1,13,3.1
			c5.1,0,7.6-0.3,7.9-2.9c0-0.1,0-0.3,0-0.4C45.3,50.2,45.2,50.2,45.2,50.1z"/>
		<path fill="none" d="M20.4,37.2c-1.2,0.1-3,0.3-4.4,0.4c-0.4,1.9-1.3,7.4,0.5,11.8c1.1,0,3.3,0,4.9,0c-0.7-1.9-1.1-4.8-1.3-9
			C20.2,39.2,20.2,38.2,20.4,37.2z"/>
		<path fill="none" d="M35.7,43c-0.3,0-0.5,0-0.8,0c0,0,0,0-0.1,0c-1.1,0.1-2.1,0.6-2.4,1.2c-0.3,0.6,0.2,1.3,0.6,1.9c0,0,0,0,0,0.1
			c1.4-0.2,3.3-0.2,5.5-0.1c1.4,0,5.8,0.3,7.8,2.4c0.8-0.5,1.9-1.6,1.4-2.9C47.5,44.8,45.9,43.2,35.7,43z"/>
		<path fill="none" d="M52.8,29.5c-0.6,0-1.1,0-1.7,0c-3.2-0.1-6.2-0.1-8.6,0c0.6,0.4,1.2,0.8,1.8,1.3c0.5,0.5,1.9,0.4,3.1,0.3
			c1.9-0.2,4.2-0.4,5,1.7c0.1,0.4,0.2,0.8,0.2,1.1c2.9,0,10.4,0,11.9-1.6c0.1-0.2,0.1-0.2,0.1-0.3C64.5,29.8,58.5,29.7,52.8,29.5z"
			/>
		<path fill="#555555" d="M52.8,27.7c-0.6,0-1.1,0-1.7,0c-4.9-0.1-9.4,0-12,0c-0.9,0-1.8,0-2,0c0,0,0,0,0,0
			c-1.3-0.1-2.2-0.1-2.6-0.1c-3.6,0.3-7.4,1.4-9.2,2.7c-1.7,1.3-3.4,2.6-4.3,4.9c-1.1,0.1-4.3,0.4-5.7,0.5l-0.7,0l-0.2,0.6
			c-0.1,0.3-2.2,8.2,0.7,14.3l0.3,0.5l0.6-0.2c0,0,4.9-0.1,6.5-0.1c0,0,0,0,0,0c0.3,1,0.5,0.7,0.8,0.9c1.2,0.7,3.2,1.6,5.5,2.3
			c2,0.5,5.1,1.2,8.5,1.2c2.2,0,4.4,0,6.2-0.5c2.1-0.6,3.3-1.9,3.6-4c0-0.3,0-0.6,0-0.8c1.5-0.9,3.2-2.8,2.3-5.2
			c-0.1-0.2-0.1-0.3-0.2-0.5c0,0,0,0,0.1-0.1c1.1-1.3,2.6-4.3,0.7-6.5c0.7-0.5,1.5-1.2,2-2.1c0.1,0,0.2,0,0.3,0c0.3,0,0.6,0,0.9,0
			c5.6,0,10.9-0.3,12.6-2.1c0.5-0.5,0.7-1,0.7-1.7C66.2,27.9,60,27.8,52.8,27.7z M16.6,49.4c-1.8-4.4-0.9-9.9-0.5-11.8
			c1.3-0.1,3.2-0.3,4.4-0.4c-0.2,0.9-0.2,2-0.2,3.2c0.2,4.2,0.6,7.1,1.3,9C19.9,49.4,17.7,49.4,16.6,49.4z M45.3,50.7
			c-0.4,2.6-2.8,2.9-7.9,2.9c-5.8,0-11.4-2-13-3.1c-1.8-1.1-2.2-6.3-2.3-10.1c-0.2-5.1,1.8-6.6,4.3-8.5c1.3-1,4.6-2.1,8.2-2.4
			c0.3,0,1.1-0.1,2.2,0.1c0.1,0,0.1,0,0.2,0c1.8,0.2,4.2,0.9,6,2.6c1.1,1.1,2.9,0.9,4.5,0.8c2.6-0.2,2.9,0,3,0.5
			c0.5,1.4-1.5,2.8-2.3,3.3c-1.3-0.5-3.1-0.8-5.6-0.9c-0.8,0-1.6,0-2.4,0c-0.1-0.1-0.1-0.3-0.3-0.4c-2-1.6-4.3-2.2-4.4-2.2
			c-0.5-0.1-1,0.2-1.1,0.7c-0.1,0.5,0.2,1,0.7,1.1c0,0,1.1,0.3,2.3,0.9c-0.9,0.1-1.6,0.2-2.2,0.2c-1.7,0.3-2.9,1.4-3.1,2.9
			c-0.1,0.9,0.1,1.8,0.7,2.5c-0.9,0.4-1.6,1-2,1.7c-0.4,0.7-0.5,1.9,0.4,3.3c-0.6,0.3-0.9,0.8-1,1.5c-0.1,0.3-0.2,1.3,0.4,2.1
			c0.7,0.9,2.5,2,9.6,2.3c0.5,0,1-0.4,1-0.9c0-0.5-0.4-1-0.9-1c-6.3-0.3-7.9-1.2-8.2-1.6C32,49.1,31.9,49,32,48.6
			c0-0.2,0.5-0.4,1.5-0.6c1.3-0.2,3.2-0.2,5-0.1c3,0.1,5.6,0.9,6.5,1.9c0,0,0,0.1,0.1,0.1c0,0.1,0,0.2,0.1,0.2
			c0,0.1,0.1,0.2,0.1,0.2C45.3,50.4,45.3,50.6,45.3,50.7z M35.7,41.2c-0.3,0-0.5,0-0.8,0c-0.8-0.5-1.1-1.2-1-1.8
			c0.1-0.7,0.7-1.2,1.5-1.3c3.4-0.5,9.9-0.6,12.4,0.5c0,0,0.1,0,0.1,0.1c0.2,0.1,0.4,0.2,0.5,0.4c1.4,1.5-0.5,3.9-0.6,4.1
			C45.9,41.9,41.9,41.3,35.7,41.2z M46.3,48.4c-1.9-2.1-6.4-2.4-7.8-2.4c-2.2-0.1-4.1-0.1-5.5,0.1c0,0,0,0,0-0.1
			c-0.4-0.5-0.9-1.3-0.6-1.9c0.3-0.6,1.2-1,2.4-1.2c0,0,0,0,0.1,0c0.3,0,0.5,0,0.8,0c10.2,0.2,11.8,1.8,12.1,2.5
			C48.2,46.9,47.1,47.9,46.3,48.4z M64.4,32.4c-1.5,1.6-9,1.6-11.9,1.6c0-0.4-0.1-0.8-0.2-1.1c-0.8-2.1-3.1-1.9-5-1.7
			c-1.2,0.1-2.6,0.2-3.1-0.3c-0.6-0.5-1.2-1-1.8-1.3c2.4,0,5.4-0.1,8.6,0c0.6,0,1.1,0,1.7,0c5.7,0.1,11.7,0.2,11.8,2.5
			C64.5,32.1,64.5,32.2,64.4,32.4z"/>
	</g>
</g>
<g>
</g>
<g>
</g>
<g>
</g>
<g>
</g>
<g>
</g>
<g>
</g>
<g>
</g>
<g>
</g>
<g>
</g>
<g>
</g>
<g>
</g>
<g>
</g>
<g>
</g>
<g>
</g>
<g>
</g>
</svg>
