<?xml version="1.0" encoding="utf-8"?>
<!-- Generator: Adobe Illustrator 17.1.0, SVG Export Plug-In . SVG Version: 6.00 Build 0)  -->
<!DOCTYPE svg PUBLIC "-//W3C//DTD SVG 1.1//EN" "http://www.w3.org/Graphics/SVG/1.1/DTD/svg11.dtd">
<svg version="1.1" id="Layer_1" xmlns="http://www.w3.org/2000/svg" xmlns:xlink="http://www.w3.org/1999/xlink" x="0px" y="0px"
	 viewBox="0 0 32 32" enable-background="new 0 0 32 32" xml:space="preserve">
<g id="audio">
	<rect fill="#1691BE" width="32" height="32"/>
	<path fill="#FFFFFF" d="M22.353,23.131c-0.279,0-0.558-0.105-0.771-0.314c-0.426-0.418-0.426-1.097,0-1.515
		c2.977-2.924,2.977-7.681,0-10.605c-0.426-0.418-0.426-1.097,0-1.515s1.117-0.418,1.543,0C24.979,11.004,26,13.425,26,16
		s-1.021,4.996-2.876,6.817C22.911,23.026,22.632,23.131,22.353,23.131L22.353,23.131z M18.478,21.111
		c-0.279,0-0.558-0.105-0.771-0.314c-0.426-0.418-0.426-1.097,0-1.515c1.843-1.81,1.843-4.755,0-6.565
		c-0.426-0.418-0.426-1.097,0-1.515s1.117-0.418,1.543,0c2.694,2.645,2.694,6.949,0,9.595
		C19.036,21.007,18.757,21.111,18.478,21.111z M15.121,6.329c0.583-0.573,1.061-0.379,1.061,0.431v18.479
		c0,0.81-0.477,1.004-1.061,0.431l-5.485-5.386H6v-8.57h3.636L15.121,6.329z"/>
</g>
</svg>
