<?xml version="1.0" encoding="utf-8"?>
<!-- Generator: Adobe Illustrator 17.1.0, SVG Export Plug-In . SVG Version: 6.00 Build 0)  -->
<!DOCTYPE svg PUBLIC "-//W3C//DTD SVG 1.1//EN" "http://www.w3.org/Graphics/SVG/1.1/DTD/svg11.dtd">
<svg version="1.1" id="Layer_1" xmlns="http://www.w3.org/2000/svg" xmlns:xlink="http://www.w3.org/1999/xlink" x="0px" y="0px"
	 viewBox="0 0 32 32" enable-background="new 0 0 32 32" xml:space="preserve">
<rect fill="#2292BC" width="32" height="32"/>
<path fill="#FFFFFF" d="M10.529,8.277c0,1.181-0.872,2.138-2.307,2.138C6.872,10.415,6,9.458,6,8.277
	c0-1.209,0.901-2.138,2.279-2.138S10.501,7.068,10.529,8.277z M6.113,25.859V12.104h4.276V25.86
	C10.389,25.859,6.113,25.859,6.113,25.859z M12.948,16.492c0-1.716-0.057-3.15-0.113-4.388h3.713l0.198,1.913h0.084
	c0.562-0.901,1.941-2.222,4.248-2.222c2.812,0,4.922,1.884,4.922,5.936v8.13h-4.276v-7.623c0-1.772-0.62-2.982-2.167-2.982
	c-1.181,0-1.883,0.816-2.193,1.603c-0.113,0.281-0.141,0.674-0.141,1.069v7.933h-4.276L12.948,16.492L12.948,16.492z"/>
</svg>
