<?xml version="1.0" encoding="utf-8"?>
<!-- Generator: Adobe Illustrator 17.1.0, SVG Export Plug-In . SVG Version: 6.00 Build 0)  -->
<!DOCTYPE svg PUBLIC "-//W3C//DTD SVG 1.1//EN" "http://www.w3.org/Graphics/SVG/1.1/DTD/svg11.dtd">
<svg version="1.1" id="Layer_1" xmlns="http://www.w3.org/2000/svg" xmlns:xlink="http://www.w3.org/1999/xlink" x="0px" y="0px"
	 viewBox="0 0 32 32" enable-background="new 0 0 32 32" xml:space="preserve">
<rect fill="#2292BC" width="32" height="32"/>
<path fill="#FFFFFF" d="M26,9.797c-0.737,0.327-1.527,0.547-2.358,0.647c0.848-0.508,1.499-1.312,1.804-2.27
	c-0.792,0.47-1.671,0.812-2.604,0.996c-0.749-0.798-1.815-1.296-2.996-1.296c-2.266,0-4.103,1.837-4.103,4.102
	c0,0.322,0.036,0.635,0.107,0.935c-3.41-0.171-6.434-1.804-8.457-4.287c-0.354,0.605-0.558,1.311-0.558,2.063
	c0,1.424,0.725,2.679,1.826,3.415c-0.673-0.022-1.305-0.205-1.859-0.513c0,0.017,0,0.034,0,0.051c0,1.988,1.415,3.646,3.291,4.024
	c-0.343,0.093-0.707,0.143-1.082,0.143c-0.264,0-0.521-0.025-0.772-0.073c0.522,1.63,2.038,2.816,3.833,2.849
	c-1.404,1.101-3.173,1.757-5.096,1.757c-0.332,0-0.658-0.02-0.978-0.058c1.815,1.164,3.972,1.843,6.29,1.843
	c7.547,0,11.674-6.252,11.674-11.675c0-0.177-0.003-0.354-0.012-0.53C24.754,11.342,25.449,10.62,26,9.797L26,9.797z"/>
</svg>
