<?xml version="1.0" encoding="utf-8"?>
<!-- Generator: Adobe Illustrator 17.1.0, SVG Export Plug-In . SVG Version: 6.00 Build 0)  -->
<!DOCTYPE svg PUBLIC "-//W3C//DTD SVG 1.1//EN" "http://www.w3.org/Graphics/SVG/1.1/DTD/svg11.dtd">
<svg version="1.1" id="Layer_1" xmlns="http://www.w3.org/2000/svg" xmlns:xlink="http://www.w3.org/1999/xlink" x="0px" y="0px"
	 viewBox="0 0 32 32" enable-background="new 0 0 32 32" xml:space="preserve">
<rect fill="#DB2A13" width="32" height="32"/>
<path fill="#FFFFFF" d="M14.616,20.228C14.091,22.981,13.45,25.621,11.55,27c-0.586-4.162,0.861-7.287,1.533-10.605
	c-1.146-1.93,0.138-5.812,2.556-4.855c2.975,1.177-2.576,7.173,1.15,7.922c3.891,0.782,5.479-6.75,3.067-9.199
	c-3.486-3.538-10.148-0.082-9.328,4.981c0.199,1.238,1.478,1.614,0.511,3.322c-2.231-0.494-2.897-2.254-2.811-4.6
	c0.138-3.839,3.45-6.527,6.772-6.899c4.202-0.471,8.145,1.542,8.688,5.494c0.613,4.46-1.895,9.291-6.389,8.943
	C16.082,21.411,15.571,20.808,14.616,20.228L14.616,20.228z"/>
</svg>
