<?xml version="1.0" encoding="utf-8"?>
<!-- Generator: Adobe Illustrator 17.1.0, SVG Export Plug-In . SVG Version: 6.00 Build 0)  -->
<!DOCTYPE svg PUBLIC "-//W3C//DTD SVG 1.1//EN" "http://www.w3.org/Graphics/SVG/1.1/DTD/svg11.dtd">
<svg version="1.1" id="Layer_1" xmlns="http://www.w3.org/2000/svg" xmlns:xlink="http://www.w3.org/1999/xlink" x="0px" y="0px"
	 viewBox="0 0 32 32" enable-background="new 0 0 32 32" xml:space="preserve">
<rect fill="#808080" width="32" height="32"/>
<path fill="#FFFFFF" d="M6.66,10.762c0.542,0.292,8.054,4.327,8.334,4.477c0.279,0.15,0.641,0.222,1.006,0.222
	c0.366,0,0.728-0.072,1.007-0.223c0.28-0.15,7.791-4.184,8.333-4.477c0.543-0.291,1.057-1.206,0.06-1.206H6.601
	C5.604,9.556,6.117,10.47,6.66,10.762L6.66,10.762z M25.57,12.984c-0.617,0.322-8.186,4.279-8.563,4.477S16.366,17.684,16,17.684
	c-0.364,0-0.628-0.026-1.006-0.223s-7.948-4.156-8.563-4.477C5.997,12.758,6,13.023,6,13.228c0,0.204,0,8.15,0,8.15
	c0,0.467,0.621,1.067,1.102,1.067h17.797c0.482,0,1.101-0.6,1.101-1.066c0,0,0-7.946,0-8.15C26,13.023,26.004,12.758,25.57,12.984
	L25.57,12.984z"/>
</svg>
