<?xml version="1.0" encoding="utf-8"?>
<!-- Generator: Adobe Illustrator 18.1.0, SVG Export Plug-In . SVG Version: 6.00 Build 0)  -->
<!DOCTYPE svg PUBLIC "-//W3C//DTD SVG 1.1//EN" "http://www.w3.org/Graphics/SVG/1.1/DTD/svg11.dtd">
<svg version="1.1" id="Layer_1" xmlns="http://www.w3.org/2000/svg" xmlns:xlink="http://www.w3.org/1999/xlink" x="0px" y="0px"
	 width="680px" height="512px" viewBox="0 0 680 512" enable-background="new 0 0 680 512" xml:space="preserve">
<desc  xmlns:shape="http://adobe.com/products/shape">
	<shape:version>1.1.2</shape:version>
	<shape:captureDetail>0.750000</shape:captureDetail>
	<shape:source>1</shape:source>
</desc>
<g>
	<path fill="#FFFFFF" d="M430,283.2c0.1,4.2,3.2,8.1,8.2,10.6c3.8,1.9,8,2.9,12.5,2.9c11.8,0,24.2-6.8,31.6-17.3
		c1.9-2.7,3.5-7.2,2.4-10.7c-0.6-1.9-1.8-3.2-3.6-3.9c-0.7-0.3-1.5-0.4-2.3-0.4c-3.5,0-6.5,2.8-8.4,5c-4.9,5.2-9.3,8.3-14,9.9
		c-1.9,0.6-3.9,1-5.8,1c-3.7,0-7-1.2-9.4-3.3c-1-1-2.4-1.5-3.8-1.5C433.7,275.4,430,279.2,430,283.2z"/>
	<path fill="#FFFFFF" d="M669.8,364.9c-10.2-10.6-25.4-14.3-37.7-17.4c-16.4-4.1-32.9-8.2-49.3-12.3c-16.3-4.1-32.5-8.1-48.8-12.2
		c-1.5-0.4-2.2-1.8-2.4-2.8c-0.5-2.4,0.3-5.2,2-6.6c2.9-2.5,7.3-2.8,10.7-2.8c1.2,0,2.3,0,3.2,0.1l71.8,2.6c0.2,0,0.4,0,0.6,0
		c6.9,0,13-4,16.8-10.9c4.8-8.7,4.8-19.7-0.1-27.3c-7.3-11.5-22.2-18.1-40.9-18.1c-0.9,0-1.8,0-2.7,0c-6.7,0.2-13.5,1.1-20,2
		c-7.4,1-15.1,2-22.6,2c-1.4,0-2.9,0-4.2-0.1c-14.6-0.8-31.2-8.1-35.5-22.5l-0.3-0.8c-20.2-67.2-40.5-134.3-60.7-201.6
		c-4-13.2-8.8-26.7-20.4-33.5c-2.9-1.7-6.5-2.6-10.3-2.6c-6.7,0-13.3,2.8-17.1,7.3c-2.8,3.3-3.9,7.1-3.2,11.2
		c9.4,57.8,25.3,115.2,47.1,170.5c-1.2,5.4-7.1,7.8-12.2,7.8c-3.1,0-6-0.8-8.4-2.4c-7.9-5.1-11.5-14.9-14.6-23.6
		c-17.5-47.5-39.6-94-65.5-138.3c-6-10.2-13.4-21.4-25.4-25.1c-1.6-0.5-3.4-0.7-5.2-0.7c-6.7,0-13.7,3.5-17.5,8.6
		c-2.8,3.8-3.5,8.2-2.2,12.3c23.2,71.8,52.2,141.7,86.2,208c-41,7.5-81.9,14.9-122.9,22.4c-41.7,7.6-83.3,15.2-125,22.8
		c-7.6,1.4-15.1,2.7-22.4,2.7c-4.6,0-8.8-0.5-12.6-1.6c-3.1-0.8-6.4-2.1-9.5-3.3c-5.8-2.3-11.7-4.6-17.7-4.6c-2.8,0-5.4,0.5-7.9,1.6
		c-5.1,2.2-8.6,6.3-10.3,12c-2.7,9.3-0.1,22.1,6.5,31.8c2,2.9,4.2,5.8,6.3,8.7c7.3,9.7,14.8,19.7,14,31.1
		c-1.1,17.1-20,27.1-28.1,30.7c-3.6,1.6-7.3,3-11,4.4c-10.8,4.1-22,8.3-30.5,16.6c-7,6.8-11.1,17.8-10.2,27.4
		c0.7,6.9,4,12.6,9.3,15.9c3.5,2.2,7.5,3.4,12,3.4c10.1,0,20.9-6,28.1-10.5c14.6-9,29.4-18.3,43.8-27.2l8.7-5.4
		c-0.5,0.7-1,1.5-1.5,2.2c-18,26.7-42.5,63.2-34.2,82.6c2.6,6.2,8.4,10.4,17.2,11.9c1.6,0.3,3.2,0.7,4.8,0.7c0,0,0,0,0,0
		c21.2,0,37.1-23.7,54-48.5c15.8-23.2,32.2-47.4,52.9-50.8c43.7-7.2,87.5-14.4,131.3-21.6c43.7-7.2,87.5-14.4,131.2-21.6
		c12.7-2.1,27.1-4.4,41.1-4.4c10.8,0,20.2,1.4,28.7,4.2l106.6,35.4c6.5,2.1,14.1,4.3,21.4,4.3c6.2,0,11.4-1.6,15.5-4.9
		c4.6-3.6,7.3-9.2,7.7-15.7C679,379.9,675.7,370.9,669.8,364.9z M90.1,494.9c-2.4,0.4-5.6-1-6.9-3.2c-0.7-1.2-0.8-2.3-0.3-3.4
		l0.5-1.1c11-21.7,22.4-44.1,33.6-66c3.4-6.7,6.4-14.5,2.4-21.1c-2.4-3.8-6.3-5.8-11.3-5.8c-7.8,0-16.1,4.7-19.2,6.7l-1.9,1.2
		c-17,11-34,21.9-50.8,32.8c-4.5,2.9-10.4,4.8-14.9,4.8c-4.2,0-6.8-1.6-7.5-4.8c-0.9-3.9,2-8,8.9-12.4c18.4-11.9,38-22.4,58.2-31.2
		c13.3-5.7,17.7-22.9,14.3-36.2c-3.1-11.9-10.5-21.9-17.8-31.6c-0.8-1-1.6-2.1-2.3-3.1c-5-6.8-10-14.9-8.4-22.7
		c1-5.1,6.6-8.7,11.1-8.7c1.6,0,3.7,0.4,5.1,2.5c4.9,7.2,13.2,10.9,24.7,10.9c6.2,0,13.4-1,22-3.2C211.8,278.9,296,264,379.8,255
		c6.4-0.7,14.3-4,17-9c1.3-2.4,1.4-5,0.1-7.5c-33.3-67-62.8-136.7-87.5-207.3c-0.5-1.5-0.3-3,0.7-4.4c1.6-2.2,4.7-3.8,7.7-3.8
		c0.8,0,1.5,0.1,2.2,0.3c5.9,1.8,9.7,7.7,13,13.6c30.5,54,57.2,110.5,79.5,168c2.5,6.3,9.3,10.4,17.4,10.4c1.2,0,2.4-0.1,3.5-0.3
		c8-1.3,14.8-6.1,20.7-10.4c5.5-3.8,7.7-8.1,6.2-12c-20.4-52.4-36.5-107.1-48-162.6c-1-4.9-0.7-12,2.1-15.4c0.9-1.2,2.1-1.7,3.4-1.7
		c0.3,0,0.6,0,0.9,0.1c2.3,0.3,4.2,2.4,6,4.5c12.3,15.4,18,34.7,23.6,53.3c8.8,29.5,17.6,59,26.3,88.4c8.9,29.8,17.8,59.9,26.7,89.8
		c4.4,14.8,11.3,22.9,20.1,22.9h0.2c3,0,6.1-0.3,9.1-0.3c23.6,0,48,0.6,72.4,2.1c8.1,0.5,16.4,1.5,21.2,6.9c2.4,2.8,3,7.6,1.3,11.3
		c-0.6,1.4-2.2,3.8-5.1,3.8l-71-1.6c-0.7,0-1.4,0-2.1,0c-26.1,0-32.1,10.8-33.3,17.3c-2.9,14.8,13.9,24.5,30.6,28.6
		c14.8,3.6,29.7,7.3,44.5,10.9c15.5,3.8,31,7.6,46.6,11.4c9.5,2.4,17.9,4.8,23.2,11c3,3.4,4.4,8.8,3.5,13.4c-0.5,2.3-1.7,5.4-5,7.1
		c-1.5,0.7-3.1,1.1-5,1.1h0c-3.5,0-7.3-1.2-10.6-2.4c-17.4-5.9-34.8-11.8-52.3-17.8c-17.4-5.9-34.8-11.9-52.3-17.8l-0.3-0.1
		c-12.3-4.1-25-8.4-38.2-8.9c-8.1-0.2-16.2,1.1-24,2.3l-1.3,0.2c-50.3,8.4-100.6,16.8-151,25.2c-50.3,8.4-100.6,16.8-150.8,25.1
		c-12.1,2-24,5.2-28.9,15.4c-11.7,24.2-25.7,47.6-41.4,69.3C98.1,490,94.8,494.1,90.1,494.9z"/>
	<path fill="#FFFFFF" d="M466.7,234.7c4.3,0,7.7-3.5,7.7-7.7s-3.5-7.7-7.7-7.7c-4.3,0-7.7,3.5-7.7,7.7S462.5,234.7,466.7,234.7z"/>
	<path fill="#FFFFFF" d="M426.3,240.1c4.3,0,7.7-3.5,7.7-7.7c0-4.3-3.5-7.7-7.7-7.7c-4.3,0-7.7,3.5-7.7,7.7
		C418.6,236.7,422,240.1,426.3,240.1z"/>
</g>
<g>
</g>
<g>
</g>
<g>
</g>
<g>
</g>
<g>
</g>
<g>
</g>
<g>
</g>
<g>
</g>
<g>
</g>
<g>
</g>
<g>
</g>
<g>
</g>
<g>
</g>
<g>
</g>
<g>
</g>
</svg>
