<?xml version="1.0" encoding="utf-8"?>
<!-- Generator: Adobe Illustrator 18.1.0, SVG Export Plug-In . SVG Version: 6.00 Build 0)  -->
<!DOCTYPE svg PUBLIC "-//W3C//DTD SVG 1.1//EN" "http://www.w3.org/Graphics/SVG/1.1/DTD/svg11.dtd">
<svg version="1.1" id="Layer_1" xmlns="http://www.w3.org/2000/svg" xmlns:xlink="http://www.w3.org/1999/xlink" x="0px" y="0px"
	 width="512px" height="512px" viewBox="0 0 512 512" enable-background="new 0 0 512 512" xml:space="preserve">
<path fill="#FFFFFF" d="M345.3,252.4c-5.7-5.2-13-7.8-21.6-7.8c-11.1,0-22.8,4.4-31.9,8.8c4.3-19,4-36-1-50.5
	c-4.9-14.6-15-27.8-29-38c-12.8-9.4-28.3-16-44.8-19.1c-8.7-1.7-19.8-2.6-32.2-2.6c-2.5,0-5,0-7.6,0.1c1.2-2,2.4-3.7,3.3-5
	c5.9-8.1,13-15.6,19.8-22.9c4.9-5.2,9.9-10.6,14.5-16.1c9-10.8,21.1-27.5,23.2-47.4c1.8-18.7-6.4-38.4-20.7-50.2L215.1,0l-1.5,2.4
	c-3.3,5.3-0.3,11.6,2.2,16.6l0.2,0.3c8,16.2,8.4,35.6,1,52c-5.5,12.5-15.2,22.9-25,32.4c-1.6,1.7-3.3,3.4-4.9,5.1
	c-8.2,8.3-16.6,16.9-22.8,27.4c-1.6,2.7-3,5.5-4.2,8.2c-9.5,0.8-19.6,2.1-29.7,4c1.3-17.7,8.4-28.6,14.9-38.5l1.3-2
	c2.8-4.2,6.1-8.4,9.6-12.8c7.9-9.9,16.9-21.1,21.2-36l2.9-10l-7.2,7.8c-18.2,19.7-37,40-47.7,64.9c-4.2,9.7-6.9,19.7-7.9,29.4
	c-13.7,3.2-27.2,7.5-39.2,13.2c-33.9,15.9-54.3,36.5-60.4,61.3c-3.7,14.5-2.2,29.7-0.7,39.9c5.4,39.3,19.9,77,41.8,109.2
	c2,3.1,3.1,6.8,2.6,8.7c-0.2,0.6-0.5,1-0.9,1.3c-14.7,6.5-31.4,13.9-44,26.9C2.5,425.8-3.2,445,1.8,460.6
	c4.2,12.7,15,23.6,32.1,32.3c25.1,12.8,55.5,19,93.1,19c11.3,0,23.6-0.5,37.4-1.7c32.1-2.6,69-7.9,99.1-27
	c14.9-9.5,24.5-20.6,28.7-33c4-12,2.6-24.9-4-37.4c-7.8-14.7-22.1-26.8-38-32.3c3.5-6.5,7-13.2,10.4-19.6c2.3-4.3,4.6-8.7,6.9-13
	c2.7-4.8,5.2-7.2,7.6-7.2c0.1,0,0.2,0,0.3,0c2.1,0.2,4.2,0.3,6.4,0.3c0,0,0,0,0,0c27,0,53.7-15.7,66.6-39c4.4-8.2,6.8-17.4,6.7-26
	C355,266.3,351.6,258.1,345.3,252.4z M222.7,420.7c-1.8,10-9.8,19.5-21.1,24.9c-10.5,5-22.3,6.5-34.4,7.7c-9.4,0.8-17,1.2-24.1,1.2
	c-19.4,0-35.2-3.2-48-9.8c-3.8-2-9-5.3-10.4-10.1c-1.6-5.9,2.2-12.1,6.5-17.9c1.8-2.5,4.1-4.2,5.6-4.2c0.4,0,0.6,0.1,1,0.3
	c17.7,12.7,40.2,19.7,63.3,19.7c21.7,0,42.3-6,59.5-17.3c0,0,0.1,0,0.2,0c0.6,0,1.3,0.4,1.6,0.9C223,417.2,223.1,418.7,222.7,420.7z
	 M37.7,412.5c6.1-4.7,12.8-9,20.1-12.8c5.7-3.1,10.5-4.6,14.5-4.6c1.7,0,3.3,0.3,4.7,0.8c2.9,1.1,5.4,4.5,5.7,7.9
	c0.2,1.6-0.1,3.8-2.1,5.1c-8.8,5.5-12.4,18-8.4,28.9c3.3,8.8,11.3,16.4,22,20.8c9.2,3.7,19,4.8,29.2,5.6c12,1,21.1,1.5,29.8,1.5
	c26.3,0,46.2-4.5,62.6-14.3c11.5-6.8,23.9-20.2,20.6-35.2c-0.4-2.1-1.1-4.1-1.7-6c-1.1-3.1-2.1-6-1.6-8.8c0.9-5.1,6.8-8.2,11.8-8.2
	l0.2,0c4.9,0.1,10,2.3,16,7.2c12.4,9.9,19.3,22.9,18.4,34.9c-1,15.5-13.5,27-20.9,32.6c-27.3,20.5-63.6,26-98.8,28.8
	c-14.6,1.2-26.6,1.7-37.6,1.7c-33.7,0-59.7-5.1-81.8-16.2c-14.5-7.3-23-16-25.5-25.9C9.5,435.7,31,417.6,37.7,412.5z M196.6,415.3
	c-7.3,3.5-15.8,5.5-25.7,6c-1.3,0.1-2.6,0.1-3.9,0.1c-34.4,0-69.6-19.4-94.2-51.8c-18.6-24.6-32.3-58.8-42-104.4
	c1.6,1.2,3,2.3,4.4,3.1c15.4,9.4,29.3,13.6,45.4,17.1c24.9,5.3,46.7,7.8,68.6,7.8c11.6,0,23.2-0.7,35.6-2.1
	c25.6-3,61.6-11.8,91.2-36.3c-3.6,47-20.8,93.6-48.5,131.8C220.2,396.5,210,408.8,196.6,415.3z M157.7,178.7
	c4.6,13.3,17.3,22.9,30.1,22.9c1.8,0,3.6-0.2,5.4-0.6c3.2-0.7,5.5-2.1,7-4.1l2.4-3.4l-4.1-0.5c-12.4-1.6-22.3-7.5-26.4-15.8
	c-3.4-6.8-2.8-14.3-0.7-21c4.3-0.2,7.8-0.3,10.3-0.3c2.4,0,4.8,0,6.9,0.1c21.3,0.9,48.4,4,68.3,19.8c17.4,13.8,28.6,41.5,16.4,62.3
	c-2.6,4.3-7.3,7.6-10.8,7.6c-1.1,0-2.1-0.3-3-0.9c-26.7-19.2-59.4-29.8-92.2-29.8c-3.2,0-6.4,0.1-9.6,0.3
	c-12.3-10.7-23.3-25.7-26.3-46.3c-0.4-2.7-0.7-5.2-0.9-7.6c9.4-2,18.2-3.2,25.9-4.1C155.1,164.8,155.5,172.1,157.7,178.7z
	 M128.7,234.4c0.6-0.2,1.4-0.5,2.3-0.8c4.3-1.6,11.2-4.2,20.4-5.3c15.9,13.5,30.5,16.1,39.4,16.1c0,0,0,0,0,0c6.1,0,9.8-1.2,10-1.3
	l8.1-2.7l-8.3-2.1c-0.3-0.1-11.5-3-24.9-10.4c26.9,1.9,52.8,10.9,73.9,25.9c0.4,0.3,0.6,0.7,0.7,1.3c0.1,0.9-0.1,2-0.7,2.8
	c-1.2,1.6-3.3,2.5-5.6,3.5l-0.4,0.1c-31,12.7-65.4,19.5-99.6,19.5c-25.6,0-50.7-3.6-74.7-10.8C86.2,254.4,106.7,242.1,128.7,234.4z
	 M128.5,201c4,6.4,8.1,11.8,12.2,16.5c-8,1.5-14.2,3.6-17.6,4.8l-1.3,0.4c-24.8,8.7-47.8,22.9-66.6,40.9c-0.6,0.5-1.2,0.8-2.1,0.8
	c-1.7,0-4.2-1-6.8-2.8c-5.6-3.9-13.4-10-16-18.4c-4.6-14,6.1-28.9,12.8-36.6c16.3-18.4,40-32.2,70.6-41c1.1-0.3,2.2-0.6,3.4-0.9
	C117.6,178.2,121.4,190.7,128.5,201z M317.5,316.6c-10,8.6-21.2,13.5-31.5,13.8l-0.3,0c-4.6,0-9.8-1.7-10.2-5.4
	c-0.2-1.9,1.2-4.3,3.3-5.6c2.2-1.4,5.1-2,7.9-2.7l0.4-0.1c9.3-2.1,19-4.8,25.4-12c3.9-4.3,6-10.6,5.5-16.5
	c-0.4-4.7-2.5-8.6-5.8-11.1c-2.7-2.2-6.4-3.4-10.5-3.4c-1.6,0-3.3,0.2-5,0.5c-3.4,0.8-6.4,2.2-9.1,3.9c5.7-9,14.2-16.1,24.1-20
	c3.9-1.6,7.9-2.5,11.4-2.5c2.9,0,5.6,0.6,8,1.7c5.7,2.7,9.7,9.5,10,16.9c0.2,6.5-1.8,13.5-6,20.9
	C330.3,303.4,324.3,310.8,317.5,316.6z M294.9,286c2.4-1,4.1-1.4,5.6-1.1l0.2,0c0.6,0.1,1.3,0.3,1.7,0.7l0.1,0.1
	c1.8,1.4,2.7,4.2,2.1,6.9c-0.7,3.2-3.2,5.8-4.6,7c-5,4.3-12.1,6.6-18.8,6C281.8,297.4,287.3,289.4,294.9,286z"/>
</svg>
