<?xml version="1.0" encoding="utf-8"?>
<!-- Generator: Adobe Illustrator 18.1.0, SVG Export Plug-In . SVG Version: 6.00 Build 0)  -->
<!DOCTYPE svg PUBLIC "-//W3C//DTD SVG 1.1//EN" "http://www.w3.org/Graphics/SVG/1.1/DTD/svg11.dtd">
<svg version="1.1" id="Layer_1" xmlns="http://www.w3.org/2000/svg" xmlns:xlink="http://www.w3.org/1999/xlink" x="0px" y="0px"
	 width="512px" height="512px" viewBox="0 0 512 512" enable-background="new 0 0 512 512" xml:space="preserve">
<g id="pic-bird-2">
	<path fill="#FFFFFF" d="M400,210.8c-8.5,1.9-14,10.2-18.4,18c-11,19.4-22,38.7-33,58.1c-1.4,2.2-2.5,4.7-2.2,7.2
		c0.5,2.5,2.5,4.4,4.4,6.1c42,35.7,94.2,59.2,148.7,67.5c10.2,1.4,15.4,14.9,11,24.3c-4.4,9.4-15.1,14.4-25.3,14.9
		c-10.2,0.6-20.3-2.2-30.5-4.4c3.3,10,12.9,15.8,20.9,22.4c8,6.6,14.6,17.7,9.9,27.1c-3.6,6.9-12.1,9.4-19.8,9.7
		c-14,0.3-28-5-38.2-14.7c-4.9-4.7-12.9-10.5-17.3-5.3c6.9,13.8,15.1,27.1,24.7,39c8,10-0.5,26-12.6,29.9c-12.1,3.9-25-0.6-36.5-6.1
		c-48.1-22.1-89.3-59.4-116.5-105.3c-3.3-5.5-6.3-11.1-11.3-14.9c-4.9-3.9-12.1-5.8-17.6-2.5c-44,26.3-102.5,19.4-145.6-8.3
		S21.9,301.3,1.6,254c-5.5-13,4.7-26.8,14-37c5.2-5.8,14-11.6,19.5-6.4c14,13,28.3,26.3,44.8,35.7c16.8,9.4,36.3,15.2,55,11.6
		c4.1-0.8,9.6-5,6.9-8.3C93.9,190.9,60.9,119.9,46.9,45.2c-1.9-10,10.7-17.7,20.6-14.9s16.2,11.9,21.7,20.5
		C94.4,59.3,99.9,69,109,73.7c3.3-10.8,0-22.4-2.2-33.5s-3.3-23.5,3.3-32.9c6.6-9.1,23.4-10.5,27.8,0c7.4,18.2,14.8,36.8,22,55
		c3.3-11.6,6.6-22.9,10.2-34.6c2.7-9.1,5.8-18.8,13.5-24.1c7.7-5.3,21.2-1.7,21.7,7.7c1.9,40.1,7.1,79.9,15.7,118.9
		c1.1,5.3,2.5,10.8,6.3,14.7c3.8,3.9,11,4.7,14.3,0.6c16.8-21.3,41.8-36.2,68.7-37.3c26.9-1.1,54.4,12.2,67.6,35.9
		c3.8,6.9,6.6,14.4,11.8,19.9c9.6,10.2,25.3,11.3,39,13.8c6.3,1.1,14.3,5,13.5,11.6c-0.5,4.1-4.7,6.6-8.2,8.6
		C423.3,204.2,411.8,208.4,400,210.8 M40,233c-6.9-6.6-19.5,0-21.4,9.4c-2.2,9.4,2.5,18.8,7.1,27.1c26.7,47.6,62.4,95.4,114.6,109.8
		c45.6,12.7,95.9-3.6,133.3-33.2S337,275.3,359.3,233c6.9-13,14.8-27.4,28.6-32.1c8.5-2.8,21.4-4.7,20.9-13.8
		c-13.5-2.5-27.8-5.8-36.3-16.3c-5.5-7.2-7.7-16.3-12.1-24.1c-14.6-25.2-51.7-28.2-76.9-13.8c-25.3,14.1-41.2,40.1-56.3,65
		s-31.3,50.6-56.6,64.4c-21.2,11.3-46.7,13.3-69.8,7.2S57.1,249.8,40,233 M412.9,421.2c4.9,0.6,9.1,3.6,12.9,6.6
		c9.3,7.2,18.4,14.4,27.8,21.6c6.6,5.3,15.4-5.8,12.6-13.5c-2.7-7.7-11-11.9-17.9-16.9c-6.6-5-12.6-13.8-8.8-21s14-7.5,21.7-5.3
		c7.7,2.2,15.9,5.8,23.4,2.8c7.4-2.8,9.3-16.6,1.4-17.7c-51.9-7.7-101.7-30.4-142.1-64.1c-1.9-1.7-4.4-3.6-7.1-3
		c-1.4,0.3-2.5,1.4-3.6,2.5c-18.4,17.4-36.8,34.8-55.2,52.3c-2.5,2.5-5.2,5.3-5.2,8.8c0,2.2,1.4,4.4,2.5,6.4
		c30.2,49.2,74.2,89.9,125.3,116.1c6.3,3.3,16.5,5,18.7-1.9c0.8-2.5,0-5-0.8-7.5c-3.3-8.6-9.3-15.8-14.6-23.2
		c-5.2-7.7-9.3-16.3-8.5-25.4C395.9,429.3,403.8,420.1,412.9,421.2 M140.9,58.2c-4.7-13.3-9.1-26.3-13.7-39.5
		c-6.9,5.3-7.7,15.5-6,24.1c1.6,8.6,5.5,16.6,5.8,25.4c0.3,8.6-4.7,18.5-13.2,19.9c-6.3,0.8-12.1-3-16.8-7.2
		C84.3,70.1,73.5,56.6,66.4,41.4c-3.6,0-4.1,5-3.3,8.6c15.4,70.2,48.1,136.6,94,191.9c1.9,2.2,4.1,4.7,6.9,5
		c3.8,0.6,7.1-2.8,9.6-5.5c17.9-20.7,33.5-43.4,46.7-67.2c1.1-2.2,2.5-4.4,2.5-6.9c0.3-4.1-2.2-7.7-4.4-11.1
		c-17.6-27.1-20.6-60.8-23.1-92.9c-1.1-14.4-2.2-28.8-3.3-43.1c-10.4,6.6-11,21.6-12.6,34s-9.9,27.4-22.3,24.9
		C148,76.5,143.9,66.8,140.9,58.2"/>
	<ellipse fill="#FFFFFF" cx="332.7" cy="153.9" rx="8.8" ry="8.8"/>
</g>
<g>
</g>
<g>
</g>
<g>
</g>
<g>
</g>
<g>
</g>
<g>
</g>
<g>
</g>
<g>
</g>
<g>
</g>
<g>
</g>
<g>
</g>
<g>
</g>
<g>
</g>
<g>
</g>
<g>
</g>
</svg>
