<?xml version="1.0" encoding="utf-8"?>
<!-- Generator: Adobe Illustrator 18.1.0, SVG Export Plug-In . SVG Version: 6.00 Build 0)  -->
<!DOCTYPE svg PUBLIC "-//W3C//DTD SVG 1.1//EN" "http://www.w3.org/Graphics/SVG/1.1/DTD/svg11.dtd">
<svg version="1.1" id="Layer_1" xmlns="http://www.w3.org/2000/svg" xmlns:xlink="http://www.w3.org/1999/xlink" x="0px" y="0px"
	 width="512px" height="512px" viewBox="0 0 512 512" enable-background="new 0 0 512 512" xml:space="preserve">
<g>
	<path fill="#FFFFFF" d="M481.3,244.1c-1.5-0.9-3.1-1-4.6-0.9c-4.8,0.1-9.5,1.3-13.1,2.3c-2,0.6-4,1.2-6,1.9
		c-1.9,0.6-3.9,1.2-5.8,1.8c-8.6,2.5-15.6,3.3-21.8-0.8c-4.3-2.8-7.1-7.5-9.4-11.7c-4.7-8.3-9.5-16.6-14.1-24.7
		c-4.6-8.1-9.4-16.4-14.1-24.6c-4.9-8.5-9.7-19.3-4.1-26.9c1.7-2.3,4.2-3.9,6.8-5.6c1.5-0.9,3-1.9,4.4-3c4.2-3.4,7.4-9.1,4.6-13.9
		l-0.2-0.3l-0.3-0.1c-1.9-0.7-3.7-0.8-5.6-0.2c-3.9,1.1-7,4.7-10.3,8.6c-3.3,3.9-6.8,7.9-11.1,9.1c-0.5,0.1-0.9,0.2-1.4,0.3
		c-4,0.5-8-1.7-12.1-4.1l-62.7-38.3l-0.4-0.2c-2.6-1.7-5.6-3.6-6.9-6.5c-1.3-2.8-0.8-6.2-0.3-9.3c2.3-13.7,5.8-27,10.4-39.4l0.4-1
		l-1-0.3c-2-0.7-4.1-0.7-6.2-0.1c-5.8,1.7-10,7.7-11.6,12.9c-1.2,3.9-1.5,8.1-1.8,12.1c-0.3,3.5-0.5,7.2-1.4,10.5
		c-1.6,5.7-5.8,10.6-10.3,11.9c-1.6,0.5-3.2,0.5-4.8,0c-17-4.7-35.5-5.1-53.4-1.1c-5.5,1.2-11.1-1.8-16.3-5.2l-0.6-0.4
		c-7.7-4.9-15.6-10-21-17.4c-5-6.9-7.9-17.5-3.2-25.7c5.6-9.7,5.5-22.3-0.3-33.6c-5.8-11.3-15.9-18.8-27-19.9
		c-3.9-0.4-7.8,0-11.7,1.1c-9.5,2.8-18.2,10.1-23.2,19.5c-4.6,8.6-5.6,17.9-3,26.2c0.6,1.8,1.3,3.6,2,5.4c1.2,2.9,2.3,5.9,2.8,9
		c0.6,4.6-1.2,10.3-5.6,11.6c-24,7.1-36.1,32.2-45.3,55.7c-6.5-12.3-23-19-37.2-14.8c-2.9,0.9-5.6,2.2-8,3.8
		c-15.2,9.7-20.3,32.7-11,49.2c9,15.4,29.6,23.6,47.9,19.1c0.7-0.2,1.3-0.4,2-0.6c3.7-1.1,7.2-2.1,10.6-1c4.8,1.6,6.7,6.7,8.8,12.1
		c0.8,1.9,1.5,3.9,2.5,5.7c2.5,4.6,6.4,8.4,10.1,12.1c2.1,2.1,4.4,4.2,6.3,6.5c14.8,17.4,12.9,42.7,9.7,67.1l-0.1,0.8
		c-0.5,3-0.9,5.8-2.8,7.7c-0.9,0.9-2.1,1.6-3.8,2.1c-1.7,0.5-3.6,0.7-5.4,0.9l-0.2,0c-4.9,0.4-9.7,0.8-14.5,1.2
		c-4.8,0.4-9.7,0.8-14.5,1.2l-0.8,0.1l-0.1,0.8c-0.3,1.6-0.6,3.2-0.9,4.8c-0.3,1.6-0.6,3.2-0.9,4.8l-0.1,0.7l0.7,0.3
		c7.5,3.8,16.1,2.3,24.4,0.9c1.9-0.3,3.9-0.7,5.8-0.9c9.8-1.3,21.5,1.2,24.2,10c7.6,25.4,21,49.4,38.5,69.2
		c5.1,5.8,9.9,11.9,7.5,17.8c-1.5,3.7-5.4,5.7-9.6,7.8c-1.2,0.6-2.5,1.3-3.7,2c-3.8,2.2-6.8,6.3-7.3,10c-0.3,2.3,0.3,4.3,1.8,5.9
		l0.3,0.3l0.4,0c1.7,0.1,3.4,0,5.1-0.5c5.2-1.5,9.5-5.7,13.7-9.7c0.7-0.7,1.4-1.3,2-1.9c3.1-2.9,6.9-5.2,10.3-6.2
		c2.7-0.8,6.7-1.2,9.8,1.4c20.7,17.5,45.8,29.6,72.4,35c2.9,0.5,5.3,2.2,7,4.9c3.6,5.6,3.6,14.2,2,20.4c-0.4,1.6-0.9,3.3-1.3,5
		c-2.5,9.1-5.1,18.4-0.4,26.5l0.4,0.8l0.8-0.3c11.3-4.6,12.6-19.3,12.5-31.6c-0.1-11.1,3.6-23.5,12.1-26c0.8-0.2,1.7-0.4,2.6-0.4
		c11.2-0.7,22.3-2.7,33.3-5.9c30-8.7,57.2-26.5,76.6-49.9c26.7-32.3,39.5-76.5,34.3-118.2c-0.8-6.8,5.2-13.4,11.6-15.9
		c0.8-0.3,1.6-0.6,2.4-0.8c5.7-1.7,11.9-1.7,18-1.7l1.4,0c2.8,0,5.7-0.2,8.5-1c2.1-0.6,3.8-1.5,5.2-2.8c2.2-2,3.4-5.4,3-8.5
		C484.3,246.7,483.1,244.9,481.3,244.1z M121.5,26.5c1-4.5,2.7-7.7,5.2-9.6c1-0.7,2.1-1.3,3.5-1.7c1.3-0.4,2.8-0.6,4.4-0.7
		c6.9-0.1,13.6,3,19,8.6c5.8,6.1,9,14.4,8.5,22.2c-0.4,4.1-1.2,7-2.6,9.4c-2,3.5-5.4,6-9.7,7.2c0,0,0,0,0,0c-6.8,2-14.5,0.4-19.7-4
		C121.1,50.6,119.3,36.8,121.5,26.5z M155.1,159.5c-1.5-8.8,6.6-16.4,11.6-20.1c10.4-8,22.4-14,35.7-17.9
		c27.1-7.9,58.7-6.3,86.6,4.5c36,13.8,69.4,42.3,96.6,82.4c19.7,29.1,31.4,57.6,34.7,84.7c4.1,33.2-4.4,64.6-23.5,86.4
		c-2.1,2.4-4.7,5-7.7,5.9c-5.6,1.6-11.4-2.1-16.8-6.4C294.6,317.6,223.7,247.6,161.5,171C158.6,167.5,155.7,163.8,155.1,159.5z
		 M127.5,188.3c1.3-4.3,3-8.6,6.3-11.6c1-0.9,2.2-1.5,3.6-1.9c2.3-0.7,5.5-0.6,7.5,1.6c63.4,72,135.2,153.5,221.4,216.6
		c5.2,3.8,5.2,11.8,2.4,17.1c-3.4,6.1-9.4,9.9-14.8,12.8c-8.2,4.4-16.9,8-26,10.6c0,0,0,0,0,0c-27.8,8.1-58.3,7.6-88.2-1.3
		c-29.2-8.8-56.1-25.6-75.6-47.3C119.3,334.9,105,257.8,127.5,188.3z M181.8,116.5c-32.7,18.1-59,48.3-72.3,83c-1.2,3-2.6,6-5.1,6.9
		l-0.1,0c-2.6,0.8-5.6-0.6-9.2-4.2c-18.1-19.3-20-48-18.5-68.7c0.4-7.3,1.2-13.4,3.4-19.5c5-13.4,17.3-24.1,33-28.7
		c3.6-1.1,7.4-1.7,11-2c17.3-1.3,36.2,4.9,53,17.5c2.7,2,5.4,4.4,6.7,7.5C184.9,111.1,184.3,115,181.8,116.5z M59,161.9
		c-0.6,2.2-1.9,4.2-3.7,5.8c-2.2,2.1-5,3.7-8.1,4.6c0,0,0,0,0,0c-8.3,2.4-18,0-24.2-6c-8.2-8-11-21.1-7.2-33.5
		c0.5-1.6,1.2-3.4,2.7-5c0.9-0.8,1.9-1.3,3.1-1.7c0.9-0.3,2-0.4,3.1-0.4C35,125.4,45,132.6,54.5,147C57.6,151.5,60.6,156.7,59,161.9
		z"/>
	<path fill="#FFFFFF" d="M353.9,313.2c2.5,5.7,6.4,9.8,11,11.7c3.4,1.3,7.1,1.4,10.8,0.3c4.7-1.4,8.8-4.5,11.3-8.7
		c4.2-7,4.1-16.4-0.2-24.3c-2.8-5.6-7.5-9.7-12.8-11.1c-2.7-0.7-5.6-0.7-8.5,0.2c-4.8,1.4-9.1,4.9-11.6,9.3
		C350.5,297,350.5,305.4,353.9,313.2z M365.7,305c-1.5-3.8,0-8.6,3.3-11.2c3.1,2.4,6.4,5.2,7.6,9.1c1.2,3.7-0.1,8.7-3.8,10.1
		c-0.1,0-0.2,0.1-0.2,0.1c-1.7,0.5-3.8-0.3-5.2-1.9c-0.5-0.6-1.6-2.3-0.7-4.1l0.3-0.6L365.7,305z"/>
	<path fill="#FFFFFF" d="M315.6,237c1.5,0.1,3.1-0.1,4.6-0.5c4-1.2,7.1-3.8,9-5.9c7.9-8.4,10-21.3,4.7-30c-4.3-7.2-14-10.9-22.1-8.6
		c-2.4,0.7-4.5,1.9-6.3,3.6c-4.2,4.3-6.3,10.8-6,18.4C299.6,224.7,305.3,236.4,315.6,237z M312.3,204.6c0.4-0.2,0.8-0.4,1.3-0.5
		c3.2-0.9,7.1,0.6,9.2,3.5c2.1,3.3,2.4,7.9,0.6,12.4c-0.6,1.5-1.8,2.1-2.8,2.4l0,0c-2.9,0.9-6.7-0.7-8.2-3.2
		C310.1,214.8,311.1,209.6,312.3,204.6z"/>
	<path fill="#FFFFFF" d="M221.6,204.2c3.2,1.2,6.9,1.2,10.5,0.2l0.2,0c6-1.8,11.1-6.6,13.8-12.8c2.4-5.6,2.4-11.6,0-16.4
		c-3.7-7.4-13.6-11.3-22.1-8.9c-3.6,1-6.5,3.1-8.4,6c-2.7,3.9-3.3,8.6-3.5,11.8C211.7,191.3,213.9,200.9,221.6,204.2z M235.3,190.1
		c-0.5,0.8-1.3,1.4-2.3,1.7c0,0,0,0,0,0c-2.5,0.7-5.8-0.3-7.2-2.3c-2.1-3.4-1.2-8.1,0.5-11.5c0.6-0.1,1.1-0.3,1.7-0.4
		c0.5-0.1,1-0.2,1.6-0.4c0.4,0.4,0.7,0.9,1.1,1.3C233.8,182.3,237.4,186.5,235.3,190.1z"/>
	<path fill="#FFFFFF" d="M282.8,418.2c2.6,0.4,5.2,0.3,7.6-0.4c0.6-0.2,1.2-0.4,1.7-0.6c10.5-4.4,12.3-18.1,9.5-28.9
		c-1.2-4.9-3.1-8.5-5.8-10.9c-2.2-1.9-5-3.1-8.5-3.7c-2.7-0.4-5.5-0.2-8.3,0.6c-8.6,2.5-15.4,10.5-16.2,19.1
		C261.6,405.1,271,416.6,282.8,418.2z M277.2,388.1l0.3-0.1c1.1-0.5,2.2-1,3.4-1.3c1.6-0.5,2.9-0.5,4-0.2c1.8,0.5,3.4,1.7,4.5,3.2
		c2.6,3.6,2.9,9,0.5,12.8c-0.6,0.3-1.2,0.6-1.9,0.8l0,0c-3.7,1.1-7.8-0.1-10.3-2.8C274.9,397.2,274.7,391.6,277.2,388.1z"/>
	<path fill="#FFFFFF" d="M178.5,336.8c-3.9,4.6-6,10.9-6.3,19.3c0,3.1,0.1,6.3,1.7,9.3c1.3,2.4,3.9,4.1,5.4,5c5.3,3.1,12,3.8,18.2,2
		c4.4-1.3,8.2-3.7,11-7.1c7-8.2,6.6-21.9-1-29.4c-5.1-4.8-13.1-6.6-20.2-4.5C183.8,332.4,180.8,334.3,178.5,336.8z M194.7,360.7
		C194.7,360.7,194.7,360.7,194.7,360.7c-2.4,0.7-5.7,0.6-7.8-1.8c-2.6-2.9-2.7-7.8-0.4-14.9c2.1-0.9,4.8-1.1,7-0.4
		c2.5,0.7,4.8,2.6,6,5.3c1.2,2.5,1.4,5.2,0.5,7.4C199.1,358.4,197.2,360,194.7,360.7z"/>
	<path fill="#FFFFFF" d="M163.9,280.2c0.4-0.1,0.9-0.3,1.3-0.5c8.3-3.2,13.9-12.5,13.1-21.6c-0.6-6.2-4.3-13.3-11.2-15.2
		c-2.6-0.7-5.6-0.7-8.2,0c-6.9,1.5-13.2,6.7-16.3,13.3c-2.3,4.9-2.4,10-0.5,14.4C145.6,278.5,155.3,282.7,163.9,280.2z M155.7,263.5
		c-1.2-0.9-1.1-2.2-1-3c0.4-2.2,2.3-4.1,4.3-4.2c1.7,0,3.3,0.8,4.6,2.3c1.2,1.5,2,3.5,2,5.4c0.1,1.6-0.3,3-1,3.8
		c-0.5,0.6-1.1,1-1.8,1.2c0,0,0,0,0,0c-2.4,0.7-5.8-0.8-7.8-3.2l1.8-1.6L155.7,263.5z"/>
	<path fill="#FFFFFF" d="M32.6,144.4c-1,0.3-1.9,0.8-2.7,1.5c-2.9,2.6-3.2,7-0.6,10c1.8,2,4.6,2.9,7.3,2.1c1-0.3,1.9-0.8,2.7-1.5
		c1.4-1.2,2.2-3,2.4-4.8c0.1-1.9-0.5-3.7-1.8-5.1C38.1,144.5,35.2,143.7,32.6,144.4z"/>
	<path fill="#FFFFFF" d="M143.6,47.8c1-0.3,1.9-0.8,2.7-1.5c2.9-2.6,3.2-7,0.6-10c-1.8-2-4.6-2.9-7.3-2.1c-1,0.3-1.9,0.8-2.7,1.5
		c-1.4,1.2-2.2,3-2.4,4.8c-0.1,1.9,0.5,3.7,1.8,5.1C138.1,47.7,141,48.6,143.6,47.8z"/>
</g>
</svg>
