<?xml version="1.0" encoding="utf-8"?>
<!-- Generator: Adobe Illustrator 17.1.0, SVG Export Plug-In . SVG Version: 6.00 Build 0)  -->
<!DOCTYPE svg PUBLIC "-//W3C//DTD SVG 1.1//EN" "http://www.w3.org/Graphics/SVG/1.1/DTD/svg11.dtd">
<svg version="1.1" id="Layer_10" xmlns="http://www.w3.org/2000/svg" xmlns:xlink="http://www.w3.org/1999/xlink" x="0px" y="0px"
	 viewBox="0 0 32 32" enable-background="new 0 0 32 32" xml:space="preserve">
<rect fill="#808080" width="32" height="32"/>
<path fill="#FFFFFF" d="M16,2h3v2h-3V2z M13,4h3v2h-3V4z M16,6h3v2h-3V6z M13,8h3v2h-3V8z M16,10h3v2h-3V10z M13,12h3v2h-3V12z
	 M16,14v2h-3v7c0,0.552,0.448,1,1,1h4c0.552,0,1-0.448,1-1v-9H16z M18,22h-4v-2h4V22z"/>
<rect x="13" fill="#FFFFFF" width="3" height="2"/>
</svg>
