<?xml version="1.0" encoding="utf-8"?>
<!-- Generator: Adobe Illustrator 17.1.0, SVG Export Plug-In . SVG Version: 6.00 Build 0)  -->
<!DOCTYPE svg PUBLIC "-//W3C//DTD SVG 1.1//EN" "http://www.w3.org/Graphics/SVG/1.1/DTD/svg11.dtd">
<svg version="1.1" id="Layer_1" xmlns="http://www.w3.org/2000/svg" xmlns:xlink="http://www.w3.org/1999/xlink" x="0px" y="0px"
	 viewBox="0 0 32 32" enable-background="new 0 0 32 32" xml:space="preserve">
<rect fill="#0D89D6" width="32" height="32"/>
<g>
	<path fill="#FFFFFF" d="M7.75,15.274c1.54-0.022,1.716-0.858,1.716-1.562c0-0.572-0.066-1.167-0.132-1.76
		c-0.088-0.616-0.154-1.21-0.154-1.782c0-2.068,1.32-2.949,3.278-2.949h0.638v1.584h-0.396c-1.144,0-1.541,0.638-1.541,1.716
		c0,0.44,0.066,0.902,0.154,1.386c0.044,0.484,0.132,1.012,0.132,1.584c0.022,1.54-0.638,2.2-1.76,2.464V16
		c1.123,0.264,1.782,0.946,1.76,2.486c0,0.594-0.088,1.122-0.132,1.606c-0.088,0.483-0.154,0.946-0.154,1.386
		c0,1.1,0.44,1.738,1.541,1.738h0.396v1.562h-0.638c-1.914,0-3.278-0.793-3.278-3.015c0-0.55,0.066-1.166,0.154-1.761
		c0.066-0.594,0.132-1.166,0.132-1.738c0-0.638-0.176-1.54-1.716-1.562V15.274z"/>
	<path fill="#FFFFFF" d="M24.25,16.704c-1.518,0.022-1.716,0.924-1.716,1.562c0,0.572,0.088,1.144,0.154,1.738
		c0.065,0.595,0.153,1.211,0.153,1.761c0,2.222-1.363,3.015-3.278,3.015h-0.638v-1.562h0.396c1.101-0.021,1.519-0.639,1.519-1.738
		c0-0.439-0.065-0.902-0.132-1.386c-0.066-0.484-0.132-1.013-0.132-1.606c-0.022-1.54,0.638-2.222,1.738-2.486v-0.044
		c-1.101-0.264-1.761-0.924-1.738-2.464c0-0.572,0.065-1.1,0.132-1.584c0.066-0.484,0.132-0.946,0.132-1.386
		c0-1.078-0.396-1.694-1.519-1.716h-0.396V7.221h0.638c1.959,0,3.278,0.88,3.278,2.949c0,0.572-0.088,1.166-0.153,1.782
		c-0.066,0.594-0.154,1.188-0.154,1.76c0,0.704,0.198,1.54,1.716,1.562V16.704z"/>
</g>
</svg>
