<?xml version="1.0" encoding="utf-8"?>
<!-- Generator: Adobe Illustrator 18.1.0, SVG Export Plug-In . SVG Version: 6.00 Build 0)  -->
<!DOCTYPE svg PUBLIC "-//W3C//DTD SVG 1.1//EN" "http://www.w3.org/Graphics/SVG/1.1/DTD/svg11.dtd">
<svg version="1.1" id="Layer_1" xmlns="http://www.w3.org/2000/svg" xmlns:xlink="http://www.w3.org/1999/xlink" x="0px" y="0px"
	 width="800px" height="470px" viewBox="0 0 800 470" enable-background="new 0 0 800 470" xml:space="preserve">
<g>
	<g>
		<g id="flower-1">
			<path d="M73.1,93.7c0.4,0.8,0.7,1.6,0.9,2.5c0.4,4.1-4.1,7.8-8,6.6c-3.1-1-5.1-4.9-4-8c1.1-3.1,5-5,8.1-3.8
				C71.2,91.4,72.4,92.4,73.1,93.7 M67.3,94.9c-1.3,0.4-1.7,2.4-0.7,3.4c1,1,2.9,0.2,3.3-1.1C70.1,95.9,68.6,94.4,67.3,94.9z"/>
			<path d="M57.5,108.7c-2.4-2-4.2-4.7-5-7.6c-1.4-5.2,0.3-11,3.8-15.1c1.5-1.6,3.1-3.1,5.1-4c3.5-1.7,7.7-2,11.3-0.7
				c1.3,0.5,2.6,1.1,3.7,1.8c7.2,4.8,8.9,15.9,3.9,22.7C75.3,112.8,64.2,114,57.5,108.7 M72.5,85.8c-1.2-0.5-2.5-0.8-3.8-0.9
				c-3.8-0.2-7.6,1.5-10,4.3c-2.4,3-3.1,7.1-2.2,10.7c1,3.4,3.5,6.2,6.6,7.6c5.8,2.5,13.1-0.4,15.7-6.2
				C81.2,95.6,78.3,88.3,72.5,85.8z"/>
		</g>
		<g id="flower-2">
			<path d="M316.7,89.8c-1-1.2-1.7-2.7-1.8-4.2c-0.1-1.2,0-2.5,0.3-3.7c0.7-3.1,1.5-6.2,3.3-8.9c1.7-2.6,4.6-4.8,7.7-5.2
				c6-0.9,11.2,4.8,11.9,10.7c0.5,5.3-2,11.1-6.7,13.7C326.7,94.9,320.2,93.9,316.7,89.8 M330.3,88.8c1.7-2.3,3.4-5,3.7-7.9
				c0.4-2.9-0.4-6.2-2.6-8c-2.2-1.8-6.1-1.8-8,0.3c-2,2.4-3.7,5.1-4.2,8.1c-0.4,3,0.4,6.4,2.8,8.4C324.3,91.6,328.4,91.2,330.3,88.8
				z"/>
			<path d="M326.8,83c-1,0.7-2.5-0.3-2.4-1.5c0.2-1.2,1.8-1.7,2.8-1.1c0.9,0.8,0.8,2.5-0.2,3L326.8,83z"/>
		</g>
		<g id="flower-4">
			<path d="M154,207.9c-1.4,0.3-3.5,0.3-3.6-1.1c0.7-1,2-1.6,3.1-1.4c1.1,0.4,1.7,2.2,0.7,2.8L154,207.9z"/>
			<path d="M164.1,216.4c-1,1.2-2.9,1.4-4,0.4c0-1.1,0.7-2.1,1.7-2.3c1.1-0.2,2.2,0.7,2.1,1.7L164.1,216.4z"/>
			<path d="M173.6,208.3c-1.1,0.7-2.6,0.1-2.9-1.1c0.5-1,1.8-1.7,2.9-1.4c1.1,0.4,1.3,2.4,0.2,2.7L173.6,208.3z"/>
			<path d="M166.4,203.7c-1,1.3-3.4,1.1-4-0.4c0.5-1.7,3.7-1.5,3.8,0.3L166.4,203.7z"/>
			<path d="M158.9,197.3c0.8-0.8,0.2-2.4-0.9-2.7c-1.1-0.3-2.3,1-1.8,2C156.6,197.7,158.2,198,158.9,197.3z"/>
			<path d="M165.6,189.7c-1.2,0.3-1.6-2-0.5-2.4c1.2-0.4,2.4,0.8,2.6,2C166.9,189.3,166.2,189.6,165.6,189.7L165.6,189.7z"/>
			<path d="M172.3,196.6c-1-0.3-1-2.1,0-2.4s2.1,0.8,1.8,1.8C173.7,196.7,173,196.8,172.3,196.6L172.3,196.6z"/>
		</g>
	</g>
	<path d="M34.2,99.7c2.7,2.4,0,6.7-1,10.2c-2.2,7.7,8.6,15.3,15.2,10.6c-1.1,5,2.1,10.4,6.7,12.7c4.7,2.3,10.5,1.4,14.9-1.4
		c-0.9,54-1.7,107.9-2.7,161.8c-4.2-8-14.3-12.4-23-10c0.9,8.8,7.6,16.6,16.2,18.9c5.1,1.3,6.1,8.2,6.1,13.4
		C66.5,367.2,66.4,419,66.4,470h3.7c-0.2-49,0.3-98.6,1.5-147.8c0.1-6.8,0.5-14.4,5.1-19.5c3.3-3.7,8.1-5.6,12.3-8.1
		c4.1-2.5,8.1-6.6,7.8-11.5c-0.3-4.9-7.5-8.5-10.3-4.4c-3.8,5.5-8.8,10.3-14.5,13.7c-0.2-53,1-106.2,3.7-158.9c6.7,3.1,16-3.5,15-11
		c3.8,2.5,9.4,1.4,12.1-2.3c2.6-3.8,1.8-9.4-1.7-12.3c4.2-0.3,8-3.8,8.7-8c0.7-4.3-2-8.8-5.9-10.4c4.8,0.3,6.8-6.9,3.8-10.5
		c-3-3.6-8.5-4.1-13.1-3.7c3.4-3.7,3-10.1-0.8-13.2c-3.8-3.3-10.2-2.7-13.2,1.2c1.3-4.6-4.3-8.3-9-7.8c-4.7,0.3-8.8,3.1-13.5,3.9
		c-2.6,0.3-5.2,0.2-7.5,1.3c-6.3,2.6-7.4,11-6.2,17.7c-5.2-1-11,2-13.1,6.7C28.9,89.9,30.2,96.2,34.2,99.7z M64.7,300.6
		c-0.8,0.7-1.8,0.1-2.7-0.3c-4.7-2.5-8.5-6.2-11.2-10.6c-0.7-1.1-1.2-2.6-0.2-3.5c0.9-0.8,2.3-0.2,3.3,0.4
		c4.2,2.7,7.9,6.2,10.6,10.3C65.2,298.1,65.9,299.9,64.7,300.6z M89.3,281.6c0.3-0.2,0.7-0.5,1.1-0.5c0.8-0.1,1.4,0.7,1.5,1.4
		c0.1,0.8-0.2,1.5-0.5,2.2c-3.3,6.6-9.8,10.7-16,14.8c-0.5-0.3-1.1-0.5-1.6-0.9C78.4,292.3,83.6,286.6,89.3,281.6z M68.2,128.5
		c-2.3,1.7-5.1,3-8,2.9c-2.9-0.3-5.8-2.4-6-5.3c-0.2-1.5,1-3.3,2.4-3c3.9,0.5,7.7,1.2,11.6,1.7c0.3,0.1,0.7,0.2,1,0.5
		C70.2,126,69.3,127.8,68.2,128.5z M85,125c-0.1,2.2-1,4.7-3.1,5.5c-2.8,1.1-5.8-2.2-5.3-4.9c0.5-3,3.3-5.1,6.2-5.5
		c0.3-0.1,0.7-0.1,1,0c0.8,0.2,1,1.1,1.1,1.8C84.9,122.9,85.1,124,85,125z M98.6,118.7c-0.9,1-2.2,1.3-3.5,1.5
		c-2.6-0.2-4.9-2.5-5.1-5.2s1.3-5.2,3.7-6.5c1.1-0.8,2.6,0.5,3.4,1.7C98.9,112.8,100.5,116.4,98.6,118.7z M104.6,96.5
		c0.5,0.7,1,1.5,1,2.4c0,0.8-0.2,1.4-0.7,2.1c-1.3,2-3.7,3-6.1,2.5c-2.2-0.5-3.9-2.6-4.1-4.9c-0.1-2.3,1-4.5,2.4-6.2
		C100,92.5,102.8,94,104.6,96.5z M96.1,78.2c1.7-0.2,3.6,0,5.1,0.9c1.7,0.8,3.4,2.6,2.9,4.6c-0.2,1.7-2.1,2.9-3.8,3.4
		c-2.3,0.8-5,0.5-6.7-1.1c-1.8-1.5-2.4-4.7-0.7-6.3C93.7,78.7,94.9,78.4,96.1,78.2z M85.5,64.4c0.8-0.4,1.5-0.8,2.3-0.8
		c2.3-0.2,4.1,2,4.3,4.2c0.1,2.3-0.9,4.5-2.4,6.2c-0.5,0.5-1,1-1.5,1.3C86.7,76,85,75.2,83.8,74c-1.2-1.2-2.2-2.5-3.6-3.4
		C81.1,68.1,83.1,65.8,85.5,64.4z M69.4,58.4c0.5-0.4,1-0.8,1.6-0.8s1.1,0.5,1.5,1c1.8,2,2.7,4.7,2.6,7.4c0,1-0.2,2.1-1.1,2.6
		c-0.7,0.4-1.4,0.5-2.2,0.4c-2.6-0.1-5.5-1.4-6.2-4C65,62.4,67.3,60,69.4,58.4z M47.8,71.4c0.4-3.9,3-7.5,6.6-9.2
		c1.3,0.9,2.8,1.3,4,2.2c1.2,0.9,2.3,2.3,2,3.8c-0.2,1.4-1.6,2.4-2.8,3.1c-2,1.2-3.8,2.4-5.8,3.6c-0.5,0.3-1.1,0.7-1.6,0.7
		C48.3,75.7,47.5,73.3,47.8,71.4z M45.6,91.6c1-2.7,2.4-5.4,3.9-7.9c3.9-6.1,9.9-11.5,17-12.2c4.3-0.3,8.5,1,12.2,3.3
		c10.9,6.8,15,22.7,8.9,34.1c-1.5,2.9-3.7,5.5-6.3,7.6c-7.7,6.1-19.2,6.4-27.1,0.9C46.4,111.8,42.6,100.9,45.6,91.6z M46.2,115.4
		c0.3,0.5,0.7,1,0.7,1.5c0.1,2-2.8,2.6-4.7,2c-2.4-0.8-4.6-2.5-5.4-5c-0.9-2.4,0-5.4,2.3-6.7c0.7-0.2,1.4-0.4,2-0.1
		c0.3,0.2,0.7,0.7,0.9,1.1C43.4,110.6,44.7,112.9,46.2,115.4z M34.2,87.8c0.7-1.6,1.6-3,2.8-4.2c1.5-1.5,4.1-2.9,5.8-1.4
		c1.6,1.4,0.7,4-0.3,6.1c-1.4,3.4-2.3,6.9-2.3,10.5C35.5,97.8,32.6,92.2,34.2,87.8z"/>
	<path d="M206.4,180.8c-4.1-1.6-8.9-1-13.4-0.3c1.5-3.7,5-6.2,7.4-9.4c2.4-3.1,3.6-8.1,0.5-10.9c-3.1-2.8-7.9-1.1-11.7,0.9
		c-3.8,2-7.6,3.9-11.2,5.9c1-4.6,1.2-9.4,0.7-14.2c-0.2-1.6-0.5-3.4-1.5-4.7c-2.5-3.3-7.9-2.5-10.7,0.4c-2.8,3-3.7,7.2-4.5,11.2
		c-1.2-5.3-7.4-8.8-12.5-6.9c-5.1,1.7-7.7,8.5-5.2,13.2c-2.6-6.1-13.1-3.1-15,3.3c-1.8,6.5,1.7,13,5.1,18.8
		c-5.8-4.1-14.7,2.3-14.4,9.3c0.1,7.1,6.3,12.8,13,15.2c-5.9,3.3-12.7,8.3-12.1,15.1c0.7,5.6,6.5,9.4,12.2,9.8
		c5.6,0.3,11.1-2.2,16.2-4.5c-3.6,5.2-1.4,12.5,1.6,18c3,5.4,6.9,11.2,6.8,17.5c-1.8,67.1-2.8,134.6-3.2,201.6h4.2
		c0.5-59,1.1-117.4,1.5-176.1c0.2-19.1,0.7-39.3,10.4-55.8c3.9,5.6,9.4,12.1,16.1,10.2c4.9-1.4,7.3-7.2,6.7-12.2
		c-0.5-4.9-3.4-9.3-6.1-13.5c6.1-2.7,14.1,3.1,19.9-0.3c4.5-2.7,4.3-9.7,1.1-13.8c-3.3-4.2-8.5-6.1-13.4-7.8
		c4.7-4.7,14.4-3.1,17-9.2C213.8,187.4,210.5,182.4,206.4,180.8z M178.6,174.4c3.4-5.5,8.6-9.8,14.5-12.1c0.9-0.4,1.7-0.7,2.7-0.4
		c1.6,0.3,2.7,2.3,2.5,4c-0.2,1.7-1.2,3.4-2.3,4.7c-2.9,3.7-6.3,6.9-10,9.8c-2.4,1.7-5.9,3.1-7.9,1.1
		C176.3,179.7,177.3,176.5,178.6,174.4z M165.6,163.1c0.8-3.5,1.7-6.8,3.1-10c0.7-1.3,1.4-2.8,2.6-3.4c1.2-0.5,3.3,0.1,3.3,1.5
		c0.1,6.8-0.2,13.7-1,20.5c-0.2,1.7-0.8,3.9-2.4,4.3c-1.1,0.4-2.2,0-2.9-0.5C164.7,173,164.6,167.5,165.6,163.1z M149.5,156.1
		c0.7-0.8,1.5-1.4,2.4-1.3c0.9,0,1.4,0.5,2,1.2c2.6,3,4.1,6.7,5.5,10.4c0.7,1.8,1.3,3.8,1.3,5.8c-0.1,2-0.8,4.1-2.5,5.1
		c-1.5,1.1-4.2,0.7-5-1.2c-1.4-3.3-3.6-6.3-4.7-9.8C147.4,163,147.3,158.9,149.5,156.1z M133.3,174.8c-0.5-2.3-0.7-4.9,0.5-6.8
		c1.3-2.1,4.6-2.8,6-1c2.2,2.7,4.5,5.4,6.7,8.4c1.7,2.1,3.5,4.7,2.7,7.2c-0.9,2.6-4.2,3.9-5.1,6.6c-2.7,0.7-5-1.6-6.5-3.9
		C135.6,182,134.1,178.5,133.3,174.8z M126.6,203.7c-2.1-2.1-3.5-5.1-3-8c0.5-3,3.3-5.5,6.2-5.4c2.1,0,4.1,0.2,6,1.1
		c1.8,0.9,3.5,2.4,3.9,4.5c0.8,3.6-2.4,7.3-1.3,10.9c0.2,0.8-0.5,1.5-1.4,1.8c-0.9,0.3-1.7,0-2.6-0.3
		C131.5,207.2,128.8,205.7,126.6,203.7z M147.5,230c-4,2-8.3,4.2-12.7,4.6s-9.6-2.5-10-6.9c-0.3-4,3-7.4,6.3-9.7
		c1.4-1,2.9-2.1,4.6-2.8c1.1-0.4,2.7-0.9,3.1,0.2c1.4,3.3,2.8,6.5,5.4,8.8c1,0.7,2,1.4,2.7,2.4C147.8,227.6,148.2,228.9,147.5,230z
		 M162,249.1c-1,1.8-2.8,3.7-5,3.4c-0.8,0-1.4-0.4-2-1c-3.7-3.3-3.3-9-2.5-13.8c0.4-2.7,1.1-5.8,3.6-6.9c1.1-0.4,2.4-0.5,3.6-0.5
		c1.2,0,2.5-0.1,3.8-0.1c0.8-0.1,1.7,0,2.3,0.5c0.8,0.5,0.8,1.5,0.8,2.3C166.7,238.6,165,244.3,162,249.1z M162.1,227.6
		c-5.2,0.4-10.6-1.7-14.2-5.5c-2.3-2.6-3.9-5.9-4.8-9.2c-1.6-6.4-0.5-13.2,2.4-18.9c3.1-5.8,8.1-10.5,13.9-13.7
		c6.2-3.5,14.4,0.2,18.1,6.2c3.6,6.1,3.6,13.6,2.6,20.5c-0.7,4.7-1.8,9.4-4.7,13.4C172.4,224.4,167.4,227.2,162.1,227.6z M188.9,237
		c0.4,2.7,0.2,6.1-2.2,7.6c-1.6,0.9-3.7,0.7-5.3-0.3c-1.6-1-2.8-2.5-3.9-4c-1.7-2.5-3.1-4.9-4.6-7.6c-0.5-1.2-1.2-2.5-0.8-3.7
		c0.3-0.8,1-1.3,1.5-1.8c2-1.8,3.9-3.7,6-5.6c0.2-0.2,0.5-0.5,1-0.5c0.5,0,1,0.4,1.3,0.9C185.7,226.2,188,231.5,188.9,237z
		 M205.5,211.7c1.1,1.7,1.8,4,0.9,5.9c-1.3,2.9-5.3,3-8.3,2.5c-3.9-0.5-7.7-1.2-11.4-2.2c-2.1-0.4-3.3-2.7-3.4-4.8
		c-0.1-2.2,0.7-4.1,1.4-6.1c0.5-1.5,1.1-2.9,2.4-3.6c1.4-0.8,3.1-0.4,4.7,0C197.1,204.9,202.6,207.2,205.5,211.7z M205.6,192.8
		c-1.6,1.4-3.8,1.8-5.9,2.5c-3.1,0.9-6.2,1.7-9.2,2.2c-1.4,0.3-3.1,0.8-4.3-0.2c-2-1.4-1.1-4.6-2.3-6.6c-0.8-1.4-0.3-3.3,0.8-4.5
		c1-1.2,2.6-2.1,4.1-2.5c4.2-1.4,9-1.6,13.4-0.7c2.4,0.7,4.9,1.7,5.6,4C208.5,189.1,207.4,191.5,205.6,192.8z"/>
	<path d="M369.9,74.9c0.7-4.4-3.3-8.7-7.6-8.8c4.1-0.9,5.1-8.1,1.4-11.1c-3.8-3.1-9.7-2.4-14.7-1.5c5.2-2.6,6.3-11.1,1.5-14.7
		s-12.8,0.7-12.5,6.5c-1.5-5.3-3.8-10.6-6.4-15.6c-4.1,2.4-6.9,6.7-7.4,11.2c-2-2.9-5.1-5-8.6-5.6c-2.3,4.2-3.4,9-3,13.7
		c-1.7-1.2-2.1-3.8-3.5-5.5c-3.3-3.6-9.8,0.4-10.1,5.2c-0.3,4.8,3,8.9,6.2,12.5c-5.1-1.7-11.4-3.1-15,0.8c-2.8,3.1-2.2,8.3,0.3,11.5
		c2.5,3.3,6.4,5.3,10.1,7.2c-6.1-2.4-12.6,5.1-10.9,11.4c1.7,6.3,9.3,9.6,15.7,8.4c-6.5,1.2-6.9,12.1-1.2,15.4
		c5.8,3.4,13.6,0,17.3-5.6c2.4,46.6,2.4,93.3-0.2,139.9c-0.8-4.2-7.8-4.5-10.1-0.8c-2.4,3.8-1.1,8.7,1.3,12.4
		c2.4,3.6,5.6,6.7,7.4,10.7c1.7,4,1.8,8.7,2,13.1c1.6,61.5,3.2,122.6,4.9,184.6h3.9c-1.7-59-3.4-118.3-5.1-177.5
		c-0.2-9.7-0.2-20.4,6-27.9c2.7-3.1,6.5-5.6,8.8-9.2c2.4-3.6,2.8-9.1-0.8-11.4c-4.3-2.9-9.9,1.3-13.4,5.3c0.3-42.2,0.6-84.4,1-126.6
		c0.8,3.3,6.4,4.8,9.4,2.2c3.4-2.9,3.7-8,3.6-12.5c2,5,10.5,2.6,12.1-2.5c1.5-5.1-1.4-10.5-4.2-15.1c4.6,2,9.3,4,14.1,2.7
		c4.7-1.3,7.7-8.1,4-11.3c-2.6-2.2-7.7-2.7-7.4-6.1C363.1,82.7,369.2,79.7,369.9,74.9z M320.1,264.2c-1,0.1-1.6-0.8-2.2-1.5
		c-1.2-1.7-2.4-3.5-3.4-5.3c-0.9-1.3-1.5-2.5-1.4-4c0.1-1.5,1.4-2.9,2.8-2.6c0.7,0.2,1.2,0.7,1.6,1.2c2.3,2.4,3.7,5.6,4.1,8.9
		C321.9,262.2,321.5,264.2,320.1,264.2z M326.8,257.8c1.5-3.6,3.6-6.7,6.2-9.6c0.7-0.7,1.3-1.3,2.2-1.5c1.5-0.3,3,1.3,3.1,2.9
		c0.1,1.6-0.7,3.1-1.6,4.5c-1.7,2.7-4,5-6.7,6.8c-0.8,0.7-1.6,1.1-2.5,0.8C326.1,261.1,326.3,259.2,326.8,257.8z M361.3,57
		c1.2,0.4,1.5,2.4,0.8,3.5c-0.7,1.1-2,1.7-3.3,2.3c-2.5,1.1-4.9,2.1-7.4,3.1c-1.4,0.5-2.8,1.2-4.3,1.2c-1.5,0-3.3-0.7-3.8-2.1
		c-0.2-0.4-0.2-1-0.1-1.5c0.1-0.7,0.5-1.2,1-1.6C348.3,57,355.5,54.9,361.3,57z M336.9,53c2.5-5.2,6.2-9.9,10.6-13.4
		c1.1,0.4,1.8,1.6,2,2.8c0,1.2-0.3,2.4-0.8,3.5c-1.4,3.6-3.1,7.1-5.3,10.3c-1.3,2.2-3.9,4.3-6.1,2.9C335.4,57.9,336,55,336.9,53z
		 M329.7,35.6c1.5,0.5,2.1,2.4,2.3,4c0.8,4.9,0.9,9.8,0.5,14.7c-0.1,1.5-2.4,2.1-3.7,1.2c-1.2-1-1.5-2.7-1.6-4.2
		C326.8,45.9,327.6,40.5,329.7,35.6z M316.9,51.2c0.1-3.4,0.1-6.7,0.2-10.1c0.8-0.7,2.1,0.4,2.6,1.4c1.4,2.5,2.5,5.1,3.4,7.9
		c0.3,1.4,0.8,3,0.3,4.6c-0.3,1.5-1.7,2.9-3.3,2.8c-1.4-0.1-2.6-1.2-2.8-2.5C316.9,54.1,316.8,52.6,316.9,51.2z M304.1,50.6
		c-0.7-1.6-0.9-4.1,0.9-4.3c1.2-0.1,2,1,2.4,2c1.6,3.1,3.4,6.1,5.1,9.2c0.4,1,1.2,2.1,1.2,3.3c0.2,1.2-0.4,2.5-1.5,2.8
		c-1.8,0.7-3.5-1.5-4.2-3.5C306.7,56.8,305.4,53.7,304.1,50.6z M296.4,73.2c-1.5-1.4-3.1-2.7-3.9-4.7c-0.7-1.8-0.3-4.5,1.5-5.4
		c1.7-0.9,3.8-0.2,5.5,0.5c2.6,1.1,5.3,2.3,7.2,4.6c1.8,2.2,2.1,6-0.3,7.7c-1.4,1.1-3.6,1.1-5.4,0.4
		C299.3,75.6,297.8,74.4,296.4,73.2z M293.9,93.3c-0.8-0.4-1.5-1.1-1.7-2c-0.3-1.3,0.3-2.6,1.3-3.5c2.4-2.5,5.9-4,9.4-4.1
		c0.7-0.1,1.5,0,2.1,0.4c0.5,0.5,0.8,1.2,1,1.8c0.9,2.6,1.7,5.2,2.6,7.8c0.2,0.7,0.4,1.5-0.1,2c-0.3,0.2-0.7,0.3-1,0.3
		C302.9,96.9,297.8,95.9,293.9,93.3z M318.2,108.6c-2,1.5-3.8,2.8-5.9,4.1c-1.7,1-3.7,2.1-5.6,1.7c-2.1-0.2-3.8-2.5-2.8-4.2
		c1.6-3.1,3.4-6.4,6.2-8.3c2.8-1.8,7.1-2.2,9.6,0.2c0.7,0.7,1.1,1.4,1.2,2.3C321,106.1,319.6,107.6,318.2,108.6z M334.7,123
		c-1.8,0.5-3.4-1.5-4.1-3.4c-1.4-3.3-2.7-6.7-2.9-10.3c-0.1-2.2,0.4-4.6,2.2-6c1.6-1.3,4.8-0.9,5.3,1.3
		C336.7,110.6,336.6,117.1,334.7,123z M334.7,97.7c-5.5,4.5-14.5,3.1-19.4-2.2c-4.9-5.3-6.1-13.2-4.2-20.2c0.5-2.3,1.5-4.7,2.7-6.7
		c2.2-3.9,5.5-7.4,9.8-8.6c7.2-2.2,15,2.6,17.8,9.6c2.8,6.9,1.5,14.9-1.7,21.5C338.4,93.6,336.9,96,334.7,97.7z M348.5,107.7
		c0.3,1,0.5,2.1,0.2,2.9c-0.3,1-1.2,1.8-2.2,1.7c-0.9,0-1.4-0.7-2-1.2c-2.1-2.2-4-4.2-5-7.1c-1-2.7-0.4-6.2,2-7.9
		c0.4-0.2,0.8-0.4,1.2-0.3c0.5,0,1,0.5,1.1,1C346,100.2,347.6,103.8,348.5,107.7z M359.8,87c2.4,1.1,5.1,2.9,4.6,5.4
		c-0.4,1.4-1.8,2.3-3.5,2.4c-1.5,0.2-2.9-0.1-4.3-0.5c-1.4-0.5-2.9-0.9-4.5-1.3c-2.5-0.7-5.4-1.6-6.4-4.1c-0.5-1.5-0.1-3.5,1.1-4.6
		c1.2-1.2,3.1-1.5,4.7-0.9C354.3,84.6,357.1,85.8,359.8,87z M355.2,78.7c-3,0.5-6.7,0.8-8.1-2c-1.5-2.4,0.4-5.8,3-6.8
		c2.6-1.1,5.5-0.5,8.4-0.1c3.1,0.5,6.5,1.3,8.5,3.9c0.7,0.8,0.2,2-0.5,2.6c-0.8,0.5-1.8,0.9-2.8,1C360.7,77.8,358,78.2,355.2,78.7z"
		/>
	<path d="M214.2,340.6c5.3-2,10.4-4.6,14.9-7.9c-2.6,8-4.9,17.6,0.5,24c1.5,1.8,3.6,3.1,4.8,5.3c1.2,2.2,1.2,4.8,1.3,7.2
		c0.8,33.6,1.6,66.9,2.4,100.9h4c-0.7-32-1.5-64.3-2.2-96.4c-0.1-5.6,0-12,3.7-16.2c3.8-4.3,6.1-9.9,6.6-15.6
		c0.4-4.6,5.9-6.2,10.3-6.9c5.6-0.8,11.6-2,16-5.7c4.5-3.6,6.6-10.5,3.3-15.2c-4.6-6.4-14.5-4-21.8-6.8c1.8-2.6,3.7-5.4,5.5-8
		c2.2-3,4.2-6.3,5-10s-0.7-8-3.9-9.8c-2-1-4.2-1-6.4-0.4c-8.5,2.1-13.4,11-16.8,19.1c-3.7-2.5-5.5-7.4-9.6-10.2
		c-4.6-3.3-11.6-2.4-15.3,1.8c-3.6,4.2-3.4,11.3,0.5,15.3c1.5,1.6,3.7,2.7,4.9,4.7c1.2,1.8,1.1,5-1,5.9c-7.7,3.1-13.8,9.9-16.1,17.9
		c-0.5,2-0.8,4,0.2,5.8C206.7,342.1,211,341.6,214.2,340.6z M241.5,354.1c-1.1,1.7-2.9,3.6-5,3.1c-0.8-0.2-1.4-0.7-2-1.2
		c-4.7-4.8-4-12.6-2.1-19c0.7-2.2,2.4-4.7,4.5-3.9c3.3,1.2,6.8,1.6,10.4,1.2C247.3,341.4,245.3,348.3,241.5,354.1z M259.4,311.5
		c2.2,0,4.2,0.1,6.4,0.2c2.4,0.1,4.8,0.4,6.9,1.5c2.2,1.2,3.9,2.9,4.5,5.3c0.9,4.1-2.7,7.8-6.2,10c-3.3,2-6.9,3.4-10.6,4.2
		c-1.5,0.2-3.1,0.4-4.5-0.2c-1.3-0.7-2.3-2.4-1.5-3.7c1.7-3.4,3.6-6.9,2.7-10.5c-0.7-2.2-2-5-0.1-6.3
		C257.8,311.5,258.6,311.5,259.4,311.5z M246.4,295.5c2.6-5.8,7.1-10.6,12.5-13.6c0.4-0.2,0.9-0.4,1.3-0.4c0.8,0,1.4,0.3,2,0.9
		c2.1,1.8,2.6,4.9,2.2,7.6s-2,5.2-3.6,7.4c-2,2.7-4.1,5.2-6.5,7.6c-2.2,2.1-6.2,1.6-8.1-0.9C244.5,301.6,245.2,298.2,246.4,295.5z
		 M248.9,310.9c2.9,3.5,4.5,8.4,3.3,12.7c-1.1,4.5-5.3,8-9.9,7.8c-1.4-0.1-2.9-0.7-3.6-2c-0.7-1.3,0.5-3.4,2-2.9
		c2.7,0.8,6-0.9,6.9-3.5s-0.4-6.1-2.9-7.2c-2.5-1.1-6,0-7.4,2.4c-1,1.7-1,3.8-2,5.5c-1.2-0.1-2.2-1.2-2.3-2.4s0.2-2.4,0.7-3.5
		c1.2-3.3,3-6.3,6-8C242.4,308.3,246.7,308.4,248.9,310.9z M241.1,320.3c0.8-0.4,2,0.2,2,1.1c0,0.9-1.2,1.5-2,1.1
		C240.4,321.9,240.4,320.7,241.1,320.3z M221.9,304.8c-1.7-2.2-2.9-4.8-3.3-7.5c-0.3-2.7,0.7-5.6,2.8-7.4c2.2-1.7,5.5-1.8,7.5,0.2
		c3.4,3.5,6.2,7.6,8.5,11.8c0.5,0.8,0.9,1.6,0.9,2.5c-0.1,0.9-0.8,1.5-1.4,2.2c-2.1,1.8-3.9,3.8-6,5.8
		C227.4,310.7,224.3,308,221.9,304.8z M210.1,332.2c2.6-6.6,8-11.9,14.4-14.8c0.7-0.4,1.4-0.7,2.2-0.5c2.1,0.2,2.7,2.9,2.9,5
		c0.1,1.8,0.3,3.9-0.5,5.5c-0.4,1.1-1.4,2-2.3,2.7c-3.7,3.1-8,5.9-12.6,7.7c-1.1,0.4-2.3,0.8-3.3,0.3
		C209,337.2,209.3,334.3,210.1,332.2z"/>
</g>
<g>
</g>
<g>
</g>
<g>
</g>
<g>
</g>
<g>
</g>
<g>
</g>
<g>
</g>
<g>
</g>
<g>
</g>
<g>
</g>
<g>
</g>
<g>
</g>
<g>
</g>
<g>
</g>
<g>
</g>
</svg>
