<?xml version="1.0" encoding="utf-8"?>
<!-- Generator: Adobe Illustrator 18.1.0, SVG Export Plug-In . SVG Version: 6.00 Build 0)  -->
<!DOCTYPE svg PUBLIC "-//W3C//DTD SVG 1.1//EN" "http://www.w3.org/Graphics/SVG/1.1/DTD/svg11.dtd">
<svg version="1.1" id="Layer_1" xmlns="http://www.w3.org/2000/svg" xmlns:xlink="http://www.w3.org/1999/xlink" x="0px" y="0px"
	 width="800px" height="470px" viewBox="0 0 800 470" enable-background="new 0 0 800 470" xml:space="preserve">
<g>
	<path d="M114.2,273.2c-0.2,0.1-0.6,0.1-0.8,0.3c-0.8,0.6-1.5,1.2-2.2,1.8c-0.4,0.3-0.6,0.7-0.2,1.2c0.6,0.7,0.5,1.6,0.5,2.5
		c-0.1,1.4-0.1,2.8-0.8,4.1c-1.3,2.3-3.2,2.8-5.4,1.6c-0.6-0.3-0.6-0.9-0.4-1.3c0.4-1.1,0.6-2.1,0.6-3.2c0-0.6,0-1.1-0.1-1.6
		c-0.1-0.5-1.1-1.1-1.7-1.1c-0.6,0-1.3,0-2,0c-0.1,0.1-0.2,0.2-0.2,0.3c-0.5,2.3-1.5,4.4-2.3,6.6c-0.5,1.3-1.6,2-2.8,2.3
		c-1,0.2-2.3-0.2-3.2-0.8c-0.2-0.1-0.3-0.5-0.3-0.7c0.1-0.6,0.1-1.1,0.2-1.7c0.4-1.4,0.9-2.7,1.3-4c0.2-0.8,0.4-1.6-0.1-2.4
		c-0.5-0.6-1.3-0.6-1.7,0c-0.6,0.9-1.3,1.9-1.9,2.8c-0.6,0.8-1.2,1.5-1.8,2.3c-1.2,1.6-2.7,2.1-4.6,1.5c-1.8-0.5-1.8-0.5-2.5-1.2
		c0.5-0.7,0.9-1.5,1.3-2.3c0.6-1.2,1.3-2.4,1.8-3.6c0.1-0.1,0.1-0.3,0.2-0.4c0.6-0.3,0.5-0.9,0.4-1.4c-0.1-0.6,0-1.1,0-1.7
		c-0.7-0.2-1.1-0.1-1.4,0.3c-0.3,0.4-0.6,0.8-1,1.1c-0.9,1-1.6,2-2.7,2.8c-1.3,1-2.8,0.9-4.2,0.4c-0.4-0.1-0.8-0.3-1.1-0.4
		c-0.9-0.3-1.2-1-0.6-1.7c0.6-0.7,1.1-1.4,1.8-2c0.9-0.9,1.5-2,2-3.1c0.3-0.7,0.6-1.4,0.7-2.1c0.1-0.6-0.1-1.2,0.5-1.6
		c0.1-0.1,0.1-0.3,0.1-0.4c-0.2-1,0.2-1.5,1-1.9c0.2-0.1,0.4-0.2,0.6-0.3c0.8-0.4,1.4-0.9,1.3-1.9c-0.4-0.3-0.7-0.1-1.1,0
		c-1.7,0.2-3.4,0.5-5.2,0.7c-1-0.5-1.9,0.2-3-0.2c-0.9-0.3-2-0.4-3-0.6c-1.9-0.3-3.7-0.9-5.3-1.7c-0.3-0.2-0.7-0.2-1.1-0.3
		s-0.7-0.2-0.9-0.5c-0.5-0.5-0.9-0.9-1.6-0.9c-0.5,0-0.9-0.6-1.4-1c-0.3-0.2-0.7-0.5-1-0.7c-0.2-0.2-0.5-0.3-0.6-0.5
		c-0.5-0.7-1.1-1.4-2-1.8c-0.9-0.4-1.5-1.1-2.2-1.8c-0.8-0.7-1.7-1.4-2.3-2.3c-1.1-1.5-2.1-3.1-2.4-5c-0.1-0.5-0.3-1-0.4-1.4
		c-0.4-1.1-0.7-2.3-1.1-3.5c-0.1-0.3-0.3-0.6-0.5-0.9c-0.2-0.3-0.5-0.7-0.6-1c-1.1-0.6-2.2-1.1-3.4-1.6c-0.9-0.4-1.8-0.6-2.3-1.5
		c-0.1-0.2-0.4-0.3-0.6-0.3c-0.9,0.2-1.3-0.5-1.8-0.9c-1-0.9-2-1.7-2.8-2.7c-0.7-1.1-2-1.6-2.6-2.8c-0.2-0.3-0.5-0.6-0.7-0.9
		c-1.2-1.4-1.9-2.9-2.1-4.7c-0.1-0.3-0.2-0.6-0.3-1c-0.1-0.3-0.2-0.7-0.1-1c0.3-1.3,0.3-2.6,0.9-3.8c0.2-0.5,0.4-1,0.7-1.5
		c1-1.2,1.6-2.6,2.3-4c0.3-0.7,0.7-1.3,1.1-1.9c0.8-1.1,1.5-2.3,2.4-3.4c0.6-0.8,1.4-1.6,2.1-2.3c1.1-1.1,2.3-2.2,3.5-3.2
		c0.8-0.7,1.6-1.3,2.7-1.5c0.2-0.1,0.3-0.2,0.5-0.3c0.2-0.1,0.3-0.3,0.5-0.4c1.3-0.5,2.4-1.3,3.6-1.9c0.5-0.2,1-0.3,1.8-0.6
		c-0.4-0.2-0.6-0.4-0.7-0.5c-0.7-0.2-1.4-0.2-1.9-0.9c-0.1-0.2-0.4-0.2-0.6-0.2c-1.1-0.4-2.3-0.8-3.4-1.1c-1.3-0.3-2.6-0.6-3.8-1
		c-0.3-0.1-0.7-0.2-1.1-0.3c-0.1-0.1-0.3-0.2-0.4-0.2c-1.4,0.2-2-1.1-3.1-1.6c-0.7-0.4-1.1-1.2-1-1.9c0.1-0.8,0.6-1.4,1.6-1.5
		c1-0.2,2-0.3,3.1-0.4c1.1,0,1.9,0.5,2.9,0.7c1.7,0.6,3.3,1.5,5.2,1.6c0.4,0.1,0.8,0.3,1.2,0.4c0.9-1.4,1.8-2.8,2.6-4.3
		c0.9-1.8,2-3.2,3.2-4.7c1.4-1.7,2.7-3.5,4.6-4.7s3.8-2.6,6-3.1c0.7-0.2,1.4-0.2,2.2-0.3c1.2-0.2,2.4-0.4,3.6-0.6
		c1.1-0.2,2.3-0.4,3.5,0.2c0.4,0.2,1,0.1,1.5,0.2c0.9,0.3,1.5,0.9,2.5,0.9c1,1,2.3,1.7,3.1,3c0.5,0.9,1.1,1.8,1.5,2.8
		c0.3,0.9,0.6,1.8,0.7,2.7c0.4,2.2,0.7,4.4,0.6,6.6c-0.1,1.6-0.3,3.2-0.7,4.8c-0.3,1.1-0.7,2.2-1.1,3.3c-0.1,0.2-0.2,0.5-0.2,0.6
		c-0.1,0.5,0,0.8,0.5,1c0.8,0.4,1.5,0.9,2.3,1.3c0.2,0.1,0.5,0,0.7,0.1c0.2,0,0.5,0,0.7,0.1c1.4,0.9,3,1.2,4.6,1.5
		c1.8,0.4,3.6,0.8,5.3,1.4c1,0.3,2,1.1,2.9,1.8c0.8,0.6,0.6,1.6,0.4,2.4c-0.2,0.7-0.9,1.1-1.6,1.3c-1.6,0.5-3.1-0.1-4.5-0.3
		c-1.4-0.2-2.8-0.6-4.1-1c-0.7-0.2-1.3-0.3-2-0.5c-1.5-0.5-3-0.3-4.7-0.8c0.6,1.4,1.1,2.6,2,3.5c0.3,0.3,0.5,0.6,0.7,1
		c0.7,1.4,1.6,2.7,2.2,4.1c0.6,1.4,1.5,2.4,2.2,3.6c0.2,0.4,0.4,0.8,0.6,1.2c0.1,0.1,0,0.3,0.1,0.3c0.9,0.7,1.2,1.9,1.9,2.8
		c0.7,0.8,1.3,1,2.2,0.3c1.1-0.7,2.4-1.2,3.7-1.5c-0.3-1.7-0.1-2.3,1.2-3c0.3-0.2,0.7-0.1,1.1-0.2c1.1-0.2,2,0.2,3.1,0.4
		c1,0.2,2.1,0.2,3.1,0.3c1.5,0.2,3,0.3,4.4,0.5c1.4,0.2,2.9,0.2,4.3,0.5c2.4,0.6,4.7,1.5,6.1,3.7c0.5,0.9,1,1.7,1.4,2.6
		c0.5,0.2,0.9,0,1.2-0.3c0.4-0.3,0.9-0.6,1.1-1c0.7-1.1,1.8-1.6,2.7-2.5c1.1-1.1,2.2-2.2,3.4-3.4c0.5-0.5,1.1-1,1.6-1.6
		c1-1.2,2-2.4,3.1-3.7c0.2-0.2,0.3-0.6,0.6-0.7c1-0.6,1.9-1.5,2.7-2.4c1.3-1.4,2.7-2.8,3.9-4.3c1.4-1.6,2.6-3.4,3.9-5
		c0.5-0.6,1-1,1.5-1.5c1.4-1.4,2.7-2.8,4-4.2c1.4-1.5,2.8-3.1,4.3-4.5c1.9-1.7,3.9-3.3,5.8-4.9c2-1.7,4.1-3.4,6.1-5.1
		c0.7-0.6,1.5-1.1,2.3-1.7c1.9-1.4,3.8-2.7,5.6-4c1.2-0.9,2.4-1.6,3.5-2.4c0.9-0.6,1.8-1.3,2.7-1.9c0.1-0.1,0.2-0.1,0.2-0.1
		c0.5-0.7,1.2-1,1.9-1.3c1.5-0.7,2.8-1.6,4.3-2.4c0.8-0.5,1.6-0.7,2.5-1.1c2.7-1.3,5.4-2.6,8.2-3.7c1.8-0.7,3.6-1.3,5.4-1.8
		c2.8-0.7,5.5-1.5,8.4-2.1c2-0.4,3.9-1,5.9-1.2c2.2-0.2,4.3-0.6,6.5-0.9c1.8-0.2,3.7-0.2,5.5-0.4c1.4-0.2,2.8-0.1,4.3-0.1
		c2,0,4,0.3,5.9,0.5c0.7,0.1,1.4,0,2.1,0c0.6,0.1,1.3,0.2,1.9,0.2c0.8,0.1,1.5,0.2,2.3,0.4c0.5,0.1,1,0.2,1.5,0.2
		c1.1,0.2,2.2,0.5,3.3,0.7c1.4,0.3,2.8,0.4,4,1c1.4,0.7,2.8,0.7,4.1,1.5c1.3,0.7,2.6,1.3,3.9,1.8c1.1,0.5,2.3,0.8,3.5,1.3
		c0.6,0.2,1.1,0.6,1.8,0.9c0.7,0.3,1.5,0.6,2.2,0.9c1.5,0.5,2.6,1.5,3.9,2.3c1.2,0.7,2.2,1.6,3.5,2.2c0.8,0.3,1.4,1,2.1,1.5
		c1.3,0.9,2.7,1.6,4,2.6c2.2,1.6,4.2,3.4,6.3,5.1c2.4,1.9,4.7,3.9,6.8,6c1.5,1.4,3,2.8,4.4,4.3c1.3,1.5,2.7,2.8,4.1,4.2
		c1.2,1.1,2.3,2.2,3.5,3.2c0.3,0.3,0.6,0.4,1,0.3c1.4-0.1,3.7,1.3,4.3,2.6c0.4,0.8,0.1,1.5-0.2,2.2c1.3,1.3,2.6,2.6,3.9,3.9
		c1.8,1.9,3.6,3.8,5.5,5.7c1.4,1.4,2.8,2.7,4.1,4.1c1.2,1.3,2.3,2.6,3.4,3.8c0.9,1,1.8,1.8,2.7,2.7c1.6,1.6,3.2,3.2,4.9,4.7
		c0.9,0.8,1.8,1.5,2.7,2.2c0.7,0.6,1.4,1.3,2.2,1.8c0.1,0.1,0.3,0.2,0.5,0.3c0.7,0.4,1.5,0.8,2.2,1.1c1,0.5,2.1,1,3.2,1.4
		c0.6,0.2,1.3,0.1,1.9,0.1c1.6-0.1,3.2-0.2,4.8-0.4c1.2-0.1,2.1,0.4,2.9,1.3c0.3,0.3,0.6,0.5,0.9,0.8c0.8,0.9,1,1.9,0.9,3.1
		c-0.1,0.9-0.3,1.7-0.7,2.5c-0.7,1.6-1.4,3.2-2.3,4.8c-0.5,0.9-0.9,1.6-1.1,2.6s-1.3,1.4-2,2c-0.3,0.2-0.7,0.4-1,0.6
		c-0.4,0.3-0.7,0.6-0.9,1.1c-0.2,0.6-0.6,1.1-1,1.5c-1.1,1.1-2.3,2.2-3.5,3.2c-0.3,0.3-0.6,0.6-0.8,1c-0.7,1.4-2,2.2-3.2,3
		c-0.8,0.5-1.5,1.1-2.2,1.8c-0.5,0.5-0.3,1.1,0,1.6c0.3,0.6,0.6,1.1,0.9,1.7c0.1,0.2,0.2,0.3,0.3,0.4c0.9,0.7,1.8,1.4,2.7,2.2
		c0.1,0.1,0.2,0.2,0.3,0.2c1.4,0.9,2.8,1.7,4.3,2.5c0.8,0.4,1.7,0.6,2.6,1c0.7,0.2,1.4,0.5,2,0.7c0.9,0.2,1.8,0.5,2.6,0.7
		c1.9,0.5,3.9,0.4,5.9,0.3c0.8-0.1,1.4,0.2,1.9,0.7c1.1,1.1,2.1,2.2,2.1,3.8c0,0.9,0,1.9-0.2,2.8c-1,3.5-2.8,6.4-5.6,8.6
		c-1.4,1.1-3,2.2-4.9,2c-0.7,0-1.3-0.2-2.2-0.3c-0.7,0.3-1.5,0.9-2.4,1.3c-1.3,0.6-2.6,1.1-4,1.6c-1.5,0.5-3,0.9-4.5,1.2
		c-1.7,0.3-3.5,0.4-5.2,0.1c-0.9-0.2-1.9-0.1-2.8-0.2c-2.7-0.6-5.5-1.2-8.2-1.8c-0.9-0.2-1.9-0.3-2.8-0.6c-1.5-0.5-3-1-4.4-1.8
		c-1.5-0.8-3-1.7-4.3-2.7c-1.7-1.2-3.6-2.3-5.1-3.9c-0.3-0.4-0.9-0.7-1.3-1c-0.3-0.3-0.7-0.7-1-1c-0.7-0.9-0.8-1-1.9-0.5
		c-1.5,0.6-2.9,1.4-4.4,1.9c-1.6,0.7-3.4,1.2-5,1.9c-2,0.9-4.2,1.2-6.4,1.7c-1.5,0.3-3,0.9-4.5,1.3c-1.1,0.3-2.3,0.6-3.4,0.9
		c-1.7,0.5-3.4,1-5.1,1.5c-1,0.3-2,0.5-3.1,0.7c-2.8,0.6-5.6,1.4-8.4,1.7c-2.6,0.3-5.1,1-7.6,1.4c-2.2,0.3-4.4,0.5-6.5,0.9
		c-1.4,0.2-2.8,0.3-4.2,0.4c-1.4,0.1-2.8,0.5-4.1,0.7c-1,0.2-2,0.3-3.1,0.3c-2.4,0.2-4.9,0.4-7.4,0.5c-1.1,0.1-2.3-0.1-3.4-0.1
		c-1.2,0-2.3,0.2-3.5,0.2c-1.6,0.1-3.4,0.1-5,0.1c-1.8,0-3.7-0.2-5.5-0.1c-1.3,0.1-2.6-0.1-3.8-0.2c-1.5-0.1-3,0-4.4-0.1
		c-1.3,0-2.5-0.1-3.8-0.1c-1.6,0-3.2,0.1-4.8,0.1c-1.4,0-2.9-0.1-4.3-0.2c-1.7-0.1-3.4-0.2-5.1-0.4c-1.8-0.2-3.6-0.5-5.5-0.6
		c-1.9-0.1-3.7-0.5-5.5-0.7c-0.7-0.1-1.5,0-2.3-0.1c-2.3-0.3-4.6-0.6-6.9-0.9c-1.5-0.2-3-0.5-4.5-0.7c-0.7-0.1-1.5-0.3-2.2-0.5
		c-2-0.3-4-0.4-5.9-1c-1.4-0.4-2-0.1-2.9,1c-0.7,0.9-1.4,1.6-1.4,2.8c0,0.2-0.1,0.6-0.3,0.7c-0.7,0.8-1.2,1.8-2,2.6
		c-1.8,1.8-3.6,3.6-5.8,4.9c-2.4,1.5-4.8,3.1-7.5,4c-1.5,0.6-3,1.3-4.5,1.8c-1.8,0.6-3.6,1.1-5.5,1.6c-1.4,0.3-2.8,0.6-4.2,0.9
		c-1.6,0.2-3.2,0.4-4.8,0.6c-2.3,0.3-4.5-0.1-6.7-0.3c-1.2-0.2-2.4-0.7-3.6-1c-0.7-0.2-1.5-0.5-2.2-0.8c-2.3-1.1-4.2-2.7-5.6-4.9
		c-0.3-0.6-0.6-1.1-0.6-1.8c-0.1-1.1-0.5-2.2-0.3-3.4c0.2-1.3,0.5-2.3,1.6-3c1.3-0.7,2.6-1.5,3.8-2.3c0.8-0.5,1.6-1.2,2.4-1.7
		c1.7-1.1,3.5-2,5.1-3.1c1-0.6,1.8-1.5,2.7-2.3c1-0.8,1.9-1.7,3.1-2.4c1.5-1,2.8-2.2,4.3-3.3c0.1-0.1,0.2-0.2,0.3-0.3
		c0.9-1,0.7-1.1-0.4-1.6c-1.4-0.7-2.7-1.4-3.9-2.3c-0.5-0.3-0.8-0.7-1.3-0.9c-1-0.5-1.8-1.3-2.6-1.9c-0.4-0.3-0.7-0.6-1.1-0.9
		C116,274.6,115.1,273.9,114.2,273.2z M210.2,166.2c-0.3,0.5-0.5,1.1-0.9,1.6c-0.9,1.1-1.8,2.1-2.6,3.1c-1.5,1.8-3,3.6-4.4,5.5
		c-1.1,1.5-2.2,3.1-3.3,4.6c-0.3,0.5-0.3,1,0,1.5c0.4,0.7,0.7,1.5,1,2.3c0.5,1.1,0.9,2.2,1.4,3.2c1,1.9,2,3.7,3.1,5.5
		c0.6,1.1,1.2,2.2,1.9,3.2c1.3,2,2.6,4.1,3.9,6.2c0.5,0.9,1,1.6,1.8,2.2c1.4,1.3,3.1,2.1,4.9,2.6c2.4,0.6,4.8,0.8,7.2,0.7
		c1-0.1,2.1-0.2,3.1-0.2c2.5,0.2,4.9,0.3,7.4,0.6c1.1,0.1,2.1,0.3,3.2,0.1c0.6-0.1,1.3-0.2,1.9-0.2c1.1-0.1,2.2,0,3.2-0.1
		c0.6-0.1,1.2-0.2,1.8-0.3c0.7-0.2,1.4-0.5,2.1-0.5c1.1-0.1,2-0.5,2.8-1.1c0.9-0.6,1.6-1.3,2.4-1.9c2.4-1.9,4.1-4.4,5.8-7
		c0.5-0.7,0.9-1.4,0.7-2.3c-0.1-0.4,0.2-0.8,0.3-1.2c0.2-0.4,0.3-0.7,0.5-1.1c0.7-1.7,1.5-3.4,2.3-5.1c0.7-1.4,1.5-2.6,1.9-4.1
		c0.3-1.2,1-1.8,2.1-1.9c0.5-0.1,1,0.1,1.5,0.3c1.9,0.7,2.6,2.4,1.7,4.3c-0.2,0.3-0.4,0.6-0.6,1c-0.9,1.5-1.8,3.1-2.6,4.7
		c-0.7,1.4-1.3,2.8-2.7,3.8c-0.4,0.3-0.6,0.6-0.6,1.1c0,0.9,0,1.8-0.2,2.7c-0.4,1.3-0.7,2.6-1.7,3.7c-0.3,0.4-0.4,0.7,0,1.2
		c0.9,1,1.1,2.2,0.6,3.5c-0.1,0.2-0.1,0.5-0.1,0.8c-0.1,1.8,0.2,3.6,0.9,5.3c0.5,1.3,1.1,2.4,2.4,3c1.4,0.7,2.8,1.3,4.2,2
		c1.9,1,3.9,1.3,5.9,1.3c1.7,0.1,3.4,0.2,5.1,0.5c1.8,0.3,3.5,1,5.3,1.3c1.5,0.3,3.1,0.5,4.7,0.7c0.4,0.1,0.8,0.1,1.3,0.1
		c1.8,0,3.5-0.1,5.3,0c2.1,0.1,3.8-0.6,5-2.3c0.2-0.2,0.3-0.5,0.2-0.7c-0.4-1,0.3-1.5,0.7-2.1c0.2-0.2,0.6-0.3,0.9-0.3
		c0.7,0,1.1-0.2,1.5-0.9c0.3-0.6,0.7-1.1,1-1.6c1-1.3,2.1-1.5,3.6-0.7c0.5,0.3,1,0.6,1.5,0.9c0.1,0.7,0.3,1.5,0.5,2.4
		c0.3,0,0.7,0,1,0c3.1,0,6.3,0,9.4,0c1,0,2-0.2,3.3-0.3c-2.7-3-5.3-5.7-7.8-8.4c-0.4-0.4-0.9-0.7-1.4-1.1c-0.2,0.2-0.3,0.5-0.4,0.6
		c-0.4,0.4-0.7,1-1.2,1.1c-1.1,0.5-2.4,0.9-3.5-0.2c-0.1-0.1-0.1-0.1-0.2-0.1c-0.9-0.5-1-0.7-0.7-1.8c0.4-1.3,0.7-2.6,1.1-3.9
		c0.1-0.4,0.1-0.7-0.2-1c-0.5-0.4-0.9-0.8-1.3-1.3c-1.4-1.4-2.8-2.7-4.3-4.1c-1.4-1.4-2.8-2.8-4.1-4.1c-0.9-0.9-1.8-1.8-2.7-2.7
		c-1-1-2.1-1.9-3.1-3c-0.9-0.9-1.5-1.8-2.4-2.6c-1.5-1.4-3.2-2.7-4.8-4c-0.2-0.1-0.3-0.2-0.5-0.3c-0.9-0.6-1.8-1.1-2.6-1.7
		c-0.9-0.6-1.8-1.3-2.8-1.9c-0.6-0.4-1.3-0.6-1.8-1.1c-1.5-1.3-3.4-1.9-5.1-3c-0.7-0.5-1.4-0.9-2-1.2c-1.2-0.6-2.3-1.2-3.6-1.7
		c-0.5-0.2-1-0.8-1.8-0.6c0.1,0.3,0,0.7,0.1,1c0.6,1.4,0.3,2.8,0.1,4.3c-0.1,0.6-0.3,1-1,1c-0.2,0-0.3,0.1-0.5,0.1
		c-1.7,0.5-3-0.1-3.6-1.8c-0.3-1.1-0.6-2.2-1-3.2c-0.5-1.4-1-2.8-1.7-4.1c-0.3-0.6-0.4-1.3-1.2-1.5c-1.7-0.4-3.4-0.9-5.1-1.3
		c-1.7-0.4-3.4-0.9-5.1-1.1c-2.6-0.4-5.1-0.6-7.7-0.9c-1.3-0.1-2.6-0.2-3.9-0.2c-0.8-0.1-1.6-0.1-2.4-0.1c-2.2-0.1-4.4,0.2-6.5,0.4
		c-1.4,0.1-2.8,0.4-4.3,0.5c-2.6,0.2-5.1,0.7-7.6,1.5C214.4,165,212.4,165.6,210.2,166.2z M203.4,248.9c0.4-1.6,0.7-3.1,1.1-4.5
		c0.2-0.9,0.4-1.7,0.6-2.6c0.4-1.8,0.9-3.6,1.3-5.4c0.2-1.1,0.2-2.3,0.2-3.5c0-0.9,0.2-1.6,0.6-2.4c0.9-1.7,2.1-3.1,2.7-5
		c0.1-0.4,0.6-0.7,0.9-1c1.5-1.2,3-2.3,4.4-3.5c0.2-0.1,0.3-0.3,0.3-0.4c-0.8-2.8-1.5-5.5-2.3-8.1c-0.9-0.3-1.5-0.6-2.2-0.7
		c-1.5-0.3-2.8-1-4.1-2c-1-0.9-1.3-2.2-2.2-3.1c-0.1-0.1-0.1-0.2-0.1-0.3c0-1.1-0.7-2-1.2-2.9c-0.2-0.3-0.3-0.6-0.5-0.9
		c-0.6-1-1.3-2-1.9-3c-0.3-0.4-0.6-0.6-1.1-0.5c-1.4,0.2-2.8,0.4-4.2,0.9c-2.8,1.1-5.7,2.1-8.5,3.2c-1.7,0.7-3.4,1.5-5.1,2.4
		c-0.8,0.4-1.5,0.8-2.4,0.9c-0.9,0.1-1.8-0.3-2.4-0.7c-0.7-0.5-1.2-1.3-1.7-2c-0.5-0.6-0.3-1.5,0.4-1.9c0.9-0.5,1.8-0.9,2.7-1.4
		c0.5-0.2,1.1-0.3,1.6-0.6c0.6-0.2,1.3-0.6,1.9-0.8c3.1-1.2,6.1-2.4,9.3-3.5c1.8-0.6,3.5-1.2,5.4-1.4c0.3,0,0.6-0.1,1-0.2
		c-0.7-1.2-1.3-2.3-1.8-3.3c-0.3-0.5-0.7-0.7-1.3-0.8c-0.5,0-0.9-0.3-1.4-0.5c-0.2-0.1-0.5-0.3-0.7-0.4c-0.6-0.1-0.8-0.5-1-0.9
		c-0.4-1-0.7-1.9-1.1-2.8c-1-2.5-2.1-4.9-3-7.5c-0.6-1.5-0.8-1-1.6-0.5c-0.1,0.1-0.2,0.1-0.3,0.2c-1.4,0.9-2.7,1.9-4,2.7
		c-1.6,1-3.1,2.3-4.7,3.6c-1.1,0.9-2.2,1.8-3.3,2.6c-1.2,0.9-2.4,1.8-3.6,2.7c-1,0.7-1.8,1.6-2.8,2.4c-1.3,1.1-2.6,2.2-3.9,3.4
		c-1.8,1.7-3.5,3.5-5.2,5.3c-1.2,1.3-2.4,2.4-3.4,3.8c-1.2,1.7-2.5,3.3-4,4.7c-0.2,0.2-0.3,0.6-0.2,0.9c0.5,1.3,1.1,2.4,2.5,2.9
		c1,0.3,1.9,0.7,2.8,1.1c0.8,0.3,1.4,1.4,0.9,1.9c-0.5,0.5-1.1,1.1-1.8,1.2c-1,0.2-2.2,0.2-3.1,0c-1.4-0.3-2.8-0.9-4-1.8
		c-0.5-0.4-1-0.7-1.6-1.1c-0.3,0.4-0.5,0.7-0.7,1c-0.7,0.8-1.4,1.8-2.2,2.4c-1.1,0.9-2.1,1.8-2.8,3c-0.1,0.2-0.3,0.4-0.5,0.6
		c-0.6,0.6-1.3,1.2-1.8,1.8c-0.3,0.3-0.6,0.7-1,1c-0.9,0.5-1.3,1.4-1.8,2.1c1.4,0.8,1.6,1.3,1.9,2.6c0.2,1.1,0.4,2.2,0.9,3.1
		c1.1,2.3,2.6,4.4,4.3,6.3c0.3,0.4,0.8,0.5,1.3,0.4c0.9-0.1,1.7-0.3,2.6-0.5c1.9-0.3,3.8-0.7,5.7-1c0.8-0.1,1.6-0.2,2.4-0.3
		c-0.1-1.3-0.9-2.1-1.4-3c-0.6-1.1-0.7-2.1-0.2-3.1c1.7-3.4,3.7-6.6,5.7-9.8c1.3-1.9,2.6-3.8,4-5.6c1.3-1.8,2.7-3.4,4-5.1
		c0.4-0.5,0.9-0.7,1.5-0.7c1.2,0.1,2.4,0.4,3.5,1c0.2,0.1,0.4,0.3,0.6,0.5c0.6,0.7,0.6,1.6,0.1,2.4c-0.4,0.5-1,1-1.4,1.5
		c-1.4,1.6-2.7,3.4-4.1,5.1c-1,1.2-1.9,2.4-2.8,3.7c-1,1.4-1.8,2.8-2.7,4.3c-0.3,0.6-0.8,1.1-1,1.8c-0.4,1-0.9,2-0.4,3.1
		c0.3,0.6,0.3,1.3,0.5,1.9c0.1,0.6,0.4,1.2,0.7,1.8c0.1,0.2,0.4,0.3,0.6,0.4c0.7,0.1,1.4,0.1,2,0.1c1.6,0,2.7,1,3.8,2
		c0.2,0.2,0.4,0.6,0.3,0.8c-0.1,0.8-0.3,1.5-0.6,2.3c-0.1,0.4-0.5,0.7-0.7,1c0.1,0.1,0.1,0.2,0.2,0.3c2.5,2,4.7,4.5,7.3,6.5
		c1.7,1.3,3.5,2.5,5.6,3.3c1,0.4,2,0.7,3,1c1.1,0.4,2.2,0.9,3.3,1.2c0.7,0.2,1.6,0.4,2.3,0.3c2.3-0.3,4.5-1.2,6.4-2.5
		c1.8-1.3,3.5-2.5,5.3-3.8C200.9,247.9,202,247.8,203.4,248.9z M335.8,257.6c0-0.2,0.1-0.3,0.1-0.4c0.5-2.2,1-4.4,1.4-6.5
		c0.6-3.1,1.1-6.2,1.3-9.4c0.1-1-0.1-1.9-0.4-2.8c-0.2-0.7-0.5-1.4-0.5-2.1c0-1.5-0.6-2.6-1.5-3.7c-0.7-0.9-1.6-1.6-2.3-2.5
		c-1.1-1.5-2.2-3.1-3.6-4.4c-0.7-0.6-1.4-1.3-2.4-1.5c-0.6-0.1-1.1-0.2-1.6-0.5c-1.4-0.7-2.9-0.8-4.4-0.7c-1.9,0.1-3.9,0.1-5.8,0.2
		c-2.2,0-4.3,0-6.5,0c-0.9,0-1.6-0.1-2.3,0.7c-0.2,0.2-0.5,0.4-0.8,0.5c-1,0.2-1.5,1-2,1.7c-0.7,1-1.6,1.7-2.8,2
		c-2.6,0.7-5.3,0.9-8,0.7c-1.3-0.1-2.7,0-4-0.2c-2.7-0.4-5.3-0.9-8-1.4c-1.2-0.2-1.4,0.1-1.4,1.3c0.1,2.2,0.5,4.4,0.1,6.6
		c-0.1,0.6,0.1,1,0.7,1.1c0.2,0.1,0.4,0.3,0.7,0.5c-0.5,0.9-0.8,1.6-1.3,2.3c-0.7,0.9-1,1.8-1.3,2.7c-0.2,0.8-0.4,1.6-1,2.3
		c-0.1,0.1-0.2,0.3-0.2,0.5c-0.2,0.7-0.5,1.4-1.1,1.9c-0.2,0.1-0.3,0.5-0.3,0.7c-0.4,2.7-0.2,5.3,0.1,8c0.2,1.3,0.5,2.4,0.8,3.6
		c0.2,0.6,0.3,1.3,0.6,1.8c0.3,0.6,0.7,1.3,1,1.9c0.4,0.9,1,1.4,1.6,2c0.3,0.2,0.5,0.5,0.8,0.6c1.7,1,3.4,2.2,5.2,3.1
		c2.4,1.1,5.1,1.6,7.5,2.9c1.4,0.8,3,1.2,4.3,2.2c0.7,0.6,1.5,1,2.3,1.4c1.2,0.8,2.3,1.7,3.1,3c0.8-0.4,1.6-0.8,2.4-1.2
		c3.1-1.4,6.1-2.6,9.2-4c2.4-1.1,4.7-2.6,6.9-3.9c0.9-0.5,1.6-1,2.4-1.4c1.3-0.7,2.6-1.3,3.8-2c2.6-1.5,5.1-3,7.6-4.5
		c1.8-1.1,3.6-2.4,5.2-3.8c1.9-1.6,3.9-3.2,5.6-5.2c1.6-1.8,3.5-3.4,5.3-5.1c2-1.8,3.3-4,4.1-6.5c0.2-0.6,0-0.8-0.6-0.7
		c-0.9,0.1-1.6,0.2-2.5,0.3c-0.4,0.1-0.9,0.2-1.3,0.1c-1.1-0.2-2.2-0.5-3.3-0.9c-1.2-0.3-2.3-0.8-3.5-1.2c-0.3,1.3-0.9,2.4-0.9,3.7
		c0,1.3-0.5,2.6-0.6,3.8c-0.3,2.2-0.8,4.4-1.4,6.5c-0.3,0.9-0.7,1.8-1,2.6c-0.8,1.8-1.7,3.5-4,3.7c-0.2,0-0.5,0.1-0.7,0.2
		C336.6,258.2,336.2,258,335.8,257.6z M254.7,210.4c-1.3,0.8-2.4,1.4-3.5,2.1c-1.4,1.1-3,1.5-4.8,1.6c-1.4,0.1-2.8,0.3-4.3,0.2
		c-1.2-0.1-2.4,0.4-3.6,0.2c-0.2-0.1-0.4,0.1-0.6,0.1c-0.5,0.1-1.1,0.2-1.6,0.1c-1-0.1-2-0.2-3.1-0.2c-0.4,0-0.9-0.1-1.2,0.1
		c-1.4,0.7-2.7,1.4-3.9,2.2c-0.9,0.6-1.5,1.3-2.3,1.9c-1.1,0.9-2.2,1.8-3.4,2.7c-1.9,1.5-3.8,3-5.7,4.5c-0.3,0.3-0.7,0.7-0.7,1.1
		c-0.1,1.6-1.4,3-0.9,4.6c-0.6,1.2-0.1,2.4-0.3,3.6c-0.2,0.6-0.1,1.2,0.1,1.8c0.2,0.6,0.6,1.1,0.7,1.6c0.2,1.4,0.9,2.7,1.4,4
		c1.5,3.8,2.7,7.7,4.7,11.3c0.3,0.6,0.7,1.2,1.1,1.7c0.8,1,1.8,1.8,2.4,2.8c0.9,1.5,2.2,1.9,3.7,2c1.6,0.2,3.2,0.3,4.8,0.5
		c1.5,0.2,3,0.3,4.4,0.7c0.8,0.3,1.8,0.2,2.7,0.2c0.9,0,1.8-0.2,2.7-0.3c2-0.1,3.9,0.1,5.9-0.2c3.6-0.5,7-1.3,10.3-2.5
		c1.5-0.6,3-1.1,4.4-1.9c1.3-0.7,2.5-1.6,3.7-2.4c0.7-0.5,1.4-0.7,2.1-0.2c0.3,0.1,0.6,0.1,0.9,0.2c0-2.3,0-4.5,0-6.8
		c0-3.5,1.1-6.5,3.2-9.2c0.2-0.3,0.4-0.7,0.5-1.1c0.3-2.1,0.6-4.2,0.4-6.4c-0.1-1.3-0.4-2.6-0.6-3.8c-0.1-0.6-0.5-1-1.1-1.3
		c-1.2-0.4-2.4-0.7-3.6-1.1c-1.3-0.5-2.7-0.6-3.9-1.1c-1.5-0.6-3.2-0.9-4.8-1.5c-2.9-1-4.1-1.8-4.4-4.9c-0.1-0.5-0.1-0.9-0.2-1.4
		c-0.3-1.4-0.7-2.8-1.1-4.2C255.1,211.6,254.9,211.1,254.7,210.4z M138.9,280c0.2,0.1,0.5,0.4,0.8,0.5c1.2,0.4,2.4,0.7,3.6,1.1
		c1.4,0.5,2.7,1,4,1.4c1,0.3,2,0.7,3.1,1c1.4,0.3,2.7,0.6,4,1.1c0.9,0.3,1.8,0.5,2.8,0.5c0.2,0,0.4,0.1,0.6,0.1
		c2.4,0.9,5,1.5,7.6,1.8c0.2,0,0.5,0.1,0.7,0.2c0.8,0.2,1.6,0.5,2.4,0.7c1,0.2,1.9,0.3,2.9,0.5c2.2,0.2,4.4,0.9,6.6,0.7
		c0.2,0,0.5,0.1,0.7,0.2c0.9,0.5,1.8,0.2,2.7,0.4c0.7,0.1,0.9-0.2,0.9-0.9c-0.1-0.9-0.2-1.6-0.2-2.5c-0.1-0.7-0.3-0.9-0.9-0.6
		c-0.7,0.3-1.5,0.5-2.3,0.3c-1.1-0.2-1.4-0.5-0.9-1.5c0.7-1.6,1.6-3.1,2.4-4.6c0.7-1.3,1.4-2.6,1.5-4.1c0.1-1.5,0.3-3,0.6-4.4
		c0.1-0.6,0.2-1.2,0.3-1.8c0.1-0.7,0.2-1.4,0.4-2c0.3-0.8,0.7-1.5,1-2.2c-1.1-2.1-3.2-3.2-4.7-4.8c-0.1-0.1-0.3-0.2-0.5-0.3
		c-0.5-0.3-1.1-0.6-1.6-0.9c-0.5-0.3-1-0.6-1.6-0.9c-1-0.5-1.5-1.3-1.6-2.4c0-0.3-0.2-0.7-0.5-0.9c-1.8-1.4-3.6-2.7-5.5-4.1
		c-0.4-0.3-0.8-0.6-1.1-0.9c-1.5-1.4-2.9-2.8-4.3-4.2c-1-1-2.1-2.1-3.1-3.2c-0.4-0.5-0.8-1-1.3-1.4c-0.3-0.2-0.6-0.6-1-0.6
		c-2,0.1-4,0.2-6,0.5c-2.5,0.3-4.9,1-7.3,1.8c-0.6,0.2-1.1,0.5-1.5,1.1c-0.8,1.4-1.6,2.8-2.4,4.3c-0.6,1-1,2.1-1.6,3.1
		c-0.9,1.6-1.9,3.1-2.8,4.7c-0.7,1.2-2,1.6-3,2.4c-0.2,0.2-0.6,0.1-0.9,0.1c-0.5-0.1-0.9-0.2-1.3-0.3c-0.2-1.4,0.1-2.7,0.5-3.7
		c0.9-2,1.9-4,2.7-6c0.9-2.1,1.8-4.2,2.6-6.3c0.2-0.6,0.1-2-0.2-2.5c-1.5-2.3-2.9-4.6-4.4-6.9c-0.7-1.1-1.6-2-2.7-2.6
		c-1.2,0.5-2.2,1.3-3.5,1.4c-0.5,0.1-0.6,0.5-0.6,0.9c0.1,1.1,0.2,2.1,0.3,3.2c0.1,0.6,0.1,1.3,0.3,1.9c0.3,0.7,0.4,1.4,0.2,2.1
		c-0.1,0.2,0,0.4,0,0.6c0.1,1.3,0.2,2.6-0.1,3.8c-0.2,0.9-0.3,1.8-0.5,2.7c-0.2,1.5-0.3,3-0.5,4.4c-0.1,0.8-0.2,1.6-0.5,2.4
		c-0.7,2-1.6,3.9-2.4,5.9c-0.9,1.9-1.4,4-2.7,5.7c-0.5,0.7-0.9,1.5-1.3,2.3c-0.1,0.2,0.1,0.6,0.2,0.8c0.7,0.6,1.4,1.1,2.1,1.6
		c0.5,0.4,1,0.7,1.4,1.3c0.2,0.3,0.6,0.6,1,0.7c1.2,0.7,2.4,1.3,3.5,2c0.5,0.3,0.8,0.7,1.3,1c0.7,0.4,1.4,0.9,2.2,1.1
		c0.9,0.2,1.9,0.1,3,0.1c-0.1-0.2-0.1-0.5-0.2-0.7c-0.6-1.6-1.4-3.2-1.9-4.9c-0.8-2.4-1.1-4.9-1.9-7.3c-0.3-1,0.2-1.7,1.2-2
		c1.5-0.5,2.8,0,4.2,0.3c0.2,0.1,0.4,0.3,0.6,0.5c0.8,0.7,1,1.8,1.1,2.8c0.3,2.8,1.1,5.6,1.9,8.3c0.3,1.1,0.8,2.3,1.2,3.4
		c0.1,0.2,0.2,0.5,0.2,0.7C139.2,278.5,139,279.2,138.9,280z M94.2,233.9c-0.9-0.9-1.6-1.7-2.4-2.5c-0.5-0.5-1-0.9-1.3-1.4
		c-0.4-0.7-1-1.3-1.5-1.8c-0.4-0.3-0.6-0.8-1-1.2c-0.8-1-1.3-2.3-2.3-3.2c-0.2-0.1-0.3-0.4-0.3-0.6c0-0.7-0.4-1.3-1-1.6
		c-0.2-0.2-0.4-0.5-0.6-0.9c-0.9-1.6-1.8-3.1-2.8-4.7c-0.7-1.1-2-1.9-2.2-3.4c0-0.1-0.1-0.1-0.1-0.2c-0.3-0.5-0.7-1-1.1-1.5
		c-1.1-1.5-2-3-3.2-4.4c-0.6-0.7-1.4-1.4-2.2-1.9c-1.2-0.7-2.4-1.3-3.8-1.8c-0.7-0.3-1.5-0.6-2.2-0.6c-0.9,0-1.8-0.1-2.7-0.2
		c-1.6-0.3-3.2-0.2-4.7,0.2c-1.2,0.3-2.3,0.6-3.5,0.7c-0.1,0-0.2,0-0.3,0c-1,0.3-1.9,0.7-2.8,1c-0.4,0.1-0.9,0.1-1.1,0.3
		c-1.3,1.1-3.1,1.5-4.3,2.7c-0.3,0.3-0.8,0.6-1.1,0.9c-0.9,1-1.8,2-2.7,3c-0.9,1-1.8,1.8-2.4,3c-0.3,0.8-0.8,1.5-1.1,2.3
		c-0.5,1.2-1,2.4-1.5,3.7c-0.2,0.6,0,1.2-0.1,1.8c-0.2,1.1,0.3,2,0.7,3c0.4,0.9,1.1,1.7,1.8,2.4c0.9,1,1.9,1.9,2.9,2.8
		c0.8,0.6,1.7,1.1,2.6,1.6c0.6,0.3,1.3,0.6,1.9,0.9c0.4,0.2,0.8,0.5,1.2,0.6c1.8,0.3,3.5,0.6,5.3,0.7c2.3,0.2,4.6-0.4,6.9-0.8
		c1.8-0.3,3.5-1.1,5.2-2c1.1-0.6,2.4-1.1,3.2-2.2c0.5-0.7,1.2-0.8,1.9-0.7c0.6,0.1,1.1,0.1,1.6,0.3c0.7,0.3,1.3,0.8,1.4,1.6
		c0.2,1.9-0.5,3.3-2.1,4.3c-2.8,1.9-5.9,3-9.1,4.1c-1.5,0.5-3.1,1-4.7,1c-1.2,0-2.3,0-3.4,0c-0.6,0.6-0.6,1.1-0.3,1.7
		c0.2,0.5,0.5,0.9,0.7,1.4c0.3,1.1,1.3,1.9,1.3,3.1c0,0.1,0.1,0.1,0.1,0.2c1.3,1.4,2.1,3.2,3.9,4.2c1,1.4,2.6,2,4,2.7
		c1.6,0.9,3.3,1.8,5.1,2.3c1.1,0.3,2,0.7,3.2,0.7c1-0.1,1.9,0.1,2.8,0.2c0.2,0,0.3,0.2,0.5,0.2c0.3,0.1,0.7,0.2,1,0.3
		c0.4,0.1,0.9-0.1,1.3,0.1c1.1,0.4,2.2,0.2,3.2-0.2c0.6-0.2,1.3-0.3,1.9-0.3c0.7,0,1.4,0.1,2.2,0.2c0.7-1.4,1.4-2.9,2.1-4.4
		c0.5-1,0.7-2.1,1.2-3.1c1-2,1.6-4.1,2.2-6.3c0.4-1.5,0.7-3,1.4-4.3C93.4,236.7,93.6,235.2,94.2,233.9z M188.3,290.6
		c0.9,0.1,1.5,0.2,2.2,0.3c1.9,0.2,3.8,0.5,5.6,0.5c0.9,0,1.6,0.1,2.5,0.1c1.4,0.1,2.8,0.1,4.3,0.2c1.5,0.1,2.9,0.3,4.4,0.2
		c1.1-0.1,2.2,0,3.2,0.1c1,0.1,2,0.3,3,0.2c2.4-0.3,4.9-0.1,7.4-0.1c2.3,0.1,4.6,0.2,6.9,0.2c2.7,0,5.5-0.2,8.2-0.3
		c0.7-0.1,1.5-0.1,2.4-0.2c-0.5-0.7-0.4-1.3-0.2-1.9c0.3-0.9,0.6-1.9,0.9-2.8c0.3-1.3,0.9-2.6,0.8-4c-0.1-0.6,0.1-1.4,0.5-2
		c0.7-1.4,0.8-2.8,1-4.3c0.2-1,0-1.9,0-2.9c0.1-1.4-0.3-2.6-1.3-3.5c-1.2-1.1-2.4-2.1-3.6-3.2c-0.7,0.8-1.4,1.1-2.4,1.1
		c-0.8,0-1.6,0.1-2.3-0.1c-1.5-0.1-3.1-0.3-4.6-0.5c-0.9-0.2-1.8-0.6-2.7-0.7c-0.6-0.1-1.3-0.1-1.9-0.1c-1.6-0.3-3.2-0.6-4.8-0.5
		c-0.8,0.1-1.6,0.1-2.4,0c-1.4-0.1-2.9-0.2-4.3-0.2c-1.3-0.1-2.7-0.1-4-0.2c-2.7-0.2-5.3,0.1-7.9,0.8c-1.6,0.5-3.2,1-4.9,1.5
		c-0.6,0.2-1,0.5-1.1,1.1c-0.2,0.7-0.7,1.3-1.1,1.9c-0.3,0.5-0.8,0.9-1.1,1.4c-0.7,1.2-1.3,2.5-2,3.6c-1.2,1.7-1.3,3.6-1.3,5.5
		c0.1,1.4,0.2,2.8,0.4,4.3C187.9,287.7,188.2,289.1,188.3,290.6z M298.3,280.2c-0.3-0.3-0.5-0.5-0.6-0.6c-0.7-0.5-1.3-1-1.5-1.9
		c-0.1-0.2-0.3-0.5-0.5-0.6c-0.6-0.5-1.2-1-1.8-1.3c-2.4-1.4-5.1-2.3-7.7-3c-2.6-0.7-4.9-1.8-7.1-3.2c-1.5-1.1-3.1-2.1-4.9-2.4
		c-1.5-0.3-1.9-1.6-2.4-2.7c-0.1-0.1,0.1-0.3,0.1-0.6c0.1-0.9,0.3-1.9,0.1-2.8c-0.3-1-0.5-2-0.8-3.1c-0.6,0.5-1.1,0.9-1.4,1.4
		c-0.2,0.3-0.5,0.7-0.7,0.9c-0.3,0.3-0.7,0.6-1.1,0.9c-0.7,0.5-1.5,1-2.2,1.3c-1.3,0.6-2.7,1.1-4,1.6c-2.3,1.1-4.8,1.5-7.3,2.1
		c-1.3,0.3-2.6,0.5-3.9,0.7c-0.3,0.1-0.6,0.3-0.8,0.6c-0.9,1-1.6,2-2.4,3.1c-0.2,0.3-0.3,0.7-0.2,1c0.7,2.7,0.6,5.5,0,8.2
		c-0.1,0.3-0.1,0.7-0.1,1c-0.1,2.8-0.7,5.5-2.4,7.8c-0.6,0.8-0.9,1.7-1.5,2.8c2.1-0.2,4.1-0.5,6-0.7c1.3-0.2,2.6-0.4,3.9-0.6
		c1.5-0.2,3.1-0.2,4.7-0.5c3.8-0.6,7.6-1.4,11.4-2c1.9-0.3,3.8-0.7,5.7-1.1c1.3-0.3,2.6-0.5,3.9-0.9c3-0.8,6-1.6,9-2.4
		c1-0.3,1.9-0.5,2.8-0.8C292.9,281.7,295.5,281,298.3,280.2z M317.2,278.7c0.6,0.7,1,1.3,1.5,1.8c1.5,1.9,3.5,3,5.5,4.1
		c2.3,1.3,4.9,2.2,7.6,2.6c0.5,0.1,0.9,0.2,1.3,0.3c1.9,0.3,3.6,1.1,5.6,1c0.6-0.1,1.2,0.1,1.8,0.2c1.2,0.1,2.4,0.3,3.6,0.4
		c2.1,0.2,4.1-0.3,6.2-0.8c2.2-0.6,4.5-1.1,6.7-1.8c1.1-0.3,1.9-0.3,2.7,0.9c2.2-2.4,4.8-4.2,5.6-7.6c-0.5-0.1-0.7-0.2-1-0.2
		c-2.1,0.2-4.1-0.5-6.1-0.9c-1-0.2-2-0.4-3-0.8c-2.2-0.9-4.4-1.9-6.5-3c-1.2-0.6-2.5-1.3-3.4-2.2c-1.7-1.8-3.2-3.7-4.8-5.6
		c-0.5-0.6-0.9-0.6-1.5-0.3c-0.5,0.3-1.1,0.6-1.6,0.9c-2,1.2-4.1,2.4-6.2,3.6c-3.2,1.8-6.5,3.5-9.7,5.2
		C320.1,277.3,318.7,277.9,317.2,278.7z M152.3,290.6c-0.5-0.3-0.8-0.5-1.1-0.6c-0.6-0.2-1.3-0.3-2-0.6c-1.4-0.4-2.8-0.8-4.1-1.2
		c-1.6-0.5-3.3-1.1-4.9-1.6c-2.1-0.6-4.2-1.3-6.3-1.9c-0.6-0.2-0.9,0.1-1.2,0.6c-1.2,2-3.1,3.2-4.9,4.5c-0.7,0.6-1.6,0.9-2.4,1.5
		c-1.6,1.2-3.2,2.6-4.9,3.5c-1.9,1.1-3.8,2.2-5.9,2.9c-1.2,0.4-2.3,1-3.4,1.6c-1.1,0.7-1.9,1.5-2,3.1c-0.1,1.1,0.2,2,0.9,2.8
		c1,1.2,2.4,1.6,3.9,2c1.6,0.5,3.3,0.7,5.1,0.5c1.1-0.1,2.3-0.1,3.4-0.3c1-0.1,1.9-0.2,2.9-0.5c1-0.2,2-0.5,3-0.8
		c1.9-0.6,3.9-1.1,5.9-1.7c3-1,5.7-2.2,8.4-3.8c0.9-0.5,1.6-1,2.4-1.5c0.7-0.5,1.4-1,1.9-1.6c1.5-1.8,2.9-3.7,4.4-5.6
		C151.5,291.7,151.8,291.3,152.3,290.6z M78.5,184.5c0-1.4-0.3-2.8-1-4.1c-0.9-1.6-2.1-2.4-4-2.2c-0.3,0.1-0.6-0.1-0.9-0.1
		c-0.2,0-0.4-0.1-0.6-0.1c-1.1,0.2-2.3,0.5-3.4,0.7c-0.5,0.1-0.9,0.2-1.3,0.5c-2,1.1-3.8,2.4-5.1,4.2c-1.1,1.5-2.3,3-3.3,4.5
		c-0.6,0.9-1,2-1.4,3c-0.2,0.3,0,0.7,0.3,0.7c1,0.2,1.9,0.7,2.9,0.9c1.3,0.2,2.5,0.6,3.7,1c0.5,0.1,0.8,0.4,1.3,0.5
		c1,0.2,2,0.4,3,0.6c1,0.2,2,0.7,3.1,0.8c1.4,0.2,2.7,0.8,4,1.2c0.9,0.3,1.4,0.2,1.6-0.7c0.3-1.4,0.7-2.7,0.9-4.1
		c0.2-1.4,0.5-2.8,0.3-4.3C78.4,186.6,78.5,185.5,78.5,184.5z M93.6,255.6c0.4,0.1,0.7,0.2,1,0.2c1.5,0.2,3,0.4,4.2,1.4
		c0.7,0.6,1.5,0.9,2.2,1.3c1.4,0.9,3,1.2,4.6,1.7c2.2,0.7,4.4,1,6.8,0.2c0.8-0.3,1.6-0.6,2.4-0.8c0.8-0.2,1.2-0.7,1.4-1.3
		c0.9-2.3,1.8-4.6,2.2-7c0.2-1,0.3-2,0.5-3c0.1-0.6-0.2-0.9-0.7-0.8c-1.3,0.2-2.5,0.5-3.8,0.7c-1.5,0.2-3,0.4-4.5,0.5
		c-1.8,0.1-3.6,0.1-5.3,0.1c-2,0-3.9-0.3-5.3-2c-0.4-0.5-0.8-0.9-1.3-1.5c-0.1,0.2-0.3,0.3-0.3,0.4c-0.3,1.4-0.7,2.7-1,4
		c-0.1,0.2-0.1,0.3-0.1,0.5C95.6,251.9,94.7,253.7,93.6,255.6z M202.6,252.1c-4.2,4.7-9.2,7.6-15.8,8.1c0.9,1,1.7,1.8,2.3,2.6
		c0.7,1.1,1.6,1,2.7,0.7c1.4-0.5,2.7-0.9,4.1-1.3c2.7-0.9,5.5-1,8.3-1c2.6,0.1,5.1-0.1,7.7,0c1.1,0.1,2.2-0.1,3.3-0.2
		c1-0.1,1.9-0.2,3-0.2c0.5-0.1,0.6-0.3,0.5-0.7c-0.1-0.2-0.2-0.5-0.3-0.7c-0.5-0.7-1.1-1.4-1.5-2.1c-0.6-1-1-1.9-1.5-3
		c-0.4-0.9-0.7-1.9-1-2.8c-0.5-1.3-1-2.5-1.5-3.8c-0.4-1-0.7-2-1-3c-0.1-0.3-0.3-0.5-0.6-0.8c-0.2,0.1-0.2,0.2-0.3,0.2
		c-0.6,1.9-1.3,3.8-1.9,5.7c-0.4,1.2-0.7,2.4-1.3,3.6c-0.5,1-1,2.1-1.5,3.1c-0.5,1-1.3,1.5-2.3,1.7c-1.4,0.2-2.4-0.8-2-2.2
		C202,254.8,202.3,253.4,202.6,252.1z M119.2,241.4c-0.1-1.6-0.2-3.2-0.2-4.7c-0.1-1.5,0.1-3-0.5-4.4c-1.4,0.4-2.6,0.8-3.9,1.1
		c-1.6,0.5-3.3,0.9-5.1,0.7c-0.8-0.1-1.6-0.2-2.4-0.2c-1.1,0.1-2-0.3-2.9-0.9c-0.6-0.3-1.1-0.6-1.8-1c-0.7,1.1-1.2,2.3-1.7,3.4
		c-0.2,0.5-0.5,1-0.5,1.5c0,1.8-1.1,3.4-1.4,5.1c-0.1,0.7-0.2,1.3-0.2,2c0.7-0.3,1.3-0.7,1.9-0.8c1-0.2,2-0.1,3-0.1
		c1.6,0.1,3.2,0.2,4.8,0.3c2.1,0.2,4.1-0.1,6.2-0.6C116.2,242.6,117.6,242,119.2,241.4z M87.1,265.3c0.6,0.9,1.1,1.6,1.6,2.3
		c0.1,0.2,0.3,0.3,0.5,0.4c1.5,0.8,3.1,1.6,4.7,2.3c0.9,0.5,1.8,1,2.7,1.1c1.9,0.3,3.7,1,5.6,0.8c0.3-0.1,0.7,0.1,1,0.2
		c1.5,0.2,3,0.1,4.3-0.6c1.6-0.8,2.3-2.4,3.6-3.5c0.3-0.3,0.6-0.7,1-1.1c0.5-0.5,0.8-0.9,0.6-1.6c-0.6,0-1.1-0.1-1.6,0
		c-2.6,0.5-5.1-0.3-7.5-0.9c-1.8-0.4-3.5-1-5.2-1.5c-1.9-0.5-3.8-1.1-5.3-2.5c-0.6-0.5-1.3-0.9-1.9-1.3c-0.5,1-1,1.8-1.4,2.6
		c-0.4,0.8-0.9,1.5-1.5,2C87.7,264.5,87.4,264.9,87.1,265.3z M116.4,227.7c0.1-0.7-0.1-1.3-0.6-1.5c-1.1-0.5-2.1-1.5-3.5-1.1
		c-0.2,0.1-0.4-0.1-0.6-0.2c-0.2-0.1-0.4-0.1-0.6-0.1c-1.4-0.1-2.7-0.2-4-0.2c-0.8-0.1-1.6-0.1-2.4,0c-0.2,0-0.3,0.2-0.5,0.3
		c0.1,1.4-0.2,2.6-0.7,4c0.9,0,1.6,0,2.3,0c1.4,0,2.7-0.3,4-0.1C112.1,229.2,114.1,228.1,116.4,227.7z M200.3,169.9
		c-0.1-0.1-0.1-0.2-0.2-0.2c-0.6,0.3-1.3,0.5-1.9,0.9c-1.7,0.9-3.4,1.9-5.2,2.8c-0.5,0.3-0.6,0.6-0.3,1c0.4,0.9,0.8,1.8,1.2,2.7
		c0.1,0.2,0.2,0.4,0.5,0.7C196.3,175,198.3,172.4,200.3,169.9z M219.9,213.5c0.1,0.6,0.2,1,0.2,1.3c-0.1,0.5-0.1,0.8,0.3,1.1
		c1.1-0.7,1.8-1.4,2-2.2c-0.4-0.1-0.7-0.1-1.1-0.1C220.9,213.6,220.5,213.6,219.9,213.5z"/>
	<path d="M59.4,212.4c-0.6-0.1-1.1-0.1-1.6-0.2c-0.4-0.1-0.6-0.7-1.1-0.5c-0.1,0-0.2-0.5-0.5-0.5c-0.6-0.1-0.6-0.8-1.3-1
		c-0.5-0.2-0.6-1.5-0.4-2.2c0.1-0.3,0.2-0.7,0.4-1c0.3-0.8,0.6-1.5,1.6-1.8c0.4-0.1,0.6-0.4,1.1-0.5c1.3-0.2,2.4,0.5,3.6,0.2
		c0.3,0.5,1.3,0.2,1.3,1.1c0,0.1,0,0.1,0.1,0.1c1.1,0.5,1,1.5,1.2,2.5c0.2,0.8-0.2,1.2-0.6,1.6c-0.3,0.3-0.7,0.6-1,0.9
		C61.3,212.1,60.3,212.3,59.4,212.4z"/>
</g>
<g>
</g>
<g>
</g>
<g>
</g>
<g>
</g>
<g>
</g>
<g>
</g>
<g>
</g>
<g>
</g>
<g>
</g>
<g>
</g>
<g>
</g>
<g>
</g>
<g>
</g>
<g>
</g>
<g>
</g>
</svg>
