<?xml version="1.0" encoding="utf-8"?>
<!-- Generator: Adobe Illustrator 18.1.0, SVG Export Plug-In . SVG Version: 6.00 Build 0)  -->
<!DOCTYPE svg PUBLIC "-//W3C//DTD SVG 1.1//EN" "http://www.w3.org/Graphics/SVG/1.1/DTD/svg11.dtd">
<svg version="1.1" id="Layer_1" xmlns="http://www.w3.org/2000/svg" xmlns:xlink="http://www.w3.org/1999/xlink" x="0px" y="0px"
	 width="800px" height="470px" viewBox="0 0 800 470" enable-background="new 0 0 800 470" xml:space="preserve">
<g>
	<path d="M208.8,77.5c0.9,0.4,1.7,1.2,2.2,2c1.9,3.1,1.1,7-0.3,10.4c-1.4,3.3-3.2,6.5-5,9.6c-0.8,1.4-1.7,2.7-3.2,3.3
		c-1.4,0.6-3.5-0.1-3.7-1.7c-0.6-5.6,0-11.4,1.6-16.8c0.6-2,1.4-4,2.8-5.5C204.6,77.5,206.9,76.7,208.8,77.5 M207.9,81.6
		c-0.2-0.3-0.3-0.6-0.6-0.7c-0.7-0.4-1.6,0.3-2,0.9c-1.1,1.5-1.4,3.4-1.7,5.2c-0.6,3.2-1.1,6.4-1.7,9.7c0.5,0.7,1.6,0,2.1-0.8
		c1.5-2.3,2.7-4.7,3.6-7.2C208.3,86.4,209,83.7,207.9,81.6z"/>
	<path d="M126.4,271.2c-1.9,3-4.2,6-7.5,7c-3.4,1.1-7.8-1-8-4.5c-0.1-1.4,0.5-2.7,1.2-3.9c3-5.6,7.9-10.3,13.7-13
		c0.8-0.4,1.7-0.7,2.5-0.5c1.3,0.4,1.8,1.9,1.9,3.3C130.4,263.8,128.5,267.7,126.4,271.2 M115.8,270.1c-0.8,1.4-1.6,3.2-0.5,4.4
		c0.7,0.8,1.9,0.9,2.8,0.5s1.7-1.1,2.3-1.9c3.2-3.7,5.4-8.2,6.3-13c-0.8-0.4-1.7,0.2-2.4,0.7C121,263.3,118.1,266.5,115.8,270.1z"/>
	<path d="M263.8,268.4c-0.3,0.9-1,1.7-1.8,2.3c-2.8,2.2-6.7,2.7-10.2,1.9c-3.5-0.8-6.6-2.6-9.5-4.7c-0.7-0.5-1.4-1.1-1.8-1.8
		c-0.7-1.4,0-3.1,0.8-4.4c1.9-2.8,5-4.7,8.4-5.1c3.3-0.5,6.9,0.6,9.5,2.7c1.1,0.9,2.1,2.1,3,3.3
		C263.3,264.2,264.5,266.4,263.8,268.4 M259.6,266.1c-1-1.9-2-3.8-3.7-5.2c-3.3-2.6-8.7-1.9-11.1,1.6c-0.4,0.6-0.8,1.2-0.6,1.9
		c0.2,0.7,0.8,1.2,1.3,1.6c2.1,1.6,4.2,3.1,6.6,3.8c2.5,0.7,5.4,0.5,7.2-1.4c0.3-0.3,0.6-0.6,0.6-1.1
		C260.1,267,259.9,266.5,259.6,266.1z"/>
	<path d="M256.1,116.5c0.8-0.5,1.6-1.1,2.5-1.1c1,0,2,0.4,2.7,1c3.3,2.6,3.7,8.3,0.6,11.2c-0.9,0.9-2.1,1.6-3.3,2.2
		c-3,1.7-6.1,3.4-9.1,5.1c-0.7,0.4-1.5,0.8-2.3,0.8c-0.8,0-1.7-0.7-1.6-1.5C246.4,127.2,250.3,120.5,256.1,116.5 M259.4,119.7
		c-1.7-0.9-3.6,0.9-4.7,2.5c-1.1,1.6-2.2,3.1-3.3,4.6c-0.6,0.8-1.1,1.9-0.5,2.6c0.6,0.8,1.9,0.4,2.8-0.1c2.4-1.2,5-2.6,6.4-5
		C260.9,122.8,260.9,120.5,259.4,119.7z"/>
	<path d="M155.2,121.7c-3.7,0.8-7.5,1.6-11.2,0.6c-3.6-1-6.9-4.5-6.3-8.2c0.6-3.9,5.3-6.2,9.1-5.3c3.8,0.8,6.9,3.9,8.9,7.2
		c0.6,1,1.2,2,1.2,3.1C157,120.2,156.3,121.4,155.2,121.7 M150,119.7c0.8-0.2,1.6-0.5,2-1.2c0.6-1.1-0.2-2.4-0.9-3.4
		c-1-1.2-2-2.5-3.4-3.2c-1.4-0.8-3.2-0.9-4.5-0.1c-2.1,1.4-2,4.8-0.1,6.5C144.7,120,147.5,120.3,150,119.7z"/>
	<path d="M173.9,114.9c-0.4-1.9,0.6-3.7,1.9-5.1c3.7-4.2,9.8-5.5,15.4-5.4c0.4,0,0.8,0,1.1,0.3c0.7,0.6,0.2,1.6-0.3,2.3
		c-1.6,2.3-3.3,4.5-5.1,6.5s-3.9,4.1-6.5,4.7C177.8,118.9,174.5,117.6,173.9,114.9 M183,113.2c0.8-0.8,1.5-1.7,2.2-2.5
		c0.9-1,1.2-2.5,0.7-3.7c-3.7,0.9-6.9,3.6-8.6,7c0.2,1.2,1.7,1.8,2.8,1.5C181.3,115,182.2,114.1,183,113.2z"/>
	<path d="M94.3,424.6c-21.4,5.3-42.9,10.7-64.3,16c48-18.5,99-29.5,150.4-32.3c4.2-28,7-56.2,8.7-84.5c-38.7-4-78-14.8-108.3-39.4
		C70,275.7,60.3,265,56,251.8c-7.4-22.7,2.4-47.2,13.4-68.3c26.4-51,60.3-97.9,98.5-140.9c9.9-11.2,22.8-23.1,37.5-20.6
		c11.3,1.9,19.3,11.7,26.2,20.8c18.6,24.5,37.2,48.9,55.8,73.4c14.8,19.4,29.6,39,38.8,61.6c9.2,22.5,12,48.7,2.3,71
		c-8.1,18.6-23.9,32.7-40.5,44.5c-21.5,15.2-45.8,27.7-72,29.9c-5,0.4-6,7.3-5.5,12.3c2.3,22.2,4.5,44.4,6.8,66.6
		c0.2,2,0.5,4.2,1.9,5.7c1.3,1.4,3.2,1.9,5,2.3c47.8,11.5,96.7,18.4,145.8,20.7c-50.2,3-100.2-7.6-149.4-18.2
		c2.9,14.9,5.8,29.8,8.7,44.6c0.4,1.9,0.7,3.9,0,5.6c-1.1,2.4-3.8,3.5-6.4,4.2c-13,3.7-26.9,4.1-40,1.1c-4.7-1.1-9.7-3-11.7-7.3
		c-1.7-3.6-0.8-7.8,0.2-11.7c2.5-10.5,5.1-21,7.7-31.5c0.8-3.3-3.7-4.9-7.1-5C145.6,411.9,119.8,418.3,94.3,424.6 M117.1,231
		c-0.6-3.6,1.9-7.2,5.1-9s7-2.2,10.7-2.5c-5.5-7.1-11.1-14.3-16.5-21.4c-0.7-0.9-1.7-2-2.8-1.9c-6.4,0.6-13.6-1.7-16.4-7.4
		c-2.9-5.7,1.5-14.3,7.8-13.6c4.1,0.5,6.9,4.2,9.7,7.2c2.8,3,7.2,5.8,10.9,3.9c-2-3-3.1-6.9-2.2-10.4c0.9-3.5,4.4-6.5,8-6.2
		c3.6,0.3,6.5,4.7,4.9,7.9c-2.2,4.2-3.3,9.2-2,13.7c1.4,4.5,5.6,8.3,10.3,8.1c-3.7-9.3-3.2-20.2,1.4-29c0.7-1.3,1.5-2.6,2.8-3.3
		c3.5-1.9,7.4,2,8.8,5.7c3.7,9.8,0.5,21.7-7.7,28.3c-2.2,1.8,0,5.2,2.2,7c6.8,5.6,13.6,11.3,20.4,16.9c2.6-3.8-0.9-9.5,1.4-13.5
		c2.7-4.7,10.8-2.3,12.6,2.8c1.9,5.1-0.3,10.7-2.5,15.6c-0.4,3,4.4,4.4,6.7,2.4c2.3-2,2.7-5.4,2.8-8.5c0.4-6.8,0.7-13.5,1.1-20.3
		c0.4-7.7-0.5-17.6-7.9-20.1c-4.2-1.4-6-7.3-3.3-10.9c2.7-3.5,8.9-3.2,11.4,0.5c0-6.5,0.1-13,0.1-19.5c-4.4-0.2-9-0.5-12.9-2.7
		c-3.9-2.2-6.9-6.7-5.9-11c0.9-4.4,6.9-7.1,10.3-4.2c3.4,3,6.9,6.1,10.3,9.1c7.2-9.1,13.1-19.3,17.5-30c1.6-3.9,8.3-2.7,9.9,1.2
		c1.7,3.9-0.4,8.4-3.1,11.7s-6.2,5.9-8.3,9.6c-6.4,11.2,2.6,25.6-0.6,38c2.6-3.9,6.4-7.6,11.1-8c4.7-0.3,9.7,4.4,8,8.8
		c-1.8,4.5-7.6,4.9-11.8,6.9c-5.3,2.5-8.4,8.3-9.4,14c-1,5.8-0.1,11.7,0.8,17.4c3-1.8,5.2-4.5,8.3-6.2c3-1.7,7.5-1.7,9.3,1.2
		c1.5,2.5,0.3,5.8-1.4,8.1c-3,4-7.8,6.7-12.8,7.3c-3.4,0.4-4.8,5.5-2.7,8.2s6.4,3.1,9.6,1.8c3.2-1.3,5.8-3.9,8.2-6.4
		c8.9-9.3,17.8-18.6,26.7-27.9c3.7-3.9,1.2-10.1-0.9-15c-2.2-4.9-2.7-12.3,2.3-14c3.3-1.2,7,1.4,8.4,4.7c1.4,3.3,0.9,7,0.5,10.5
		c9.4-4.1,16.4-13.4,17.7-23.6c0.5-3.6,6.6-3.3,8.2,0c1.6,3.3,0.2,7.2-1.3,10.5c-6.9,15.8-14.7,32.2-28.6,42.4
		c3.8-0.2,7.7-0.4,11.3,1c3.5,1.4,6.6,4.8,6.3,8.6c-0.4,5-6.4,7.8-11.3,6.9c-4.9-0.9-8.8-4.5-12.4-7.9c-1.1-1-2.8-0.3-4.1,0.5
		c-29.6,18.9-45.9,56.6-39.5,91.1c0.2,1,0.4,2.1,1.2,2.8c1.1,1.1,2.9,1.1,4.4,1c26.8-2.4,50.8-17.3,72.3-33.4
		c10.9-8.1,21.6-16.8,29-28.2c14.2-21.8,13.6-50.8,4.7-75.3c-8.7-24.5-24.8-45.6-40.5-66.4c-20.3-26.6-40.5-53.2-60.8-79.7
		c-3.2-4.2-6.6-8.6-11.4-11c-6.2-3.1-13.8-2.2-20,0.8s-11.5,7.8-16.3,12.7C149,66.1,127.9,97.1,107,127.8
		c-18,26.4-36.2,53.2-46,83.6c-2.8,8.6-4.8,17.7-3.9,26.7c0.9,8.6,4.5,16.7,9.2,23.9c12.2,19.1,31.5,32.9,52.3,41.7
		c20.9,8.8,43.4,13.1,65.8,16.2c1.1,0.2,2.3,0.3,3.2-0.3c1.3-0.8,1.7-2.4,1.9-4c2.3-16.2,2.9-32.6,2-49c-0.2-3.6-0.6-7.5-2.5-10.6
		c-2.7-4.4-7.8-6.5-12.5-8.6c-13-5.8-25.1-13.7-35.6-23.2c-2.7,4.7-5.8,9.6-10.7,11.9C125.3,238.5,118,236.4,117.1,231 M204.6,140.6
		c-4.7,2-5.5,8.1-5.6,13.1c-0.6,24.9-1.2,49.8-1.8,74.7c-0.2,5.5-6.5,9-11.8,8.3c-5.4-0.7-9.9-4.4-14.1-7.8
		c-15.6-13-31.2-26-46.8-39c-3.1,0.9-4.6,4.8-3.9,8c0.7,3.2,3,5.8,5.3,8.1c16.7,17.5,36.7,31.9,58.7,41.9c5.7,2.6,9.4,8.5,10.9,14.6
		c1.5,6.1,1.1,12.5,0.7,18.7c-3.6,55.8-7.2,111.9-20.7,166.1c-1,4.1-2,8.6,0,12.2c2.2,3.9,6.9,5.4,11.2,6.2c10.7,2,21.7,1.6,32.3-1
		c3.9-1,8.7-3.8,7.6-7.7c-13.6-48-20-97.9-19-147.6c0.4-19.4,2.1-39.6,12.2-56.2c15.1-24.8,46.3-37,59.9-62.7
		c1.7-3.3,2.4-8.5-1.1-9.7c-16,16.7-31.9,33.4-47.9,50c-2.7,2.8-5.6,5.8-9.2,7.4c-3.6,1.6-8.2,1.6-11.1-1.1
		c-2.5-2.3-3.1-5.9-3.5-9.2C203.7,198.9,213.2,168.6,204.6,140.6 M151.3,195.4c5.3-7.1,5.6-17.5,0.8-24.9c-0.4-0.6-1.4-0.7-2-0.3
		c-0.6,0.4-1.1,1.1-1.4,1.7c-3.4,6.4-4.4,14-2.8,21.1c0.5,2,1.9,4.4,3.8,3.7C150.3,196.7,150.8,196.1,151.3,195.4 M116.2,191.3
		c0.3-1.2-0.4-2.4-1.1-3.4c-2.9-4.4-7-7.9-11.6-10.3c-3.9,1.2-5.1,6.6-3.1,10.1c2,3.5,6.1,5.3,10.1,6
		C112.7,194,115.7,193.6,116.2,191.3 M273.9,229.1c0.8-0.2,1.6-0.6,2.2-1.3c1.1-1.4,0.4-3.4-0.6-4.8c-3.4-4.4-10-4.8-15.5-3.5
		c-1,0.2-2.2,0.8-2,1.8c0,0.5,0.3,0.8,0.6,1.1c2,2.2,4.2,4.3,6.8,5.6C267.9,229.4,271,230,273.9,229.1 M131,222.2
		c-3.3,1-6.7,2-9.2,4.5c-1.8,1.8-1.1,5.2,1.1,6.5c2.2,1.4,5.1,1,7.2-0.4c2.1-1.4,3.5-3.6,4.7-5.9c0.7-1.5,1.2-3.5,0-4.5
		C133.7,221.5,132.2,221.8,131,222.2 M191.9,146c-2.4-2.9-5.2-5.6-8.3-7.8c-1.3-1-3.3,0-3.9,1.6c-0.6,1.6,0,3.2,0.8,4.7
		c1.6,2.8,4.2,5,7.2,6.2c1,0.4,2.2,0.7,3.2,0.5c1.1-0.2,2.1-1.1,2.2-2.2C193.2,147.8,192.6,146.8,191.9,146 M223.3,170.1
		c-1.6,0-2.9,1.2-4,2.3c-3,3.2-5.7,6.8-7.8,10.6c2.3,0.5,4.8-0.5,7-1.4c1.9-0.7,3.7-1.4,5.4-2.5c1.6-1.2,2.9-3,2.9-5
		C226.9,172.1,225.3,170,223.3,170.1 M220.2,121.4c0.5-1.2,0.9-2.7,0.3-3.9c-0.5-1.2-2.3-1.9-3.2-0.9c-4.6,5.5-7.7,12.1-8.9,19.2
		c0.5,0.4,1.1,0,1.6-0.3C214.6,131.9,218.1,126.9,220.2,121.4 M219.8,211.2c-3.2,2-5.9,4.8-7.8,8.1c-0.5,0.9,0.2,2.2,1.2,2.5
		c1,0.4,2.2,0.1,3.1-0.3c2.5-0.9,4.9-2.5,6.7-4.5c0.9-1,1.7-2.1,1.9-3.4c0.2-1.3-0.4-2.8-1.6-3.3C222.3,209.9,221,210.5,219.8,211.2
		 M181.4,213.7c-0.3-0.6-0.6-1.2-1.1-1.6c-0.3-0.3-0.7-0.4-1.1-0.4c-0.7,0-1.1,0.7-1.4,1.3c-2.4,4.8-2.3,10.8,0.4,15.4
		c0.5,0.9,2,0.8,2.6,0c0.7-0.8,0.9-1.9,1-2.8C182.5,221.6,183,217.4,181.4,213.7 M262.5,190.7c1.4-5.2,0.6-10.9-2-15.7
		c-0.4-0.7-1.5-0.7-2.1-0.2c-0.6,0.5-0.8,1.4-1,2.2c-0.7,3.7-0.2,7.6,1.3,11.1C259.5,189.6,260.9,191.3,262.5,190.7 M188.4,173.1
		c-1.8-0.4-3.3,1.8-3,3.6c0.3,1.9,1.7,3.2,3,4.5c1.6,1.6,3.5,3.2,5.8,2.8c0.8-3.3-1.4-6.5-3.4-9.2
		C190.1,174.1,189.4,173.3,188.4,173.1 M130.7,185.1c1.9-3.7,2.5-8.7-0.3-11.9c-0.6-0.7-1.8-0.5-2.4,0.2c-0.6,0.7-0.8,1.6-0.9,2.5
		c-0.3,2.7-0.3,5.4,0.2,8c0.2,1.3,1.1,2.9,2.3,2.4C130.2,186.1,130.5,185.6,130.7,185.1 M286.6,165.5c-1.6,3-2.7,6.4-3.2,9.8
		c-0.2,1,0.3,2.5,1.2,2.2c0.3-0.1,0.6-0.4,0.8-0.7c1.6-2.3,2.8-4.9,3.7-7.5c0.4-1.1,0.7-2.3,0.2-3.3
		C288.8,164.9,287.1,164.5,286.6,165.5z"/>
</g>
<g>
</g>
<g>
</g>
<g>
</g>
<g>
</g>
<g>
</g>
<g>
</g>
<g>
</g>
<g>
</g>
<g>
</g>
<g>
</g>
<g>
</g>
<g>
</g>
<g>
</g>
<g>
</g>
<g>
</g>
</svg>
