<?xml version="1.0" encoding="utf-8"?>
<!-- Generator: Adobe Illustrator 18.1.0, SVG Export Plug-In . SVG Version: 6.00 Build 0)  -->
<!DOCTYPE svg PUBLIC "-//W3C//DTD SVG 1.1//EN" "http://www.w3.org/Graphics/SVG/1.1/DTD/svg11.dtd">
<svg version="1.1" id="Layer_1" xmlns="http://www.w3.org/2000/svg" xmlns:xlink="http://www.w3.org/1999/xlink" x="0px" y="0px"
	 width="800px" height="470px" viewBox="380 -215 800 470" enable-background="new 380 -215 800 470" xml:space="preserve">
<g>
	<g id="bowl">
		<path d="M437.7-27.9c18.1-21,43.9-36.1,55.1-61.4c4.5-10.2,5.5-24.1-3.5-30.9c-2.7-2.1-1.7-6.8,1.1-8.8c2.7-2,6.5-2.1,9.9-2.2
			c52.9-0.6,105.7-1.2,158.6-1.8c4.3-0.1,9.3,0.2,12,3.7s-1.2,10.1-4.9,7.7c1.9-1.9,2.9-4.9,2.5-7.6c-56.1,0.5-112.2,1.1-168.3,1.6
			c-3.5,0-7.7,0.7-8.9,3.9c0.2,3.2,4.5,4.1,7.7,4.1c48.6-0.4,97.2-0.7,145.7-1.1c1.3-0.1,1.9,1.9,0.9,2.9c-0.9,0.9-2.4,1.1-3.7,1.1
			c-47.5,0.5-94.9,0.9-142.4,1.3c-0.3,6.6-0.5,13.2-0.9,19.7c-0.1,1.5-0.1,3.1,0.8,4.3c1.2,1.7,3.6,1.8,5.7,1.7
			c45-0.3,89.9-0.7,134.9-1.1c4.4-0.1,9.5-0.3,12.3-3.8c5-6.2-0.8-18.3,6.2-22.1c-2.5,11.9-0.5,24.8,5.4,35.5
			c8.7,15.6,24.6,25.5,38.9,36.1c17.9,13.4,34.8,29.9,42.3,51c3.5,9.9,4.9,20.6,4.7,31.1c-0.9,51.7-38.5,98.1-85.7,119.3
			c-47.1,21.2-101.8,20.2-151.9,7.9c-14.3-3.5-28.5-7.9-41.4-14.9c-30.4-16.3-52.7-46.9-59.1-80.7S415.3-1.8,437.7-27.9
			 M516.8,161.6c48.1,11.3,100.1,11.7,145.2-8.4S743.5,90,746.8,40.7c0.7-11.1-0.2-22.5-4-33c-14.5-40.5-64.9-56.9-86.3-94.2
			c-1.7-3-6.1-2.5-9.5-1.7c-9.8,2.1-19.9,2.1-29.9,2.1C576.6-86,536-86,495.4-86c-10.7,25-36.3,39.6-54.2,60.1
			C419.8-1.5,410,32.6,415,64.7s24.8,61.6,52.7,78.3C482.7,152.2,499.7,157.6,516.8,161.6z"/>
	</g>
	<g id="fish-2">
		<g>
			<path d="M595.4-42.4c1.9,1.5,2.5,4.3,1.7,6.5c-0.8,2.3-2.7,4-4.9,5c-0.7,0.3-1.5,0.5-2.3,0.6c-2.8,0.1-4.9-3-4.6-5.8
				s2.5-5,4.9-6.3c0.9-0.5,2-0.9,3.1-0.8C594.1-43.2,594.8-42.9,595.4-42.4 M593.4-39.4c-0.3-0.3-0.6-0.4-1-0.5
				c-1.1-0.2-2.2,0.7-3,1.5c-0.9,1.1-1.6,2.7-0.7,3.7c1,1.1,2.9,0.4,3.9-0.7C593.8-36.3,594.6-38.3,593.4-39.4z"/>
			<path d="M667.5,26.9c-1.3,0.1-2.6,0.9-3.8,1.5C652,34.9,638.4,38.3,625,37c-13.3-1.3-26.3-7.7-34.5-18.3
				c-2.4-3.1-4.1-7.9-1.3-10.5c9.9-8.7,23.1-12.9,36.1-13.5c13.1-0.6,26.1,2.1,38.7,6c3.7,1.2,7.1-2.7,9.1-5.9
				c2.3-3.7,4.6-7.3,6.9-10.9c0.9-1.5,1.9-3,3.5-3.5c1.6-0.6,3.9,0.5,3.7,2.1c-0.9,16.4-0.7,32.9,0.6,49.3c0.2,2.3,0.2,5-1.5,6.4
				c-4.2-2.9-8.4-5.8-12.6-8.7C672,28.1,669.8,26.7,667.5,26.9 M622,19.4c2,0.7,0.8,3.7-0.7,5.2c-2.4,2.3-5,4.3-7.9,5.9
				c17.5,6.5,38.3,2.8,52.5-9.3c0.9-0.7,2.2-0.1,3.2,0.5c4.5,3,8.9,5.9,13.4,8.9c1-0.9,1-2.3,1-3.6c-0.1-13.1-0.2-26.2-0.3-39.3
				C678-8,674.1-2.2,672.3,4.4c-0.7,2.5-4.3,2.1-6.6,1.1c-11.4-4.3-23.5-7.3-35.7-7.3c-12.2-0.1-24.6,2.9-34.8,9.7
				c-1.6,1.1-3.3,2.5-3.2,4.5c0.1,1.1,0.7,2.1,1.3,3c2.5,3.7,5.3,7.5,9.1,9.8c3.9,2.3,9.3,2.7,12.6-0.3c1.8-1.6,2.8-4.1,4.9-5.1
				C620.6,19.3,621.4,19.1,622,19.4z"/>
			<path d="M590.5-6.5c-0.5,0.1-0.9,0.2-1.3,0.1c-2.6-0.1-4.5-2.9-4.1-5.5c0.4-2.5,2.6-4.5,5.1-5.3c1.3-0.4,2.7-0.5,4,0
				c0.7,0.3,1.3,0.7,1.7,1.3c1.3,1.7,1.1,4.2,0,6C594.6-8.1,592.6-7,590.5-6.5 M590.3-10c0.4-0.1,0.8-0.2,1.1-0.5
				c0.9-0.6,1.7-1.5,2.1-2.5c-1.1-1.1-3.1-1.5-4.3-0.5C588-12.4,588.7-9.9,590.3-10z"/>
			<path d="M602.1,17.7c-0.7-0.4-1.4-0.9-1.9-1.5c-2-2.7-0.2-6.9,2.9-8.1c2.3-0.9,5.1-0.5,6.6,1.4c1.7,2,1.5,5.3-0.3,7.2
				C607.6,18.5,604.4,18.9,602.1,17.7 M604.2,11.7c-0.9,0.1-1.3,1.5-0.8,2.3c0.6,0.7,1.8,0.9,2.6,0.3c0.8-0.5,1.3-1.7,0.7-2.5
				c-0.5-0.8-2-0.8-2.4,0.1L604.2,11.7z"/>
		</g>
	</g>
	<g id="fish-1">
		<g>
			<path d="M475.3,5.5c0.7,1.1,1.9,2.3,3.1,1.7c23-12.5,52.9-11.1,74.7,3.3c1.9,1.3,2.5,3.8,2.1,6.1c-0.5,2.2-1.9,4.1-3.3,5.9
				c-8.5,10.2-20.4,17.5-33.4,20.1c-13,2.7-26.9,0.8-38.7-5.2c-2.8-1.4-5.6,1.7-7.1,4.5c-2.7,4.8-5.4,9.5-8.1,14.3
				c-0.7,1.3-2.8,1-3.7-0.2c-0.9-1.1-0.9-2.7-0.9-4.1c0-20.9,0-41.7,0-62.5c0-2.6,0.9-6.1,3.4-5.9c2.1,0.1,3.1,2.5,3.7,4.5
				C469-6.1,471.8-0.1,475.3,5.5 M550.2,17.1c0.5-0.7,0.9-1.6,0.8-2.5c-0.1-1.3-1.3-2.1-2.4-2.7c-22.3-13.4-52.5-12.4-73.9,2.5
				c-2.7-5.7-5.5-11.3-8.1-16.9c-0.5-1.1-1.9-2.3-2.6-1.3c-0.2,0.3-0.2,0.6-0.2,0.9c0.1,16.3,0.1,32.5,0.2,48.8c0,1,1.1,2.3,1.6,1.5
				c2.3-4.3,4.6-8.6,6.9-12.9c1.1-2.1,3.3-4.5,5.3-3.2c14.2,9.3,33.1,11.1,48.7,4.4c-4.5-2.9-9.6-6.9-9-12.2c4.7,1,6.6,7.6,11.3,8.8
				c3.4,0.9,6.7-1.4,9.5-3.5C542.7,25.5,547.3,21.9,550.2,17.1"/>
			<path d="M551.2-9.5c-1.7,2.6-4.8,4.5-7.8,3.9c-3-0.7-5.2-4.4-3.6-7.1c0.6-1,1.6-1.7,2.6-2.4c1.5-1,3.1-2.1,4.9-1.6
				c0.7,0.2,1.3,0.6,1.8,1.1C550.9-14.1,552.4-11.5,551.2-9.5 M546.4-9.9c0.7-0.5,1.1-1.6,0.8-2.5c-0.9-0.7-2.3-0.9-3.3-0.3
				c-1,0.6-1.4,2-0.7,2.9s2.4,0.8,2.7-0.3L546.4-9.9z"/>
			<path d="M539.6-61.1c-0.1-1.3,0.2-2.5,0.8-3.6c1.6-2.6,5.4-3.5,8-1.8c2.5,1.7,3.3,5.5,1.6,8c-1.3,1.9-3.9,2.9-6.1,2.3
				C541.6-56.7,539.8-58.8,539.6-61.1 M545.6-63.1c-0.9-0.5-2.2,0.3-2.3,1.3c-0.1,1.1,1,2,2.1,1.8c1.1-0.2,1.7-1.3,1.5-2.3
				c-0.1-0.6-0.6-1.1-1.1-1.1L545.6-63.1z"/>
			<path d="M535.8-36.7c1.9-2.2,4.9-3.7,7.7-2.9c2.8,0.7,4.8,4.2,3.3,6.7c-1.1,1.9-3.2,3.2-5.4,3.2c-2.2,0-4.4-1.1-5.5-3
				C535.1-33.9,534.8-35.6,535.8-36.7 M541.5-36.7c-1.3-0.3-2.5,1.2-2.1,2.3c0.4,1.2,2.3,1.5,3.1,0.6S542.8-36.4,541.5-36.7z"/>
			<path d="M538.7,20.1c-1.1,1.3-2.6,2.5-4.3,2.6c-1.8,0.1-3.6-0.8-4.6-2.3s-1.2-3.5-0.6-5.1c0.9-2.7,4-4.5,6.7-3.9s4.7,3.7,3.9,6.5
				C539.7,18.7,539.2,19.4,538.7,20.1 M532.5,15.9c-0.6,1.2,0.5,2.9,1.9,2.9c1.4-0.1,2.3-1.9,1.5-3.1
				C535.2,14.5,533.1,14.7,532.5,15.9z"/>
		</g>
	</g>
</g>
</svg>
