<?xml version="1.0" encoding="utf-8"?>
<!-- Generator: Adobe Illustrator 18.1.0, SVG Export Plug-In . SVG Version: 6.00 Build 0)  -->
<!DOCTYPE svg PUBLIC "-//W3C//DTD SVG 1.1//EN" "http://www.w3.org/Graphics/SVG/1.1/DTD/svg11.dtd">
<svg version="1.1" id="Layer_1" xmlns="http://www.w3.org/2000/svg" xmlns:xlink="http://www.w3.org/1999/xlink" x="0px" y="0px"
	 width="800px" height="470px" viewBox="0 0 800 470" enable-background="new 0 0 800 470" xml:space="preserve">
<g>
	<g id="bulb">
		<g>
			<path d="M247.4,445.2c-7.8,3.9-16,6.8-24.8,7.7c-7.3,0.7-16-0.8-19.5-7.3c-0.9-1.6-1.4-3.5-0.9-5.2c0.5-1.7,2.1-3.2,3.8-3.2
				c1.8,0.1,3.4,2.1,2.7,3.7c-1.1,2.7,1,5.9,3.7,7.1c2.7,1.2,5.9,0.7,8.8,0.2c8.7-1.6,17.3-4,25-8.6c7.6-4.5,14.1-11.3,17.1-19.8
				c0.3-1,0.8-2.2,1.8-2.8c1.3-0.7,3,0.3,3.6,1.7c0.5,1.4,0.3,2.9-0.1,4.4C265.6,433.3,256.6,440.5,247.4,445.2z"/>
			<path d="M197.3,400.3c-1,1.7-0.2,4.1,1.5,5.2c1.7,1.2,3.7,1.4,5.7,1.4c19,0.5,36.4-10.8,50.8-23.2c1.4-1.2,2.9-2.4,4.7-2.4
				c1.7,0.1,3.4,2.4,2.2,3.7c-13.1,13.9-30.8,23.2-49.8,25.8c-3.8,0.5-7.8,0.8-11.6-0.1c-3.8-0.9-7.4-3.1-9.2-6.6
				c-0.9-1.7-1.3-3.6-0.8-5.4s2.4-3.2,4.2-2.9C196.8,396.4,198.3,398.7,197.3,400.3z"/>
			<path d="M153.8,99.6c10.2-6.8,21.7-11.9,33.9-13.2c23.4-2.5,46.5,9.2,63.5,25.6c21.1,20.4,35,48.8,35.3,78c0.1,9.1-1,18.1-2.7,27
				c-4.4,23.8-12.3,46.8-18,70.4c-5.7,23.5-9,48.3-4.1,71.9c1.4,6.9-4.2,13.2-9.8,17.4c-16.3,11.9-37.3,16.9-57.2,13.7
				c-1.8-0.3-3.7-0.7-5.2-1.7c-2.7-2-3.4-5.7-4-9c-5.9-32-28-58.1-48.1-83.5c-20.2-25.5-39.9-54.4-39.7-86.8
				c0.1-13.3,3.6-26.3,7.6-38.9c4.2-13.1,9.1-26,16.4-37.8C129.9,119.6,140.9,108.2,153.8,99.6 M177.1,92.2
				c-8.4,2.4-16.2,6.9-23.3,12.2c-9.8,7.3-18.2,16.4-24.9,26.6c-6.4,10-11.3,20.9-15.3,32.1c-5.9,16.1-10.7,32.9-9.9,50
				c1.5,32.1,21.9,59.9,42.2,84.9s41.8,51.4,46.3,83.2c0.1,1,0.3,1.9,0.7,2.7c1,1.6,3,2.1,4.9,2.4c18.3,2.6,37.6-3,51.6-14.9
				c3.4-2.9,6.8-6.9,6-11.3c-4.5-25-0.6-50.8,5.4-75.5c6-24.7,14.1-49,18.1-74c1.7-10.7,2.6-21.6,1-32.4c-1.2-8.2-3.8-16.1-6.9-23.8
				c-8-19.3-19.9-37.5-36.7-49.8S197.1,86.3,177.1,92.2z"/>
			<path d="M198.8,426.4c-1.2-1.7-1.8-3.9-1.2-5.9c0.6-2,2.6-3.6,4.6-3.3c2.1,0.3,3.6,2.9,2.5,4.6c-1.1,1.8,0.3,4.4,2.4,5.2
				s4.2,0.3,6.4-0.2c16.5-4.2,32-12.4,44.8-23.8c1.7-1.6,4.4-3.2,6.2-1.7c1,1,1,2.7,0.3,3.9c-0.7,1.2-1.8,2.1-3,2.9
				c-14,9.8-28.5,19.9-45.3,22.9C210,432.2,202.4,431.7,198.8,426.4z"/>
			<path d="M247.1,455.3c1.6,1.5,1.6,3.9,1.5,6c-0.1,3-0.5,6.5-3,7.9c-2,1.2-4.6,0.6-6.4-0.7c-1.8-1.3-3-3.4-4.2-5.5
				c-0.7-1.4-1.5-2.9-1.3-4.4c0.1-1.6,1.5-3.2,3-2.9c3.2,0.5,2.2,6.4,5.3,7.4c1.1-1.5,0.9-3.6,1.3-5.4
				C243.6,456.1,245.6,454.2,247.1,455.3z"/>
			<path d="M217.7,177.7c4.6-1.2,10.4-3.9,10.1-8.6c-0.5-6.1,7.5-10.9,12.7-7.8c5.2,3.2,4.7,12.3-0.8,15c-3.9,1.8-6.5,5.7-8.9,9.3
				c-7.2,11.3-14.5,22.6-21.7,33.9c-2.2,3.4-4.4,6.9-5.4,10.9c-1,4.5-0.3,9.3,0.3,13.9c5.6,35.1,13,69.7,22.3,104
				c0.3,1.4,0.8,2.9,0.3,4.3c-0.5,1.4-1.9,2.5-3.3,2c-1.1-0.5-1.6-1.8-1.9-3c-9.8-37.8-18-76-24.6-114.5c-0.9-5.1-5.5-8.6-9.8-11.5
				c-9.9-6.8-19.9-13.5-29.8-20.4c-1.8-1.2-4.4-2.5-6.2-1.2c-4.6,3.4-12.3-0.3-12.6-6c-0.3-5.7,7.1-10.1,12-7.1
				c5,3.1,11.3,1.7,16.9,0.2C184.2,186.7,201,182.2,217.7,177.7 M201.7,221.6c8.9-13.6,17.5-27.4,26.1-41.2c-2-0.5-4.2,0-6.3,0.5
				c-20.5,5.2-40.9,10.5-61.5,15.7c-1.1,0.3-1.5,1.7-1,2.8c0.5,1,1.5,1.7,2.4,2.4c10.6,7,21,14.1,31.5,21.1c1.7,1.2,3.8,2.4,5.7,1.7
				C200.2,224,201,222.8,201.7,221.6 M235.3,164.4c-3,2.2-4.1,6.7-2.2,10c2.5,0.5,5.3-1.4,5.9-3.9
				C239.4,167.9,237.8,165.1,235.3,164.4 M145,199.3c0.6,0.8,1.4,1.6,2.4,1.5c1.1-0.1,1.9-1.3,2.1-2.4c0.3-1.4-0.1-3.1-1.2-3.9
				c-1.1-0.9-3-1-3.9,0.2C143.3,195.9,144,197.9,145,199.3z"/>
		</g>
	</g>
	<g id="rays">
		<g>
			<path d="M225.5,64.9c-0.8-0.3-0.6-1.5-0.3-2.2c2.8-7.3,5.5-14.6,8.3-21.9c1.7-4.6,3.5-9.3,5.2-13.9c0.5-1.3,1-2.8,2.2-3.7
				c1.1-0.9,3-1,3.8,0.3c0.7,1,0.3,2.4-0.2,3.6c-0.8,2-1.5,3.9-2.2,5.9c-3.5,9.2-6.9,18.3-10.4,27.5c-0.5,1.4-1.1,2.9-2.2,3.9
				C228.6,65.4,226.8,65.8,225.5,64.9z"/>
			<path d="M86.4,61.1c1-1,2.8-0.9,3.9,0c1.1,0.8,1.9,2.1,2.6,3.4c5.7,10.3,12.2,19.8,19.5,28.9c1,1.2,0.3,3.1-1,3.7
				c-1.3,0.6-3,0.3-4.1-0.6c-1.2-0.9-2-2.1-2.8-3.3c-5.7-8.8-11.5-17.5-17.2-26.3C86,65,85,62.5,86.4,61.1z"/>
			<path d="M92.6,341c-2,2.9-4.1,5.9-6.7,8.2c-0.9,0.8-1.8,1.5-3,1.4c-1.1-0.1-2.2-1.4-1.5-2.4c8.1-11.6,16.2-23.3,24.3-35
				c0.9-1.2,1.8-2.5,3.2-3c1.4-0.5,3.3,0.5,3.2,2c0,0.6-0.5,1.2-0.8,1.7C105.2,323,98.9,332,92.6,341z"/>
			<path d="M162.4,65.8c-0.7-7-2.5-13.8-4.2-20.6c-0.7-2.6-1.4-5.2-2.1-7.9c-0.5-1.5-0.8-3.1-0.6-4.6c0.2-1.6,1.1-3.2,2.6-3.6
				c1.5-0.5,3.4,0.7,3.3,2.2c-0.3,6.1,1.7,12,3.4,17.9c2,7.3,3.3,14.7,3.8,22.2c-1,1.5-3.6,1-4.7-0.5
				C162.7,69.6,162.6,67.6,162.4,65.8z"/>
			<path d="M279.9,92c-0.5,0-0.8-0.1-1.1-0.5c-0.7-0.7-0.1-1.8,0.5-2.6c8.9-10.5,21.1-17.7,31.5-26.7c1-0.9,2-1.7,3.2-2.1
				s2.8,0.1,3.4,1.2c0.9,1.8-1,3.6-2.7,4.7c-9.1,5.9-18,12.3-25.4,20.2C286.6,89.2,283.7,92.3,279.9,92z"/>
			<path d="M355.7,120.9c-8.9,2.9-17.6,6.1-26.1,9.7c-5.2,2.2-10.2,4.4-15.4,6.6c-1.2,0.5-2.6,1-3.8,0.7c-1.3-0.3-2.4-1.8-1.7-3
				c0.3-0.7,1.1-1,1.8-1.3c12.7-5,25.6-10.1,38.2-15c1.5-0.5,3-1.2,4.5-0.9C354.7,117.9,356.1,119.4,355.7,120.9z"/>
			<path d="M351.5,267.9c-0.9,0.3-1.8,0.2-2.7,0c-15.4-2.9-30.8-5.8-46.3-8.6c-0.3-1.6,1.1-3.2,2.7-3.6c1.6-0.5,3.2-0.1,4.9,0.3
				c13.6,3,27.2,5.4,40.9,7.4C353,263.6,353.4,267.1,351.5,267.9z"/>
			<path d="M41.1,130.6c0-1.2,1.3-2.1,2.5-2.2c1.2,0,2.4,0.6,3.4,1.2c10.5,5.7,20.9,11.5,31.4,17.1c0.8,0.5,1.7,1,2,1.9
				c0.5,1.4-1,2.7-2.4,2.8c-1.4,0.1-2.7-0.6-4-1.3c-10.2-5.7-20.4-11.3-30.6-16.9C42.3,132.8,41.1,131.9,41.1,130.6z"/>
			<path d="M369.3,194.7c-0.6,0.5-1.6,0.5-2.4,0.5c-15-0.9-30-0.5-44.9,1.3c-1.7,0.2-2.4-2.4-1.2-3.7c1.1-1.2,3-1.4,4.6-1.4
				c13.1-0.3,26.1-0.8,39.1-1.2c1.5,0,3-0.1,4.2,0.8C369.9,191.9,370.6,193.9,369.3,194.7z"/>
			<path d="M50.2,272.7c-1,0.5-2.2,0.9-3.2,0.5c-1-0.5-1.6-2.1-0.6-2.7c9.6-5.9,19.2-11.8,28.9-17.7c1.2-0.7,2.4-1.5,3.8-1.5
				c1.4,0,2.9,1,2.8,2.4c-0.1,1.6-1.9,2.4-3.4,2.9C68.3,260.4,60.1,268.2,50.2,272.7z"/>
			<path d="M69.8,205.2c0.5,1.2-0.6,2.5-1.8,3c-1.2,0.3-2.6,0.1-3.8-0.2c-10.8-2.4-21.8-3.4-32.9-4.4c-1.5-0.2-1.7-2.4-0.5-3.4
				c1.1-0.9,2.8-0.8,4.2-0.6c10.5,1.3,20.9,2.5,31.5,3.9C67.8,203.5,69.3,203.9,69.8,205.2z"/>
		</g>
	</g>
</g>
<g>
</g>
<g>
</g>
<g>
</g>
<g>
</g>
<g>
</g>
<g>
</g>
<g>
</g>
<g>
</g>
<g>
</g>
<g>
</g>
<g>
</g>
<g>
</g>
<g>
</g>
<g>
</g>
<g>
</g>
</svg>
