<?xml version="1.0" encoding="utf-8"?>
<!-- Generator: Adobe Illustrator 18.1.0, SVG Export Plug-In . SVG Version: 6.00 Build 0)  -->
<!DOCTYPE svg PUBLIC "-//W3C//DTD SVG 1.1//EN" "http://www.w3.org/Graphics/SVG/1.1/DTD/svg11.dtd">
<svg version="1.1" id="Layer_1" xmlns="http://www.w3.org/2000/svg" xmlns:xlink="http://www.w3.org/1999/xlink" x="0px" y="0px"
	 width="800px" height="470px" viewBox="0 0 800 470" enable-background="new 0 0 800 470" xml:space="preserve">
<g>
	<path d="M287.4,138.6c8.3-2.1,16.4-3.9,24.6-6c1.9-0.4,3.9-0.9,5.6,0c1.1,0.7,2,1.7,2.6,2.8c15.7,24,31.4,47.9,47.2,71.8
		c1.2,2,2.5,3.9,2.4,6.2c-0.1,2.3-2.2,4.6-4.3,3.9c-3.2-9.6-8.8-18.1-14.5-26.6c-11.3-16.9-22.7-34-33.8-51.1
		c-1.1-1.6-2.5-3.5-4.6-3.6c-11.8,0-23.5,5.5-30.8,14.7c-0.7-1.9-1.3-3.7-2-5.5c-2.4,1.2-4.3,3.8-4.5,6.6c-3.8-2.2-8-4.4-12.2-3.9
		c-4.3,0.7-8.2,5.5-5.9,9.4c15.6,26.2,31.3,52.5,46.9,78.7c2.7,4.6,8,10,12.7,7.3c15.1-8.6,30.7-16.4,46.6-23.1
		c-5.8,8.2-6.4,18.8-6.8,28.8c-0.8,19.6-1.4,39.3-2.2,58.9c-0.3,7.7-1.6,17-8.7,20c-15.7,6.6-31.5,13.2-47.3,19.8
		c-4.3,1.9-9.6,5.6-7.5,10c0.8,1.7-0.7,3.9-2.4,4.5c-1.9,0.8-3.8,0.3-5.7-0.1c-28.2-5.7-56.3-11.5-84.5-17.1c-3.2-0.7-6.9-1.9-7.5-5
		c-0.4-2.2-0.1-5.8-2.4-5.5c-9.8,1.7-19.6,3.6-29.4,5.3c-3.4,0.7-6.9,1.2-10.2,0.4c-3.3-0.8-6.6-3.3-7-6.7c-0.9-6.7,8-9.9,14.6-10.8
		c24.9-3.5,49.5-9.7,73-18.6c3.9-1.4,8-3.1,12.1-3.1c4.2,0,8.7,2,10.4,5.8c1.9,4.3-0.4,9.6-4.2,12.6c-3.7,2.8-8.6,3.9-13.2,5.1
		c-11.8,2.6-23.6,5.3-35.4,8.1c-2.7,0.7-3.2,4.7-1.4,6.9c1.7,2.2,4.7,2.8,7.5,3.4c24.2,4.8,48.2,9.7,72.4,14.5
		c2,0.4,4.4,0.7,5.5-1.1c0.5-0.8,0.5-1.7,0.7-2.5c1.7-36.3,3.5-72.5,5.3-108.8c5-0.3,10.1-0.5,15.1-0.7
		c-18.3-30.6-36.8-61.1-55.1-91.8c-23.2,23.6-44,49.6-61.7,77.6c-1.4,2.2-1.6,6.3,0.9,6.1c3.6-0.3,6.9,2.4,8.4,5.7
		c1.4,3.3,1.3,7,1.3,10.6c-0.3,19.1-0.8,38.3-1,57.3c-0.8,1.4-3.2,1-4.2-0.3c-1-1.3-1-3.1-0.9-4.7c0.4-17.4,0.8-34.8,1.1-52.3
		c0.1-5.7-2-13.6-7.7-13.1c-2.6,0.3-4.8-2.5-4.8-5.2c0-2.6,1.4-5.1,2.8-7.3c15.4-24.1,33.8-46.1,52.8-67.3
		c6.6-7.3,15-15.2,24.7-13.4c4.5,0.8,8.9-2.8,10.5-7.2c1.5-4.3,1.1-9.1,0.7-13.6c-0.4-3.5-1.4-7.7-4.8-8.6
		c-19.4-5.2-33.8-25.2-32.5-45.3c0.3-4.4,1.2-9.1,0.3-13.4c-0.9-4.4-4.6-8.6-9.2-8.3c5.3-4.5,10.7-8.9,15.9-13.4
		c3.7-3.2,7.7-6.3,12.6-7.1c8-1,15.1,5.3,18.5,12.7c3.4,7.2,4.4,15.4,7.3,22.8c2.8,7.4,8.8,14.7,16.8,15.2
		c10.7,0.8,18.3-10.7,19.7-21.3c0.5-3.9,7-4.3,9.4-1c2.4,3.3,1.6,7.9,0.8,11.8c-4,18.8-12.4,39.7-30.6,46
		C287.3,119,282.9,130.4,287.4,138.6 M344.7,232.3c-13.3,10-29.1,16.3-45.6,17.9c-1.2,0.1-2.5,0.3-3.3,1.2c-0.4,0.7-0.5,1.4-0.7,2.2
		c-3.1,29.8-4.4,59.8-4.2,89.8c0,0.8,0,1.4,0.5,2c0.8,0.9,2.4,0.5,3.5,0c14.7-6.1,29.3-12.3,44-18.5c2.5-1,5.1-2.2,7-4.3
		c2.4-2.9,2.7-7.1,2.9-11c1.2-25.8,2.5-51.5,3.8-77.2c0.1-1,0.1-2.3-0.5-3.1C350.6,228.9,347,230.5,344.7,232.3 M234.5,48
		c1.4,2.4,4,4,7,4.4c-5.5,16.5-3.2,35.8,8,49.1c11.1,13.3,31.3,18.9,46.7,11c9.2-4.6,15.8-13.3,20-22.7c4.2-9.3,6.3-19.4,6.3-29.6
		c-2.7,1.7-3.3,5.5-4.3,8.6C314.9,80,300.8,86.6,290,82c-7.4-3.2-12.3-10.4-15.4-17.8c-3.1-7.3-4.7-15.4-7.9-22.9
		c-1.4-3.5-3.5-7.2-7-8.5c-4.8-1.7-10,1.5-13.4,5.3C242.7,41.9,239.4,46.4,234.5,48 M158,336.5c28.6-3.4,56.9-9.7,84.3-18.6
		c1.6-0.5,3.5-1.1,4.5-2.5c2.4-3.2-0.5-8.2-4.4-9.2c-3.9-1-8,0.7-11.7,2.1c-21,8.2-43,12.7-65.2,16.8c-3.1,0.7-6.2,1.2-8.5,3.5
		C155,331,155,335.3,158,336.5 M281.1,121.7c0-0.4,0-0.8-0.2-1.1c-0.7-1.2-2.5-0.5-3.4,0.8c-1.1,1.7-1.2,3.8-1.2,5.8
		c-0.1,4.4,0.1,8.9,0.5,13.4c0.8,1,2.5,0.7,3.4-0.4c0.8-1,0.8-2.4,0.8-3.8C281.1,131.4,281.1,126.6,281.1,121.7 M147.4,332.4
		c-0.9,1.6,1,3.9,2.8,3.4c1.7-1.6,1.1-5-1-5.8C148.5,330.7,147.8,331.5,147.4,332.4L147.4,332.4z"/>
	<path d="M229.3,251.8c0-1.4,0.3-2.8,0.8-4.3c1.6-5.8,6.3-11.7,12.6-11.8c4.7,0,9.1,3.5,10.9,7.9c2,4.7,1.4,10.5-1.6,14.5
		c-3.1,3.9-8.6,6.1-13.5,4.8C233.2,261.7,229.3,256.9,229.3,251.8 M241.4,259.2c0.2-4-3.1-8.2-1.9-12c0.8-2.4,2.9-4.9,1.5-7
		c-5.5,2.6-8,10.4-4.9,15.7C237.1,257.8,239.1,259.7,241.4,259.2 M244.7,254c0.2,0.7,0.5,1.3,1.1,1.6c0.5,0.2,1.1,0.2,1.6,0.1
		c2.4-3.8,2.2-9.1-0.3-12.8C244.4,245.8,243.4,250.2,244.7,254z"/>
	<path d="M251.5,42c0.3,0.7,0.4,1.3,0.2,2.1c-1.1,0.7-2.6,0.4-3.5-0.5C249,42.4,250.3,41.8,251.5,42L251.5,42z"/>
	<g>
		<path d="M93.5,337c0.9-1,0.4-2.9-0.9-3.3c-1.3-0.3-2.7,1.1-2.4,2.4C90.5,337.5,92.5,337.9,93.5,337z"/>
		<path d="M37.3,439.5c14.2-1.2,26.7-13,28.8-27.1c0.1-1,0.2-2.1-0.4-2.8c-0.8-0.9-2.2-0.8-3.3-0.7c-3.7,0.7-7.3,2-10.6,3.9
			c-3.3,2-6.2,4.6-10,5.5c-3.7,0.8-8.6-1.4-8.5-5.3c0-2.5,2.2-4.6,4.2-6.1c2.1-1.5,4.4-3.3,4.9-5.8c0.5-2.5-2.2-5.6-4.4-4.3
			c-3.2,2-7.3-2.4-6.3-6.1c0.9-3.6,4.5-5.8,8-7.4c3.4-1.4,2.4-6.7,0-9.4c-2.4-2.6-6-4.7-7.1-8.3c-1.1-4.3,2.4-8.6,6.7-10.1
			s8.8-0.5,13.2,0.4c3.6,0.8,7.3,1.4,10.9,2.2c-1.2-10.9,1.9-22.8,9.8-30.3c8.1-7.6,21.3-9.8,30.3-3.6c5.1,3.5,11.9-0.4,16.8-4.2
			c1.9-1.4,4.5,1.2,4,3.6c-0.3,2.4-2.2,4-3.4,6c-3.1,5.3-1.2,12.1,0.8,18.1c1.3,4.2,2.7,8.4,4,12.6c0.9,2.6,3.2,6,5.6,4.7
			c8.6-4.2,17.9-7,27.4-8.4c4.2-0.5,9.4-0.4,11.6,3.2c2.1,3.4,0.2,8-2.4,10.8c-2.6,2.8-6.2,5-8.5,8.5c2.5,2.6,6.8,2.9,10.4,3.9
			c3.6,1,7.5,4.2,6.6,7.9c-1.3,5.1-10.4,4.8-11.8,10.1c4.3,3.1,8.7,6.2,11.7,10.7c2.8,4.5,3.8,10.6,0.8,15c-4.2,6.3-13.9,6-20.8,3.1
			c-7-3.1-13.3-8.2-20.8-9.4c-2.7-0.4-6.2,0.2-7,2.8c-5.1,18.9-19.5,35-37.8,42.3c-18,7.5-39.6,5.6-56.3-4.5
			c-1.4-0.9-2.9-2.1-3.4-3.7c-0.8-3.5-1.5-7.2-0.8-10.7C30.9,443.1,33.7,439.7,37.3,439.5 M52.3,465.1c12.6,2.6,26,1.9,38-2.8
			c11.9-4.8,22.3-13.9,27.8-25.4c3.5-7.1,5.1-14.9,6-22.8c2.6-21.5,0.2-43.6-6.9-64.1c-1.9-5.1-3.9-10.7-2.1-15.8
			c1.1-3.2,3.8-6.7,2-9.7c-2,2.2-4,4.4-6.8,5.6c-2.7,1.1-6.2,0.9-8.2-1.3c-6.1-7.5-19-5.9-25.9,0.9c-6.8,6.9-8.6,17.4-8.6,27.2
			c0.1,11,2.4,21.9,3.4,32.7c1,11,0.8,22.5-3.6,32.4c-4.4,10.1-13.9,18.5-24.9,19.1c-6.2,0.3-9.2,9.2-6,14.6
			C39.9,461.5,46.1,463.9,52.3,465.1 M158.1,384.3c-3.2,0-4.4-4.6-2.8-7.4c1.6-2.8,4.7-4.3,7.2-6.2c2.4-2.1,4.5-5.5,2.9-8.4
			c-1.9-3.5-7-2.7-10.7-1.5c-6.4,2.1-13,4-19.5,6.1c-3.5,1.1-7.7,3.4-7,7c2.4,13,2.8,26.2,1.1,39.3c-0.4,3.2,3.8,4.5,6.9,5
			c5.7,0.9,11.5,2.9,16.5,5.7c2.7,1.5,5.5,3.5,8.6,4.5c3.1,1,6.6,1.2,9.4-0.5c3.5-2.3,4.4-7.2,3.1-11.1c-1.3-3.9-4.5-6.9-8.1-9.2
			c-3.1-2.1-7.1-4.8-5.9-8.5c0.8-2.6,4-3.6,6.7-4.6c2.5-1,5.3-3.9,3.8-6.3c-0.5-0.8-1.4-1.3-2.3-1.7
			C164.8,384.9,161.6,384.3,158.1,384.3 M49.2,399.9c-0.3,0.9-0.9,1.6-1.6,2.4c-2.8,2.9-5.7,5.8-8.6,8.8c-1.2,1.2,0.4,3.5,2.2,3.5
			c1.8,0,3.2-1.2,4.5-2.3c4-3.2,8.9-5.2,14.1-6c1.6-0.3,3.4-0.4,4.9-1.1c1.5-0.8,2.7-2.3,2.5-3.9C66.1,391,65,380.9,64,370.5
			c-0.3-2.5-0.7-5.3-2.3-7.4c-1.6-2.2-4.4-3.1-7.1-3.7c-2.9-0.8-6-1-9.2-1.1c-2.6,0-5.7,0.4-7.2,2.6c-1.6,2.4-0.3,5.9,1.7,8.2
			c2.1,2.2,4.7,3.8,6.4,6.2c1.7,2.4,2.1,6.3-0.4,8.1c-2.4,1.6-4.6,3.2-7,4.8c-1.3,0.9-2.8,2.5-2.2,3.9c0.3,0.7,0.9,0.9,1.4,1.1
			c2.2,0.9,4.7,0.8,7,1.4C47.3,395.4,49.8,397.5,49.2,399.9z"/>
	</g>
</g>
<g>
</g>
<g>
</g>
<g>
</g>
<g>
</g>
<g>
</g>
<g>
</g>
<g>
</g>
<g>
</g>
<g>
</g>
<g>
</g>
<g>
</g>
<g>
</g>
<g>
</g>
<g>
</g>
<g>
</g>
</svg>
