<?xml version="1.0" encoding="utf-8"?>
<!-- Generator: Adobe Illustrator 18.1.0, SVG Export Plug-In . SVG Version: 6.00 Build 0)  -->
<!DOCTYPE svg PUBLIC "-//W3C//DTD SVG 1.1//EN" "http://www.w3.org/Graphics/SVG/1.1/DTD/svg11.dtd">
<svg version="1.1" id="Layer_1" xmlns="http://www.w3.org/2000/svg" xmlns:xlink="http://www.w3.org/1999/xlink" x="0px" y="0px"
	 width="800px" height="470px" viewBox="0 0 800 470" enable-background="new 0 0 800 470" xml:space="preserve">
<g>
	<g id="heart">
		<g>
			<path d="M157.4,127.2c-5.3,0-10.1,0.9-14.2,2.8c-6.2,2.8-11.8,7.9-16.5,15.2c-11.2,16.8-14.9,38.9-10.3,60.6
				c4.2,19.5,14.8,38.4,30.7,54.6c5.7,5.9,12,11.4,18.2,16.7c9.7,8.4,19.8,17.1,27.7,27.6c0.9,1.1,2.3,1.3,3.1,1.3
				c0.9,0,1.9-0.2,2.7-0.6c2.1-1.1,3.7-3.3,5.2-5.4l0.1-0.1c7-9.9,13.9-19.8,20.9-29.7c7-9.9,14-19.8,20.9-29.7
				c10.8-15.4,22.1-31.3,29.3-48.9c5.6-13.7,11.1-34.4,5.1-55.2c-2.8-9.5-11.9-17.2-22.8-19c-9.6-1.6-20.7,1.1-30.3,7.4
				c-7.7,5.1-14.9,12.4-22.4,23.2l-1.1,1.6l-1.3-1.4c-9.4-10.6-22.9-18-37-20.1C162.5,127.4,159.9,127.2,157.4,127.2z M196.7,294.1
				c-1.3,0-2.3-0.8-2.8-1.3c-6.9-5.9-13.8-11.9-20.5-17.7c-7.9-6.8-16.2-13.9-23.4-21.8c-14-15.4-23.2-33-26.6-50.7
				c-3.8-20.2,0-40.5,10.5-55.9c4.5-6.7,9.7-11.3,15.4-13.6c5.7-2.3,12.7-2.5,20.1-0.6c11.7,3,21.9,10.7,28.2,21l0.3,0.4
				c1.1,1.9,2.3,3.8,4,4.5c0.4,0.2,0.9,0.2,1.3,0.2c2.5,0,5.3-2.6,8.4-7.8c9.3-15.9,22.9-26.6,37.5-29.3c4.2-0.8,7.4-0.7,10.4,0.2
				c5.6,1.7,10.4,6.8,13,13.9c3.3,8.8,3.6,19.2,1.1,31.7c-5.6,27.9-21.7,52.5-37.6,75.3c-11.1,16-23.2,32.6-36,49.4
				c-0.6,0.7-1.5,1.9-3,2C196.9,294.1,196.8,294.1,196.7,294.1z"/>
		</g>
	</g>
	<g id="rays_1_">
		<g>
			<g>
				<path d="M151.8,32.2c-0.6,0-1.2,0.1-1.6,0.3c-1.5,0.7-2.5,2.6-2.2,4.3c2.4,13.6,4.8,27.7,5.9,41.7c0.2,3.4,0.5,6.2,2.1,8.3
					c0.9,1.1,2.4,1.9,3.8,1.9c0.6,0,1.5-0.2,2.1-0.9c1-1.2,0.8-3.1,0.5-4.9c-0.8-5.8-1.5-11.6-2.3-17.4c-0.8-5.8-1.5-11.6-2.3-17.4
					c-0.2-1.6-0.4-3.1-0.6-4.7c-0.2-1.6-0.4-3.1-0.6-4.7c-0.3-2-0.5-3.9-1.6-5.2C154.2,32.7,153,32.2,151.8,32.2z"/>
			</g>
			<g>
				<path d="M92.2,249.1c-0.2,0-0.3,0-0.5,0.1c-7.4,5-14.8,10.1-22.1,15.1c-7.3,5-14.6,10-21.9,15c-1.3,0.9-2.3,1.7-2.6,2.6
					c-0.2,0.6-0.1,1.3,0.4,1.8c0.8,1.1,2.4,1.8,3.8,1.6c2.5-0.3,4.6-2.2,6.7-4.1l0.4-0.4c5.6-4.9,11.9-8.9,18-12.8
					c5.5-3.5,11.2-7.2,16.2-11.3c1.7-1.4,3.5-3.1,3.7-5.1c0-0.6-0.2-1.3-0.7-1.8C93.1,249.4,92.6,249.1,92.2,249.1z"/>
			</g>
			<g>
				<path d="M122.6,312.7c-0.5,0-1,0.1-1.5,0.2c-2.2,0.8-4,2.8-5.7,4.8c-8.8,10.1-18.6,19.6-29.1,28c-2.1,1.8-4.3,3.8-3.7,5.9
					c0.4,1.5,2.1,2.2,3.6,2.2c0.4,0,0.7,0,1-0.1c2.1-0.5,4-2.1,5.7-3.7l0.2-0.2c10.1-9.2,20.8-19.3,30.5-30.3
					c1.2-1.3,2.6-3.1,2.3-4.7C125.8,313.4,124.1,312.7,122.6,312.7z"/>
			</g>
			<g>
				<path d="M56.5,68.3c-0.6,0-1.2,0.1-1.8,0.3c-0.5,0.2-1.5,0.6-1.9,1.3c-0.3,0.5-0.2,1.2,0.1,1.4c10.6,8.4,22.7,17.8,31.6,29.6
					l0.3,0.5c1.4,1.9,2.8,3.8,4.6,4.9c0.9,0.5,1.9,0.8,2.9,0.8c0.8,0,1.8-0.2,2.6-1c1.1-1.3,1-3.2,0.4-4.6c-0.8-1.8-2.4-3.2-3.9-4.6
					C83,89.2,74.7,81.4,66.7,74C63.7,71.2,60.1,68.3,56.5,68.3z"/>
			</g>
			<g>
				<path d="M226.8,342.8c-0.6,0-1.4,0.1-2,0.7c-1.4,1.2-1.4,3.8,0,7.4c2.7,6.9,5.9,13.8,8.9,20.5l0.6,1.3c0.8,1.7,1.6,3.3,2.3,5
					c0.8,1.7,1.6,3.4,2.3,5l0.1,0.1c1.3,2.7,2.6,5.4,4.8,6.9c0.9,0.6,2.1,1,3.2,1c0.8,0,2.3-0.2,3.1-1.5c1.4-2.2-0.3-5.4-1.9-8
					c-6.2-9.8-11.1-20-14.5-30.2l-0.1-0.4c-0.8-2.4-1.7-5-3.3-6.6C229.5,343.4,228.1,342.8,226.8,342.8z"/>
			</g>
			<g>
				<path d="M275,278.3l-0.1,0c-0.9,0-1.9,0.5-2.5,1.1c-0.4,0.5-0.4,0.8-0.4,0.9c0,0.8,0.8,1.6,1.6,2.4c6.6,6.5,13.5,12.7,20,18.5
					c0.9,0.8,1.7,1.5,2.6,2.3c0.9,0.8,1.8,1.5,2.6,2.3c1.8,1.6,3.4,3,5.3,3.8c0.8,0.3,1.6,0.5,2.4,0.5c0.8,0,1.9-0.2,2.7-0.9
					c0.6-0.5,1-1.5,1-2.3c0-0.4-0.1-1.1-0.7-1.5c-8.2-6.2-16.6-13.4-25.7-22C281,280.6,278.2,278.3,275,278.3z"/>
			</g>
			<g>
				<path d="M317.5,229.2c-0.7,0-2.3,0.1-3.2,1.4c-0.3,0.5-0.4,1.2-0.2,1.8c0.1,0.2,0.3,0.7,0.7,0.9c6.3,2.6,12.6,5.2,18.9,7.8
					c6.3,2.6,12.7,5.2,19,7.8c2,0.8,3.9,1.6,5.8,1.4c1.5-0.2,3.1-1.4,3-2.8c-0.1-1.4-1.7-2.5-4.8-3.5c-11.4-3.6-22.7-7.9-33.5-13
					c-1.8-0.9-3.4-1.6-5.1-1.8C317.9,229.2,317.7,229.2,317.5,229.2z"/>
			</g>
			<g>
				<path d="M251.1,30c-1.4,0-2.8,0.9-3.3,2.1c-0.3,0.7-0.4,1.5-0.5,2.4c-0.8,5.7-1.6,11.4-2.4,17.1c-0.9,6.7-1.9,13.4-2.8,20.1
					c-0.1,0.9-0.2,1.6,0,2.1c0.3,0.6,1.2,1,2.1,1.3c1,0.3,2.5,0.7,3.5,0.3c1.4-0.6,1.9-2.4,2.3-5c0.8-5.7,1.6-11.5,2.4-17.3
					c0.8-5.8,1.6-11.5,2.4-17.3c0.1-0.9,0.3-1.8,0.1-2.6c-0.3-1.6-1.6-3-3.1-3.3C251.5,30,251.3,30,251.1,30z"/>
			</g>
			<g>
				<path d="M34.4,170.7c-1.3,0-2.3,0.2-3.2,0.7c-0.8,0.4-1.3,1.1-1.2,1.5c0,0.1,0.2,0.4,0.5,0.7c1.8,1.8,4.8,2.4,7.4,2.8
					c14.2,2.1,28.9,2.6,43.2,1.5c0.4,0,0.7-0.4,0.8-0.5c0.3-0.4,0.4-1,0.3-1.5c-0.3-1-1.3-2-2.6-2.3c-0.8-0.2-1.7-0.3-2.9-0.3
					c-0.6,0-1.2,0-1.8,0l-0.7,0c-4.7,0.2-9.5,0.5-14.3,0.5c-7.5,0-13.6-0.6-19.1-1.9l-0.5-0.1C38.4,171.2,36.3,170.7,34.4,170.7z"/>
			</g>
			<g>
				<path d="M331.8,49.5c-1.4,0-3,1.3-4.4,2.7l-23.6,23.6c-0.9,0.9-1.9,2.1-1.8,3c0.1,0.5,0.7,1.1,1.5,1.5c1.8,0.9,4.1,0.8,5.8-0.1
					c1.2-0.6,2.2-1.6,3.2-2.6l22.8-23c0.6-0.6,1.2-1.2,1.3-1.8c0.2-0.8-0.4-1.5-1-1.9c-0.8-0.6-1.9-0.9-3.2-1.2
					C332.2,49.5,332,49.5,331.8,49.5z"/>
			</g>
			<g>
				<path d="M329.9,149.8c-1.2,0-2.2,0.2-3,0.7c-0.4,0.2-0.6,0.4-0.7,0.7c-0.2,0.5,0.2,1.4,0.8,1.9c0.9,0.7,2.2,0.9,3.4,1.1
					c11.4,1.9,23,3.5,34.3,4.7c1.2,0.1,2.6,0.2,3.6,0c0.9-0.2,1.6-0.9,1.7-1.5c0.1-0.7-0.5-1.6-1.4-2.1c-0.9-0.5-2-0.7-3.3-0.9
					l-0.4-0.1l-8.4-1.1c-5.5-0.7-11-1.4-16.5-2.1c-1.2-0.1-2.4-0.3-3.6-0.5c-1.2-0.2-2.4-0.3-3.6-0.5
					C331.9,149.9,330.8,149.8,329.9,149.8z"/>
			</g>
		</g>
	</g>
</g>
<g>
</g>
<g>
</g>
<g>
</g>
<g>
</g>
<g>
</g>
<g>
</g>
<g>
</g>
<g>
</g>
<g>
</g>
<g>
</g>
<g>
</g>
<g>
</g>
<g>
</g>
<g>
</g>
<g>
</g>
</svg>
