<?xml version="1.0" encoding="utf-8"?>
<!-- Generator: Adobe Illustrator 18.1.0, SVG Export Plug-In . SVG Version: 6.00 Build 0)  -->
<!DOCTYPE svg PUBLIC "-//W3C//DTD SVG 1.1//EN" "http://www.w3.org/Graphics/SVG/1.1/DTD/svg11.dtd">
<svg version="1.1" id="Layer_1" xmlns="http://www.w3.org/2000/svg" xmlns:xlink="http://www.w3.org/1999/xlink" x="0px" y="0px"
	 width="800px" height="470px" viewBox="0 0 800 470" enable-background="new 0 0 800 470" xml:space="preserve">
<g>
	<path d="M249.5,79.6c4.7-0.1,9.2,2.9,11.2,7.2s1.7,9.4-0.5,13.6c-2.2,4.1-6.1,7.3-10.5,8.9c-2.3,0.9-4.9,1.3-7.4,0.9
		c-2.3-0.5-4.4-1.8-5.8-3.7c-1.3-1.8-1.9-4-2.5-6.2c-0.6-2-1.1-4-0.9-6.1c0.3-2.9,2.1-5.4,4-7.5C240.4,82.9,244.6,79.7,249.5,79.6
		 M247.6,105.5c3.8-1.9,7.1-5.2,8.4-9.2c1.3-4.1,0.3-9-2.9-11.7c-0.5-0.5-1.1-0.9-1.9-1.1c-2-0.7-4.2,0.3-6,1.6
		c-3,2.1-5.5,5.2-6.5,8.6c-1.1,3.5-0.5,7.6,1.7,10.5c0.9,1.1,2.1,2.1,3.5,2.3C245.4,106.5,246.6,106.1,247.6,105.5z"/>
	<path d="M360.2,134.4c3.3-4,5.8-8.6,7.2-13.5c0.5-1.6,0.8-3.3,0.3-4.9c-1.1-3.6-6.3-5.2-10.3-4.1c-4,1-7.2,3.7-10.2,6.4
		c-0.4-3.1-0.7-6.4-2.7-9c-2-2.5-6.2-4.1-9.1-2.3c-1.5,0.9-2.3,2.3-3.1,3.7c-2.3,4.3-4.1,8.8-5.5,13.4c-1.3-5.8-10.4-8.6-15.5-4.9
		c-5.1,3.7-3.7,12.2,2.2,14.6c-7.6-0.9-11.7,7.2-16.9,12.1c-4.8,4.6-11.8,6.9-18.3,9.5c-15.9,6.4-30.2,15.7-41.9,27.2
		c-5.4,5.3-10.4,11.1-16.9,15.3c-2.7,1.8-5.8,3.3-9,4.1c-3.8,0.2-7.9,0.4-12,0.6c-0.5-0.1-1.1-0.3-1.5-0.4
		c1.7-8.2,3.5-16.5,8.1-23.6c4.5-7.2,12.4-13.2,21.7-13.8c5.1-0.3,8.9-5.6,7.2-9.9s-8.5-6.1-12.6-3.4c3.2-9,10.2-16.9,19.3-21.7
		c-3.4,6.1,5.3,13.2,12.7,11.7c7.4-1.5,12-8.2,14.3-14.7c6.7,5.2,18.1,4.7,24-1.2c6-5.8,5.8-16-0.5-21.6c7.2-0.6,12.9-7.4,11.6-13.8
		c-1.3-6.4-9.4-10.8-16.4-9c5-5.4,5.2-14.2-0.4-19s-16.4-3.7-19.7,2.6c0.1-6.4-6.6-12.3-13.8-12.1c-7.2,0.2-13.4,6.4-13,12.8
		c-5.2-5.7-16.1-5.8-21.5-0.3c-5.4,5.5-3.7,15.2,3.1,19.1c-6.7,3.2-12.8,8.2-14.4,14.9c-1.5,6.6,3.1,14.6,10.6,15.3
		c3,0.3,3.9,3.7,4.1,6.4c0.1,2.3,0.4,4.6,0.5,7c0.7,8.9-0.5,20.4-10,23c-0.8-4.7-7.4-7.8-12.2-5.8c-4.8,2.1-6.2,8.6-2.5,12.2
		c8.1,7.8,4.2,20.3-0.1,30.3c-2.2,5.2-4.7,10.6-9.6,13.9c-1.1,0.7-2.1,1.3-3.3,1.7c-2.7,0.1-5.4,0.2-7.9,0.3c-0.3,0-0.6,0-0.9,0
		c-1.7-0.5-3.3-1.5-4.3-2.9c-1.3-1.9-1.8-4.1-2.1-6.4c-3.7-22.8-7.4-45.5-11.1-68.4c13.1-5.3,13.8-22.3,8-34.1
		c11.5,4.6,26.6-5.3,25.2-16.5c-1.5-11.2-18.7-17.8-28.8-10.9c3.4-5.4,7-11.1,7.6-17.3c0.7-6.2-2.1-13.2-8.5-15.8
		c-7-2.9-15.8,1.1-20.1,7.1c-4.3,6-5.3,13.4-6.1,20.5c-7.2-7.6-21.6-7.7-29.6-0.9s-9,19-2.9,27.3c6.1,8.3,18.2,12.3,29,10.5
		c-5.7,11.5,2.1,26.7,15.5,30.3c4.7,1.3,6.4,6.3,7.4,10.6c4.7,21.7,7.6,43.7,8.4,65.8c-0.9,0.7-2.1,1.1-3.2,1.3c-1.9,0-3.7,0-5.4,0
		c-3.8-0.7-7.6-2.9-10.3-5.4c-5-4.5-8.8-10.4-15.1-13.2c-5.3-2.3-4.1-9.3-1.9-14.2c2.2-4.9,4.3-11.4-0.2-14.7
		c-3.8-2.7-9.8-0.8-12.5,2.8c-2.7,3.5-3.1,8.2-3.3,12.5c-8.2-4.3-16.4-8.7-24.6-13c5.7-7,6.4-16.5,4-24.9c-2.3-8.4-7.2-16-12-23.5
		c-0.6-0.9-1.3-1.9-2.5-2.3c-2.7-0.9-4.7,2.3-5.4,4.8c-1.3,4.9-2.7,9.7-4,14.6c-6.2-2.9-12.4-5.8-18.5-8.6c-2.1-1-5.2-1.7-6.4,0.1
		c-0.7,1.1-0.3,2.5,0.2,3.7c2.5,5.9,4.9,11.8,7.4,17.7c-6.4,0.3-12.7,1.4-18.9,3.1c7.6,9.9,17.2,20,30.4,21.7
		c7.4,0.9,15-0.9,22.6-0.8c7.6,0.1,16.2,3.5,17.6,10.2c-6.4,2.5-13.6,8.2-10,13.5c2.5,3.7,8.8,3.5,13.1,1.4c4.3-2,7.8-5.4,12.4-6.7
		c8.5,5.4,16.1,12.1,22.2,19.7c-2.6,2-6.6,0.9-10,0.5c-3.4-0.3-8,1.9-6.6,4.8c4.6,9.5,9.3,18.9,13.9,28.4c2.3,4.7,4.1,11.2-0.6,14
		c-26.6,16.6-38.3,49.9-27.4,77.3s43,46.6,75.3,45.3c32.3-1.3,62.3-22.6,71.6-50.5c9.2-27.8-2.7-60.3-28.3-78
		c-4.3-2.9-2.5-9-0.5-13.5c4-8.5,8-17,12-25.5c1.3-2.6-1.5-5.6-4.6-6.2c-3.1-0.5-6.3,0.5-9.2,1.7c17.9-21,41.9-37.7,69.1-48
		c5.6-2.1,13.5-3.3,16.5,1.4c-6,2.5-3.9,11.8,2.4,13.9c6.2,2.1,13.2-0.9,18.1-5c-2.5,6,3.5,13.5,10.8,13c7.2-0.4,12.2-8.6,8.7-14.2
		c-1.9-3.2,3.7-5.5,7.7-6.4c5.8-1.3,11.2-5.1,12.3-10.3C371.1,139.6,366.1,133.6,360.2,134.4z M238.8,123.7c-0.5,1-1.5,1.7-2.5,2.4
		c-1.3,0.9-2.5,1.7-3.8,2.6c-1.7,1.1-4,2.1-5.7,1c-0.9-0.7-1.3-1.9-1.3-3c-0.2-4.1,1.8-8.2,5.2-10.8c2.5,1.6,4.9,3.2,7.4,4.8
		C239.2,121.3,239.3,122.7,238.8,123.7z M261.9,126.1c-1.5,4.4-4.6,8.4-8.7,11.2c-0.8,0.5-1.8,1.1-2.8,1.1c-1.5-0.1-2.6-1.5-3.1-2.9
		c-0.9-2.5-0.8-5.3-0.7-7.9c0-0.9,0.1-1.8,0.6-2.6c0.9-1.3,3-1.7,4.7-1.5c1.8,0.1,3.5,0.6,5.2,0.2c1.5-0.3,3.5-1.3,4.6-0.3
		C262.4,124.2,262.2,125.3,261.9,126.1z M288.1,121.8c-2.1,2.2-4.8,4-8,4.6c-3.2,0.5-6.8-0.4-8.7-2.7c-1.3-1.5-1.5-4,0.3-5.1
		c4.8-2.7,8.8-6.6,11.4-11.2c0.5-0.8,1.7-1,2.6-0.7c0.9,0.3,1.5,1.1,2.1,1.7c1.4,1.5,2.8,3.1,3.3,5
		C291.9,116.4,290.3,119.5,288.1,121.8z M285.2,89.4c-0.5-1.1,0.4-2.3,1.4-3.1c2.7-2,7.3-1.6,9.6,0.9c2.3,2.5,1.9,6.6-0.7,8.6
		c-2.5,2-5.3,3.9-8.2,5.5c-0.9,0.5-2.2-0.3-2.4-1.3c-0.2-1,0.2-1.9,0.6-2.9C286.3,94.5,286.2,91.8,285.2,89.4z M272.1,68
		c1.5-1.8,3.2-3.4,5.2-4.8c0.5-0.4,1.1-0.7,1.7-0.9c1.3-0.3,2.6,0.5,3.4,1.5c3.1,3.5,1.9,8.8,0.3,13c-0.1,0.3-0.2,0.6-0.5,0.8
		c-0.7,0.5-1.7-0.1-2.3-0.5c-2.5-1.9-4.9-3.9-7.4-5.8c-0.5-0.4-1.1-0.9-1.2-1.5C271.2,69.2,271.7,68.5,272.1,68z M245.1,65.5
		c0.9-3.1,2.5-6,4.9-8.5c0.5-0.5,1.1-1.1,1.9-1.3c1.7-0.5,3.3,0.8,4.5,2c2.5,2.7,4.6,5.8,6.2,9c-0.2,0.2-0.4,0.5-0.6,0.7
		c-3.4,0.4-6.8,0.9-10.2,1.3c-1.5,0.2-3,0.4-4.4-0.1C245.9,68.1,244.7,66.8,245.1,65.5z M244.9,74.6c2.5-0.5,4.7-1.6,7.1-2.3
		c8.7-2.5,19.1,1,23.8,8c1.1,1.7,1.9,3.5,2.5,5.3c3.5,10.4-0.1,22.9-9.8,29.5s-24.9,6.1-33.2-1.9c-8.1-8-7.7-20.9-1.7-30.2
		C236.3,79.2,240,75.6,244.9,74.6z M221.5,69c1.7-3.6,7-5.9,10.8-4c1.7,0.8,2.7,2.1,3.9,3.5c0.5,0.6,1.1,1.3,1.1,2
		c0.1,1-0.7,1.9-1.4,2.7c-3,3.2-6,6.4-9,9.6c-1.7,0.1-3-1.1-3.8-2.4C220.8,76.9,219.7,72.6,221.5,69z M220.7,111.8
		c-4.9-0.3-8.5-4.9-8.6-9.3c-0.1-4.4,2.8-8.5,6.4-11.6c0.8-0.7,1.7-1.3,2.7-1.5c1.1-0.2,2.4,0.1,2.7,1.1c0.3,0.7,0.1,1.4-0.1,2.1
		c-1.3,5.1-0.7,10.5,1.5,15.3c0.5,1.1,0,2.4-1.1,3.1C223.4,111.7,222,112,220.7,111.8z M221.5,155.8c1.1-0.7,2.4-1.3,3.7-1.5
		c1.3-0.1,2.9,0.4,3.4,1.5c0.6,1.4-0.5,2.9-1.8,4c-3.8,3.3-8.9,5.4-14.2,5.9C213,161.3,217.4,158.2,221.5,155.8z M200.8,150.8
		c0-0.9,0.1-2,0.9-2.6c0.8-0.6,2.1-0.5,3.1-0.1c0.9,0.5,1.7,1.3,2.3,2.1c2,2.5,3.7,6,2.1,8.8c-0.7,1.3-2.7,2.3-3.9,1.3
		C202.6,157.8,200.8,154.3,200.8,150.8z M167.3,66.1c3-0.9,6.2-1.8,9.2-1c2.3,0.6,4.2,2.2,5.8,3.9c2.4,2.5,4.2,5.6,4.7,8.8
		c0.5,3.3-0.8,6.8-3.8,8.8c-1.1,0.8-2.5,1.3-3.9,1.6c-4.2,1.1-8.8,0.7-13.2,0.1c-1.7-0.2-3.7-0.6-4.5-1.9c-0.9-1.3-0.5-3-0.3-4.5
		c0.5-3.4-0.1-6.9-1.9-9.9c-0.4-0.7,0.1-1.5,0.6-2.1C161.8,67.8,164.6,66.9,167.3,66.1z M141,58c0.1-9.2,3.7-18.9,12-24.3
		c3.1-1.9,7.6-0.3,9.4,2.6c1.9,2.9,1.7,6.5,1.1,9.8c-1.1,6.1-3.3,12-6.7,17.5c-0.5,0.9-1.2,1.8-2.2,2.1c-2.5,0.9-5.4-2.3-7.8-1.2
		c-1.7,0.7-3.8-0.2-4.8-1.7C141.1,61.5,141,59.8,141,58z M130.4,88.2c0.6,1,0.1,2.3-0.7,3.1s-2.1,1.1-3.4,1.3
		c-3.9,0.5-7.9-0.6-11.1-2.6c-3.2-2-5.7-4.8-7.6-7.9c-2.8-4.5-4.5-10-3.3-15.1c1.2-5.2,5.7-9.8,11.4-10.7c6.6-0.9,12.8,3.1,17.9,7.1
		c0.9,0.7,1.9,1.5,2.4,2.6c0.5,1.1,0.3,2.5-0.7,3.1C128.8,73.4,126.7,82,130.4,88.2z M133.9,80.7c0.2-3.5,2.6-6.8,5.4-9.3
		c2.1-1.9,4.7-3.7,7.7-3.4c3.1,0.3,5.4,2.8,6.7,5.4c2.2,4.3,2.5,9.8-0.4,13.8c-2.9,4.1-9.4,6.1-13.9,3.6c-2.2-1.2-3.7-3.2-4.6-5.4
		C134.1,83.9,133.8,82.3,133.9,80.7z M143.8,120.7c-1.9-1.2-3.5-2.8-4.8-4.6c-3.5-4.9-4.9-11.2-3.7-17c0.5-2,2-4.5,4.2-4.1
		c5.8,1,11.9-0.4,16.4-3.7c0.8-0.6,1.9,0.3,2.5,1.1c2.8,3.8,5.4,7.8,6.6,12.3c1.1,4.5,0.7,9.4-2.4,13.1
		C158.4,122.9,149.6,124.2,143.8,120.7z M79.4,157.8c-5.2,3.9-12.9,4.5-19.4,2.6c-6.5-1.9-11.9-5.9-16.8-10.2
		c-1.1-0.9-2.1-2-2.4-3.3c-0.3-1.3,0.9-2.9,2.4-2.8c3.5,0.3,7,0.6,10.4,0.9c1.3,0.1,2.9,0.1,3.7-0.8c0.9-1.1,0.1-2.7-0.7-4
		c-3.3-4.9-6.1-10.1-8.2-15.5c0.2-0.5,0.4-1.1,0.6-1.7c5,3.3,9.9,6.6,14.9,10c1.3,0.9,2.7,1.7,4.2,1.9c1.5,0.1,3.4-0.9,3.4-2.3
		c0-4.5,0.9-9.2,2.5-13.5c0.3-0.7,0.7-1.5,1.5-1.5c0.7,0,1.1,0.5,1.4,1c2.2,3.1,3.9,6.6,5.3,10.1c2,4.9,3.7,10,3.7,15.3
		C86,149,83.8,154.4,79.4,157.8z M107.9,182.9c-1.4,0.7-2.9,1.5-4.3,2.2c-1.4,0.7-2.8,1.5-4.5,1.6c-1.7,0.1-3.4-0.3-4.1-1.6
		c-0.7-1.1-0.4-2.6,0.4-3.7c0.7-1.1,2-1.9,3.3-2.6c3.1-1.9,7.2-3.5,10.5-1.9c1.2,0.6,2.1,1.7,2,2.9
		C111,181.3,109.3,182.2,107.9,182.9z M122,173c-0.5,0.9-1.1,1.8-2.2,2c-1.7,0.3-2.8-1.3-3.3-2.8c-1.5-4.7-0.1-10.1,3.7-13.6
		c0.5-0.5,1.3-0.3,1.9,0c0.5,0.3,0.7,1,0.9,1.5C124.5,164.3,124.1,169,122,173z M230.3,209c-4.7,10.4-9.4,20.9-14.1,31.4
		c-0.6,1.3,0.9,2.5,2.1,3.3c15.9,10,27.5,25.5,31.6,42.5c4.1,17.1,0.7,35.5-9.2,50.5c-3.5,5.4-8,10.4-12.7,15
		c-3.4,3.4-7,6.7-11.2,9.2c-6.5,3.9-14.1,5.8-21.7,6.8c-26.8,3.3-55.6-6.3-71.8-25.8c-11.6-13.8-16.3-32.2-12.7-49.2
		c3.6-17.1,15.3-32.6,31.6-41.7c1.9-1.1,4.1-2.5,4.2-4.5c0-0.9-0.4-1.7-0.7-2.5c-5.7-11.7-11.4-23.3-17.1-35c-0.7-1.6,2-2.6,3.9-2.5
		c7.2,0.2,14.4,0.3,21.7,0.5c3.5,0.1,7.2,0.2,10.7,0.7c1.8,0.3,3.7,0.1,5.4,0.1c19.1-1,38.4-2,57.5-3c0.7,0,1.3-0.1,1.9,0.2
		C231.4,205.8,230.9,207.7,230.3,209z M333.3,124.3c0.3-4.5,1.7-8.8,4-12.8c0.5-0.7,1.3-1.6,2.1-1.3c1.9,2.9,2.1,6.4,2.3,9.7
		c0.1,2,0.1,4.1-0.9,5.9c-1.1,1.8-3.5,3.1-5.6,2.3c-0.5-0.2-0.9-0.5-1.3-0.9C333.3,126.4,333.3,125.3,333.3,124.3z M313.2,124.1
		c0-1.9,1.2-3.9,3.2-4.4c2.7,2,5.2,4.3,7.2,6.9c0.9,1.2,1.9,2.5,2.2,3.9c0.4,1.5,0.1,3.1-1.1,4.2c-0.6,0.5-1.4,0.9-2.2,0.8
		c-0.7-0.1-1.3-0.5-1.7-0.9c-2.1-1.5-3.9-3.3-5.4-5.4C314.2,127.7,313.2,125.9,313.2,124.1z M308.1,148.5c-1.9-0.5-3.5-1.9-3.5-3.6
		c0-0.6,0.2-1.2,0.5-1.8c1.2-2.4,3.4-4.5,6.3-5.4c2.9-0.8,6.2,0,8,2.1c1.8,2.1,1.5,5.6-0.8,7.2c-1.3,0.9-3.1,1.2-4.6,1.4
		C311.9,148.6,310,148.9,308.1,148.5z M326.1,157.8c-1.9,1.7-3.1,3.9-5.1,5.5c-1.9,1.6-5.1,2.5-7.2,1.1c-1.3-0.9-1.9-2.5-1.7-3.9
		s0.9-2.8,1.8-4c1.5-1.9,3.5-3.6,5.9-4.8c0.5-0.3,1.1-0.5,1.7-0.5c0.9,0,1.7,0.5,2.5,1.1c0.9,0.7,1.9,1.5,2.5,2.4
		C326.9,155.7,326.9,157,326.1,157.8z M345.3,165.5c-0.5,3-2.1,6-5.1,7.6c-3.4-2.8-4.2-7.2-4.9-11.3c-0.2-1.5-0.5-3,0.5-4.3
		c0.8-1.1,2.3-1.7,3.7-2.2c0.9-0.3,1.9-0.6,2.7-0.2c0.7,0.3,1.1,0.9,1.3,1.5C345,159.3,345.8,162.4,345.3,165.5z M345.9,142.7
		c-0.5,1.1-1.1,2.2-1.8,3.3c-1.3,1.9-2.9,3.7-5,5c-2.1,1.2-4.7,1.8-7.2,1.1c-3.9-1-6.2-4.9-5.8-8.5c0.3-3.6,2.7-6.8,5.6-9.3
		c1.7-1.5,3.7-2.7,6-3.3c2.3-0.6,4.9-0.4,6.8,0.9C347.9,134.2,347.6,139,345.9,142.7z M347.4,127.9c-0.2-0.8,0.3-1.7,0.8-2.3
		c3.3-4.7,7.2-9.7,13.2-11c1.5,2.2,0.9,5.1-0.1,7.6c-1.5,3.4-3.5,6.6-6,9.4c-0.5,0.5-0.9,1.1-1.7,1.2c-1.1,0.3-2.1-0.5-2.9-1.3
		c-0.7-0.7-1.5-1.4-2.3-2.1C348,128.9,347.6,128.5,347.4,127.9z M364.7,142.8c-0.2,2.1-1.7,3.9-3.2,5.6c-2.7,2.7-6.4,5-10.4,5
		c-1.3,0-2.9-0.5-3.1-1.7c-0.1-0.6,0.2-1.1,0.5-1.7c1.7-2.9,3.5-5.8,5.6-8.5c1.7-2.2,4.4-4.5,7.3-3.7
		C363.6,138.3,364.9,140.7,364.7,142.8z"/>
</g>
<g>
</g>
<g>
</g>
<g>
</g>
<g>
</g>
<g>
</g>
<g>
</g>
<g>
</g>
<g>
</g>
<g>
</g>
<g>
</g>
<g>
</g>
<g>
</g>
<g>
</g>
<g>
</g>
<g>
</g>
</svg>
