<?xml version="1.0" encoding="utf-8"?>
<!-- Generator: Adobe Illustrator 18.1.0, SVG Export Plug-In . SVG Version: 6.00 Build 0)  -->
<!DOCTYPE svg PUBLIC "-//W3C//DTD SVG 1.1//EN" "http://www.w3.org/Graphics/SVG/1.1/DTD/svg11.dtd">
<svg version="1.1" id="Layer_1" xmlns="http://www.w3.org/2000/svg" xmlns:xlink="http://www.w3.org/1999/xlink" x="0px" y="0px"
	 width="800px" height="470px" viewBox="0 0 800 470" enable-background="new 0 0 800 470" xml:space="preserve">
<g>
	<g id="bird">
		<desc  xmlns:shape="http://adobe.com/products/shape">
			<shape:version>1.1.2</shape:version>
			<shape:captureDetail>0.750000</shape:captureDetail>
			<shape:source>1</shape:source>
		</desc>
		<g>
			<path d="M221.7,202.2c0.2,1.5-0.2,3.1-0.8,4.6c-1,2.8-2,5.7-4.4,7.5c-1.2,1-2.7,1.5-4.2,1.9c-2.8,0.8-5.9,1-8.4-0.2
				c-3-1.6-4.4-5.1-4.6-8.5c-0.2-4.6,1.7-9.3,5-12.4c1.1-1.1,2.5-2,4.1-2.3c4-1,8,2,10.8,5.1C220.4,199,221.5,200.3,221.7,202.2
				 M209.5,212.9c3.5-0.5,6.5-3.4,7-6.8c0.5-3.4-1.3-7.2-4.4-8.8c-1-0.4-2-0.8-3.1-0.5c-1.3,0.2-2.5,1.3-3.1,2.5
				c-2.1,3.1-2.5,7.2-1.1,10.6c0.5,1.2,1.3,2.5,2.5,2.9C207.9,213,208.7,213.1,209.5,212.9z"/>
			<path d="M156.9,426.4c-0.2-15.7-0.6-31.3-0.9-47c0-0.9-0.1-1.9-0.7-2.3c-0.6-0.5-1.6-0.4-2.3-0.4c-8.7,1.1-17.4,2.3-26.1,3.5
				c-1.3,0.2-2.6,0.4-3.7,1c-2.1,1.5-2.5,4.4-2.5,6.9c-0.5,10.9-1,21.8-1.5,32.7c-0.4,7.9-0.5,16.6,4.3,22.9
				c3.1,4.2,8.7,8.8,6.1,13.4c-5.2-3.2-9.4-7.9-12.3-13.3c-0.4,5.2-0.8,10.5-1.2,15.7c-0.1,0.9-0.2,1.7-0.7,2.5
				c-1.4,1.9-4.9,0.4-5.5-1.9c-0.7-2.3,0.4-4.8,0.9-7.2c0.5-2.3,0.5-5.3-1.6-6.7c-3,6.3-9,11.2-15.7,12.8c3.2-8.6,12.7-13.3,17-21.4
				c2.9-5.4,3.1-11.7,3.4-17.8c0.4-11.2,0.8-22.4,1.2-33.5c0.1-3.3-0.4-7.7-3.8-8.4c-13.8-3-27-8.5-38.8-16.2
				c-5.3-3.5-10.5-7.5-14.3-12.6c-3.8-5.2-6.1-11.5-8.2-17.7c-8.8-26.6-15.4-53.9-19.7-81.5c-0.2-1.7-0.5-3.8,0.4-5.2
				c1.1-1.9,3.7-2.5,5.9-2.9c11.4-2.3,22.2-7.2,31.6-14c4.2-3.1,9.4,2.3,12,6.8c10.5,19.2,20.9,38.3,31.4,57.4
				c3,5.4,10.6,6.9,16.2,4.3c5.6-2.6,9.1-8.4,10.7-14.4c1.6-5.9,1.5-12.2,1.6-18.4c0.4-17.8,2.8-35.5,7.3-52.6
				c4.4-17.2,12.8-35.6,29.4-41.9c7.2-2.7,15.1-2.6,22.7-2.2c10.3,0.6,21.3,2.2,28.7,9.2c6.4,5.9,9,14.8,11.5,23.1
				c2.9,10,20.1,8.2,24.5,17.6c-7,3.5-14.1,7-21.1,10.5c-2.3,1.1-4.8,2.5-6.4,4.6c-1.7,2.2-2.1,5-2.5,7.7
				c-3.8,25.2-8.4,50.7-18.3,74.1c-10,23.5-25.8,45.2-47.8,58.1c-1.9,1.1-4,2.3-5.1,4.2c-1,1.7-1,3.8-1,5.9
				c0.1,12.1,0.2,24.2,0.2,36.3c0,6.1,0.1,12.3,2.5,17.8c4.4,10.1,16,15.9,19.3,26.4c-2.5,3-7.1-0.5-9.4-3.7
				c-4.8-7-8.4-14.6-12.6-12.3c-1.7,1,4.6,13.6,3.4,22.4c-0.5,1.7-3.1,1.7-4.3,0.6c-1.2-1.2-1.6-3.1-1.9-4.7
				c-0.8-5.3-1.6-11.1-2.3-16.5c-4.1,1.3-5.2,6.8-6.9,10.9c-1.7,4-6.9,7.8-9.9,4.6C148.6,452.4,157.2,440.1,156.9,426.4 M233,227.9
				c6.5-2.9,13-5.8,19.5-8.7c2.7-1.2,1.7-5.7-0.9-7.2c-2.5-1.5-5.8-1.4-8.6-2.5c-4.9-1.9-7.7-6.9-9.4-11.8c-1.6-5-2.3-10.3-5.1-14.7
				c-5.9-10-18.8-12.9-30.4-13.6c-5.9-0.4-11.9-0.4-17.5,1.3c-8.2,2.6-14.8,9-19.2,16.2c-4.4,7.3-6.9,15.7-9,23.9
				c-5.2,20.9-8.1,42.5-8.4,64.1c-0.1,5.8-0.2,12.1-4,16.6c-2.6,3.1-6.7,4.7-10.5,6.2c-3.8,1.5-7.6,2.9-11.4,4.4
				c-2.3,0.9-5.7,1.5-6.9-0.7c-12.2-22-24.3-43.9-36.5-65.9c-0.9-1.6-1.9-3.2-3.7-3.6c-1.1-0.2-2.3,0.2-3.3,0.7
				c-9,3.8-18,7.7-27,11.5c-1.7,0.7-3.4,1.5-4.4,3.1c-1.2,1.9-0.9,4.4-0.5,6.5c4,24.2,9.9,48.1,17.4,71.4c2.2,6.9,4.6,13.8,8.7,19.8
				c5.7,8.6,14.4,14.8,23.5,19.5c16.4,8.6,35.2,12.9,53.6,11.1c18.4-1.9,36.4-10.2,48.7-24c5.4-6.1,9.7-13,13.6-20.1
				c16.2-29.8,25.6-63.2,27.4-97c0.1-1.6,0.2-3.2,1.1-4.6C230.7,229,231.9,228.5,233,227.9"/>
			<path d="M211.8,204.1c0-1.2-1.6-2.1-2.6-1.5c-1,0.6-1,2.5,0,3.1C210.2,206.2,211.8,205.3,211.8,204.1z"/>
		</g>
	</g>
	<g id="speech-bubble">
		<path d="M282.8,27.5c6.1-2.6,12.4-4.6,18.8-5.2C323,20,345,32.3,355.1,51.4c10.1,19.1,8.2,43.6-3.8,61.6
			c-9.4,14.2-24.3,24-39.8,30.9c-6.1,2.7-12.3,5-17.7,8.7c-6.1,4-11.1,9.6-15.1,15.7c-1.2,1.9-2.5,3.8-4.4,4.8c-1.9,1-4.7,0.9-5.9-1
			c-0.7-1.2-0.5-2.7-0.2-4c0.9-5.6,1.7-11.2,2.5-16.9c0.5-3.4-3.2-5.7-6.2-7.3c-21.6-11.5-32.3-38.7-27.5-62.7
			C241.8,57,260.3,37.1,282.8,27.5 M259.9,137.3c3.8,3.2,8.7,5.9,13.6,5.2c2.3-0.4,3,3.1,2.6,5.5c-0.9,5-1.7,10.1-2.6,15.1
			c-0.2,1.7,0.4,4.1,1.9,3.5c5.9-10.8,16-19.2,27.8-23c18.7-5.9,35.6-18.3,45-35.4c9.4-17.1,10.9-38.9,1.9-56.4
			c-9-17.5-28.8-29.1-48.2-26.8c-5.9,0.7-11.7,2.6-17.1,5.1c-19.9,9-36.5,26.3-42.3,47.4S243.1,123.3,259.9,137.3z"/>
	</g>
	<g id="question">
		<g>
			<path d="M278.3,62.4c3.2-4.1,7.9-7.3,13-7.9c5.2-0.6,10.8,1.6,13.5,6c1.3,1.9,1.9,4.2,2.3,6.5c1.5,7,1.1,15.6-4.7,19.8
				c-2.7,2-6.3,2.8-8.7,5.1c-3.5,3.5-2.9,9.3-2.1,14.2c0.4,2.2,0.4,5-1.6,5.9c-2,0.8-4.1-1.4-4.4-3.5c-0.4-2.1,0.4-4.2,0.5-6.4
				c0.1-3.1-1.4-6.2-0.4-9.1c1.7-4.6,8.1-5.2,11.9-8.4c4.6-3.7,4.9-10.5,3.9-16.3c-0.4-2.5-1.1-5-2.5-7s-3.7-3.6-6.2-3.5
				c-2.7,0.1-5,1.9-6.9,3.7c-4,3.8-7.7,9.3-5.6,14.4c0.6,1.5-1.4,2.9-2.9,2.5c-1.5-0.5-2.3-2.2-2.6-3.8
				C273.8,70.4,275.6,65.9,278.3,62.4z"/>
			<path d="M287.1,125.3c1.5-1.9,5.2-1.1,5.8,1.3c0.2,0.7,0,1.6-0.7,1.8c-1.3,0.4-2.7,0.6-3.9,0.2
				C287.1,128.1,286.3,126.4,287.1,125.3z"/>
		</g>
	</g>
</g>
<g>
</g>
<g>
</g>
<g>
</g>
<g>
</g>
<g>
</g>
<g>
</g>
<g>
</g>
<g>
</g>
<g>
</g>
<g>
</g>
<g>
</g>
<g>
</g>
<g>
</g>
<g>
</g>
<g>
</g>
</svg>
