<?xml version="1.0" encoding="utf-8"?>
<!-- Generator: Adobe Illustrator 18.1.0, SVG Export Plug-In . SVG Version: 6.00 Build 0)  -->
<!DOCTYPE svg PUBLIC "-//W3C//DTD SVG 1.1//EN" "http://www.w3.org/Graphics/SVG/1.1/DTD/svg11.dtd">
<svg version="1.1" id="Layer_1" xmlns="http://www.w3.org/2000/svg" xmlns:xlink="http://www.w3.org/1999/xlink" x="0px" y="0px"
	 width="800px" height="470px" viewBox="0 0 800 470" enable-background="new 0 0 800 470" xml:space="preserve">
<g>
	<path d="M138.3,293.9c7.4,0.3,13.9,6.1,16.9,12.9c3.1,6.8,3.2,14.5,2.8,22.1c-1.3,19.8-7.7,40.3-22.4,53.8
		c-7.2,6.6-17.6,11.3-26.7,7.9c-6.2-2.3-10.6-8-12.7-14.2c-2.1-6.2-2.1-13-1.3-19.5c2.1-19,10.3-37.4,22.9-51.6
		C123.2,299.2,130.2,293.5,138.3,293.9 M113.5,383.7c6.5,1.5,12.7-3,17.2-7.9c15.1-16.4,21.8-40.2,17.5-62c-0.8-4-2.1-8.1-5-10.9
		c-2.9-2.8-8-3.8-11.1-1.1c-17.2,14.9-28.2,36.9-29.4,59.7c-0.2,4.5-0.2,9.1,1.5,13.3C105.9,379,109.2,382.8,113.5,383.7"/>
	<path d="M128.2,239.8c-8.5,3.2-18.3,3.2-26.8,0c-8.5-3.2-15.9-9.6-20.2-17.6c-2.1-3.8-1.3-8.6,0.9-12.3c2.2-3.6,5.9-6.2,9.7-8.1
		c6.6-3.3,14.2-4.8,21.7-4.3c9.5,0.6,19.2,5,24.3,13c5.1,8.1,4.3,20-3.2,25.9C132.6,237.9,130.4,238.9,128.2,239.8 M112.2,235.5
		c4.8,0.6,10,0,13.9-2.7c4.9-3.3,7.4-9.9,6-15.7c-1.4-5.8-6.7-10.4-12.7-11.1c-2.1-0.2-4.3-0.1-6-1.3c-4.4-3-10.4-1.2-15.2,1
		c-2.9,1.3-5.9,2.9-7.8,5.5c-2,2.5-2.8,6.2-1.2,9C94.1,228.4,102.8,234.2,112.2,235.5"/>
	<path d="M297.7,308.2c-15.1,3.5-32.2-0.1-43-11.1c-10.8-11.1-13.6-30-4.7-42.5c2.1-2.9,4.7-5.5,7.8-7c3.3-1.7,7-2.4,10.7-2.8
		c4.7-0.6,9.6-0.6,14.4-0.4c4.3,0.2,8.6,0.8,12.6,2.3c12.7,5,19.5,19.3,21.3,32.8c0.9,6.2,0.9,13-2.5,18.4
		C310.9,303.6,304.3,306.7,297.7,308.2 M260.5,255c-3.2,2.5-5.5,6-6.6,9.9c-3.1,9.9,0.6,21.3,8.1,28.4c7.5,7.1,18.5,10.1,28.8,8.9
		c5.5-0.6,11.1-2.5,14.6-6.8c5-6,4.4-14.9,2.2-22.4c-2.9-9.7-9.4-19.5-19.4-21.8c-3.1-0.7-6.2-0.6-9.3-0.6
		C272.4,250.9,265.6,251.2,260.5,255"/>
	<path d="M225.7,172.7c3-11.5,10.9-21.6,21.3-27.3c2.7-1.5,5.7-2.7,8.7-2.6c5.3,0.2,9.8,4.6,11.5,9.6c1.6,5.1,0.7,10.6-1.1,15.7
		c-1.9,5.2-4.7,10.1-8.5,14.3c-4.4,5-10.3,9-16.8,9.6c-6.6,0.6-13.8-3.3-15.5-9.7C224.4,179.2,224.9,175.8,225.7,172.7 M233.4,175.4
		c-0.7,2.9-0.9,6.4,1.3,8.5c2.6,2.3,6.7,1,9.7-0.8c8.6-5.4,14.5-14.9,15.4-25.1c0.2-1.7,0.2-3.6-0.6-5.1c-0.7-1.6-2.4-2.9-4.1-2.7
		c-0.7,0.1-1.4,0.4-2.1,0.7C243.3,155.7,236,164.8,233.4,175.4"/>
	<path d="M127.1,356.5c-5.6,1.6-12.1-2.6-13-8.3c-0.5-2.8,0.3-5.8,1.3-8.5c1.8-4.9,4.8-9.7,9.6-11.8s11.5-0.2,12.9,4.9
		c0.5,1.8,0.3,3.7,0.1,5.5c-0.5,3.7-1.1,7.5-2.8,10.8C133.5,352.6,130.7,355.6,127.1,356.5 M127.8,333.5c-0.8,0.1-1.4,0.6-1.9,1.3
		c-3.2,3.4-4.7,8.2-4.2,12.8c0.2,1.5,2.2,2.1,3.6,1.4c1.3-0.7,2.1-2.1,2.7-3.4c0.9-2.1,1.7-4.2,2.3-6.3c0.3-1.2,0.6-2.5,0.3-3.6
		C130.2,334.5,129,333.4,127.8,333.5z"/>
	<path d="M289.4,279.4c-1.5,2.3-3.2,4.6-5.4,6.2c-2.2,1.7-5.1,2.6-7.7,2.1c-3.6-0.6-6.2-3.7-7.5-7.1s-1.3-7-1.3-10.7
		c0-2.3,2.2-4,4.3-4.7c5.9-2.2,13-0.6,17.5,3.8c1.1,1.1,2.1,2.4,2.4,3.9C292,275.2,290.8,277.4,289.4,279.4 M276.9,270.8
		c-1.7,1.2-1.7,3.7-1.3,5.8c0.2,1.6,1.3,3.6,2.8,2.9c2.1-1.1,4-3.2,3.8-5.7C282,271.4,279,269.5,276.9,270.8z"/>
	<path d="M270,108.2c9.3-2.6,19.2-4.2,28.5-1.3c14.5,4.4,24.2,20.6,21.4,35.5c-2.5,13.4-13.2,23.3-21.3,34.4
		c-8.1,10.9-13.5,26.7-5.4,37.6c4.9,6.5,13.2,9.1,20.8,12.1c17.7,7,34.4,18,44.9,34c10.6,15.8,14.5,36.8,7.4,54.4
		c-9.9,24.5-38.1,37.2-64.6,38.1c-21.1,0.8-42.5-4.4-60.8-14.9c-5.6-3.2-11.1-7-17.6-8.1c-6.4-1.1-14,1.3-16.4,7.4
		c-7.7,19.7-15.4,39.6-27.4,57c-12,17.4-28.7,32.5-49.1,38.2s-44.4,0.9-58-15.3c-14.8-17.7-14.2-43.8-7.5-65.9
		c6.7-22.1,18.4-42.4,24.2-64.8c0.8-3.2,1.5-6.6,0.7-9.7c-1.4-5.7-7-9.2-12.6-11.1c-12.1-4.3-26.3-4-36.3-12.1
		c-8.7-6.9-12-18.8-10.8-29.8c1.2-11,6.3-21.1,12.4-30.4c3.7-5.8,8-11.4,13.5-15.4c7.4-5.3,16.5-7.4,25.7-8.4
		c26.4-2.9,53.8,2.8,76.9,16c-3.2-40.3-18.8-79.7-44.2-111.3c-8.7-10.8-28-5.8-34.6,6.4c-6.6,12.2-3.7,27.4,1.8,40.1
		c3.5,8,15.6,10.4,21.8,4.3c6.3-6.1,4-18.4-4-22c-4,3.1-4.7,9.7-1.3,13.5c-4.7,2.4-10.9-2.6-10.6-7.9s5.5-9.5,10.8-10
		c11-1.2,19.9,11.9,16.5,22.4c-3.5,10.4-16.5,15.9-27,12.7c-10.5-3.2-17.9-13.5-19.8-24.4c-1.8-10.9,1.3-22.1,6.5-31.9
		c4.5-8.5,11.9-16.7,21.4-17.2c6.2-0.3,12.2,2.7,17.2,6.3c30.9,21.7,41.7,61.7,50.3,98.6c0.3,1.4,2.1,8.3,2.8,11.1
		c1.1-0.6,1.4-1.3,3.6-1.5c0.1-3.1-10.7-65.8-4.1-96.7c3.6-16.8,11.1-33.8,25.7-42.9s37.1-6.2,44.8,9.1c3.4,6.8,3.5,14.9,1.9,22.3
		c-2.5,11.2-8.6,21.6-17.3,29.1c-5.9,5.1-14,9-21.4,6.6c-9.3-3.1-13-14.7-11.5-24.4c0.9-6.5,3.9-13.1,9.6-16.3
		c5.8-3.2,14.4-1,16.4,5.2c1.9,6.2-6.8,13.1-11.6,8.6c1.2-2.6,2.5-5.2,3.6-7.9c-4.2-0.7-8.2,2.8-9.6,6.9c-1.4,4-0.8,8.5-0.2,12.7
		c0.4,2.6,0.9,5.4,2.6,7.4c4.7,5.3,13.4,0.9,18.1-4.3c4.9-5.5,8.9-11.9,11.5-18.8c3.9-9.9,4.6-22.4-2.8-30c-5.5-5.6-14.5-7-22-4.6
		c-7.5,2.4-13.7,7.8-18.3,14.2c-12,16.4-14.5,37.8-14.5,58.3c0,17.7,1.7,35.3,4.9,52.7c0.7,4,1.7,8.3,4.7,11.1
		c3,2.8,8.7,2.9,10.6-0.7C207.4,141.5,236.5,117.8,270,108.2 M50.6,195.1c-5.3,7.8-10.2,16.1-12,25.4c-1.8,9.3,0,19.7,6.7,26.3
		c5.4,5.3,13,7.5,20.5,9s15.1,2.6,21.7,6.3c6.6,3.7,11.9,10.8,10.9,18.3c-3,21.2-13.9,40.2-21.7,60.2c-7.7,19.9-12.3,43.1-2.7,62.3
		c3.2,6.5,8.1,12.3,14,16.6c12.2,9,29.1,11.5,43.1,5.9c5.7-2.3,10.9-5.8,15.8-9.5c26.2-20.3,44.8-50.3,51.2-82.8
		c0.2-1.3,0.5-2.8-0.3-4c-26.3-36.3-34.6-82.7-38-127.4c-0.5-6.3-6.3-10.8-11.9-14c-20.8-11.6-45.5-15.7-68.9-11.5
		c-6.2,1.1-12.5,2.8-17.6,6.6C57.1,186,53.8,190.7,50.6,195.1 M306.9,152.1c3.9-6.6,6-14.5,4.7-22.1c-1.3-7.6-6.4-14.7-13.7-17.2
		c-5.5-1.8-11.4-1-16.9,0.2c-35.9,7.7-67.6,32.5-84,65.3c-0.9,1.9-1.8,3.9-1.9,5.9c0,2.1,0.9,4.2,1.8,6.2
		c17.6,39.1,26.3,82.2,25.4,125c-0.1,1.9,1.6,3.4,3,4.6c16.1,12.7,35.3,21.3,55.5,24.8c19.2,3.3,40,1.7,56.7-8.5
		s27.9-30.2,24.3-49.3c-1.1-5.8-3.5-11.3-6.3-16.4c-11.7-20.9-32.3-36.6-55.5-42.3c-11.8-2.9-18.9-16-18.5-28.1
		c0.4-12.1,6.9-23.2,14.4-32.7C299.5,162.3,303.7,157.6,306.9,152.1 M211.9,322.7c-1.5-0.7-3-1.6-3.7-3.1c-0.7-1.5,0.1-3.7,1.7-3.8
		c4.3-0.2,5.4-5.9,5.1-10.2c-1.5-32.7-7.9-65.1-18.8-95.9c-3.4-9.5-7.4-19.1-14.2-26.4c-2.2-2.4-5-4.6-8.3-4.9
		c-3.2-0.3-7,2.1-6.9,5.4c0.5,31.6,5.5,63.1,14.6,93.1c5,16.4,11.5,32.7,22.8,45.7c1.2,1.3,2.5,2.7,4.3,3S212.3,324.4,211.9,322.7"
		/>
</g>
<g>
</g>
<g>
</g>
<g>
</g>
<g>
</g>
<g>
</g>
<g>
</g>
<g>
</g>
<g>
</g>
<g>
</g>
<g>
</g>
<g>
</g>
<g>
</g>
<g>
</g>
<g>
</g>
<g>
</g>
</svg>
