<?xml version="1.0" encoding="utf-8"?>
<!-- Generator: Adobe Illustrator 18.1.0, SVG Export Plug-In . SVG Version: 6.00 Build 0)  -->
<!DOCTYPE svg PUBLIC "-//W3C//DTD SVG 1.1//EN" "http://www.w3.org/Graphics/SVG/1.1/DTD/svg11.dtd">
<svg version="1.1" id="Layer_1" xmlns="http://www.w3.org/2000/svg" xmlns:xlink="http://www.w3.org/1999/xlink" x="0px" y="0px"
	 width="800px" height="470px" viewBox="0 0 800 470" enable-background="new 0 0 800 470" xml:space="preserve">
<g>
	<g>
		<g>
			<path d="M169.7,319.1c0.1-8.1,0.3-16.4,0.4-24.5c0.1-4.5,0.5-9.7,4.2-12.3c2.4-1.7,5.6-1.8,8.5-1.9c50.6-0.3,101.2,0,151.8,0.7
				c3.5,0.1,6.5,2.7,8,6c1.4,3.2,1.7,6.7,1.9,10.3c0.4,6.8,0.8,13.6,1.2,20.4c0.1,2.8,0.3,5.9-1.3,8.2c-2.5,3.6-7.6,3.7-11.9,3.5
				c-49.8-2.3-99.6-1.2-149.4,0.3c-4.7,0.1-10.3-0.2-12.5-4.4C169.6,323.5,169.7,321.3,169.7,319.1 M239.4,284
				c-0.5-0.4-1.2-0.4-1.9-0.5c-9.1,0.1-18.1,0-27.2,0.1c-1.1,0-2.3,0.1-3.1,0.7c-1.1,0.9-1.2,2.5-1.2,4c0,11.4-0.1,22.8-0.2,34.2
				c0,0.8,0,1.9,0.6,2.5c0.8,0.8,1.9,0.9,3,0.8c9.1-0.4,18.1-0.6,27.2-1c2.2-0.1,2.9-2.9,3-5.2c0.3-11.2,0.5-22.4,0.5-33.5
				C240.2,285.4,240.1,284.5,239.4,284 M278.8,284.7c-0.7,0.7-0.8,1.7-0.8,2.7c-0.5,11.5-0.9,23-1.4,34.5c0,0.9,0,2,0.8,2.5
				c0.4,0.3,0.8,0.3,1.3,0.3c9.5,0.4,19.1,0.6,28.7,0.5c0.8,0,1.9,0,2.5-0.7c0.6-0.6,0.6-1.5,0.6-2.3c0.2-11.8,0.3-23.6,0.5-35.4
				c0-0.6,0-1.1-0.3-1.6c-0.5-1-2-1.1-3.1-1.2c-8.7,0-17.4-0.1-26.1-0.1C280.7,284,279.6,284,278.8,284.7 M243.3,324.4
				c0.4,0.3,0.9,0.3,1.4,0.3c8.9,0,17.7,0.1,26.5,0.2c0.6,0,1.3,0,1.8-0.4c0.8-0.5,0.9-1.7,0.9-2.6c0.5-11.7,1-23.5,1.5-35.2
				c0-0.6,0-1.2-0.3-1.7c-0.5-0.9-1.8-1-2.8-1c-8.7,0-17.5,0.1-26.2,0c-0.8,0-1.6,0-2.2,0.6c-0.7,0.6-0.8,1.5-0.7,2.5
				c-0.3,11.6-0.5,23.2-0.8,34.8C242.3,322.6,242.3,323.9,243.3,324.4 M173.8,324.1c1.5,2.2,4.6,2.4,7.2,2.3
				c6.3-0.2,12.6-0.3,18.8-0.5c0.8,0,1.6,0,2.1-0.6c0.7-0.6,0.8-1.7,0.8-2.6c0.1-12.2,0.3-24.4,0.5-36.6c0-0.5,0-1-0.2-1.4
				c-0.5-1-1.9-1.1-3-1.1c-6.2,0.1-12.5,0.1-18.7,0.1c-1.7,0-3.6,0-5,1c-1.7,1.1-2.5,3.1-2.9,5c-0.7,3.2-0.7,6.3-0.7,9.6
				c0,6.7,0,13.4,0,20C172.8,321,172.9,322.7,173.8,324.1 M336.6,285.2c-1.7-0.8-3.6-0.8-5.4-0.8c-4.6,0-9.1,0-13.8-0.1
				c-0.7,0-1.4,0-2,0.4c-1,0.7-1.2,2.1-1.3,3.2c-0.6,11.1-0.8,22.1-0.8,33.2c0,0.9,0,1.9,0.5,2.7c0.9,1.3,2.7,1.5,4.3,1.5
				c6.5,0.1,13,0.2,19.5,0.3c1.2,0,2.5,0,3.4-0.7c1.6-1.1,1.7-3.4,1.7-5.4c-0.3-7.3-0.5-14.6-0.8-21.9c-0.1-2.4-0.2-4.8-0.9-7.1
				C340.3,288.4,338.8,286.2,336.6,285.2z"/>
			<path d="M110.9,282.2c2.9,0.5,3.7,4.3,3.6,7.2c0.1,8.9,0.1,17.7,0.2,26.5c0,3.8-0.3,8.2-3.5,10.3c-1.4,0.9-3.3,1.1-5,1.3
				c-5.5,0.3-11.1-0.1-16.6-0.5c-2.7-0.2-5.9-0.6-7.4-2.9c-1.5-2.3-0.6-5.3,0.3-7.8c4.9-13.1,12.5-25.8,24.6-32.9
				C108.2,282.7,109.4,282,110.9,282.2 M111.6,289c0-1.2-0.1-2.8-1.3-3.4s-2.5,0.2-3.5,1c-9.8,7.9-17.4,18.5-21.6,30.3
				c-0.6,1.8-1.1,4.1,0,5.6c1.1,1.5,3.3,1.6,5.1,1.7c4.7,0,9.5,0,14.3,0.1c2.4,0,5.3-0.3,6.3-2.4c0.4-0.8,0.5-1.9,0.4-2.8
				C111.6,309,111.6,299,111.6,289z"/>
			<path d="M89.4,394.9c-1.8,1-4.3,0.2-5.4-1.6c-1.1-1.8-0.8-4.2,0.4-5.8c1.4-1.9,4-2.8,6.1-2c2.2,0.8,3.6,3.3,2.9,5.6
				C92.8,392.8,91.1,393.9,89.4,394.9 M87.2,392.2c0.9,0.4,1.9-0.3,2.5-1c0.7-0.8,1.3-2.3,0.3-2.9c-1.2-0.2-2.5,0-3.4,0.8
				C85.8,390.1,86,391.8,87.2,392.2z"/>
			<path d="M105.2,393.6c-0.1,1.5-1.1,2.8-2.3,3.9c-0.9,0.8-1.8,1.5-3,1.5c-2.5,0.2-4.4-2.7-4-5.2c0.4-2.3,2.4-4.4,4.7-4.6
				C103.1,389.1,105.4,391.2,105.2,393.6 M99.9,392.6c-0.7,0.4-1.3,0.9-1.3,1.7c0,0.8,0.7,1.6,1.4,1.4c0.8-0.2,1.7-0.7,2-1.4
				c0.3-0.8,0-1.9-0.8-2.1C100.7,392.1,100.3,392.4,99.9,392.6z"/>
			<path d="M99.8,409.8c-2.2,1-5.4-0.4-5.7-2.8c-0.1-1.1,0.2-2.1,0.8-3.1c0.9-1.8,2.8-3.5,4.6-2.7c1.7,0.7,2.9,2.4,2.9,4.2
				C102.5,407.3,101.4,409,99.8,409.8 M97.6,407.2c1.2,0,2.2-1.3,1.9-2.5c-0.7-0.4-1.6-0.2-2.1,0.4C96.8,405.7,97,406.7,97.6,407.2
				L97.6,407.2L97.6,407.2z"/>
			<path d="M82.1,403.6c-0.1-0.8,0-1.6,0.2-2.3c1-2.5,4.7-3.4,6.7-1.6s1.7,5.6-0.7,6.9C86.1,408,82.5,406.3,82.1,403.6 M86.7,401.9
				c-0.7-0.4-1.7,0.3-1.7,1c0,0.8,1,1.4,1.8,0.9C87.5,403.5,87.5,402.3,86.7,401.9L86.7,401.9z"/>
			<path d="M305.3,393.6c0.9,1.2,1.2,2.9,0.6,4.4c-0.6,1.4-2.1,2.4-3.7,2.3c-1.8-0.1-3.3-1.7-3.8-3.4c-0.2-0.7-0.3-1.4-0.2-2.1
				c0.3-1.5,1.6-2.7,3.1-2.9C302.8,391.7,304.4,392.4,305.3,393.6 M302.6,396.5c0.6,0,0.7-0.9,0.2-1.2s-1-0.3-1.5-0.1
				c-0.4,0.4-0.4,1.1-0.1,1.5s1.1,0.4,1.5,0.1L302.6,396.5z"/>
			<path d="M301,408.6c-0.1-1.2,0.3-2.3,1-3.3c0.5-0.8,1.2-1.5,2.2-1.7c0.7-0.2,1.5,0,2.2,0.3c1.7,0.9,2.7,2.7,2.4,4.6
				s-2,3.3-3.9,3.4C303,412,301.3,410.5,301,408.6 M304,408.6c0.8,0.4,1.9-0.2,1.9-1.2c-0.3-0.6-1.2-1-1.8-0.6
				C303.5,407.2,303.3,408.1,304,408.6L304,408.6z"/>
			<path d="M309.5,390.5c-0.1-1.6,0.7-3.2,2.2-3.6c1.2-0.3,2.5,0.5,3.4,1.4c1,1,1.7,2.3,1.4,3.7c-0.4,1.7-2.3,2.7-4,2.3
				C310.8,393.9,309.6,392.2,309.5,390.5z"/>
			<path d="M319.7,406.2c-0.3,0.9-1,1.7-1.7,2.2c-0.5,0.3-0.9,0.6-1.5,0.7c-0.6,0.1-1.2-0.1-1.8-0.5c-1.5-0.9-2.2-2.9-1.5-4.6
				c0.7-1.6,2.6-2.5,4.3-2C319.1,402.5,320.2,404.5,319.7,406.2z"/>
		</g>
		<path d="M37.7,382.6c-2,6.9,4.1,14,11.1,15.7c7,1.7,14.2-0.4,21.1-2.6c-8.9-5.4-24.1,3.2-29.3-5.8c-5.6-9.8,13-21.7,7.1-31.4
			c-4.1-6.8-1.7-16,3.6-21.9c5.3-5.9,13-9,20.6-11.3c7-17.9,15.1-37.1,31.7-46.7c11.7-6.8,25.8-7.7,39.4-8.2
			c63.3-2.7,126.9-2.3,190.3,0.1c6.4,0.2,13.3,0.6,18.1,4.9c5.7,5,6.3,13.6,6.6,21.2c0.4,13.9,0.8,27.6,1.2,41.4
			c0.2,8.3,0.3,17.3-4.6,24.1c-4.4,6.1,4.5,13.8,4.3,21.4c-0.1,5.4-5,9.6-10.3,10.8c-5.2,1.1-10.6,0-15.9-1.2
			c-2.2-0.6-4.8-1.3-5.4-3.5c-1.9-6.8-7.9-12.1-14.9-13.2c-6.9-1.1-14.3,2.3-18.1,8.2c-1.4,2.3-2.5,5-4.8,6.3
			c-1.8,1.1-4.1,1.1-6.2,1.1c-38-0.3-76.1-0.7-114.1-1.1c-1.2,0-2.5,0-3.5-0.8c-1.3-1-1.5-2.9-1.6-4.6c-1.7-31.8-2.1-63.7-1.2-95.6
			c0.1-5.2-6.6-7.4-11.8-8c-6-0.7-12.3-1.4-18.1,0.5c-5.8,1.9-11,7.1-10.8,13.1c0.6,29.7,0.5,59.4-0.3,89c-0.1,2.3-0.2,4.8-1.8,6.5
			c-1.6,1.6-5.1,1.5-5.6-0.8c-2.3-10.4-14.1-17.2-24.5-14.9c-10.3,2.4-18.1,12.5-18.6,23.2c-0.5,10.6,5.2,26.8,21.3,26.9
			c14.1,0.1,22.8-14.1,22.1-24.3c-0.2-2.6,0-6.3,2.7-6.3c56.9-0.9,113.9-0.6,170.8,0.8c-0.4,4.8-0.8,9.5,0.1,14.1
			c1,4.6,6.4,14.7,20.5,15.3s21.2-19,21.6-28.6c6.3,1.3,12.9,2.7,19.2,1.1c6.3-1.6,12.1-7.2,11.7-13.6c-0.1-2.5-0.7-5.7,1.5-6.7
			c8.8-4,9.9-18.5,1.8-23.8c-2.5-1.6-2.8-5.1-2.9-8c-0.3-15.8-0.6-31.6-0.9-47.4c-0.2-7.6-0.5-15.8-5-21.9
			c-6.8-9.2-20.1-10.1-31.6-10c-56,0.1-112,0.2-168,0.3c-24.3,0-51.8,1.6-67.1,20.2C78,299.9,74.5,321.4,58,327.7
			c-12.7,4.9-13.6,24.3-25.5,30.7c-4.1,2.2-2.6,8.4,0.1,12C35.4,374.1,39,378.2,37.7,382.6z M112.2,404.6c-1.1,5.8-4,11.4-8.9,14.7
			c-2.2,1.5-4.7,2.4-7.3,2.8c-8.3,1.1-16.7-4.4-19.9-12.1c-3.2-7.7-1.7-16.9,3-23.8c3.1-4.7,7.8-8.6,13.4-9.3
			c6.6-0.9,13.3,2.9,16.8,8.5C112.9,391.1,113.5,398.2,112.2,404.6z M125.4,290.2c0-2.7,4.2-3.5,6.1-1.6c2,1.9,2.1,4.9,2.1,7.6
			c0.1,15.5,0.1,30.8,0.1,46.2c0,2.4,0,4.8-0.6,7.1c-0.6,2.5-1.9,4.7-3.1,6.9c-1.1,1.9-2.3,3.9-3.3,5.8c-0.3,0.5-1,1.2-1.4,0.7
			c-0.1-0.2-0.1-0.4-0.1-0.7C125.3,338.1,125.3,314.2,125.4,290.2z M129.7,369.3c8.1,0.1,16.1,0.2,24.2,0.3c1.2,0,2.5,0,3.4-0.7
			c1-0.6,1.3-2.3,0.4-3c-8.4,0-16.8,0-25.1,0.1c-1.2,0-2.3,0-3.2-0.7c-0.9-0.6-1.4-2-0.5-2.8c5-4.7,7.1-11.7,7.7-18.5
			c0.6-6.8-0.3-13.6-0.5-20.5c-0.2-6.8,0.3-13.5,0.7-20.3c0.4-6,0.3-12.9-4.3-16.7c-0.8-0.7,0.6-1.6,1.6-1.6
			c5.5-0.2,10.9-0.3,16.5-0.4c2.1-0.1,4.3-0.1,6.3,0.7c2,0.8,3.6,2.7,3.6,4.8c-1.3,26.4-1,52.9,0.8,79.2c0.1,1.6,0,3.4-1.2,4.3
			c-0.7,0.5-1.7,0.6-2.6,0.5c-9-0.1-17.9-0.2-27-0.2c-2.4-0.1-5.5-0.6-5.8-3C125.6,369.4,127.8,369.3,129.7,369.3z M125.3,378.5
			c0.7-1,2.1-1.1,3.3-1c9.7,0.1,19.3,0.2,28.9,0.2c1,0,2.1,0,2.9,0.5c0.8,0.5,1.5,1.6,1,2.5c-0.5,0.8-1.7,1-2.6,1.1
			c-9.2,0.5-18.6-0.2-27.8,0.6c-1.5,0.2-3,0.4-4.3-0.3C125.3,381.4,124.5,379.7,125.3,378.5z M159.9,390.7c-1.3,0.7-2.9,0.6-4.4,0.6
			c-8-0.4-15.9-0.2-23.9,0.3c-1.8,0.1-3.8,0.1-5.3-0.9c-1.5-1.1-2-3.7-0.4-4.5c0.7-0.4,1.3-0.4,2-0.4c9.9-0.1,19.6-0.1,29.5-0.1
			c1.3,0,2.9,0.1,3.7,1.2C162,388,161.1,389.9,159.9,390.7z M321.2,415.5c-4.2,5-11.4,7.3-17.7,5.6c-6.3-1.5-11.5-7-12.7-13.4
			c-0.6-3.6-0.1-7.4,0.8-10.9c1.2-4.3,3.1-8.5,5.9-11.8c2.8-3.3,6.9-5.8,11.3-6.2c8.4-0.7,16,6.7,17.4,15c0.3,1.9,0.4,3.9,0.3,5.8
			C326.3,405.3,325,411.3,321.2,415.5z M361.2,356.6c2.3-1,5.6,0.3,5.8,2.8c0.3,2.7,0.7,5.3,0.4,7.9c-0.3,2.6-1.8,5.3-4.3,6.2
			c-2.5,0.9-5.9-0.8-5.8-3.4c0-2.5-0.4-5,0-7.5C357.5,360.1,358.9,357.6,361.2,356.6z M33.4,362.5c0.5-1.5,1.1-2.9,2.1-4.1
			c2.1-2.2,5.9-2.4,8.2-0.5c0.3,0.3,0.7,0.6,1,1c0.8,1.1,1.4,2.3,1.6,3.6c0.6,3.8-1.9,7.9-5.6,8.7c-3.7,0.7-7.8-2.4-7.8-6.2
			C32.9,364.2,33.1,363.3,33.4,362.5z"/>
	</g>
	<path d="M155.2,63.8c3.2-5.7,7.9-10.8,14-12.9c6.2-2.1,13.8-0.5,17.4,5c0.7,1.1,2.3,1.3,3.5,0.9c1.2-0.4,2.3-1.2,3.4-1.9
		c4.9-2.8,11.8-1.5,15.3,3c5.8-4,13.2-5.6,20.2-4.4c7,1.2,13.4,5.2,17.6,10.9c0.6,0.8,1.2,1.7,1.2,2.7c0,1-0.7,2.1-1.8,2
		c-37.8-1.7-77,2.5-110.3,20.4c-1.8,1-3.7,2-5.7,1.7c3.2-7.4,7.3-15.7,15-18.2c1.3-0.4,2.7-0.7,3.9-1.3
		C151.9,70.3,153.5,66.8,155.2,63.8 M150.9,74.6c-7.1,0.8-13.6,5.8-16.2,12.4c20.5-10.7,43-17.5,66-19.8c2.6-0.3,5.1-0.5,7.7-0.7
		c3.1-0.3,6.2-0.5,9.4-0.7c8.5-0.7,17.2-1.3,25.6,0.5c-3.6-5.2-9.4-8.8-15.6-9.7c-6.2-0.9-12.8,1-17.7,5c-1.6,1.3-3.6-1-5.1-2.5
		c-3.4-3.6-10.3-3-12.9,1.2c-1,1.7-3.7,1.4-5.2,0.2c-1.6-1.2-2.5-3-3.9-4.5c-4.2-4.4-11.8-3.7-16.8-0.2c-5,3.5-8,9.1-10.9,14.5
		C154.1,72.4,152.9,74.3,150.9,74.6z"/>
	<path d="M298.8,114.2c3.8-4.2,8.3-7.9,13.6-10c5.3-2,11.5-2.3,16.6,0.2c2.8,1.4,5.2,3.6,7.1,6c7.9,10,8.3,23.7,8.3,36.4
		c0,1.4-0.1,2.9-1.2,3.7c-1.1,0.7-2.5,0.2-3.7-0.2c-25.1-9.7-52-14.3-78.9-13.7c-1.1,0-1-1.8-0.5-2.8c3.6-6.5,7.4-13.2,13.3-17.8
		c5.9-4.6,14.5-6.5,20.9-2.6C295.8,114.4,297.7,115.4,298.8,114.2 M270.8,122.5c-2.4,2.7-4.5,5.6-6.5,8.6c-0.5,0.7-0.9,1.6-0.4,2.3
		c0.4,0.6,1.2,0.7,2,0.7c24.4-0.1,48.9,4.1,71.9,12.2c1.8,0.6,2.8-2.1,2.8-4c-0.1-8-0.3-16.3-3.7-23.6c-3.3-7.3-10.5-13.4-18.5-12.8
		c-7.1,0.5-12.8,6-17.5,11.5c-0.8,1-1.7,2-2.8,2.4c-1.2,0.5-2.8,0.2-3.3-0.9c-2.2-4.2-7.8-5.7-12.4-4.5
		C277.7,115.6,274,118.9,270.8,122.5z"/>
</g>
<g>
</g>
<g>
</g>
<g>
</g>
<g>
</g>
<g>
</g>
<g>
</g>
<g>
</g>
<g>
</g>
<g>
</g>
<g>
</g>
<g>
</g>
<g>
</g>
<g>
</g>
<g>
</g>
<g>
</g>
</svg>
