<?xml version="1.0" encoding="utf-8"?>
<!-- Generator: Adobe Illustrator 18.1.0, SVG Export Plug-In . SVG Version: 6.00 Build 0)  -->
<!DOCTYPE svg PUBLIC "-//W3C//DTD SVG 1.1//EN" "http://www.w3.org/Graphics/SVG/1.1/DTD/svg11.dtd">
<svg version="1.1" id="Layer_1" xmlns="http://www.w3.org/2000/svg" xmlns:xlink="http://www.w3.org/1999/xlink" x="0px" y="0px"
	 width="800px" height="470px" viewBox="-199 166 800 470" enable-background="new -199 166 800 470" xml:space="preserve">
<g>
	<path id="label" d="M-140.9,409c-2.2-3.1-3.1-7-3.7-10.8c-1.7-9.9-2.2-20.1-1.6-30c0.5-8.2,1.8-16.7,5.9-24
		c7.6-13.8,23.2-21.2,38.4-25.3c16-4.2,32.6-5.9,49.1-7.4c51.5-4.2,103.3-6.2,154.9-5.6c8.4,0.1,16.9,0.3,24.9,2.8
		s15.5,7.7,18.6,15.3c2,4.6,2.1,9.6,2.5,14.4c0.4,8.3,0.8,16.8,1.2,25.2c0.7,14.1,0.2,30.9-11.6,38.9c-6.4,4.4-14.5,5-22.3,5.4
		c-73.3,4.4-146.9,8.8-220.3,10.2c-7.5,0.1-15,0.3-22.3-1.4C-132.5,415.8-137.8,413.5-140.9,409 M140.2,392.3
		c4.6-6.5,4.3-15.1,3.8-23.1c-0.5-9.3-1-18.7-1.5-28.1c-0.4-6.5-0.8-13.4-4.7-18.7c-6.3-8.8-18.8-10-29.7-10.3
		c-57.5-1.4-115,0.6-172.2,6c-18.4,1.8-37.5,4-53.5,12.9c-5.5,3.1-10.7,7-14.5,12c-10.6,13.7-9.7,32.6-7.5,49.6
		c0.6,4.7,1.3,9.6,4.3,13.3c4.9,6.2,14.1,6.8,21.9,6.8c53.5,0.2,107.1-2.8,160.5-5.8c20.9-1.2,41.9-2.4,62.8-3.5
		C121.1,402.8,133.8,401.3,140.2,392.3z"/>
	<path d="M163,289c4.7,14.7,6,30.3,7.1,45.6c1.5,24.3,1.8,49-3.4,72.8c-5.3,23.8-16.5,47-35,63.1c-12.3,10.8-27.5,18.1-42.9,23.7
		C70,501,50.4,505.4,30.4,507.4c-6.8,0.7-8.6,9.4-8.5,16.2c0.4,55.2,0.7,49.4,1.1,104.6c0,2.7-1.3,6.5-3.9,5.8
		c-1.7-0.5-2.1-2.7-2.1-4.5c-2.1-57.5-2.5-54-0.8-111.4c0.1-5.2-4.6-9.6-9.7-11c-5.1-1.4-10.5-0.4-15.8,0.5c-2,0.4-4.2,0.8-5.4,2.5
		c-1.1,1.4-1.1,3.4-1,5.2c1.5,58.5,1.7,56,0.7,114.5c-0.1,3.5-3.8,8.2-5.7,5.2c-0.3-60-0.5-59-0.8-119c0-5-1.2-11.4-6.3-12.2
		c-50.4-7.6-100.7-33.1-125.2-77.1c-26.7-48-17.5-110.1,13.2-156c20.8-31.2,50.9-56.5,86-70.7s75-17.2,111.4-7
		c30.8,8.6,58.9,26.4,79.6,50.5C148.4,256.9,157.7,272.3,163,289 M-145.7,292.9c-17.7,34.7-24.5,76.2-11.1,112.7
		c9.4,26,28.6,48,51.7,63.6s50.2,24.9,77.9,29.7c54.8,9.7,115.5,0.4,157.5-35.7c5.9-5.2,11.6-10.9,15.9-17.4
		c5.1-7.7,8.2-16.7,10.6-25.5c9.2-33,10.3-67.7,6.8-101.8c-1-9.4-2.3-19-5.3-28.1c-2.6-8.1-6.5-15.8-10.8-23.1
		c-22.6-37.1-61.7-64.1-104.9-72.3c-37.4-7-77.2-0.2-110.6,17.8S-128.7,259.3-145.7,292.9z"/>
	<g id="text">
		<path d="M-90,388.6c0.5,1.7,1.1,3.6,0.4,5.3c-0.7,1.7-3.2,2.5-4.3,1.2c-5.5-7.3-11.6-14.1-18-20.7c-1.5-1.6-4.3-3-5.5-1.2
			c-0.5,0.8-0.4,1.8-0.2,2.8c1.2,6.3,2.5,12.6,3.7,18.9c-1.2,1-3.2,0.5-4.2-0.7s-1.4-2.8-1.7-4.4c-2-9.9-3.8-19.8-5.8-29.7
			c-0.1-0.7-0.3-1.4,0-2.1c0.5-1.2,2.1-1.7,3.3-1.3c1.2,0.4,2.2,1.4,3.1,2.3c6.2,6.5,12.3,12.9,18.4,19.3c0.7,0.7,1.6,1.6,2.6,1.4
			c1.7-0.3,1.8-2.7,1.4-4.4c-1.3-6.5-1.6-13.2-1-19.8c0.2-2.2,1.5-5,3.7-4.4c1.8,0.5,1.8,3,1.6,4.8C-93.9,366.8-93.2,377.9-90,388.6
			z"/>
		<path d="M-25.6,380.8c4.9-0.3,9.9-0.6,14.9-1c1.2-0.1,2.5-0.2,3.7,0.3c1.1,0.5,2,1.7,1.7,2.9c-0.4,1.5-2.3,2-3.9,2.1
			c-6.3,0.7-12.7,1.3-19,2c-1.5,0.2-3.2,0.3-4.7-0.4c-2.2-1.2-3-4.1-2.7-6.5c0.2-2.5,0.8-5.1,0.1-7.5c-0.8-2.7-0.7-5.7-0.7-8.5
			c0.1-5.6,0.2-11.2,0.4-16.8c0-1.6,0.4-3.7,2-4.2c3.2-1,4.8,5.8,8,4.8c4.2-1.1,8.3-2.3,12.6-3.4c1.2-0.3,2.5-0.6,3.6,0.1
			c1.3,0.9,1.1,3,0,4.2c-1.1,1.1-2.7,1.5-4.3,1.9c-2.5,0.6-5.1,1.1-7.6,1.7c-2.1,0.5-4.3,1-6.2,2.3c-1.8,1.3-3.1,3.6-2.5,5.7
			c0.7,2.2,3.2,3.5,5.5,3.4c2.3,0,4.6-1.1,6.7-2.1c2.2-1.1,5.5-1.8,6.7,0.4c1.1,2.3-1.7,4.5-4.2,5.2c-2.7,0.8-5.7,1-8.4,1.9
			s-5.4,2.8-6,5.6C-30.6,377.7-28.5,381.1-25.6,380.8z"/>
		<path d="M3,347.9c2-1.1,4.2,1.2,5.3,3.2c3.2,5.4,6.5,11,9.7,16.6c0.9,1.5,2,3.2,3.6,3.9c1.6,0.7,4.1-0.3,4.1-2.1
			c0-5.4-0.1-11-0.1-16.6c0-1.7,0-3.5,0.3-5.2c1.7-1.1,4.2,0.2,4.9,2c0.8,1.9,0.5,4,0.2,5.9c-1,8.2-0.5,16.6-0.1,24.8
			c0.1,2.2-0.1,4.8-2.1,5.7c-2.1,0.8-4.2-1.1-5.5-2.8c-3.1-4-6.2-8.2-8.8-12.6c-0.8-1.3-1.6-2.5-2.8-3.4c-1.3-0.8-3.1-0.8-4.1,0.4
			C7,368.5,7,369.6,7,370.6c0.2,5,0.4,9.9,0.8,14.9c0.1,1.9-3,2.5-4.2,1.3c-1.4-1.3-1.5-3.4-1.6-5.3c-0.2-9.8-0.3-19.6-0.3-29.4
			C1.5,350.6,1.6,348.7,3,347.9z"/>
		<path d="M66.3,352.1c3.4-2.2,7.2-4.1,11.2-4.7c4.1-0.5,8.5,0.4,11.3,3.3c1.1,1.2,2,2.5,2.2,4.2c0.5,4-3.1,7.3-6.9,8.8
			c-1.3,0.5-2.6,1-3.6,2s-1.2,2.8-0.2,3.7c3.2,2.8,6.4,5.6,9.6,8.3c1,0.9,2,1.8,2.5,3.1s0.1,2.9-1,3.5c-1.5,0.8-3.2-0.5-4.4-1.7
			c-2-2-3.9-3.9-5.9-5.9c-1.7-1.7-4.8-3.5-6.5-1.7c-2.2,2.4,1.8,7.1-0.8,9.2c-1.2,0.9-3.1,0.3-3.9-1c-0.9-1.2-1-2.8-1.2-4.2
			C67.9,370.1,67,361.1,66.3,352.1 M72.5,358.7c0.3,2.2,3.1,3.4,5.3,2.9c2.2-0.5,3.9-2.2,5.4-3.9c0.6-0.6,1.1-1.2,1.2-2
			c0.2-1.8-2-2.9-3.7-3c-2.3-0.1-4.7,0.7-6.4,2.2C73.1,355.9,72.2,357.3,72.5,358.7z"/>
		<path d="M97.3,349.8c-0.8-1.1-1.5-2.4-0.9-3.6c0.5-1,2-1.3,3.1-1c1.1,0.4,2,1.2,2.8,2c1.5,1.5,3.1,3.1,4.7,4.6
			c1.5,1.5,3.3,3.1,5.4,2.8c1.3-0.2,2.3-1.1,3.3-1.9c4.2-3.6,8.4-7.1,12.7-10.6c1.7-1.5,4.4,1.1,3.9,3.3c-0.5,2.2-2.6,3.6-4.6,4.8
			c-4.9,3.2-10.1,7.9-9.6,13.8c0.4,4.7,0.9,9.3,1.3,14c0.1,1.4,0.2,2.8-0.2,4c-0.5,1.3-1.8,2.3-3.1,2.1c-1.8-0.3-2.5-2.4-2.7-4.2
			c-0.3-3.4,0.1-6.9-0.2-10.3c-0.3-3.4-1.5-7-4.4-8.9C104.3,357.6,100.4,354,97.3,349.8z"/>
		<path d="M53,362.3c1.1,7.5,1.3,15,0.4,22.5c-1.5,0.8-3.7-0.2-4.4-1.7c-0.9-1.5-0.9-3.4-0.9-5.1c-0.1-7.6-0.5-15.1-1.1-22.6
			c-0.1-1.1-0.2-2.3-1-3.1c-1.3-1.4-3.7-0.8-5.5-0.3c-2,0.5-4.4,0.3-4.9-1.5c-0.6-2.1,2.1-3.4,4.2-4c6.3-1.6,12.6-3.1,18.8-4.7
			c1.6-0.4,3.3-0.8,4.9-0.3s3,2.3,2.2,3.9c-1.1,2.3-4.6,1.2-7.2,1.6c-3.1,0.4-5.3,3.3-5.9,6.3C52,356.3,52.6,359.3,53,362.3z"/>
		<path d="M-76.3,388.3c-4.1-0.6-7-4.2-7.9-8.2c-0.8-3.9,0-8,1-11.8c1.1-4,3.2-8.6,7.4-8.8c1.5-0.1,3,0.4,4.2,1.1
			c4.2,2.2,7.4,6.5,8.1,11.1c0.8,4.7-0.8,9.7-4.2,13.2C-69.8,387.1-73,388.7-76.3,388.3 M-74.3,366.7c-2,0-3.6,1.9-4.2,3.9
			c-0.6,1.9-0.5,4-1.1,5.9c-0.9,3.1,3,6,5.9,5.2c3.1-0.9,4.8-4.4,4.7-7.6c-0.1-1.7-0.7-3.4-1.6-4.8
			C-71.3,367.9-72.7,366.7-74.3,366.7z"/>
	</g>
</g>
</svg>
