<?xml version="1.0" encoding="utf-8"?>
<!-- Generator: Adobe Illustrator 18.1.0, SVG Export Plug-In . SVG Version: 6.00 Build 0)  -->
<!DOCTYPE svg PUBLIC "-//W3C//DTD SVG 1.1//EN" "http://www.w3.org/Graphics/SVG/1.1/DTD/svg11.dtd">
<svg version="1.1" id="Layer_1" xmlns="http://www.w3.org/2000/svg" xmlns:xlink="http://www.w3.org/1999/xlink" x="0px" y="0px"
	 width="512px" height="200px" viewBox="0 164.8 512 200" enable-background="new 0 164.8 512 200" xml:space="preserve">
<g>
	<desc  xmlns:shape="http://adobe.com/products/shape">
		<shape:version>1.1.2</shape:version>
		<shape:captureDetail>0.750000</shape:captureDetail>
		<shape:source>1</shape:source>
	</desc>
	<path fill="#FFFFFF" d="M356.7,195c0.2-6.2,2.2-15.9,5.3-21.4c3.1-5.4,11.9-8,15.5-3c1.5,1.9,1.7,4.5,1.9,6.9
		c0.5,5-1.3,12.3-6.2,11.3c-1.4-2.1,4.5-8.3,3.2-12.5c-1.3-4.2-8.3-6.1-10-2c-4.6,11.3-6.5,23.7-5.3,35.9c5.9-2.6,19.3-6.8,18.8-1.5
		c-3.3,1.4-14.9,4.2-19.5,7.2c0.9,13.7,0.4,37.2-1,50.8c42,0.8,67,4.9,116.9,14c1.8,1.1,0.9,4.2-1,5.1c-1.9,1-4.1,0.5-6.1,0.1
		c-32.5-7.4-66.6-12.6-99.9-14.2c-6.6-0.3-10.4-0.3-10.4-0.3s-2.4,20.1-12,22.4c-5.4,1.2-11.7-2-12.6-7.4
		c-0.9-5.5,4.8-11.1,10.1-9.6c-2,3.2-6.3,4.9-6.8,8.8c1.5,5,9.5,4.8,12.7,0.7c3.2-4,5.1-9.9,4.6-15.2
		C238.4,274.7,121,305.4,18.1,360c-4.3,2.3-8.5,3.7-13,1.6c106.4-58,225.5-90,346.7-94.8c1.7-0.1,3.9-0.1,3.9-0.1s1.1-6.6,1.1-8.7
		c0.3-12.9,0-28.8-0.6-41.7c-2.8,0.3-7,1.2-10.3,2.6c-5.7,1.8-9.1,3.2-8.7-0.5c0.7-0.6,11.8-4.7,19.1-7
		C356.8,203.6,356.4,201.6,356.7,195z"/>
	<path fill="#FFFFFF" d="M42.6,197.7c-0.5,0.9-1.3,1.9-2.4,1.9c-1.1,0-2.2-1.2-1.5-2.1c2-3-0.4-7.5-4-8.2c-3.5-0.7-7.1,1.4-9,4.5
		c-1.9,3.1-2.3,6.7-2.4,10.3c-0.2,7.7,1,15.4,3.5,22.7c0.9,2.8,4,6,6.2,4.1c5.3-4.5,11-8.5,17.2-11.9c2,1.2,0.1,4.1-1.8,5.4
		c-5.4,3.8-10.9,7.7-16.3,11.5c-2.9,2-1.8,6.5-0.7,9.7c4.1,11.5,6.7,23.6,7.7,35.9c0.4,4.4,0.5,8.8-1,13c-1.5,4.2-4.9,7.8-9.1,8.5
		c-4.5,0.7-9.1-2.2-10.9-6.3c-1.8-4.1-0.7-9.3,2.2-12.7c0.7-0.8,1.5-1.6,2.6-1.5c1,0.1,2,1.4,1.2,2.1c-2,2.2-3.2,5.1-2.7,8.1
		c0.4,2.9,2.7,5.6,5.7,6c3.3,0.4,6.4-2.1,7.7-5.1c1.3-3.1,1.2-6.5,1-9.8c-1-13.5-3.8-26.8-8.3-39.5c-0.2-0.6-0.5-1.3-1-1.7
		c-1.4-1.3-3.6-0.3-5.2,0.6c-4.9,2.9-9.8,5.8-14.6,8.8c-1-0.8-2-1.6-3-2.4c5.7-3.7,11.6-7.3,17.3-11c2.1-1.3,4.6-3.4,3.7-5.8
		c-2.1-6.7-3.6-13.6-4.6-20.5c-0.8-5.9-1.1-12,1.1-17.4c2.3-5.4,7.5-10.1,13.3-9.7C40.2,185.7,45.2,192.6,42.6,197.7z"/>
	<path fill="#FFFFFF" d="M133,195.7c0.3-4.3,0.8-8.7,3.1-12.5c2.2-3.7,6.5-6.5,10.8-5.7c6.8,1.3,9,10.4,7,17c-0.4,1.5-1.5,3.2-3,3.1
		c-2,0-2.6-2.9-1.9-4.7c0.7-1.8,2.4-3.3,2.7-5.3c0.6-3.3-3-6.3-6.3-6c-3.3,0.3-6.1,3.1-7.2,6.1c-1.3,3.1-1.3,6.6-1.4,9.9
		c0,3.6-0.1,7.1-0.2,10.7c-0.1,3.2,1.5,7.8,4.6,6.8c3.7-1.3,7.5-2.5,11.2-3.8c1.2-0.4,2.5-0.8,3.6-0.4c1.1,0.4,2,1.9,1.2,2.8
		c-4.5,1.6-9,3.1-13.5,4.7c-3.2,1.1-7,3.2-6.5,6.5c2.5,19.3,2.9,38.9,1.6,58.4c-0.4,4.7-4.9,8.7-9.6,8.4c-4.7-0.3-8.7-4.9-8.4-9.6
		c0.3-4.7,4.8-8.8,9.5-8.5c0.5,3.7-5.2,5.5-5.7,9.2c-0.4,2.7,2.6,5.1,5.3,4.7c2.7-0.4,4.9-2.7,5.8-5.4c0.9-2.6,0.8-5.4,0.6-8.1
		c-0.6-16.6-1.4-33.3-2-49.9c-2.1-1.7-5.1-0.2-7.7,0.7c-2.6,0.9-6.6,0-6.1-2.7c2.9-0.3,6-0.8,8.5-2.2c2.5-1.4,4.7-4.1,4.5-7.1
		C132.7,207.2,132.6,201.4,133,195.7z"/>
	<path fill="#FFFFFF" d="M275.9,255.4c-0.9-9.2-1.4-18.5-1.4-27.7c0-2-0.6-4.7-2.6-4.7c-0.9,0-1.6,0.6-2.3,1.1
		c-9,7.8-11.9,20.5-13.5,32.3c-0.2,1.4-2.5,1.6-3.5,0.5s-0.9-2.8-0.8-4.3c1.7-22.9,3.4-45.8,5.2-68.7c0.1-1,0.3-2.3,1.3-2.7
		c1.8-0.7,2.7,2.1,2.6,3.9c-0.9,13.7-1.9,27.3-2.8,41c-0.1,0.8-0.1,1.7,0.4,2.4c0.4,0.7,1.6,0.9,2.1,0.2c3.4-5.4,7.9-10.1,13-13.7
		c0.6-0.4,1.4-0.9,2.1-0.8c1.6,0.1,2.1,2.2,2.2,3.8c0.7,13.2,1.3,26.4,1.9,39.6c0.1,1.2-1.7,1.6-2.6,0.9
		C276.2,257.8,276.1,256.5,275.9,255.4z"/>
	<path fill="#FFFFFF" d="M313.9,247.9c0.8-1.1,2.7-0.3,3,1.1c0.3,1.3-0.7,2.5-1.7,3.4c-3.1,2.6-7.7,3.2-11.5,2
		c-4-1.1-7.3-3.8-9.9-6.9c-1.5-1.7-2.9-3.6-4.5-5.1c-2.6-2.3-6.4-4-6.8-7.4c-0.4-1,0.9-1.8,1.9-1.5s1.7,1.2,2.6,1.8
		c0.9,0.5,2.5,0.2,2.5-0.8c0.3-7.8,3.5-15.6,9-21.2c3.8-4,10-7,14.9-4.4c3.3,1.8,4.9,5.7,4.7,9.4c-0.1,3.7-1.9,7.2-4.1,10.2
		c-3,4.2-7,7.8-11.4,10.5c-2.4,1.4-5.2,2.6-7.2,4.7c2.5,2.7,5.2,5.4,8.6,6.6C307.4,251.5,311.9,250.9,313.9,247.9 M310.5,211.7
		c-1.6-0.4-3.4,0.3-4.9,1.2c-7.4,4.4-11.8,12.8-12.3,21.5c-0.1,2.2,0.4,4.2,0.4,4.2s3.2-1.2,4.5-2c5.7-3.3,10.4-8.1,13.6-13.7
		c1.1-1.9,2-4,2-6.2C314.1,214.4,312.7,212.2,310.5,211.7z"/>
	<path fill="#FFFFFF" d="M478.1,244.2c1.4-0.9,1.5-2.8,1.6-4.4c0.5-5.1,2.2-10.1,5-14.5c2.5-3.9,7.1-7.6,11.4-6
		c2.9,1.1,4.6,4.1,5.1,7.1c1.3,6.1-1.2,12.9-6.3,16.6c-3,2.2-6.8,3.5-9.2,6.3c2.7,2.5,5.7,5,9.3,6.1c3.6,1.1,7.8,1.1,10.7-1.2
		c1.2-0.9,2.9,0.7,2.7,2.1c-0.2,1.4-1.6,2.4-3,2.9c-3.8,1.6-8.3,1.4-12.2-0.2s-7.2-4.2-10-7.3c-2.4-2.7-6.4-3-9.9-4.1
		c-3.4-1-7.1-4-6.3-7.5c2-0.7,3.8,0.9,5.4,2.3C474.2,244,476.5,245.4,478.1,244.2 M489.7,241.2c4.6-2.9,8.3-7.9,8-13.3
		c-0.1-1.9-1-4-2.8-4.4c-1.4-0.2-2.7,0.6-3.7,1.6c-3.9,3.6-6.6,8.5-7.5,13.8c-0.1,0.6-0.4,5.9-0.4,5.9S488.7,241.9,489.7,241.2z"/>
	<path fill="#FFFFFF" d="M393.3,241.6c0,1.7,0,3.5,0.8,5.1c0.8,1.6,2.5,2.8,4.2,2.4c1.3-0.3,2.6,1.1,2.4,2.4
		c-0.1,1.3-1.4,2.4-2.7,2.5c-1.3,0.2-2.6-0.3-3.7-0.9c-1.9-1.1-3.2-3-3.9-5c-0.6-1.6-3.1-1.4-4.2-0.1s-1.7,3-2.9,4.1
		c-2,1.9-5.4,1.5-7.5-0.2c-2.2-1.7-3.2-4.5-3.8-7.1c-1.6-7.4-0.1-15.2,1.8-22.7c0.4-1.5,1.1-3.3,2.6-3.6c2.1,1.5,1.4,4.6,0.7,7.1
		c-1.5,5.3-2,10.9-1.7,16.4c0.1,1.8,0.4,3.8,1.6,5.1s3.8,1.5,4.8,0c4.5-7.3,7.8-15.5,9.7-23.8c0.6-2.6,1.8-6,4.5-5.8
		c1.2,2.4,0.3,5.5-0.3,8.1C394.3,230.8,393.5,236.2,393.3,241.6z"/>
	<path fill="#FFFFFF" d="M212.6,219.1c3.9,0.3,7.9,0.4,11.8,0.1c2.6-0.2,5.6-0.7,7-3c0.8-1.3,1-3,1-4.6c0.2-4.4,0.3-8.8,0.5-13.2
		c0-1.4,0.2-2.9,0.9-4.1c0.8-1.1,2.5-1.8,3.7-1c-0.4,5.6-0.7,11.2-1.1,16.9c-0.1,1.4-0.2,3.1,0.9,4.2c1.6,1.5,4.2,0.4,6.3-0.5
		c2.1-1,5.1-1.3,5.9,0.8c-2.1,4.6-10.3,2.9-12.7,7.3c-0.7,1.1-0.8,2.5-0.8,3.8c-0.8,10.8-1.5,21.8-2.4,32.6
		c-3.2-0.2-3.9-4.4-3.6-7.6c0.7-8.4,1.4-16.9,2.1-25.2c0.1-1.7-1.6-3-3.3-3.2c-1.7-0.1-3.3,0.5-5,1.1
		C219.5,224.6,213.7,223.5,212.6,219.1z"/>
	<path fill="#FFFFFF" d="M79,209.8c-0.2-1.6-0.2-3.4,0.9-4.5c1.2-1.2,3.7-0.5,3.4,1.2c-0.5,2.5-1,5.1-0.4,7.7
		c0.6,2.5,2.7,4.9,5.3,4.9c1.5,0,2.8-0.7,4.2-1.2c1.4-0.5,3.1-0.6,4.2,0.3s0.8,3.3-0.7,3.3c-2.5,0.2-5.2,0.3-7.4,1.5
		c-2.3,1.1-4.2,3.4-4,6c0.7,12.2,1.5,24.4,2.2,36.4c0,1,0.1,2.1-0.4,3c-0.5,0.9-1.6,1.6-2.6,1c-0.8-0.5-1-1.7-1-2.7
		c-0.6-12.7-1.2-25.3-1.8-38c-0.1-1.8-2.2-2.7-4-2.5c-1.8,0.3-3.2,1.2-5,1.7c-1.6,0.6-3.8,0.4-4.7-1.2c2.6-4,10.1-2.8,12-7.2
		c0.5-1.3,0.4-2.7,0.3-4.2C79.4,213.6,79.2,211.7,79,209.8z"/>
	<path fill="#FFFFFF" d="M166.9,254.1c-1.4,2.4-3.3,4.5-5.8,5.8c-2.4,1.3-5.4,1.5-7.9,0.3s-4.1-3.6-4.8-6.2s-0.5-5.4-0.3-8
		c0.7-6.4,2.3-12.8,5.3-18.6c0.9-1.8,2.1-3.7,3.8-5.1c1.6-1.4,3.9-2,6-1.3c2.5,0.9,3.9,3.5,4.8,6.1
		C171.2,235.9,171.6,246.1,166.9,254.1 M157.6,257.1c4.3-2.1,7.2-6.4,8.4-11.1c1.2-4.7,0.8-9.5-0.2-14.2c-0.4-1.7-0.7-3.4-1.7-4.7
		c-0.4-0.7-1.2-1.3-2-1.5c-1.5-0.3-2.9,0.8-3.8,2c-2.8,3.4-4.1,7.9-5.2,12.2c-0.9,3.2-1.7,6.6-1.3,9.9
		C152.3,252.9,154.3,256.2,157.6,257.1z"/>
	<path fill="#FFFFFF" d="M199.7,208.9c1.3,1.3-0.4,3.3-1.7,4.5c-4.6,3.7-8.8,8.1-12.1,13c-2.4,3.3-4.4,7.2-4,11.3
		c0.6,6.7,1.1,13.5,1.7,20.1c0.2,1.4-0.1,3.3-1.4,3.7c-1.8,0.5-2.7-2-2.8-3.9c-0.8-13.1-1.6-26.3-2.4-39.3c0.8-1.4,3-0.2,3.9,1
		c1.1,1.3,3,2.6,4,1.3c3.1-4,6.9-7.8,10.8-11C196.8,208.7,198.6,207.8,199.7,208.9L199.7,208.9z"/>
	<path fill="#FFFFFF" d="M417.5,195.9c1.5-0.6,3,1.2,2.9,2.8c0,1.6-1,3-1.5,4.5c-0.6,1.5-0.8,4.3,0.4,5.5c1.5,1.3,3.6-0.5,5.6-0.6
		c2-0.2,4.5,1.5,3.4,3.2c-0.6,0.8-1.7,1-2.7,1c-4,0.3-9,1.7-9.6,5.7c-1.4,11-2.8,21.9-4.3,32.9c-0.2,1-0.4,2.1-1.3,2.5
		c-1.7,0.6-2.5-2-2.3-3.8c1-10.3,2.3-20.5,3.9-30.7c0.2-1.7-1.7-2.9-3.4-2.9c-1.7,0.1-3.3,0.8-5,1c-1.7,0.2-3.7-0.7-3.8-2.4
		c3.2-2.8,9.5-1.7,12.8-4.4c3.3-2.6,2.2-7.5,3.1-11.6C416.1,197.4,416.6,196.2,417.5,195.9z"/>
	<path fill="#FFFFFF" d="M430.1,221.3c2,0.3,1.9,3.2,1.4,5.1c-1.6,6-2.5,12.2-2.4,18.4c0,1.4,0.1,2.9,1.2,3.8c1.1,1,3,0.7,4.2-0.4
		s1.7-2.5,2.2-3.9c2.3-6.6,3.6-13.6,3.9-20.6c0.1-1,0.1-2,0.6-2.8c0.5-0.8,1.7-1.4,2.5-0.8c0.8,0.6,0.8,1.7,0.7,2.6
		c-0.5,7-1.6,14.1-3.2,21c-0.7,2.7-1.4,5.6-3.2,7.7c-1.7,2.2-4.7,3.7-7.5,2.8c-2.8-0.9-4.5-4.1-5-7.1c-0.7-3.9-0.2-7.9,0.3-11.8
		c0.4-3.4,0.9-6.7,1.3-10.2C427.4,223.5,428.3,221.1,430.1,221.3z"/>
	<path fill="#FFFFFF" d="M456.8,222.9c2,1.3,4.6,0.2,6.5-1.2c1.8-1.5,3.6-3.4,5.8-3.8c1.2-0.3,2.4,0,3.1,1c0.7,0.9,0.6,2.5-0.5,3
		c-10,4.5-16.8,15.8-16.1,26.9c0.1,1.8,0.4,3.7-0.8,5.1c-1.1,1.4-4.1,1-3.8-0.8c0.9-9.9,1.7-19.9,2.7-29.8c0.1-0.5,0.2-1,0.4-1.3
		C455,221.3,455.9,222.3,456.8,222.9z"/>
	<path fill="#FFFFFF" d="M54.2,203.4c-0.4,1.8,1.7,3.7,3.5,3.1c1.8-0.6,2.5-3.3,1-4.6C57.3,200.6,54.6,201.5,54.2,203.4z"/>
	<path fill="#FFFFFF" d="M59.7,235.7c1.3,10.7,2.5,21.3,3.8,32.1c0.3,2.2,0.3,4.9-1.6,6.1c-1.8-1.6-2.1-4.2-2.4-6.6
		c-0.3-3.1-0.7-6.2-1.1-9.3c-0.9-7.8-1.8-15.6-2.7-23.4c0-0.6-0.2-1.3,0.2-1.8c0.6-0.8,2.1-0.7,2.7,0.2
		C59.4,233.5,59.6,234.6,59.7,235.7z"/>
</g>
</svg>
