<?xml version="1.0" encoding="utf-8"?>
<!-- Generator: Adobe Illustrator 17.1.0, SVG Export Plug-In . SVG Version: 6.00 Build 0)  -->
<!DOCTYPE svg PUBLIC "-//W3C//DTD SVG 1.1//EN" "http://www.w3.org/Graphics/SVG/1.1/DTD/svg11.dtd">
<svg version="1.1" id="Layer_1" xmlns="http://www.w3.org/2000/svg" xmlns:xlink="http://www.w3.org/1999/xlink" x="0px" y="0px"
	 viewBox="0 0 160 68" enable-background="new 0 0 160 68" xml:space="preserve">
<g>
	<g>
		<g>
			<path fill="#2773BA" d="M51.043,25.211h3.953v25.48h-3.953V25.211z"/>
			<path fill="#2773BA" d="M58.792,25.246h3.811v4.192c1.834-3.52,4.875-4.244,10.322-4.244c8.096,0,11.379,2.028,11.379,8.248
				v3.279h-3.667v-2.314c0-4.489-1.783-5.55-8.679-5.55c-6.266,0-9.163,1.736-9.163,6.076v15.75h-4.004V25.246z"/>
			<path fill="#2773BA" d="M88.391,25.259h3.958v25.456h-3.958V25.259z"/>
			<path fill="#2773BA" d="M96.603,32.378c0-5.304,2.938-7.136,10.753-7.136h7.044c7.57,0,11.231,1.691,11.231,5.981v1.637h-3.757
				v-1.007c0-2.61-2.655-2.995-8.874-2.995h-3.859c-6.753,0-8.632,0.242-8.632,3.52c0,3.375,1.975,3.619,8.632,3.619l6.753-0.052
				c4.435,0,7.285,0.096,9.019,1.879c1.686,1.69,1.686,3.62,1.686,6.37c0,5.258-3.566,6.51-11.092,6.51h-9.984
				c-6.366,0-8.918-2.167-9.017-8.923h3.57c0,0.144,0,0.291,0,0.441c0,4.333,1.539,4.764,6.318,4.764h11.09
				c4.247,0,5.065-0.526,5.065-4.046c0-2.701-1.112-3.612-5.017-3.612h-10.175C99.155,39.329,96.603,38.41,96.603,32.378z"/>
			<path fill="#2773BA" d="M130.013,32.378c0-5.304,2.938-7.136,10.749-7.136h7.04c7.574,0,11.235,1.691,11.235,5.981v1.637h-3.759
				v-1.007c0-2.61-2.651-2.995-8.872-2.995h-3.857c-6.751,0-8.634,0.242-8.634,3.52c0,3.375,1.979,3.619,8.634,3.619l6.751-0.052
				c4.437,0,7.283,0.096,9.017,1.879c1.684,1.69,1.684,3.62,1.684,6.37c0,5.258-3.564,6.51-11.084,6.51h-9.984
				c-6.364,0-8.918-2.167-9.019-8.923h3.568c0,0.144,0,0.291,0,0.441c0,4.333,1.541,4.764,6.32,4.764h11.09
				c4.244,0,5.063-0.526,5.063-4.046c0-2.701-1.11-3.612-5.009-3.612h-10.183C132.568,39.329,130.013,38.41,130.013,32.378z"/>
		</g>
	</g>
	<path fill="#AB9ECD" d="M18.861,25.255"/>
	<path fill="#B1BE2D" d="M25.61,17.071c0.001,3.376,1.983,6.115,4.421,6.115c2.442-0.001,4.419-2.738,4.418-6.118
		c0-3.369-1.982-6.103-4.421-6.102C27.593,10.967,25.608,13.703,25.61,17.071z"/>
	<path fill="#8AA2D3" d="M20.972,28.338c1.287,2.74,1.91,5.988,1.621,9.409c-0.483,5.689-3.241,10.412-7.183,12.991
		c0,0-1.327,0.769-1.809,1.11c-0.594,0.409-1.083,0.991-1.109,1.762c-0.018,0.747,0.355,1.405,0.937,1.786
		c0.162,0.108,0.346,0.193,0.535,0.249c0.035,0.01,0.281,0.076,0.376,0.092c0.249,0.036,0.51,0.054,0.775,0.036
		c3.552-0.203,7.111-3.46,9.852-9.087c2.885-5.932,6.759-5.68,9.317-3.171c2.574,2.521,6.847,9.091,3.795,20.292
		c-0.239,0.869-0.189,1.86,0.277,2.414c0.556,0.662,1.64,0.779,2.523,0.265c2.825-1.638,3.34-6.306,3.58-7.618
		c1.357-7.508-1.652-14.277-3.237-17.151c-0.909-1.646-1.873-4.15-2.818-6.821c-1.142-3.245-0.499-6.203,1.174-9.685
		c2.634-5.49,7.432-8.56,7.829-8.848c0.786-0.569,1.173-0.991,1.232-1.842c0.056-0.742-0.302-1.28-0.864-1.695
		c-0.149-0.114-0.332-0.208-0.52-0.274c-0.032-0.015-0.278-0.092-0.366-0.11c-0.252-0.053-0.508-0.083-0.777-0.083
		c-3.558,0.01-7.139,3.057-10.185,8.522c-3.208,5.771-7.202,5.32-9.627,2.677c-2.427-2.662-6.339-9.455-2.678-20.474
		c0.283-0.852,0.291-1.846-0.145-2.423c-0.517-0.695-1.597-0.859-2.502-0.402c-2.91,1.481-3.683,6.117-3.992,7.414
		c-1.764,7.419,0.953,14.305,2.299,17.301c0.435,0.973,1.035,2.042,1.619,3.219L20.972,28.338z"/>
	<path fill="#2773BA" d="M32.732,45.1c-0.685-0.67-1.43-1.044-2.095-1.044c-1.218,0-2.562,1.313-3.674,3.6
		c-0.619,1.27-1.283,2.436-1.975,3.488c2.007,0.297,3.979,0.237,5.703-0.345c1.788-0.638,3.283-1.618,4.368-2.479
		C34.208,46.684,33.267,45.626,32.732,45.1z M18.911,29.166c-0.232-0.446-0.455-0.891-0.678-1.314
		c-0.352-0.685-0.69-1.331-0.976-1.976c-0.077-0.17-0.151-0.34-0.227-0.518c-1.218-2.251-1.879-3.619-2.667-5.796
		c-1.671-4.567-1.14-10.38-1.14-10.38c0.172-1.179,0.034-1.992-0.416-2.571c-0.683-0.867-1.997-0.894-3.092,0.239
		c-1.85,1.929-1.811,7.854-1.811,7.854c0.48,7.718,2.516,12.796,4.44,15.811c-0.056-0.01-2.94-2.728-4.434-5.54
		c-1.375-2.446-2.248-4.754-2.248-4.754c-0.326-0.888-0.806-1.606-1.451-1.952c-0.98-0.514-2.193-0.229-2.613,1.024
		c-0.798,2.382,1.724,7.764,1.724,7.764c3.072,5.909,6.095,9.3,8.734,11.54c0.001,0.012,0.001,0.022,0,0.034
		c-3.679-1.985-7.826-6.584-7.826-6.584c-0.625-0.688-1.268-1.236-1.934-1.423C1.123,30.313,0.057,30.938,0,32.517
		c-0.05,2.623,4.054,7.08,4.054,7.08c3.894,3.793,7.102,5.996,10.29,7.799c0.059,0.032,0.519,0.247,1.11,0.534
		c2.762-2.392,4.572-6.157,4.927-10.364c0.244-2.922-0.245-5.779-1.412-8.268L18.911,29.166z"/>
</g>
</svg>
